G04 #@! TF.GenerationSoftware,KiCad,Pcbnew,(6.0.0)*
G04 #@! TF.CreationDate,2022-05-03T02:07:06-05:00*
G04 #@! TF.ProjectId,Materiales ESP32,4d617465-7269-4616-9c65-732045535033,rev?*
G04 #@! TF.SameCoordinates,Original*
G04 #@! TF.FileFunction,Copper,L2,Bot*
G04 #@! TF.FilePolarity,Positive*
%FSLAX46Y46*%
G04 Gerber Fmt 4.6, Leading zero omitted, Abs format (unit mm)*
G04 Created by KiCad (PCBNEW (6.0.0)) date 2022-05-03 02:07:06*
%MOMM*%
%LPD*%
G01*
G04 APERTURE LIST*
G04 #@! TA.AperFunction,ComponentPad*
%ADD10R,1.700000X1.700000*%
G04 #@! TD*
G04 #@! TA.AperFunction,ComponentPad*
%ADD11O,1.700000X1.700000*%
G04 #@! TD*
G04 #@! TA.AperFunction,ComponentPad*
%ADD12C,0.700000*%
G04 #@! TD*
G04 #@! TA.AperFunction,ComponentPad*
%ADD13O,2.000000X1.200000*%
G04 #@! TD*
G04 #@! TA.AperFunction,ComponentPad*
%ADD14O,1.500000X1.200000*%
G04 #@! TD*
G04 #@! TA.AperFunction,ViaPad*
%ADD15C,0.800000*%
G04 #@! TD*
G04 #@! TA.AperFunction,Conductor*
%ADD16C,0.400000*%
G04 #@! TD*
G04 #@! TA.AperFunction,Conductor*
%ADD17C,0.250000*%
G04 #@! TD*
G04 APERTURE END LIST*
D10*
X220125000Y-99225000D03*
D11*
X222665000Y-99225000D03*
X225205000Y-99225000D03*
X227745000Y-99225000D03*
X230285000Y-99225000D03*
X232825000Y-99225000D03*
X235365000Y-99225000D03*
X237905000Y-99225000D03*
D12*
X173632500Y-116140000D03*
X173632500Y-110360000D03*
D13*
X174162500Y-108930000D03*
D14*
X169952500Y-108930000D03*
X169952500Y-117570000D03*
D13*
X174162500Y-117570000D03*
D10*
X178825000Y-88625000D03*
D11*
X181365000Y-88625000D03*
X183905000Y-88625000D03*
X186445000Y-88625000D03*
X188985000Y-88625000D03*
X191525000Y-88625000D03*
X194065000Y-88625000D03*
X196605000Y-88625000D03*
X199145000Y-88625000D03*
X201685000Y-88625000D03*
X204225000Y-88625000D03*
X206765000Y-88625000D03*
X209305000Y-88625000D03*
X211845000Y-88625000D03*
X214385000Y-88625000D03*
X216925000Y-88625000D03*
X219465000Y-88625000D03*
X222005000Y-88625000D03*
X224545000Y-88625000D03*
X227085000Y-88625000D03*
X229625000Y-88625000D03*
X232165000Y-88625000D03*
X234705000Y-88625000D03*
D10*
X171275000Y-95450000D03*
D11*
X171275000Y-97990000D03*
X171275000Y-100530000D03*
X171275000Y-103070000D03*
D15*
X176000000Y-91500000D03*
X178750000Y-108000000D03*
X174500000Y-101250000D03*
X174500000Y-98500000D03*
X200125000Y-117899598D03*
X204750000Y-115500000D03*
X194250000Y-121500000D03*
X186250000Y-109500000D03*
X180000000Y-103250000D03*
X220250000Y-125000000D03*
X215737701Y-121237701D03*
X199000000Y-120500000D03*
X192000000Y-123750000D03*
X211500000Y-109750000D03*
X212000000Y-107250000D03*
X209250000Y-106250000D03*
X211737701Y-103237701D03*
X187750000Y-91000000D03*
X190250000Y-95250000D03*
X237512299Y-95487701D03*
X201000000Y-119750000D03*
X228000000Y-115750000D03*
X219500000Y-114000000D03*
X179000000Y-97500000D03*
X180250000Y-98500000D03*
X194250000Y-113500000D03*
X191031783Y-102243394D03*
X193277631Y-113972369D03*
X190053197Y-102446803D03*
X190750000Y-124500000D03*
X215500000Y-124500000D03*
X232500000Y-120500000D03*
X222250000Y-110750000D03*
X224250000Y-114250000D03*
X187000000Y-121000000D03*
X185934668Y-118934668D03*
X178599952Y-111624550D03*
X172000000Y-112000000D03*
X178000000Y-115000000D03*
X192012299Y-120987701D03*
X190000000Y-123000000D03*
X180000000Y-118000000D03*
X185000000Y-93000000D03*
X192140332Y-113859668D03*
X181215821Y-96784179D03*
X221000000Y-107000000D03*
X229065332Y-107065332D03*
X219012299Y-106012299D03*
X231000000Y-106000000D03*
X217000000Y-107000000D03*
X232000000Y-105000000D03*
X202000000Y-105000000D03*
X207000000Y-108000000D03*
X192012299Y-97987701D03*
X193012299Y-98987701D03*
X182000000Y-115000000D03*
X194012299Y-99987701D03*
X196000000Y-101000000D03*
X231000000Y-102000000D03*
X177000000Y-95000000D03*
X199000000Y-111000000D03*
X188000000Y-95000000D03*
X200000000Y-112000000D03*
X201000000Y-114000000D03*
X199000000Y-95000000D03*
X203000000Y-104000000D03*
X201980244Y-99974232D03*
X206000000Y-106000000D03*
X223000000Y-101000000D03*
X199000000Y-118000000D03*
X225000000Y-102000000D03*
X218000000Y-117000000D03*
X217000000Y-119000000D03*
X232000000Y-96000000D03*
X232000000Y-98000000D03*
D16*
X176500000Y-91000000D02*
X176000000Y-91500000D01*
X187750000Y-91000000D02*
X176500000Y-91000000D01*
D17*
X178750000Y-108000000D02*
X176000000Y-108000000D01*
D16*
X174500000Y-98500000D02*
X174500000Y-101250000D01*
X192774511Y-89874511D02*
X191525000Y-88625000D01*
X200435489Y-89874511D02*
X192774511Y-89874511D01*
X201685000Y-88625000D02*
X200435489Y-89874511D01*
X202524598Y-115500000D02*
X200125000Y-117899598D01*
X204750000Y-115500000D02*
X202524598Y-115500000D01*
X195250000Y-120500000D02*
X199000000Y-120500000D01*
X192000000Y-123750000D02*
X195250000Y-120500000D01*
X180000000Y-103250000D02*
X186250000Y-109500000D01*
X216487701Y-121237701D02*
X220250000Y-125000000D01*
X215737701Y-121237701D02*
X216487701Y-121237701D01*
X236630000Y-100500000D02*
X237905000Y-99225000D01*
X229069809Y-102799511D02*
X231369320Y-100500000D01*
X218450489Y-102799511D02*
X229069809Y-102799511D01*
X231369320Y-100500000D02*
X236630000Y-100500000D01*
X211500000Y-109750000D02*
X218450489Y-102799511D01*
X212000000Y-107250000D02*
X212000000Y-109250000D01*
X209250000Y-105725402D02*
X209250000Y-106250000D01*
X211737701Y-103237701D02*
X209250000Y-105725402D01*
X212000000Y-109250000D02*
X211500000Y-109750000D01*
X190250000Y-93500000D02*
X190250000Y-95250000D01*
X187750000Y-91000000D02*
X190250000Y-93500000D01*
X237512299Y-95487701D02*
X237512299Y-98832299D01*
X237512299Y-98832299D02*
X237905000Y-99225000D01*
D17*
X224000000Y-119750000D02*
X201000000Y-119750000D01*
X228000000Y-115750000D02*
X224000000Y-119750000D01*
X194088793Y-118724511D02*
X191432141Y-116067859D01*
X219500000Y-114000000D02*
X214775489Y-118724511D01*
X214775489Y-118724511D02*
X194088793Y-118724511D01*
X191432141Y-116067859D02*
X191563803Y-116199520D01*
X179000000Y-103635718D02*
X191432141Y-116067859D01*
X194250000Y-115000000D02*
X194250000Y-113500000D01*
X193050480Y-116199520D02*
X194250000Y-115000000D01*
X191563803Y-116199520D02*
X193050480Y-116199520D01*
X179000000Y-97500000D02*
X179000000Y-103635718D01*
X193277631Y-115222369D02*
X193277631Y-113972369D01*
X190750000Y-114750000D02*
X191750000Y-115750000D01*
X180250000Y-98500000D02*
X190750000Y-109000000D01*
X192750000Y-115750000D02*
X193277631Y-115222369D01*
X190750000Y-109000000D02*
X190750000Y-114750000D01*
X191750000Y-115750000D02*
X192750000Y-115750000D01*
X194250000Y-105461611D02*
X191031783Y-102243394D01*
X194250000Y-113500000D02*
X194250000Y-105461611D01*
X193277631Y-105671237D02*
X193277631Y-113972369D01*
X190053197Y-102446803D02*
X193277631Y-105671237D01*
X185500000Y-95000000D02*
X177000000Y-95000000D01*
X186250000Y-95750000D02*
X185500000Y-95000000D01*
X187750000Y-95750000D02*
X186250000Y-95750000D01*
X199000000Y-107000000D02*
X187750000Y-95750000D01*
X199000000Y-111000000D02*
X199000000Y-107000000D01*
X215500000Y-124500000D02*
X190750000Y-124500000D01*
X222250000Y-112250000D02*
X222250000Y-110750000D01*
X224250000Y-114250000D02*
X222250000Y-112250000D01*
X185934668Y-119934668D02*
X187000000Y-121000000D01*
X185934668Y-118934668D02*
X185934668Y-119934668D01*
X178599952Y-112400048D02*
X178000000Y-113000000D01*
X178599952Y-111624550D02*
X178599952Y-112400048D01*
X178000000Y-113000000D02*
X178000000Y-115000000D01*
X192012299Y-120987701D02*
X190000000Y-123000000D01*
X180000000Y-112000000D02*
X180000000Y-118000000D01*
X176000000Y-108000000D02*
X180000000Y-112000000D01*
X176000000Y-94975386D02*
X176000000Y-108000000D01*
X177975386Y-93000000D02*
X176000000Y-94975386D01*
X185000000Y-93000000D02*
X177975386Y-93000000D01*
X192140332Y-107708690D02*
X192140332Y-113859668D01*
X181215821Y-96784179D02*
X192140332Y-107708690D01*
X221065332Y-107065332D02*
X221000000Y-107000000D01*
X229065332Y-107065332D02*
X221065332Y-107065332D01*
X219024598Y-106000000D02*
X219012299Y-106012299D01*
X231000000Y-106000000D02*
X219024598Y-106000000D01*
X232000000Y-105000000D02*
X219000000Y-105000000D01*
X219000000Y-105000000D02*
X217000000Y-107000000D01*
X207000000Y-108000000D02*
X205000000Y-108000000D01*
X205000000Y-108000000D02*
X202000000Y-105000000D01*
X192012299Y-97351983D02*
X192012299Y-97987701D01*
X197813802Y-91550480D02*
X192012299Y-97351983D01*
X203839520Y-91550480D02*
X197813802Y-91550480D01*
X206765000Y-88625000D02*
X203839520Y-91550480D01*
X198000000Y-92000000D02*
X205930000Y-92000000D01*
X205930000Y-92000000D02*
X209305000Y-88625000D01*
X193012299Y-96987701D02*
X198000000Y-92000000D01*
X193012299Y-98987701D02*
X193012299Y-96987701D01*
X194012299Y-97351984D02*
X194012299Y-99987701D01*
X198813803Y-92550480D02*
X194012299Y-97351984D01*
X215539520Y-92550480D02*
X198813803Y-92550480D01*
X219465000Y-88625000D02*
X215539520Y-92550480D01*
X196000000Y-96000000D02*
X196000000Y-101000000D01*
X199000000Y-93000000D02*
X196000000Y-96000000D01*
X222710000Y-93000000D02*
X199000000Y-93000000D01*
X227085000Y-88625000D02*
X222710000Y-93000000D01*
X241000000Y-97460000D02*
X232165000Y-88625000D01*
X231000000Y-102000000D02*
X239000000Y-102000000D01*
X241000000Y-100000000D02*
X241000000Y-97460000D01*
X239000000Y-102000000D02*
X241000000Y-100000000D01*
X200000000Y-107000000D02*
X188000000Y-95000000D01*
X200000000Y-112000000D02*
X200000000Y-107000000D01*
X201000000Y-97000000D02*
X199000000Y-95000000D01*
X201000000Y-114000000D02*
X201000000Y-97000000D01*
X207775000Y-99225000D02*
X203000000Y-104000000D01*
X220125000Y-99225000D02*
X207775000Y-99225000D01*
X203903987Y-98050489D02*
X201980244Y-99974232D01*
X221490489Y-98050489D02*
X203903987Y-98050489D01*
X222665000Y-99225000D02*
X221490489Y-98050489D01*
X211000000Y-101000000D02*
X206000000Y-106000000D01*
X223000000Y-101000000D02*
X211000000Y-101000000D01*
X225000000Y-102000000D02*
X215000000Y-102000000D01*
X215000000Y-102000000D02*
X199000000Y-118000000D01*
D16*
X217000000Y-118000000D02*
X218000000Y-117000000D01*
X217000000Y-119000000D02*
X217000000Y-118000000D01*
X232000000Y-98000000D02*
X232000000Y-96000000D01*
G04 #@! TA.AperFunction,Conductor*
G36*
X242220056Y-84509501D02*
G01*
X242234857Y-84511806D01*
X242234860Y-84511806D01*
X242243729Y-84513187D01*
X242260898Y-84510942D01*
X242284838Y-84510109D01*
X242542769Y-84525711D01*
X242557873Y-84527545D01*
X242628647Y-84540515D01*
X242838878Y-84579041D01*
X242853640Y-84582679D01*
X243126407Y-84667676D01*
X243140626Y-84673070D01*
X243401139Y-84790317D01*
X243414608Y-84797386D01*
X243659094Y-84945183D01*
X243671616Y-84953826D01*
X243896506Y-85130017D01*
X243907894Y-85140107D01*
X244109893Y-85342106D01*
X244119983Y-85353494D01*
X244296174Y-85578384D01*
X244304817Y-85590906D01*
X244452614Y-85835392D01*
X244459685Y-85848865D01*
X244576929Y-86109371D01*
X244582324Y-86123593D01*
X244643932Y-86321299D01*
X244667320Y-86396354D01*
X244670959Y-86411122D01*
X244706506Y-86605096D01*
X244722455Y-86692127D01*
X244724289Y-86707231D01*
X244739454Y-86957930D01*
X244738197Y-86984640D01*
X244738194Y-86984860D01*
X244736813Y-86993731D01*
X244737977Y-87002633D01*
X244737977Y-87002636D01*
X244740935Y-87025252D01*
X244741999Y-87041590D01*
X244741999Y-124950673D01*
X244740499Y-124970057D01*
X244736813Y-124993731D01*
X244739013Y-125010555D01*
X244739058Y-125010898D01*
X244739891Y-125034840D01*
X244724289Y-125292771D01*
X244722455Y-125307875D01*
X244676665Y-125557750D01*
X244670961Y-125588874D01*
X244667321Y-125603642D01*
X244584269Y-125870166D01*
X244582325Y-125876405D01*
X244576929Y-125890631D01*
X244459685Y-126151137D01*
X244452614Y-126164610D01*
X244304817Y-126409096D01*
X244296174Y-126421618D01*
X244119983Y-126646508D01*
X244109893Y-126657896D01*
X243907894Y-126859895D01*
X243896506Y-126869985D01*
X243671616Y-127046176D01*
X243659094Y-127054819D01*
X243414608Y-127202616D01*
X243401139Y-127209685D01*
X243140629Y-127326931D01*
X243126407Y-127332326D01*
X242853640Y-127417323D01*
X242838878Y-127420961D01*
X242628647Y-127459487D01*
X242557873Y-127472457D01*
X242542769Y-127474291D01*
X242292070Y-127489456D01*
X242265360Y-127488199D01*
X242265140Y-127488196D01*
X242256269Y-127486815D01*
X242247367Y-127487979D01*
X242247364Y-127487979D01*
X242224748Y-127490937D01*
X242208410Y-127492001D01*
X171299327Y-127492001D01*
X171279942Y-127490501D01*
X171265141Y-127488196D01*
X171265138Y-127488196D01*
X171256269Y-127486815D01*
X171239100Y-127489060D01*
X171215160Y-127489893D01*
X170957229Y-127474291D01*
X170942125Y-127472457D01*
X170871351Y-127459487D01*
X170661120Y-127420961D01*
X170646358Y-127417323D01*
X170373591Y-127332326D01*
X170359369Y-127326931D01*
X170098859Y-127209685D01*
X170085390Y-127202616D01*
X169840904Y-127054819D01*
X169828382Y-127046176D01*
X169603492Y-126869985D01*
X169592104Y-126859895D01*
X169390105Y-126657896D01*
X169380015Y-126646508D01*
X169203824Y-126421618D01*
X169195181Y-126409096D01*
X169047384Y-126164610D01*
X169040313Y-126151137D01*
X168923069Y-125890631D01*
X168917673Y-125876405D01*
X168915729Y-125870166D01*
X168832677Y-125603642D01*
X168829037Y-125588874D01*
X168823334Y-125557750D01*
X168777543Y-125307875D01*
X168775709Y-125292771D01*
X168760544Y-125042072D01*
X168761801Y-125015362D01*
X168761804Y-125015142D01*
X168763185Y-125006271D01*
X168761546Y-124993731D01*
X168759063Y-124974750D01*
X168757999Y-124958412D01*
X168757999Y-123882703D01*
X170390743Y-123882703D01*
X170391302Y-123886947D01*
X170391302Y-123886951D01*
X170401322Y-123963056D01*
X170428268Y-124167734D01*
X170429401Y-124171874D01*
X170429401Y-124171876D01*
X170450415Y-124248689D01*
X170504129Y-124445036D01*
X170505813Y-124448984D01*
X170605786Y-124683365D01*
X170616923Y-124709476D01*
X170764561Y-124956161D01*
X170944313Y-125180528D01*
X170961397Y-125196740D01*
X171145615Y-125371556D01*
X171152851Y-125378423D01*
X171342936Y-125515013D01*
X171380286Y-125541852D01*
X171386317Y-125546186D01*
X171390112Y-125548195D01*
X171390113Y-125548196D01*
X171411869Y-125559715D01*
X171640392Y-125680712D01*
X171910373Y-125779511D01*
X172191264Y-125840755D01*
X172219841Y-125843004D01*
X172414282Y-125858307D01*
X172414291Y-125858307D01*
X172416739Y-125858500D01*
X172572271Y-125858500D01*
X172574407Y-125858354D01*
X172574418Y-125858354D01*
X172782548Y-125844165D01*
X172782554Y-125844164D01*
X172786825Y-125843873D01*
X172791020Y-125843004D01*
X172791022Y-125843004D01*
X173028605Y-125793803D01*
X173068342Y-125785574D01*
X173339343Y-125689607D01*
X173594812Y-125557750D01*
X173598313Y-125555289D01*
X173598317Y-125555287D01*
X173807173Y-125408500D01*
X173830023Y-125392441D01*
X174040622Y-125196740D01*
X174222713Y-124974268D01*
X174372927Y-124729142D01*
X174488483Y-124465898D01*
X174567244Y-124189406D01*
X174607751Y-123904784D01*
X174607845Y-123886951D01*
X174609235Y-123621583D01*
X174609235Y-123621576D01*
X174609257Y-123617297D01*
X174607170Y-123601440D01*
X174577658Y-123377279D01*
X174571732Y-123332266D01*
X174495871Y-123054964D01*
X174472427Y-123000000D01*
X174384763Y-122794476D01*
X174384761Y-122794472D01*
X174383077Y-122790524D01*
X174235439Y-122543839D01*
X174055687Y-122319472D01*
X173902344Y-122173955D01*
X173850258Y-122124527D01*
X173850255Y-122124525D01*
X173847149Y-122121577D01*
X173613683Y-121953814D01*
X173591843Y-121942250D01*
X173543336Y-121916567D01*
X173359608Y-121819288D01*
X173089627Y-121720489D01*
X172808736Y-121659245D01*
X172777685Y-121656801D01*
X172585718Y-121641693D01*
X172585709Y-121641693D01*
X172583261Y-121641500D01*
X172427729Y-121641500D01*
X172425593Y-121641646D01*
X172425582Y-121641646D01*
X172217452Y-121655835D01*
X172217446Y-121655836D01*
X172213175Y-121656127D01*
X172208980Y-121656996D01*
X172208978Y-121656996D01*
X172072416Y-121685277D01*
X171931658Y-121714426D01*
X171660657Y-121810393D01*
X171656848Y-121812359D01*
X171542156Y-121871556D01*
X171405188Y-121942250D01*
X171401687Y-121944711D01*
X171401683Y-121944713D01*
X171391594Y-121951804D01*
X171169977Y-122107559D01*
X171129870Y-122144829D01*
X170976621Y-122287237D01*
X170959378Y-122303260D01*
X170777287Y-122525732D01*
X170627073Y-122770858D01*
X170625347Y-122774791D01*
X170625346Y-122774792D01*
X170542833Y-122962763D01*
X170511517Y-123034102D01*
X170432756Y-123310594D01*
X170392249Y-123595216D01*
X170392227Y-123599505D01*
X170392226Y-123599512D01*
X170390765Y-123878417D01*
X170390743Y-123882703D01*
X168757999Y-123882703D01*
X168757999Y-118934668D01*
X185021164Y-118934668D01*
X185041126Y-119124596D01*
X185100141Y-119306224D01*
X185103444Y-119311946D01*
X185103445Y-119311947D01*
X185118309Y-119337692D01*
X185195628Y-119471612D01*
X185268805Y-119552883D01*
X185299521Y-119616889D01*
X185301168Y-119637192D01*
X185301168Y-119855901D01*
X185300641Y-119867084D01*
X185298966Y-119874577D01*
X185299215Y-119882503D01*
X185299215Y-119882504D01*
X185301106Y-119942654D01*
X185301168Y-119946613D01*
X185301168Y-119974524D01*
X185301665Y-119978458D01*
X185301665Y-119978459D01*
X185301673Y-119978524D01*
X185302606Y-119990361D01*
X185303995Y-120034557D01*
X185309646Y-120054007D01*
X185313655Y-120073368D01*
X185316194Y-120093465D01*
X185319113Y-120100836D01*
X185319113Y-120100838D01*
X185332472Y-120134580D01*
X185336317Y-120145810D01*
X185348650Y-120188261D01*
X185352683Y-120195080D01*
X185352685Y-120195085D01*
X185358961Y-120205696D01*
X185367656Y-120223444D01*
X185375116Y-120242285D01*
X185379778Y-120248701D01*
X185379778Y-120248702D01*
X185401104Y-120278055D01*
X185407620Y-120287975D01*
X185424570Y-120316635D01*
X185430126Y-120326030D01*
X185444447Y-120340351D01*
X185457287Y-120355384D01*
X185469196Y-120371775D01*
X185483369Y-120383500D01*
X185503273Y-120399966D01*
X185512052Y-120407956D01*
X186052878Y-120948782D01*
X186086904Y-121011094D01*
X186089092Y-121024703D01*
X186089778Y-121031226D01*
X186104476Y-121171066D01*
X186106458Y-121189928D01*
X186165473Y-121371556D01*
X186168776Y-121377278D01*
X186168777Y-121377279D01*
X186186803Y-121408500D01*
X186260960Y-121536944D01*
X186265378Y-121541851D01*
X186265379Y-121541852D01*
X186355234Y-121641646D01*
X186388747Y-121678866D01*
X186412615Y-121696207D01*
X186530016Y-121781504D01*
X186543248Y-121791118D01*
X186549276Y-121793802D01*
X186549278Y-121793803D01*
X186693169Y-121857867D01*
X186717712Y-121868794D01*
X186811112Y-121888647D01*
X186898056Y-121907128D01*
X186898061Y-121907128D01*
X186904513Y-121908500D01*
X187095487Y-121908500D01*
X187101939Y-121907128D01*
X187101944Y-121907128D01*
X187188888Y-121888647D01*
X187282288Y-121868794D01*
X187306831Y-121857867D01*
X187450722Y-121793803D01*
X187450724Y-121793802D01*
X187456752Y-121791118D01*
X187469985Y-121781504D01*
X187587385Y-121696207D01*
X187611253Y-121678866D01*
X187644766Y-121641646D01*
X187734621Y-121541852D01*
X187734622Y-121541851D01*
X187739040Y-121536944D01*
X187813197Y-121408500D01*
X187831223Y-121377279D01*
X187831224Y-121377278D01*
X187834527Y-121371556D01*
X187893542Y-121189928D01*
X187895525Y-121171066D01*
X187912814Y-121006565D01*
X187913504Y-121000000D01*
X187900004Y-120871556D01*
X187894232Y-120816635D01*
X187894232Y-120816633D01*
X187893542Y-120810072D01*
X187834527Y-120628444D01*
X187831190Y-120622663D01*
X187782106Y-120537649D01*
X187739040Y-120463056D01*
X187733730Y-120457158D01*
X187615675Y-120326045D01*
X187615674Y-120326044D01*
X187611253Y-120321134D01*
X187472235Y-120220131D01*
X187462094Y-120212763D01*
X187462093Y-120212762D01*
X187456752Y-120208882D01*
X187450724Y-120206198D01*
X187450722Y-120206197D01*
X187288319Y-120133891D01*
X187288318Y-120133891D01*
X187282288Y-120131206D01*
X187188887Y-120111353D01*
X187101944Y-120092872D01*
X187101939Y-120092872D01*
X187095487Y-120091500D01*
X187039595Y-120091500D01*
X186971474Y-120071498D01*
X186950500Y-120054595D01*
X186613184Y-119717279D01*
X186579158Y-119654967D01*
X186584223Y-119584152D01*
X186608643Y-119543874D01*
X186669289Y-119476520D01*
X186669293Y-119476515D01*
X186673708Y-119471612D01*
X186751027Y-119337692D01*
X186765891Y-119311947D01*
X186765892Y-119311946D01*
X186769195Y-119306224D01*
X186828210Y-119124596D01*
X186848172Y-118934668D01*
X186841393Y-118870166D01*
X186828900Y-118751303D01*
X186828900Y-118751301D01*
X186828210Y-118744740D01*
X186769195Y-118563112D01*
X186764724Y-118555367D01*
X186714729Y-118468775D01*
X186673708Y-118397724D01*
X186655108Y-118377066D01*
X186550343Y-118260713D01*
X186550342Y-118260712D01*
X186545921Y-118255802D01*
X186391420Y-118143550D01*
X186385392Y-118140866D01*
X186385390Y-118140865D01*
X186222987Y-118068559D01*
X186222986Y-118068559D01*
X186216956Y-118065874D01*
X186123556Y-118046021D01*
X186036612Y-118027540D01*
X186036607Y-118027540D01*
X186030155Y-118026168D01*
X185839181Y-118026168D01*
X185832729Y-118027540D01*
X185832724Y-118027540D01*
X185745780Y-118046021D01*
X185652380Y-118065874D01*
X185646350Y-118068559D01*
X185646349Y-118068559D01*
X185483946Y-118140865D01*
X185483944Y-118140866D01*
X185477916Y-118143550D01*
X185323415Y-118255802D01*
X185318994Y-118260712D01*
X185318993Y-118260713D01*
X185214229Y-118377066D01*
X185195628Y-118397724D01*
X185154607Y-118468775D01*
X185104613Y-118555367D01*
X185100141Y-118563112D01*
X185041126Y-118744740D01*
X185040436Y-118751301D01*
X185040436Y-118751303D01*
X185027943Y-118870166D01*
X185021164Y-118934668D01*
X168757999Y-118934668D01*
X168757999Y-118399711D01*
X168778001Y-118331590D01*
X168831657Y-118285097D01*
X168901931Y-118274993D01*
X168971129Y-118308693D01*
X169108014Y-118439732D01*
X169108025Y-118439741D01*
X169112350Y-118443881D01*
X169290048Y-118558620D01*
X169350146Y-118582840D01*
X169480668Y-118635442D01*
X169480671Y-118635443D01*
X169486237Y-118637686D01*
X169693837Y-118678228D01*
X169699399Y-118678500D01*
X170155346Y-118678500D01*
X170313066Y-118663452D01*
X170516034Y-118603908D01*
X170521362Y-118601164D01*
X170698749Y-118509804D01*
X170698752Y-118509802D01*
X170704080Y-118507058D01*
X170870420Y-118376396D01*
X170874352Y-118371865D01*
X170874355Y-118371862D01*
X171005121Y-118221167D01*
X171009052Y-118216637D01*
X171012052Y-118211451D01*
X171012055Y-118211447D01*
X171111967Y-118038742D01*
X171114973Y-118033546D01*
X171184361Y-117833729D01*
X171187791Y-117810072D01*
X171213852Y-117630336D01*
X171213852Y-117630333D01*
X171214713Y-117624396D01*
X171209677Y-117515604D01*
X172650287Y-117515604D01*
X172660067Y-117726899D01*
X172661471Y-117732724D01*
X172661471Y-117732725D01*
X172697567Y-117882499D01*
X172709625Y-117932534D01*
X172712107Y-117937992D01*
X172712108Y-117937996D01*
X172755553Y-118033546D01*
X172797174Y-118125087D01*
X172919554Y-118297611D01*
X173072350Y-118443881D01*
X173250048Y-118558620D01*
X173310146Y-118582840D01*
X173440668Y-118635442D01*
X173440671Y-118635443D01*
X173446237Y-118637686D01*
X173653837Y-118678228D01*
X173659399Y-118678500D01*
X174615346Y-118678500D01*
X174773066Y-118663452D01*
X174976034Y-118603908D01*
X174981362Y-118601164D01*
X175158749Y-118509804D01*
X175158752Y-118509802D01*
X175164080Y-118507058D01*
X175330420Y-118376396D01*
X175334352Y-118371865D01*
X175334355Y-118371862D01*
X175465121Y-118221167D01*
X175469052Y-118216637D01*
X175472052Y-118211451D01*
X175472055Y-118211447D01*
X175571967Y-118038742D01*
X175574973Y-118033546D01*
X175644361Y-117833729D01*
X175647791Y-117810072D01*
X175673852Y-117630336D01*
X175673852Y-117630333D01*
X175674713Y-117624396D01*
X175664933Y-117413101D01*
X175615375Y-117207466D01*
X175610256Y-117196206D01*
X175530306Y-117020368D01*
X175527826Y-117014913D01*
X175405446Y-116842389D01*
X175252650Y-116696119D01*
X175074952Y-116581380D01*
X174975049Y-116541118D01*
X174884332Y-116504558D01*
X174884329Y-116504557D01*
X174878763Y-116502314D01*
X174671163Y-116461772D01*
X174665601Y-116461500D01*
X174601568Y-116461500D01*
X174533447Y-116441498D01*
X174486954Y-116387842D01*
X174477128Y-116319503D01*
X174476865Y-116319475D01*
X174476974Y-116318434D01*
X174495729Y-116140000D01*
X174476865Y-115960525D01*
X174459516Y-115907128D01*
X174423141Y-115795178D01*
X174421099Y-115788893D01*
X174407839Y-115765925D01*
X174360172Y-115683365D01*
X174330867Y-115632607D01*
X174210113Y-115498496D01*
X174203148Y-115493435D01*
X174069457Y-115396303D01*
X174069456Y-115396302D01*
X174064115Y-115392422D01*
X174058087Y-115389738D01*
X174058085Y-115389737D01*
X173905283Y-115321705D01*
X173905281Y-115321705D01*
X173899252Y-115319020D01*
X173810992Y-115300260D01*
X173729189Y-115282872D01*
X173729185Y-115282872D01*
X173722732Y-115281500D01*
X173542268Y-115281500D01*
X173535815Y-115282872D01*
X173535811Y-115282872D01*
X173454008Y-115300260D01*
X173365748Y-115319020D01*
X173359719Y-115321704D01*
X173359717Y-115321705D01*
X173206916Y-115389737D01*
X173206914Y-115389738D01*
X173200886Y-115392422D01*
X173195545Y-115396302D01*
X173195544Y-115396303D01*
X173060231Y-115494613D01*
X173060229Y-115494615D01*
X173054887Y-115498496D01*
X172934133Y-115632607D01*
X172904828Y-115683365D01*
X172857162Y-115765925D01*
X172843901Y-115788893D01*
X172841859Y-115795178D01*
X172805485Y-115907128D01*
X172788135Y-115960525D01*
X172769271Y-116140000D01*
X172788135Y-116319475D01*
X172790175Y-116325753D01*
X172790175Y-116325754D01*
X172816615Y-116407128D01*
X172843901Y-116491107D01*
X172934133Y-116647393D01*
X172940536Y-116654504D01*
X172941739Y-116655840D01*
X172972458Y-116719846D01*
X172963696Y-116790300D01*
X172943273Y-116822730D01*
X172855948Y-116923363D01*
X172852948Y-116928549D01*
X172852945Y-116928553D01*
X172815410Y-116993435D01*
X172750027Y-117106454D01*
X172680639Y-117306271D01*
X172679778Y-117312206D01*
X172679778Y-117312208D01*
X172669690Y-117381787D01*
X172650287Y-117515604D01*
X171209677Y-117515604D01*
X171204933Y-117413101D01*
X171155375Y-117207466D01*
X171150256Y-117196206D01*
X171070306Y-117020368D01*
X171067826Y-117014913D01*
X170945446Y-116842389D01*
X170792650Y-116696119D01*
X170614952Y-116581380D01*
X170515049Y-116541118D01*
X170424332Y-116504558D01*
X170424329Y-116504557D01*
X170418763Y-116502314D01*
X170211163Y-116461772D01*
X170205601Y-116461500D01*
X169749654Y-116461500D01*
X169591934Y-116476548D01*
X169388966Y-116536092D01*
X169383639Y-116538836D01*
X169383638Y-116538836D01*
X169206251Y-116630196D01*
X169206248Y-116630198D01*
X169200920Y-116632942D01*
X169034580Y-116763604D01*
X168979162Y-116827467D01*
X168919411Y-116865807D01*
X168848414Y-116865756D01*
X168788715Y-116827329D01*
X168759269Y-116762727D01*
X168757999Y-116744885D01*
X168757999Y-109759711D01*
X168778001Y-109691590D01*
X168831657Y-109645097D01*
X168901931Y-109634993D01*
X168971129Y-109668693D01*
X169108014Y-109799732D01*
X169108025Y-109799741D01*
X169112350Y-109803881D01*
X169290048Y-109918620D01*
X169295614Y-109920863D01*
X169480668Y-109995442D01*
X169480671Y-109995443D01*
X169486237Y-109997686D01*
X169693837Y-110038228D01*
X169699399Y-110038500D01*
X170155346Y-110038500D01*
X170313066Y-110023452D01*
X170516034Y-109963908D01*
X170599611Y-109920863D01*
X170698749Y-109869804D01*
X170698752Y-109869802D01*
X170704080Y-109867058D01*
X170870420Y-109736396D01*
X170874352Y-109731865D01*
X170874355Y-109731862D01*
X171005121Y-109581167D01*
X171009052Y-109576637D01*
X171012052Y-109571451D01*
X171012055Y-109571447D01*
X171111967Y-109398742D01*
X171114973Y-109393546D01*
X171184361Y-109193729D01*
X171200719Y-109080909D01*
X171213852Y-108990336D01*
X171213852Y-108990333D01*
X171214713Y-108984396D01*
X171209677Y-108875604D01*
X172650287Y-108875604D01*
X172660067Y-109086899D01*
X172661471Y-109092724D01*
X172661471Y-109092725D01*
X172702364Y-109262404D01*
X172709625Y-109292534D01*
X172712107Y-109297992D01*
X172712108Y-109297996D01*
X172755553Y-109393546D01*
X172797174Y-109485087D01*
X172919554Y-109657611D01*
X172923882Y-109661754D01*
X172933402Y-109670868D01*
X172968777Y-109732424D01*
X172965258Y-109803333D01*
X172942253Y-109842229D01*
X172942432Y-109842359D01*
X172941056Y-109844254D01*
X172939909Y-109846192D01*
X172934133Y-109852607D01*
X172843901Y-110008893D01*
X172841859Y-110015178D01*
X172807827Y-110119920D01*
X172788135Y-110180525D01*
X172769271Y-110360000D01*
X172769961Y-110366565D01*
X172779588Y-110458153D01*
X172788135Y-110539475D01*
X172843901Y-110711107D01*
X172934133Y-110867393D01*
X173054887Y-111001504D01*
X173060229Y-111005385D01*
X173060231Y-111005387D01*
X173173396Y-111087606D01*
X173200885Y-111107578D01*
X173206913Y-111110262D01*
X173206915Y-111110263D01*
X173359717Y-111178295D01*
X173365748Y-111180980D01*
X173437382Y-111196206D01*
X173535811Y-111217128D01*
X173535815Y-111217128D01*
X173542268Y-111218500D01*
X173722732Y-111218500D01*
X173729185Y-111217128D01*
X173729189Y-111217128D01*
X173827618Y-111196206D01*
X173899252Y-111180980D01*
X173905283Y-111178295D01*
X174058085Y-111110263D01*
X174058087Y-111110262D01*
X174064115Y-111107578D01*
X174091604Y-111087606D01*
X174204769Y-111005387D01*
X174204771Y-111005385D01*
X174210113Y-111001504D01*
X174330867Y-110867393D01*
X174421099Y-110711107D01*
X174476865Y-110539475D01*
X174485413Y-110458153D01*
X174495039Y-110366565D01*
X174495729Y-110360000D01*
X174476865Y-110180525D01*
X174479119Y-110180288D01*
X174483718Y-110119920D01*
X174526528Y-110063283D01*
X174593162Y-110038781D01*
X174601568Y-110038500D01*
X174615346Y-110038500D01*
X174773066Y-110023452D01*
X174976034Y-109963908D01*
X175059611Y-109920863D01*
X175158749Y-109869804D01*
X175158752Y-109869802D01*
X175164080Y-109867058D01*
X175330420Y-109736396D01*
X175334352Y-109731865D01*
X175334355Y-109731862D01*
X175465121Y-109581167D01*
X175469052Y-109576637D01*
X175472052Y-109571451D01*
X175472055Y-109571447D01*
X175571967Y-109398742D01*
X175574973Y-109393546D01*
X175644361Y-109193729D01*
X175660719Y-109080909D01*
X175673852Y-108990336D01*
X175673852Y-108990333D01*
X175674713Y-108984396D01*
X175669955Y-108881601D01*
X175669671Y-108875455D01*
X175686502Y-108806483D01*
X175737951Y-108757559D01*
X175807682Y-108744217D01*
X175873558Y-108770693D01*
X175884631Y-108780535D01*
X177933091Y-110828995D01*
X177967117Y-110891307D01*
X177962052Y-110962122D01*
X177937634Y-111002397D01*
X177860912Y-111087606D01*
X177765425Y-111252994D01*
X177706410Y-111434622D01*
X177705720Y-111441183D01*
X177705720Y-111441185D01*
X177687404Y-111615457D01*
X177686448Y-111624550D01*
X177687138Y-111631115D01*
X177704899Y-111800097D01*
X177706410Y-111814478D01*
X177765425Y-111996106D01*
X177768728Y-112001828D01*
X177768729Y-112001829D01*
X177842471Y-112129553D01*
X177859209Y-112198548D01*
X177835989Y-112265640D01*
X177822447Y-112281648D01*
X177607747Y-112496348D01*
X177599461Y-112503888D01*
X177592982Y-112508000D01*
X177587557Y-112513777D01*
X177546357Y-112557651D01*
X177543602Y-112560493D01*
X177523865Y-112580230D01*
X177521385Y-112583427D01*
X177513682Y-112592447D01*
X177483414Y-112624679D01*
X177479595Y-112631625D01*
X177479593Y-112631628D01*
X177473652Y-112642434D01*
X177462801Y-112658953D01*
X177450386Y-112674959D01*
X177447241Y-112682228D01*
X177447238Y-112682232D01*
X177432826Y-112715537D01*
X177427609Y-112726187D01*
X177406305Y-112764940D01*
X177404334Y-112772615D01*
X177404334Y-112772616D01*
X177401267Y-112784562D01*
X177394863Y-112803266D01*
X177386819Y-112821855D01*
X177385580Y-112829678D01*
X177385577Y-112829688D01*
X177379901Y-112865524D01*
X177377495Y-112877144D01*
X177366500Y-112919970D01*
X177366500Y-112940224D01*
X177364949Y-112959934D01*
X177361780Y-112979943D01*
X177362526Y-112987835D01*
X177365941Y-113023961D01*
X177366500Y-113035819D01*
X177366500Y-114297476D01*
X177346498Y-114365597D01*
X177334142Y-114381779D01*
X177260960Y-114463056D01*
X177221602Y-114531226D01*
X177186011Y-114592872D01*
X177165473Y-114628444D01*
X177106458Y-114810072D01*
X177105768Y-114816633D01*
X177105768Y-114816635D01*
X177089014Y-114976046D01*
X177086496Y-115000000D01*
X177087186Y-115006565D01*
X177105220Y-115178145D01*
X177106458Y-115189928D01*
X177165473Y-115371556D01*
X177260960Y-115536944D01*
X177265378Y-115541851D01*
X177265379Y-115541852D01*
X177287694Y-115566635D01*
X177388747Y-115678866D01*
X177452647Y-115725292D01*
X177532309Y-115783170D01*
X177543248Y-115791118D01*
X177549276Y-115793802D01*
X177549278Y-115793803D01*
X177709799Y-115865271D01*
X177717712Y-115868794D01*
X177811113Y-115888647D01*
X177898056Y-115907128D01*
X177898061Y-115907128D01*
X177904513Y-115908500D01*
X178095487Y-115908500D01*
X178101939Y-115907128D01*
X178101944Y-115907128D01*
X178188887Y-115888647D01*
X178282288Y-115868794D01*
X178290201Y-115865271D01*
X178450722Y-115793803D01*
X178450724Y-115793802D01*
X178456752Y-115791118D01*
X178467692Y-115783170D01*
X178547353Y-115725292D01*
X178611253Y-115678866D01*
X178712306Y-115566635D01*
X178734621Y-115541852D01*
X178734622Y-115541851D01*
X178739040Y-115536944D01*
X178834527Y-115371556D01*
X178893542Y-115189928D01*
X178894781Y-115178145D01*
X178912814Y-115006565D01*
X178913504Y-115000000D01*
X178910986Y-114976046D01*
X178894232Y-114816635D01*
X178894232Y-114816633D01*
X178893542Y-114810072D01*
X178834527Y-114628444D01*
X178813990Y-114592872D01*
X178778398Y-114531226D01*
X178739040Y-114463056D01*
X178665863Y-114381785D01*
X178635147Y-114317779D01*
X178633500Y-114297476D01*
X178633500Y-113314594D01*
X178653502Y-113246473D01*
X178670405Y-113225499D01*
X178992199Y-112903705D01*
X179000489Y-112896161D01*
X179006970Y-112892048D01*
X179015237Y-112883245D01*
X179053610Y-112842381D01*
X179056365Y-112839539D01*
X179076086Y-112819818D01*
X179078564Y-112816623D01*
X179086270Y-112807601D01*
X179111110Y-112781149D01*
X179116538Y-112775369D01*
X179126298Y-112757616D01*
X179137148Y-112741097D01*
X179140936Y-112736213D01*
X179198491Y-112694643D01*
X179269382Y-112690789D01*
X179331104Y-112725873D01*
X179364060Y-112788758D01*
X179366500Y-112813434D01*
X179366500Y-117297476D01*
X179346498Y-117365597D01*
X179334142Y-117381779D01*
X179260960Y-117463056D01*
X179165473Y-117628444D01*
X179106458Y-117810072D01*
X179105768Y-117816633D01*
X179105768Y-117816635D01*
X179098846Y-117882499D01*
X179086496Y-118000000D01*
X179087186Y-118006565D01*
X179101584Y-118143550D01*
X179106458Y-118189928D01*
X179165473Y-118371556D01*
X179260960Y-118536944D01*
X179265378Y-118541851D01*
X179265379Y-118541852D01*
X179322773Y-118605594D01*
X179388747Y-118678866D01*
X179543248Y-118791118D01*
X179549276Y-118793802D01*
X179549278Y-118793803D01*
X179600560Y-118816635D01*
X179717712Y-118868794D01*
X179811112Y-118888647D01*
X179898056Y-118907128D01*
X179898061Y-118907128D01*
X179904513Y-118908500D01*
X180095487Y-118908500D01*
X180101939Y-118907128D01*
X180101944Y-118907128D01*
X180188888Y-118888647D01*
X180282288Y-118868794D01*
X180399440Y-118816635D01*
X180450722Y-118793803D01*
X180450724Y-118793802D01*
X180456752Y-118791118D01*
X180611253Y-118678866D01*
X180677227Y-118605594D01*
X180734621Y-118541852D01*
X180734622Y-118541851D01*
X180739040Y-118536944D01*
X180834527Y-118371556D01*
X180893542Y-118189928D01*
X180898417Y-118143550D01*
X180912814Y-118006565D01*
X180913504Y-118000000D01*
X180901154Y-117882499D01*
X180894232Y-117816635D01*
X180894232Y-117816633D01*
X180893542Y-117810072D01*
X180834527Y-117628444D01*
X180739040Y-117463056D01*
X180665863Y-117381785D01*
X180635147Y-117317779D01*
X180633500Y-117297476D01*
X180633500Y-112078767D01*
X180634027Y-112067584D01*
X180635702Y-112060091D01*
X180633562Y-111992014D01*
X180633500Y-111988055D01*
X180633500Y-111960144D01*
X180632995Y-111956144D01*
X180632062Y-111944301D01*
X180631783Y-111935405D01*
X180630937Y-111908500D01*
X180630922Y-111908029D01*
X180630673Y-111900110D01*
X180625022Y-111880658D01*
X180621014Y-111861306D01*
X180619467Y-111849063D01*
X180618474Y-111841203D01*
X180610379Y-111820756D01*
X180602200Y-111800097D01*
X180598355Y-111788870D01*
X180597721Y-111786687D01*
X180586018Y-111746407D01*
X180581984Y-111739585D01*
X180581981Y-111739579D01*
X180575706Y-111728968D01*
X180567010Y-111711218D01*
X180562472Y-111699756D01*
X180562469Y-111699751D01*
X180559552Y-111692383D01*
X180533573Y-111656625D01*
X180527057Y-111646707D01*
X180508575Y-111615457D01*
X180504542Y-111608637D01*
X180490218Y-111594313D01*
X180477376Y-111579278D01*
X180465472Y-111562893D01*
X180431406Y-111534711D01*
X180422627Y-111526722D01*
X177744500Y-108848595D01*
X177710474Y-108786283D01*
X177715539Y-108715468D01*
X177758086Y-108658632D01*
X177824606Y-108633821D01*
X177833595Y-108633500D01*
X178041800Y-108633500D01*
X178109921Y-108653502D01*
X178129147Y-108669843D01*
X178129420Y-108669540D01*
X178134332Y-108673963D01*
X178138747Y-108678866D01*
X178153068Y-108689271D01*
X178265136Y-108770693D01*
X178293248Y-108791118D01*
X178299276Y-108793802D01*
X178299278Y-108793803D01*
X178405741Y-108841203D01*
X178467712Y-108868794D01*
X178561113Y-108888647D01*
X178648056Y-108907128D01*
X178648061Y-108907128D01*
X178654513Y-108908500D01*
X178845487Y-108908500D01*
X178851939Y-108907128D01*
X178851944Y-108907128D01*
X178938887Y-108888647D01*
X179032288Y-108868794D01*
X179094259Y-108841203D01*
X179200722Y-108793803D01*
X179200724Y-108793802D01*
X179206752Y-108791118D01*
X179234865Y-108770693D01*
X179314598Y-108712763D01*
X179361253Y-108678866D01*
X179372594Y-108666271D01*
X179484621Y-108541852D01*
X179484622Y-108541851D01*
X179489040Y-108536944D01*
X179564053Y-108407018D01*
X179581223Y-108377279D01*
X179581224Y-108377278D01*
X179584527Y-108371556D01*
X179643542Y-108189928D01*
X179650929Y-108119650D01*
X179662814Y-108006565D01*
X179663504Y-108000000D01*
X179656587Y-107934189D01*
X179644232Y-107816635D01*
X179644232Y-107816633D01*
X179643542Y-107810072D01*
X179584527Y-107628444D01*
X179489040Y-107463056D01*
X179468216Y-107439928D01*
X179365675Y-107326045D01*
X179365674Y-107326044D01*
X179361253Y-107321134D01*
X179206752Y-107208882D01*
X179200724Y-107206198D01*
X179200722Y-107206197D01*
X179038319Y-107133891D01*
X179038318Y-107133891D01*
X179032288Y-107131206D01*
X178921321Y-107107619D01*
X178851944Y-107092872D01*
X178851939Y-107092872D01*
X178845487Y-107091500D01*
X178654513Y-107091500D01*
X178648061Y-107092872D01*
X178648056Y-107092872D01*
X178578679Y-107107619D01*
X178467712Y-107131206D01*
X178461682Y-107133891D01*
X178461681Y-107133891D01*
X178299278Y-107206197D01*
X178299276Y-107206198D01*
X178293248Y-107208882D01*
X178287907Y-107212762D01*
X178287906Y-107212763D01*
X178206948Y-107271583D01*
X178138747Y-107321134D01*
X178134332Y-107326037D01*
X178129420Y-107330460D01*
X178128295Y-107329211D01*
X178074986Y-107362051D01*
X178041800Y-107366500D01*
X176759500Y-107366500D01*
X176691379Y-107346498D01*
X176644886Y-107292842D01*
X176633500Y-107240500D01*
X176633500Y-96006492D01*
X176653502Y-95938371D01*
X176707158Y-95891878D01*
X176777432Y-95881774D01*
X176785697Y-95883245D01*
X176898056Y-95907128D01*
X176898061Y-95907128D01*
X176904513Y-95908500D01*
X177095487Y-95908500D01*
X177101939Y-95907128D01*
X177101944Y-95907128D01*
X177188887Y-95888647D01*
X177282288Y-95868794D01*
X177288319Y-95866109D01*
X177450722Y-95793803D01*
X177450724Y-95793802D01*
X177456752Y-95791118D01*
X177462601Y-95786869D01*
X177604315Y-95683907D01*
X177611253Y-95678866D01*
X177615668Y-95673963D01*
X177620580Y-95669540D01*
X177621705Y-95670789D01*
X177675014Y-95637949D01*
X177708200Y-95633500D01*
X181060885Y-95633500D01*
X181129006Y-95653502D01*
X181175499Y-95707158D01*
X181185603Y-95777432D01*
X181156109Y-95842012D01*
X181096383Y-95880396D01*
X181087083Y-95882747D01*
X180933533Y-95915385D01*
X180927503Y-95918070D01*
X180927502Y-95918070D01*
X180765099Y-95990376D01*
X180765097Y-95990377D01*
X180759069Y-95993061D01*
X180753728Y-95996941D01*
X180753727Y-95996942D01*
X180704946Y-96032384D01*
X180604568Y-96105313D01*
X180600147Y-96110223D01*
X180600146Y-96110224D01*
X180493600Y-96228556D01*
X180476781Y-96247235D01*
X180444723Y-96302761D01*
X180387225Y-96402351D01*
X180381294Y-96412623D01*
X180322279Y-96594251D01*
X180321589Y-96600812D01*
X180321589Y-96600814D01*
X180307004Y-96739582D01*
X180302317Y-96784179D01*
X180303007Y-96790744D01*
X180321118Y-96963056D01*
X180322279Y-96974107D01*
X180381294Y-97155735D01*
X180384597Y-97161457D01*
X180384598Y-97161458D01*
X180410550Y-97206407D01*
X180476781Y-97321123D01*
X180549447Y-97401827D01*
X180580162Y-97465831D01*
X180571399Y-97536284D01*
X180525936Y-97590816D01*
X180458208Y-97612111D01*
X180429613Y-97609381D01*
X180361565Y-97594918D01*
X180345487Y-97591500D01*
X180154513Y-97591500D01*
X180148061Y-97592872D01*
X180148056Y-97592872D01*
X180065011Y-97610524D01*
X179994220Y-97605122D01*
X179937587Y-97562305D01*
X179914643Y-97499880D01*
X179913504Y-97500000D01*
X179894232Y-97316635D01*
X179894232Y-97316633D01*
X179893542Y-97310072D01*
X179834527Y-97128444D01*
X179827697Y-97116613D01*
X179780124Y-97034215D01*
X179739040Y-96963056D01*
X179732817Y-96956144D01*
X179615675Y-96826045D01*
X179615674Y-96826044D01*
X179611253Y-96821134D01*
X179490439Y-96733357D01*
X179462094Y-96712763D01*
X179462093Y-96712762D01*
X179456752Y-96708882D01*
X179450724Y-96706198D01*
X179450722Y-96706197D01*
X179288319Y-96633891D01*
X179288318Y-96633891D01*
X179282288Y-96631206D01*
X179176115Y-96608638D01*
X179101944Y-96592872D01*
X179101939Y-96592872D01*
X179095487Y-96591500D01*
X178904513Y-96591500D01*
X178898061Y-96592872D01*
X178898056Y-96592872D01*
X178823885Y-96608638D01*
X178717712Y-96631206D01*
X178711682Y-96633891D01*
X178711681Y-96633891D01*
X178549278Y-96706197D01*
X178549276Y-96706198D01*
X178543248Y-96708882D01*
X178537907Y-96712762D01*
X178537906Y-96712763D01*
X178509561Y-96733357D01*
X178388747Y-96821134D01*
X178384326Y-96826044D01*
X178384325Y-96826045D01*
X178267184Y-96956144D01*
X178260960Y-96963056D01*
X178219876Y-97034215D01*
X178172304Y-97116613D01*
X178165473Y-97128444D01*
X178106458Y-97310072D01*
X178105768Y-97316633D01*
X178105768Y-97316635D01*
X178091244Y-97454823D01*
X178086496Y-97500000D01*
X178087186Y-97506565D01*
X178099493Y-97623656D01*
X178106458Y-97689928D01*
X178165473Y-97871556D01*
X178260960Y-98036944D01*
X178334137Y-98118215D01*
X178364853Y-98182221D01*
X178366500Y-98202524D01*
X178366500Y-103556951D01*
X178365973Y-103568134D01*
X178364298Y-103575627D01*
X178364547Y-103583553D01*
X178364547Y-103583554D01*
X178366438Y-103643704D01*
X178366500Y-103647663D01*
X178366500Y-103675574D01*
X178366997Y-103679508D01*
X178366997Y-103679509D01*
X178367005Y-103679574D01*
X178367938Y-103691411D01*
X178369327Y-103735607D01*
X178374978Y-103755057D01*
X178378987Y-103774418D01*
X178381526Y-103794515D01*
X178384445Y-103801886D01*
X178384445Y-103801888D01*
X178397804Y-103835630D01*
X178401649Y-103846860D01*
X178411771Y-103881701D01*
X178413982Y-103889311D01*
X178418015Y-103896130D01*
X178418017Y-103896135D01*
X178424293Y-103906746D01*
X178432988Y-103924494D01*
X178440448Y-103943335D01*
X178445110Y-103949751D01*
X178445110Y-103949752D01*
X178466436Y-103979105D01*
X178472952Y-103989025D01*
X178495458Y-104027080D01*
X178509779Y-104041401D01*
X178522619Y-104056434D01*
X178534528Y-104072825D01*
X178540634Y-104077876D01*
X178568605Y-104101016D01*
X178577384Y-104109006D01*
X191060151Y-116591773D01*
X191067691Y-116600059D01*
X191071803Y-116606538D01*
X191115310Y-116647393D01*
X191121454Y-116653163D01*
X191124296Y-116655918D01*
X193585136Y-119116758D01*
X193592680Y-119125048D01*
X193596793Y-119131529D01*
X193602570Y-119136954D01*
X193646460Y-119178169D01*
X193649302Y-119180924D01*
X193669023Y-119200645D01*
X193672218Y-119203123D01*
X193681240Y-119210829D01*
X193713472Y-119241097D01*
X193720421Y-119244917D01*
X193731225Y-119250857D01*
X193747749Y-119261710D01*
X193763752Y-119274124D01*
X193804336Y-119291687D01*
X193814966Y-119296894D01*
X193853733Y-119318206D01*
X193861410Y-119320177D01*
X193861415Y-119320179D01*
X193873351Y-119323243D01*
X193892059Y-119329648D01*
X193910648Y-119337692D01*
X193918476Y-119338932D01*
X193918483Y-119338934D01*
X193954317Y-119344610D01*
X193965937Y-119347016D01*
X194001082Y-119356039D01*
X194008763Y-119358011D01*
X194029017Y-119358011D01*
X194048727Y-119359562D01*
X194068736Y-119362731D01*
X194076628Y-119361985D01*
X194112754Y-119358570D01*
X194124612Y-119358011D01*
X198804181Y-119358011D01*
X198872302Y-119378013D01*
X198918795Y-119431669D01*
X198928899Y-119501943D01*
X198899405Y-119566523D01*
X198839679Y-119604907D01*
X198830379Y-119607258D01*
X198717712Y-119631206D01*
X198711682Y-119633891D01*
X198711681Y-119633891D01*
X198549278Y-119706197D01*
X198549276Y-119706198D01*
X198543248Y-119708882D01*
X198537907Y-119712762D01*
X198537906Y-119712763D01*
X198462656Y-119767436D01*
X198395789Y-119791294D01*
X198388595Y-119791500D01*
X195278912Y-119791500D01*
X195270342Y-119791208D01*
X195220224Y-119787791D01*
X195220220Y-119787791D01*
X195212648Y-119787275D01*
X195205171Y-119788580D01*
X195205170Y-119788580D01*
X195178692Y-119793201D01*
X195149697Y-119798262D01*
X195143179Y-119799223D01*
X195079758Y-119806898D01*
X195072657Y-119809581D01*
X195070048Y-119810222D01*
X195053738Y-119814685D01*
X195051202Y-119815450D01*
X195043716Y-119816757D01*
X195036759Y-119819811D01*
X194985205Y-119842442D01*
X194979096Y-119844935D01*
X194926720Y-119864726D01*
X194919344Y-119867513D01*
X194913081Y-119871817D01*
X194910715Y-119873054D01*
X194895903Y-119881299D01*
X194893649Y-119882632D01*
X194886695Y-119885685D01*
X194835998Y-119924587D01*
X194830668Y-119928459D01*
X194784280Y-119960339D01*
X194784275Y-119960344D01*
X194778019Y-119964643D01*
X194772968Y-119970313D01*
X194772966Y-119970314D01*
X194736565Y-120011170D01*
X194731584Y-120016446D01*
X194183467Y-120564563D01*
X194120569Y-120598715D01*
X193967712Y-120631206D01*
X193961682Y-120633891D01*
X193961681Y-120633891D01*
X193799278Y-120706197D01*
X193799276Y-120706198D01*
X193793248Y-120708882D01*
X193638747Y-120821134D01*
X193510960Y-120963056D01*
X193415473Y-121128444D01*
X193393456Y-121196206D01*
X193362617Y-121291118D01*
X193356458Y-121310072D01*
X193355768Y-121316637D01*
X193351550Y-121356770D01*
X193324537Y-121422427D01*
X193315335Y-121432695D01*
X191933467Y-122814563D01*
X191870569Y-122848715D01*
X191717712Y-122881206D01*
X191711682Y-122883891D01*
X191711681Y-122883891D01*
X191549278Y-122956197D01*
X191549276Y-122956198D01*
X191543248Y-122958882D01*
X191388747Y-123071134D01*
X191384326Y-123076044D01*
X191384325Y-123076045D01*
X191281785Y-123189928D01*
X191260960Y-123213056D01*
X191165473Y-123378444D01*
X191163432Y-123384726D01*
X191115105Y-123533460D01*
X191075031Y-123592065D01*
X191009634Y-123619702D01*
X190969075Y-123617769D01*
X190892255Y-123601440D01*
X190829781Y-123567712D01*
X190795460Y-123505562D01*
X190800188Y-123434723D01*
X190809332Y-123415195D01*
X190830550Y-123378444D01*
X190834527Y-123371556D01*
X190893542Y-123189928D01*
X190910907Y-123024706D01*
X190937920Y-122959050D01*
X190947122Y-122948782D01*
X191962798Y-121933106D01*
X192025110Y-121899080D01*
X192051893Y-121896201D01*
X192107786Y-121896201D01*
X192114238Y-121894829D01*
X192114243Y-121894829D01*
X192201186Y-121876348D01*
X192294587Y-121856495D01*
X192393719Y-121812359D01*
X192463021Y-121781504D01*
X192463023Y-121781503D01*
X192469051Y-121778819D01*
X192623552Y-121666567D01*
X192645991Y-121641646D01*
X192746920Y-121529553D01*
X192746921Y-121529552D01*
X192751339Y-121524645D01*
X192811140Y-121421066D01*
X192843522Y-121364980D01*
X192843523Y-121364979D01*
X192846826Y-121359257D01*
X192905841Y-121177629D01*
X192911011Y-121128444D01*
X192925113Y-120994266D01*
X192925803Y-120987701D01*
X192922697Y-120958148D01*
X192906531Y-120804336D01*
X192906531Y-120804334D01*
X192905841Y-120797773D01*
X192846826Y-120616145D01*
X192751339Y-120450757D01*
X192727207Y-120423955D01*
X192627974Y-120313746D01*
X192627973Y-120313745D01*
X192623552Y-120308835D01*
X192501462Y-120220131D01*
X192474393Y-120200464D01*
X192474392Y-120200463D01*
X192469051Y-120196583D01*
X192463023Y-120193899D01*
X192463021Y-120193898D01*
X192300618Y-120121592D01*
X192300617Y-120121592D01*
X192294587Y-120118907D01*
X192201187Y-120099054D01*
X192114243Y-120080573D01*
X192114238Y-120080573D01*
X192107786Y-120079201D01*
X191916812Y-120079201D01*
X191910360Y-120080573D01*
X191910355Y-120080573D01*
X191823411Y-120099054D01*
X191730011Y-120118907D01*
X191723981Y-120121592D01*
X191723980Y-120121592D01*
X191561577Y-120193898D01*
X191561575Y-120193899D01*
X191555547Y-120196583D01*
X191550206Y-120200463D01*
X191550205Y-120200464D01*
X191523136Y-120220131D01*
X191401046Y-120308835D01*
X191396625Y-120313745D01*
X191396624Y-120313746D01*
X191297392Y-120423955D01*
X191273259Y-120450757D01*
X191177772Y-120616145D01*
X191118757Y-120797773D01*
X191118067Y-120804334D01*
X191118067Y-120804336D01*
X191101392Y-120962994D01*
X191074379Y-121028651D01*
X191065177Y-121038919D01*
X190049500Y-122054595D01*
X189987188Y-122088621D01*
X189960405Y-122091500D01*
X189904513Y-122091500D01*
X189898061Y-122092872D01*
X189898056Y-122092872D01*
X189815229Y-122110478D01*
X189717712Y-122131206D01*
X189711682Y-122133891D01*
X189711681Y-122133891D01*
X189549278Y-122206197D01*
X189549276Y-122206198D01*
X189543248Y-122208882D01*
X189388747Y-122321134D01*
X189260960Y-122463056D01*
X189165473Y-122628444D01*
X189106458Y-122810072D01*
X189105768Y-122816633D01*
X189105768Y-122816635D01*
X189098699Y-122883891D01*
X189086496Y-123000000D01*
X189087186Y-123006565D01*
X189094489Y-123076045D01*
X189106458Y-123189928D01*
X189165473Y-123371556D01*
X189260960Y-123536944D01*
X189265378Y-123541851D01*
X189265379Y-123541852D01*
X189384325Y-123673955D01*
X189388747Y-123678866D01*
X189543248Y-123791118D01*
X189549276Y-123793802D01*
X189549278Y-123793803D01*
X189631612Y-123830460D01*
X189717712Y-123868794D01*
X189857745Y-123898559D01*
X189920218Y-123932288D01*
X189954540Y-123994437D01*
X189949812Y-124065276D01*
X189940668Y-124084805D01*
X189915473Y-124128444D01*
X189856458Y-124310072D01*
X189836496Y-124500000D01*
X189856458Y-124689928D01*
X189915473Y-124871556D01*
X190010960Y-125036944D01*
X190015378Y-125041851D01*
X190015379Y-125041852D01*
X190094404Y-125129618D01*
X190138747Y-125178866D01*
X190293248Y-125291118D01*
X190299276Y-125293802D01*
X190299278Y-125293803D01*
X190412607Y-125344260D01*
X190467712Y-125368794D01*
X190561113Y-125388647D01*
X190648056Y-125407128D01*
X190648061Y-125407128D01*
X190654513Y-125408500D01*
X190845487Y-125408500D01*
X190851939Y-125407128D01*
X190851944Y-125407128D01*
X190938887Y-125388647D01*
X191032288Y-125368794D01*
X191087393Y-125344260D01*
X191200722Y-125293803D01*
X191200724Y-125293802D01*
X191206752Y-125291118D01*
X191361253Y-125178866D01*
X191365668Y-125173963D01*
X191370580Y-125169540D01*
X191371705Y-125170789D01*
X191425014Y-125137949D01*
X191458200Y-125133500D01*
X214791800Y-125133500D01*
X214859921Y-125153502D01*
X214879147Y-125169843D01*
X214879420Y-125169540D01*
X214884332Y-125173963D01*
X214888747Y-125178866D01*
X215043248Y-125291118D01*
X215049276Y-125293802D01*
X215049278Y-125293803D01*
X215162607Y-125344260D01*
X215217712Y-125368794D01*
X215311113Y-125388647D01*
X215398056Y-125407128D01*
X215398061Y-125407128D01*
X215404513Y-125408500D01*
X215595487Y-125408500D01*
X215601939Y-125407128D01*
X215601944Y-125407128D01*
X215688887Y-125388647D01*
X215782288Y-125368794D01*
X215837393Y-125344260D01*
X215950722Y-125293803D01*
X215950724Y-125293802D01*
X215956752Y-125291118D01*
X216111253Y-125178866D01*
X216155596Y-125129618D01*
X216234621Y-125041852D01*
X216234622Y-125041851D01*
X216239040Y-125036944D01*
X216334527Y-124871556D01*
X216393542Y-124689928D01*
X216413504Y-124500000D01*
X216393542Y-124310072D01*
X216334527Y-124128444D01*
X216239040Y-123963056D01*
X216211337Y-123932288D01*
X216115675Y-123826045D01*
X216115674Y-123826044D01*
X216111253Y-123821134D01*
X215956752Y-123708882D01*
X215950724Y-123706198D01*
X215950722Y-123706197D01*
X215788319Y-123633891D01*
X215788318Y-123633891D01*
X215782288Y-123631206D01*
X215688888Y-123611353D01*
X215601944Y-123592872D01*
X215601939Y-123592872D01*
X215595487Y-123591500D01*
X215404513Y-123591500D01*
X215398061Y-123592872D01*
X215398056Y-123592872D01*
X215311112Y-123611353D01*
X215217712Y-123631206D01*
X215211682Y-123633891D01*
X215211681Y-123633891D01*
X215049278Y-123706197D01*
X215049276Y-123706198D01*
X215043248Y-123708882D01*
X214888747Y-123821134D01*
X214884332Y-123826037D01*
X214879420Y-123830460D01*
X214878295Y-123829211D01*
X214824986Y-123862051D01*
X214791800Y-123866500D01*
X193189660Y-123866500D01*
X193121539Y-123846498D01*
X193075046Y-123792842D01*
X193064942Y-123722568D01*
X193094436Y-123657988D01*
X193100565Y-123651405D01*
X194316533Y-122435437D01*
X194379431Y-122401285D01*
X194395589Y-122397850D01*
X194532288Y-122368794D01*
X194538319Y-122366109D01*
X194700722Y-122293803D01*
X194700724Y-122293802D01*
X194706752Y-122291118D01*
X194861253Y-122178866D01*
X194964076Y-122064669D01*
X194984621Y-122041852D01*
X194984622Y-122041851D01*
X194989040Y-122036944D01*
X195063197Y-121908500D01*
X195081223Y-121877279D01*
X195081224Y-121877278D01*
X195084527Y-121871556D01*
X195116016Y-121774645D01*
X195141502Y-121696207D01*
X195141502Y-121696205D01*
X195143542Y-121689928D01*
X195148450Y-121643230D01*
X195175463Y-121577573D01*
X195184665Y-121567305D01*
X195506565Y-121245405D01*
X195568877Y-121211379D01*
X195595660Y-121208500D01*
X198388595Y-121208500D01*
X198456716Y-121228502D01*
X198462656Y-121232564D01*
X198543248Y-121291118D01*
X198549276Y-121293802D01*
X198549278Y-121293803D01*
X198709799Y-121365271D01*
X198717712Y-121368794D01*
X198811112Y-121388647D01*
X198898056Y-121407128D01*
X198898061Y-121407128D01*
X198904513Y-121408500D01*
X199095487Y-121408500D01*
X199101939Y-121407128D01*
X199101944Y-121407128D01*
X199188888Y-121388647D01*
X199282288Y-121368794D01*
X199290201Y-121365271D01*
X199450722Y-121293803D01*
X199450724Y-121293802D01*
X199456752Y-121291118D01*
X199611253Y-121178866D01*
X199739040Y-121036944D01*
X199834527Y-120871556D01*
X199893542Y-120689928D01*
X199896990Y-120657128D01*
X199912814Y-120506565D01*
X199913504Y-120500000D01*
X199906028Y-120428866D01*
X199894232Y-120316635D01*
X199894232Y-120316633D01*
X199893542Y-120310072D01*
X199834527Y-120128444D01*
X199813990Y-120092872D01*
X199742341Y-119968774D01*
X199739040Y-119963056D01*
X199718216Y-119939928D01*
X199615675Y-119826045D01*
X199615674Y-119826044D01*
X199611253Y-119821134D01*
X199504310Y-119743435D01*
X199462094Y-119712763D01*
X199462093Y-119712762D01*
X199456752Y-119708882D01*
X199450724Y-119706198D01*
X199450722Y-119706197D01*
X199288319Y-119633891D01*
X199288318Y-119633891D01*
X199282288Y-119631206D01*
X199169622Y-119607258D01*
X199107149Y-119573529D01*
X199072827Y-119511380D01*
X199077555Y-119440541D01*
X199119831Y-119383503D01*
X199186232Y-119358376D01*
X199195819Y-119358011D01*
X199998688Y-119358011D01*
X200066809Y-119378013D01*
X200113302Y-119431669D01*
X200123406Y-119501943D01*
X200118522Y-119522942D01*
X200106458Y-119560072D01*
X200105768Y-119566633D01*
X200105768Y-119566635D01*
X200098699Y-119633891D01*
X200086496Y-119750000D01*
X200087186Y-119756565D01*
X200105253Y-119928459D01*
X200106458Y-119939928D01*
X200165473Y-120121556D01*
X200168776Y-120127278D01*
X200168777Y-120127279D01*
X200172992Y-120134580D01*
X200260960Y-120286944D01*
X200265378Y-120291851D01*
X200265379Y-120291852D01*
X200380350Y-120419540D01*
X200388747Y-120428866D01*
X200543248Y-120541118D01*
X200549276Y-120543802D01*
X200549278Y-120543803D01*
X200703654Y-120612535D01*
X200717712Y-120618794D01*
X200792680Y-120634729D01*
X200898056Y-120657128D01*
X200898061Y-120657128D01*
X200904513Y-120658500D01*
X201095487Y-120658500D01*
X201101939Y-120657128D01*
X201101944Y-120657128D01*
X201207320Y-120634729D01*
X201282288Y-120618794D01*
X201296346Y-120612535D01*
X201450722Y-120543803D01*
X201450724Y-120543802D01*
X201456752Y-120541118D01*
X201473155Y-120529201D01*
X201589671Y-120444546D01*
X201611253Y-120428866D01*
X201615668Y-120423963D01*
X201620580Y-120419540D01*
X201621705Y-120420789D01*
X201675014Y-120387949D01*
X201708200Y-120383500D01*
X215001320Y-120383500D01*
X215069441Y-120403502D01*
X215115934Y-120457158D01*
X215126038Y-120527432D01*
X215094956Y-120593810D01*
X215036709Y-120658500D01*
X214998661Y-120700757D01*
X214903174Y-120866145D01*
X214844159Y-121047773D01*
X214843469Y-121054334D01*
X214843469Y-121054336D01*
X214825164Y-121228502D01*
X214824197Y-121237701D01*
X214824887Y-121244266D01*
X214838266Y-121371556D01*
X214844159Y-121427629D01*
X214903174Y-121609257D01*
X214906477Y-121614979D01*
X214906478Y-121614980D01*
X214921874Y-121641646D01*
X214998661Y-121774645D01*
X215003079Y-121779552D01*
X215003080Y-121779553D01*
X215038858Y-121819288D01*
X215126448Y-121916567D01*
X215280949Y-122028819D01*
X215286977Y-122031503D01*
X215286979Y-122031504D01*
X215424815Y-122092872D01*
X215455413Y-122106495D01*
X215548813Y-122126348D01*
X215635757Y-122144829D01*
X215635762Y-122144829D01*
X215642214Y-122146201D01*
X215833188Y-122146201D01*
X215839640Y-122144829D01*
X215839645Y-122144829D01*
X215926589Y-122126348D01*
X216019989Y-122106495D01*
X216053669Y-122091500D01*
X216113932Y-122064669D01*
X216172357Y-122038657D01*
X216242722Y-122029223D01*
X216307019Y-122059329D01*
X216312699Y-122064669D01*
X217815741Y-123567712D01*
X219315335Y-125067306D01*
X219349361Y-125129618D01*
X219351550Y-125143230D01*
X219356458Y-125189928D01*
X219415473Y-125371556D01*
X219418776Y-125377278D01*
X219418777Y-125377279D01*
X219436803Y-125408500D01*
X219510960Y-125536944D01*
X219515378Y-125541851D01*
X219515379Y-125541852D01*
X219521091Y-125548196D01*
X219638747Y-125678866D01*
X219793248Y-125791118D01*
X219799276Y-125793802D01*
X219799278Y-125793803D01*
X219944263Y-125858354D01*
X219967712Y-125868794D01*
X220061112Y-125888647D01*
X220148056Y-125907128D01*
X220148061Y-125907128D01*
X220154513Y-125908500D01*
X220345487Y-125908500D01*
X220351939Y-125907128D01*
X220351944Y-125907128D01*
X220438888Y-125888647D01*
X220532288Y-125868794D01*
X220555737Y-125858354D01*
X220700722Y-125793803D01*
X220700724Y-125793802D01*
X220706752Y-125791118D01*
X220861253Y-125678866D01*
X220978909Y-125548196D01*
X220984621Y-125541852D01*
X220984622Y-125541851D01*
X220989040Y-125536944D01*
X221063197Y-125408500D01*
X221081223Y-125377279D01*
X221081224Y-125377278D01*
X221084527Y-125371556D01*
X221143542Y-125189928D01*
X221147371Y-125153502D01*
X221162814Y-125006565D01*
X221163504Y-125000000D01*
X221160850Y-124974750D01*
X221144232Y-124816635D01*
X221144232Y-124816633D01*
X221143542Y-124810072D01*
X221084527Y-124628444D01*
X220989040Y-124463056D01*
X220861253Y-124321134D01*
X220706752Y-124208882D01*
X220700724Y-124206198D01*
X220700722Y-124206197D01*
X220538319Y-124133891D01*
X220538318Y-124133891D01*
X220532288Y-124131206D01*
X220379431Y-124098715D01*
X220316533Y-124064563D01*
X220134673Y-123882703D01*
X238890743Y-123882703D01*
X238891302Y-123886947D01*
X238891302Y-123886951D01*
X238901322Y-123963056D01*
X238928268Y-124167734D01*
X238929401Y-124171874D01*
X238929401Y-124171876D01*
X238950415Y-124248689D01*
X239004129Y-124445036D01*
X239005813Y-124448984D01*
X239105786Y-124683365D01*
X239116923Y-124709476D01*
X239264561Y-124956161D01*
X239444313Y-125180528D01*
X239461397Y-125196740D01*
X239645615Y-125371556D01*
X239652851Y-125378423D01*
X239842936Y-125515013D01*
X239880286Y-125541852D01*
X239886317Y-125546186D01*
X239890112Y-125548195D01*
X239890113Y-125548196D01*
X239911869Y-125559715D01*
X240140392Y-125680712D01*
X240410373Y-125779511D01*
X240691264Y-125840755D01*
X240719841Y-125843004D01*
X240914282Y-125858307D01*
X240914291Y-125858307D01*
X240916739Y-125858500D01*
X241072271Y-125858500D01*
X241074407Y-125858354D01*
X241074418Y-125858354D01*
X241282548Y-125844165D01*
X241282554Y-125844164D01*
X241286825Y-125843873D01*
X241291020Y-125843004D01*
X241291022Y-125843004D01*
X241528605Y-125793803D01*
X241568342Y-125785574D01*
X241839343Y-125689607D01*
X242094812Y-125557750D01*
X242098313Y-125555289D01*
X242098317Y-125555287D01*
X242307173Y-125408500D01*
X242330023Y-125392441D01*
X242540622Y-125196740D01*
X242722713Y-124974268D01*
X242872927Y-124729142D01*
X242988483Y-124465898D01*
X243067244Y-124189406D01*
X243107751Y-123904784D01*
X243107845Y-123886951D01*
X243109235Y-123621583D01*
X243109235Y-123621576D01*
X243109257Y-123617297D01*
X243107170Y-123601440D01*
X243077658Y-123377279D01*
X243071732Y-123332266D01*
X242995871Y-123054964D01*
X242972427Y-123000000D01*
X242884763Y-122794476D01*
X242884761Y-122794472D01*
X242883077Y-122790524D01*
X242735439Y-122543839D01*
X242555687Y-122319472D01*
X242402344Y-122173955D01*
X242350258Y-122124527D01*
X242350255Y-122124525D01*
X242347149Y-122121577D01*
X242113683Y-121953814D01*
X242091843Y-121942250D01*
X242043336Y-121916567D01*
X241859608Y-121819288D01*
X241589627Y-121720489D01*
X241308736Y-121659245D01*
X241277685Y-121656801D01*
X241085718Y-121641693D01*
X241085709Y-121641693D01*
X241083261Y-121641500D01*
X240927729Y-121641500D01*
X240925593Y-121641646D01*
X240925582Y-121641646D01*
X240717452Y-121655835D01*
X240717446Y-121655836D01*
X240713175Y-121656127D01*
X240708980Y-121656996D01*
X240708978Y-121656996D01*
X240572416Y-121685277D01*
X240431658Y-121714426D01*
X240160657Y-121810393D01*
X240156848Y-121812359D01*
X240042156Y-121871556D01*
X239905188Y-121942250D01*
X239901687Y-121944711D01*
X239901683Y-121944713D01*
X239891594Y-121951804D01*
X239669977Y-122107559D01*
X239629870Y-122144829D01*
X239476621Y-122287237D01*
X239459378Y-122303260D01*
X239277287Y-122525732D01*
X239127073Y-122770858D01*
X239125347Y-122774791D01*
X239125346Y-122774792D01*
X239042833Y-122962763D01*
X239011517Y-123034102D01*
X238932756Y-123310594D01*
X238892249Y-123595216D01*
X238892227Y-123599505D01*
X238892226Y-123599512D01*
X238890765Y-123878417D01*
X238890743Y-123882703D01*
X220134673Y-123882703D01*
X217009151Y-120757181D01*
X217003297Y-120750916D01*
X217002902Y-120750463D01*
X216965262Y-120707316D01*
X216912981Y-120670572D01*
X216907687Y-120666640D01*
X216863394Y-120631910D01*
X216857419Y-120627225D01*
X216850502Y-120624102D01*
X216848126Y-120622663D01*
X216830406Y-120612537D01*
X216830307Y-120612467D01*
X216786167Y-120556861D01*
X216779097Y-120486217D01*
X216811342Y-120422966D01*
X216872665Y-120387188D01*
X216902927Y-120383500D01*
X223921233Y-120383500D01*
X223932416Y-120384027D01*
X223939909Y-120385702D01*
X223947835Y-120385453D01*
X223947836Y-120385453D01*
X224007986Y-120383562D01*
X224011945Y-120383500D01*
X224039856Y-120383500D01*
X224043791Y-120383003D01*
X224043856Y-120382995D01*
X224055693Y-120382062D01*
X224087951Y-120381048D01*
X224091970Y-120380922D01*
X224099889Y-120380673D01*
X224119343Y-120375021D01*
X224138700Y-120371013D01*
X224150930Y-120369468D01*
X224150931Y-120369468D01*
X224158797Y-120368474D01*
X224166168Y-120365555D01*
X224166170Y-120365555D01*
X224199912Y-120352196D01*
X224211142Y-120348351D01*
X224245983Y-120338229D01*
X224245984Y-120338229D01*
X224253593Y-120336018D01*
X224260412Y-120331985D01*
X224260417Y-120331983D01*
X224271028Y-120325707D01*
X224288776Y-120317012D01*
X224307617Y-120309552D01*
X224315543Y-120303794D01*
X224343387Y-120283564D01*
X224353307Y-120277048D01*
X224384535Y-120258580D01*
X224384538Y-120258578D01*
X224391362Y-120254542D01*
X224405683Y-120240221D01*
X224420717Y-120227380D01*
X224430694Y-120220131D01*
X224437107Y-120215472D01*
X224465298Y-120181395D01*
X224473288Y-120172616D01*
X227950499Y-116695405D01*
X228012811Y-116661379D01*
X228039594Y-116658500D01*
X228095487Y-116658500D01*
X228101939Y-116657128D01*
X228101944Y-116657128D01*
X228225263Y-116630915D01*
X228282288Y-116618794D01*
X228309816Y-116606538D01*
X228450722Y-116543803D01*
X228450724Y-116543802D01*
X228456752Y-116541118D01*
X228611253Y-116428866D01*
X228667760Y-116366109D01*
X228734621Y-116291852D01*
X228734622Y-116291851D01*
X228739040Y-116286944D01*
X228834527Y-116121556D01*
X228893542Y-115939928D01*
X228896990Y-115907128D01*
X228912814Y-115756565D01*
X228913504Y-115750000D01*
X228907190Y-115689928D01*
X228894232Y-115566635D01*
X228894232Y-115566633D01*
X228893542Y-115560072D01*
X228834527Y-115378444D01*
X228739040Y-115213056D01*
X228732537Y-115205833D01*
X228615675Y-115076045D01*
X228615674Y-115076044D01*
X228611253Y-115071134D01*
X228466778Y-114966166D01*
X228462094Y-114962763D01*
X228462093Y-114962762D01*
X228456752Y-114958882D01*
X228450724Y-114956198D01*
X228450722Y-114956197D01*
X228288319Y-114883891D01*
X228288318Y-114883891D01*
X228282288Y-114881206D01*
X228188888Y-114861353D01*
X228101944Y-114842872D01*
X228101939Y-114842872D01*
X228095487Y-114841500D01*
X227904513Y-114841500D01*
X227898061Y-114842872D01*
X227898056Y-114842872D01*
X227811112Y-114861353D01*
X227717712Y-114881206D01*
X227711682Y-114883891D01*
X227711681Y-114883891D01*
X227549278Y-114956197D01*
X227549276Y-114956198D01*
X227543248Y-114958882D01*
X227537907Y-114962762D01*
X227537906Y-114962763D01*
X227533222Y-114966166D01*
X227388747Y-115071134D01*
X227384326Y-115076044D01*
X227384325Y-115076045D01*
X227267464Y-115205833D01*
X227260960Y-115213056D01*
X227165473Y-115378444D01*
X227106458Y-115560072D01*
X227105768Y-115566633D01*
X227105768Y-115566635D01*
X227089093Y-115725292D01*
X227062080Y-115790949D01*
X227052878Y-115801217D01*
X223774500Y-119079595D01*
X223712188Y-119113621D01*
X223685405Y-119116500D01*
X218038814Y-119116500D01*
X217970693Y-119096498D01*
X217924200Y-119042842D01*
X217914850Y-118999859D01*
X217913504Y-119000000D01*
X217894232Y-118816635D01*
X217894232Y-118816633D01*
X217893542Y-118810072D01*
X217834527Y-118628444D01*
X217796808Y-118563112D01*
X217742342Y-118468775D01*
X217742341Y-118468774D01*
X217739040Y-118463056D01*
X217734621Y-118458148D01*
X217732564Y-118455317D01*
X217708705Y-118388449D01*
X217708500Y-118381256D01*
X217708500Y-118345660D01*
X217728502Y-118277539D01*
X217745405Y-118256565D01*
X218066533Y-117935437D01*
X218129431Y-117901285D01*
X218145589Y-117897850D01*
X218282288Y-117868794D01*
X218288319Y-117866109D01*
X218450722Y-117793803D01*
X218450724Y-117793802D01*
X218456752Y-117791118D01*
X218611253Y-117678866D01*
X218739040Y-117536944D01*
X218834527Y-117371556D01*
X218893542Y-117189928D01*
X218902862Y-117101258D01*
X218912814Y-117006565D01*
X218913504Y-117000000D01*
X218895920Y-116832698D01*
X218894232Y-116816635D01*
X218894232Y-116816633D01*
X218893542Y-116810072D01*
X218834527Y-116628444D01*
X218827406Y-116616109D01*
X218782792Y-116538836D01*
X218739040Y-116463056D01*
X218711752Y-116432749D01*
X218615675Y-116326045D01*
X218615674Y-116326044D01*
X218611253Y-116321134D01*
X218456752Y-116208882D01*
X218450724Y-116206198D01*
X218450722Y-116206197D01*
X218437598Y-116200354D01*
X218383502Y-116154373D01*
X218362853Y-116086446D01*
X218382206Y-116018138D01*
X218399752Y-115996152D01*
X219450499Y-114945405D01*
X219512811Y-114911379D01*
X219539594Y-114908500D01*
X219595487Y-114908500D01*
X219601939Y-114907128D01*
X219601944Y-114907128D01*
X219688888Y-114888647D01*
X219782288Y-114868794D01*
X219862598Y-114833038D01*
X219950722Y-114793803D01*
X219950724Y-114793802D01*
X219956752Y-114791118D01*
X220111253Y-114678866D01*
X220239040Y-114536944D01*
X220334527Y-114371556D01*
X220393542Y-114189928D01*
X220401080Y-114118213D01*
X220412814Y-114006565D01*
X220413504Y-114000000D01*
X220393542Y-113810072D01*
X220334527Y-113628444D01*
X220239040Y-113463056D01*
X220111253Y-113321134D01*
X219956752Y-113208882D01*
X219950724Y-113206198D01*
X219950722Y-113206197D01*
X219788319Y-113133891D01*
X219788318Y-113133891D01*
X219782288Y-113131206D01*
X219688888Y-113111353D01*
X219601944Y-113092872D01*
X219601939Y-113092872D01*
X219595487Y-113091500D01*
X219404513Y-113091500D01*
X219398061Y-113092872D01*
X219398056Y-113092872D01*
X219311112Y-113111353D01*
X219217712Y-113131206D01*
X219211682Y-113133891D01*
X219211681Y-113133891D01*
X219049278Y-113206197D01*
X219049276Y-113206198D01*
X219043248Y-113208882D01*
X218888747Y-113321134D01*
X218760960Y-113463056D01*
X218665473Y-113628444D01*
X218606458Y-113810072D01*
X218605768Y-113816633D01*
X218605768Y-113816635D01*
X218589093Y-113975293D01*
X218562080Y-114040950D01*
X218552878Y-114051218D01*
X214549989Y-118054106D01*
X214487677Y-118088132D01*
X214460894Y-118091011D01*
X201239747Y-118091011D01*
X201171626Y-118071009D01*
X201125133Y-118017353D01*
X201115029Y-117947079D01*
X201144523Y-117882499D01*
X201150652Y-117875916D01*
X202781163Y-116245405D01*
X202843475Y-116211379D01*
X202870258Y-116208500D01*
X204138595Y-116208500D01*
X204206716Y-116228502D01*
X204212656Y-116232564D01*
X204293248Y-116291118D01*
X204299276Y-116293802D01*
X204299278Y-116293803D01*
X204461681Y-116366109D01*
X204467712Y-116368794D01*
X204557325Y-116387842D01*
X204648056Y-116407128D01*
X204648061Y-116407128D01*
X204654513Y-116408500D01*
X204845487Y-116408500D01*
X204851939Y-116407128D01*
X204851944Y-116407128D01*
X204942675Y-116387842D01*
X205032288Y-116368794D01*
X205038319Y-116366109D01*
X205200722Y-116293803D01*
X205200724Y-116293802D01*
X205206752Y-116291118D01*
X205361253Y-116178866D01*
X205489040Y-116036944D01*
X205563197Y-115908500D01*
X205581223Y-115877279D01*
X205581224Y-115877278D01*
X205584527Y-115871556D01*
X205643542Y-115689928D01*
X205650083Y-115627699D01*
X205662814Y-115506565D01*
X205663504Y-115500000D01*
X205654743Y-115416647D01*
X205644232Y-115316635D01*
X205644232Y-115316633D01*
X205643542Y-115310072D01*
X205584527Y-115128444D01*
X205581008Y-115122348D01*
X205533497Y-115040058D01*
X205489040Y-114963056D01*
X205461752Y-114932749D01*
X205365675Y-114826045D01*
X205365674Y-114826044D01*
X205361253Y-114821134D01*
X205235030Y-114729427D01*
X205212094Y-114712763D01*
X205212093Y-114712762D01*
X205206752Y-114708882D01*
X205200724Y-114706198D01*
X205200722Y-114706197D01*
X205038319Y-114633891D01*
X205038318Y-114633891D01*
X205032288Y-114631206D01*
X204938887Y-114611353D01*
X204851944Y-114592872D01*
X204851939Y-114592872D01*
X204845487Y-114591500D01*
X204654513Y-114591500D01*
X204648061Y-114592872D01*
X204648056Y-114592872D01*
X204561113Y-114611353D01*
X204467712Y-114631206D01*
X204461682Y-114633891D01*
X204461681Y-114633891D01*
X204299278Y-114706197D01*
X204299276Y-114706198D01*
X204293248Y-114708882D01*
X204287907Y-114712762D01*
X204287906Y-114712763D01*
X204212656Y-114767436D01*
X204145789Y-114791294D01*
X204138595Y-114791500D01*
X203408594Y-114791500D01*
X203340473Y-114771498D01*
X203293980Y-114717842D01*
X203283876Y-114647568D01*
X203313370Y-114582988D01*
X203319499Y-114576405D01*
X207145904Y-110750000D01*
X221336496Y-110750000D01*
X221337186Y-110756565D01*
X221354362Y-110919981D01*
X221356458Y-110939928D01*
X221415473Y-111121556D01*
X221510960Y-111286944D01*
X221584137Y-111368215D01*
X221614853Y-111432221D01*
X221616500Y-111452524D01*
X221616500Y-112171233D01*
X221615973Y-112182416D01*
X221614298Y-112189909D01*
X221614547Y-112197835D01*
X221614547Y-112197836D01*
X221616438Y-112257986D01*
X221616500Y-112261945D01*
X221616500Y-112289856D01*
X221616997Y-112293790D01*
X221616997Y-112293791D01*
X221617005Y-112293856D01*
X221617938Y-112305693D01*
X221619327Y-112349889D01*
X221623796Y-112365271D01*
X221624978Y-112369339D01*
X221628987Y-112388700D01*
X221631526Y-112408797D01*
X221634445Y-112416168D01*
X221634445Y-112416170D01*
X221647804Y-112449912D01*
X221651649Y-112461142D01*
X221663982Y-112503593D01*
X221668015Y-112510412D01*
X221668017Y-112510417D01*
X221674293Y-112521028D01*
X221682988Y-112538776D01*
X221690448Y-112557617D01*
X221695110Y-112564033D01*
X221695110Y-112564034D01*
X221716436Y-112593387D01*
X221722952Y-112603307D01*
X221735592Y-112624679D01*
X221745458Y-112641362D01*
X221759779Y-112655683D01*
X221772619Y-112670716D01*
X221784528Y-112687107D01*
X221818605Y-112715298D01*
X221827384Y-112723288D01*
X223302878Y-114198783D01*
X223336904Y-114261095D01*
X223339093Y-114274706D01*
X223356458Y-114439928D01*
X223415473Y-114621556D01*
X223418776Y-114627278D01*
X223418777Y-114627279D01*
X223423078Y-114634729D01*
X223510960Y-114786944D01*
X223515378Y-114791851D01*
X223515379Y-114791852D01*
X223552463Y-114833038D01*
X223638747Y-114928866D01*
X223793248Y-115041118D01*
X223799276Y-115043802D01*
X223799278Y-115043803D01*
X223879669Y-115079595D01*
X223967712Y-115118794D01*
X224042680Y-115134729D01*
X224148056Y-115157128D01*
X224148061Y-115157128D01*
X224154513Y-115158500D01*
X224345487Y-115158500D01*
X224351939Y-115157128D01*
X224351944Y-115157128D01*
X224457320Y-115134729D01*
X224532288Y-115118794D01*
X224620331Y-115079595D01*
X224700722Y-115043803D01*
X224700724Y-115043802D01*
X224706752Y-115041118D01*
X224861253Y-114928866D01*
X224947537Y-114833038D01*
X224984621Y-114791852D01*
X224984622Y-114791851D01*
X224989040Y-114786944D01*
X225076922Y-114634729D01*
X225081223Y-114627279D01*
X225081224Y-114627278D01*
X225084527Y-114621556D01*
X225143542Y-114439928D01*
X225151355Y-114365597D01*
X225162814Y-114256565D01*
X225163504Y-114250000D01*
X225157190Y-114189928D01*
X225144232Y-114066635D01*
X225144232Y-114066633D01*
X225143542Y-114060072D01*
X225084527Y-113878444D01*
X224989040Y-113713056D01*
X224968216Y-113689928D01*
X224865675Y-113576045D01*
X224865674Y-113576044D01*
X224861253Y-113571134D01*
X224706752Y-113458882D01*
X224700724Y-113456198D01*
X224700722Y-113456197D01*
X224538319Y-113383891D01*
X224538318Y-113383891D01*
X224532288Y-113381206D01*
X224438888Y-113361353D01*
X224351944Y-113342872D01*
X224351939Y-113342872D01*
X224345487Y-113341500D01*
X224289594Y-113341500D01*
X224221473Y-113321498D01*
X224200499Y-113304595D01*
X222920405Y-112024500D01*
X222886379Y-111962188D01*
X222883500Y-111935405D01*
X222883500Y-111452524D01*
X222903502Y-111384403D01*
X222915858Y-111368221D01*
X222989040Y-111286944D01*
X223084527Y-111121556D01*
X223143542Y-110939928D01*
X223145639Y-110919981D01*
X223162814Y-110756565D01*
X223163504Y-110750000D01*
X223143542Y-110560072D01*
X223084527Y-110378444D01*
X222989040Y-110213056D01*
X222954096Y-110174246D01*
X222865675Y-110076045D01*
X222865674Y-110076044D01*
X222861253Y-110071134D01*
X222706752Y-109958882D01*
X222700724Y-109956198D01*
X222700722Y-109956197D01*
X222538319Y-109883891D01*
X222538318Y-109883891D01*
X222532288Y-109881206D01*
X222424642Y-109858325D01*
X222351944Y-109842872D01*
X222351939Y-109842872D01*
X222345487Y-109841500D01*
X222154513Y-109841500D01*
X222148061Y-109842872D01*
X222148056Y-109842872D01*
X222075358Y-109858325D01*
X221967712Y-109881206D01*
X221961682Y-109883891D01*
X221961681Y-109883891D01*
X221799278Y-109956197D01*
X221799276Y-109956198D01*
X221793248Y-109958882D01*
X221638747Y-110071134D01*
X221634326Y-110076044D01*
X221634325Y-110076045D01*
X221545905Y-110174246D01*
X221510960Y-110213056D01*
X221415473Y-110378444D01*
X221356458Y-110560072D01*
X221336496Y-110750000D01*
X207145904Y-110750000D01*
X210886646Y-107009258D01*
X210948957Y-106975233D01*
X211019772Y-106980298D01*
X211076608Y-107022845D01*
X211101419Y-107089365D01*
X211101050Y-107111524D01*
X211092810Y-107189928D01*
X211086496Y-107250000D01*
X211087186Y-107256565D01*
X211094953Y-107330460D01*
X211106458Y-107439928D01*
X211165473Y-107621556D01*
X211168776Y-107627278D01*
X211168777Y-107627279D01*
X211238520Y-107748077D01*
X211260960Y-107786944D01*
X211265379Y-107791852D01*
X211267436Y-107794683D01*
X211291295Y-107861551D01*
X211291500Y-107868744D01*
X211291500Y-108766528D01*
X211271498Y-108834649D01*
X211216748Y-108881635D01*
X211049281Y-108956195D01*
X211049274Y-108956199D01*
X211043248Y-108958882D01*
X211037907Y-108962762D01*
X211037906Y-108962763D01*
X211016385Y-108978399D01*
X210888747Y-109071134D01*
X210884326Y-109076044D01*
X210884325Y-109076045D01*
X210879946Y-109080909D01*
X210760960Y-109213056D01*
X210665473Y-109378444D01*
X210606458Y-109560072D01*
X210605768Y-109566633D01*
X210605768Y-109566635D01*
X210592810Y-109689928D01*
X210586496Y-109750000D01*
X210587186Y-109756565D01*
X210603877Y-109915367D01*
X210606458Y-109939928D01*
X210665473Y-110121556D01*
X210760960Y-110286944D01*
X210765378Y-110291851D01*
X210765379Y-110291852D01*
X210807837Y-110339006D01*
X210888747Y-110428866D01*
X211043248Y-110541118D01*
X211049276Y-110543802D01*
X211049278Y-110543803D01*
X211100560Y-110566635D01*
X211217712Y-110618794D01*
X211292680Y-110634729D01*
X211398056Y-110657128D01*
X211398061Y-110657128D01*
X211404513Y-110658500D01*
X211595487Y-110658500D01*
X211601939Y-110657128D01*
X211601944Y-110657128D01*
X211707320Y-110634729D01*
X211782288Y-110618794D01*
X211899440Y-110566635D01*
X211950722Y-110543803D01*
X211950724Y-110543802D01*
X211956752Y-110541118D01*
X212111253Y-110428866D01*
X212192163Y-110339006D01*
X212234621Y-110291852D01*
X212234622Y-110291851D01*
X212239040Y-110286944D01*
X212334527Y-110121556D01*
X212372993Y-110003170D01*
X212391502Y-109946207D01*
X212391502Y-109946205D01*
X212393542Y-109939928D01*
X212398450Y-109893230D01*
X212425463Y-109827573D01*
X212434665Y-109817305D01*
X212480520Y-109771450D01*
X212486785Y-109765596D01*
X212524664Y-109732552D01*
X212524665Y-109732551D01*
X212530385Y-109727561D01*
X212538248Y-109716373D01*
X212552235Y-109699735D01*
X215251970Y-107000000D01*
X216086496Y-107000000D01*
X216087186Y-107006565D01*
X216099306Y-107121877D01*
X216106458Y-107189928D01*
X216165473Y-107371556D01*
X216260960Y-107536944D01*
X216265378Y-107541851D01*
X216265379Y-107541852D01*
X216319785Y-107602276D01*
X216388747Y-107678866D01*
X216443758Y-107718834D01*
X216529632Y-107781225D01*
X216543248Y-107791118D01*
X216549276Y-107793802D01*
X216549278Y-107793803D01*
X216711681Y-107866109D01*
X216717712Y-107868794D01*
X216811112Y-107888647D01*
X216898056Y-107907128D01*
X216898061Y-107907128D01*
X216904513Y-107908500D01*
X217095487Y-107908500D01*
X217101939Y-107907128D01*
X217101944Y-107907128D01*
X217188888Y-107888647D01*
X217282288Y-107868794D01*
X217288319Y-107866109D01*
X217450722Y-107793803D01*
X217450724Y-107793802D01*
X217456752Y-107791118D01*
X217470369Y-107781225D01*
X217556242Y-107718834D01*
X217611253Y-107678866D01*
X217680215Y-107602276D01*
X217734621Y-107541852D01*
X217734622Y-107541851D01*
X217739040Y-107536944D01*
X217834527Y-107371556D01*
X217893542Y-107189928D01*
X217901783Y-107111524D01*
X217910907Y-107024708D01*
X217937920Y-106959051D01*
X217947122Y-106948782D01*
X218214151Y-106681754D01*
X218276463Y-106647729D01*
X218347279Y-106652794D01*
X218391057Y-106682578D01*
X218391722Y-106681840D01*
X218396624Y-106686253D01*
X218401046Y-106691165D01*
X218451014Y-106727469D01*
X218548693Y-106798437D01*
X218555547Y-106803417D01*
X218561575Y-106806101D01*
X218561577Y-106806102D01*
X218705468Y-106870166D01*
X218730011Y-106881093D01*
X218823412Y-106900946D01*
X218910355Y-106919427D01*
X218910360Y-106919427D01*
X218916812Y-106920799D01*
X219107786Y-106920799D01*
X219114238Y-106919427D01*
X219114243Y-106919427D01*
X219201186Y-106900946D01*
X219294587Y-106881093D01*
X219319130Y-106870166D01*
X219463021Y-106806102D01*
X219463023Y-106806101D01*
X219469051Y-106803417D01*
X219475906Y-106798437D01*
X219601970Y-106706845D01*
X219623552Y-106691165D01*
X219631134Y-106682745D01*
X219637937Y-106675189D01*
X219698383Y-106637950D01*
X219731573Y-106633500D01*
X219990406Y-106633500D01*
X220058527Y-106653502D01*
X220105020Y-106707158D01*
X220115124Y-106777432D01*
X220110238Y-106798438D01*
X220108498Y-106803792D01*
X220108498Y-106803794D01*
X220106458Y-106810072D01*
X220105768Y-106816633D01*
X220105768Y-106816635D01*
X220093972Y-106928866D01*
X220086496Y-107000000D01*
X220087186Y-107006565D01*
X220099306Y-107121877D01*
X220106458Y-107189928D01*
X220165473Y-107371556D01*
X220260960Y-107536944D01*
X220265378Y-107541851D01*
X220265379Y-107541852D01*
X220319785Y-107602276D01*
X220388747Y-107678866D01*
X220443758Y-107718834D01*
X220529632Y-107781225D01*
X220543248Y-107791118D01*
X220549276Y-107793802D01*
X220549278Y-107793803D01*
X220711681Y-107866109D01*
X220717712Y-107868794D01*
X220811112Y-107888647D01*
X220898056Y-107907128D01*
X220898061Y-107907128D01*
X220904513Y-107908500D01*
X221095487Y-107908500D01*
X221101939Y-107907128D01*
X221101944Y-107907128D01*
X221188888Y-107888647D01*
X221282288Y-107868794D01*
X221288319Y-107866109D01*
X221450722Y-107793803D01*
X221450724Y-107793802D01*
X221456752Y-107791118D01*
X221470369Y-107781225D01*
X221550651Y-107722896D01*
X221617518Y-107699038D01*
X221624712Y-107698832D01*
X228357132Y-107698832D01*
X228425253Y-107718834D01*
X228444479Y-107735175D01*
X228444752Y-107734872D01*
X228449664Y-107739295D01*
X228454079Y-107744198D01*
X228475661Y-107759878D01*
X228560476Y-107821500D01*
X228608580Y-107856450D01*
X228614608Y-107859134D01*
X228614610Y-107859135D01*
X228773907Y-107930058D01*
X228783044Y-107934126D01*
X228876445Y-107953979D01*
X228963388Y-107972460D01*
X228963393Y-107972460D01*
X228969845Y-107973832D01*
X229160819Y-107973832D01*
X229167271Y-107972460D01*
X229167276Y-107972460D01*
X229254220Y-107953979D01*
X229347620Y-107934126D01*
X229356757Y-107930058D01*
X229516054Y-107859135D01*
X229516056Y-107859134D01*
X229522084Y-107856450D01*
X229571067Y-107820862D01*
X229594558Y-107803794D01*
X229676585Y-107744198D01*
X229684982Y-107734872D01*
X229799953Y-107607184D01*
X229799954Y-107607183D01*
X229804372Y-107602276D01*
X229899859Y-107436888D01*
X229958874Y-107255260D01*
X229960426Y-107240500D01*
X229978146Y-107071897D01*
X229978836Y-107065332D01*
X229974566Y-107024708D01*
X229959564Y-106881967D01*
X229959564Y-106881965D01*
X229958874Y-106875404D01*
X229933865Y-106798435D01*
X229931837Y-106727469D01*
X229968499Y-106666671D01*
X230032211Y-106635346D01*
X230053698Y-106633500D01*
X230291800Y-106633500D01*
X230359921Y-106653502D01*
X230379147Y-106669843D01*
X230379420Y-106669540D01*
X230384332Y-106673963D01*
X230388747Y-106678866D01*
X230543248Y-106791118D01*
X230549276Y-106793802D01*
X230549278Y-106793803D01*
X230600560Y-106816635D01*
X230717712Y-106868794D01*
X230782029Y-106882465D01*
X230898056Y-106907128D01*
X230898061Y-106907128D01*
X230904513Y-106908500D01*
X231095487Y-106908500D01*
X231101939Y-106907128D01*
X231101944Y-106907128D01*
X231217971Y-106882465D01*
X231282288Y-106868794D01*
X231399440Y-106816635D01*
X231450722Y-106793803D01*
X231450724Y-106793802D01*
X231456752Y-106791118D01*
X231611253Y-106678866D01*
X231619650Y-106669540D01*
X231734621Y-106541852D01*
X231734622Y-106541851D01*
X231739040Y-106536944D01*
X231798841Y-106433365D01*
X231831223Y-106377279D01*
X231831224Y-106377278D01*
X231834527Y-106371556D01*
X231893542Y-106189928D01*
X231899292Y-106135225D01*
X231911262Y-106021330D01*
X231938275Y-105955673D01*
X231996497Y-105915043D01*
X232036572Y-105908500D01*
X232095487Y-105908500D01*
X232101939Y-105907128D01*
X232101944Y-105907128D01*
X232207320Y-105884729D01*
X232282288Y-105868794D01*
X232288319Y-105866109D01*
X232450722Y-105793803D01*
X232450724Y-105793802D01*
X232456752Y-105791118D01*
X232611253Y-105678866D01*
X232739040Y-105536944D01*
X232814692Y-105405912D01*
X232831223Y-105377279D01*
X232831224Y-105377278D01*
X232834527Y-105371556D01*
X232893542Y-105189928D01*
X232913504Y-105000000D01*
X232912277Y-104988323D01*
X232894232Y-104816635D01*
X232894232Y-104816633D01*
X232893542Y-104810072D01*
X232834527Y-104628444D01*
X232739040Y-104463056D01*
X232722882Y-104445110D01*
X232615675Y-104326045D01*
X232615674Y-104326044D01*
X232611253Y-104321134D01*
X232456752Y-104208882D01*
X232450724Y-104206198D01*
X232450722Y-104206197D01*
X232288319Y-104133891D01*
X232288318Y-104133891D01*
X232282288Y-104131206D01*
X232188887Y-104111353D01*
X232101944Y-104092872D01*
X232101939Y-104092872D01*
X232095487Y-104091500D01*
X231904513Y-104091500D01*
X231898061Y-104092872D01*
X231898056Y-104092872D01*
X231811113Y-104111353D01*
X231717712Y-104131206D01*
X231711682Y-104133891D01*
X231711681Y-104133891D01*
X231549278Y-104206197D01*
X231549276Y-104206198D01*
X231543248Y-104208882D01*
X231537907Y-104212762D01*
X231537906Y-104212763D01*
X231422335Y-104296731D01*
X231388747Y-104321134D01*
X231384332Y-104326037D01*
X231379420Y-104330460D01*
X231378295Y-104329211D01*
X231324986Y-104362051D01*
X231291800Y-104366500D01*
X219078767Y-104366500D01*
X219067584Y-104365973D01*
X219060091Y-104364298D01*
X219052165Y-104364547D01*
X219052164Y-104364547D01*
X218992014Y-104366438D01*
X218988055Y-104366500D01*
X218960144Y-104366500D01*
X218956210Y-104366997D01*
X218956209Y-104366997D01*
X218956144Y-104367005D01*
X218944307Y-104367938D01*
X218912490Y-104368938D01*
X218908029Y-104369078D01*
X218900110Y-104369327D01*
X218882454Y-104374456D01*
X218880658Y-104374978D01*
X218861306Y-104378986D01*
X218860958Y-104379030D01*
X218841203Y-104381526D01*
X218833834Y-104384443D01*
X218833832Y-104384444D01*
X218800097Y-104397800D01*
X218788869Y-104401645D01*
X218746407Y-104413982D01*
X218739584Y-104418017D01*
X218739582Y-104418018D01*
X218728972Y-104424293D01*
X218711224Y-104432988D01*
X218692383Y-104440448D01*
X218685967Y-104445110D01*
X218685966Y-104445110D01*
X218656613Y-104466436D01*
X218646693Y-104472952D01*
X218615465Y-104491420D01*
X218615462Y-104491422D01*
X218608638Y-104495458D01*
X218594317Y-104509779D01*
X218579284Y-104522619D01*
X218562893Y-104534528D01*
X218557842Y-104540634D01*
X218534702Y-104568605D01*
X218526712Y-104577384D01*
X217049500Y-106054595D01*
X216987188Y-106088621D01*
X216960405Y-106091500D01*
X216904513Y-106091500D01*
X216898061Y-106092872D01*
X216898056Y-106092872D01*
X216811113Y-106111353D01*
X216717712Y-106131206D01*
X216711682Y-106133891D01*
X216711681Y-106133891D01*
X216549278Y-106206197D01*
X216549276Y-106206198D01*
X216543248Y-106208882D01*
X216388747Y-106321134D01*
X216384326Y-106326044D01*
X216384325Y-106326045D01*
X216281785Y-106439928D01*
X216260960Y-106463056D01*
X216165473Y-106628444D01*
X216106458Y-106810072D01*
X216105768Y-106816633D01*
X216105768Y-106816635D01*
X216093972Y-106928866D01*
X216086496Y-107000000D01*
X215251970Y-107000000D01*
X218707054Y-103544916D01*
X218769366Y-103510890D01*
X218796149Y-103508011D01*
X229040897Y-103508011D01*
X229049467Y-103508303D01*
X229099585Y-103511720D01*
X229099589Y-103511720D01*
X229107161Y-103512236D01*
X229114638Y-103510931D01*
X229114639Y-103510931D01*
X229141117Y-103506310D01*
X229170112Y-103501249D01*
X229176630Y-103500288D01*
X229240051Y-103492613D01*
X229247152Y-103489930D01*
X229249761Y-103489289D01*
X229266071Y-103484826D01*
X229268607Y-103484061D01*
X229276093Y-103482754D01*
X229334609Y-103457067D01*
X229340713Y-103454576D01*
X229393357Y-103434684D01*
X229393358Y-103434683D01*
X229400465Y-103431998D01*
X229406728Y-103427694D01*
X229409094Y-103426457D01*
X229423906Y-103418212D01*
X229426160Y-103416879D01*
X229433114Y-103413826D01*
X229483811Y-103374924D01*
X229489141Y-103371052D01*
X229535529Y-103339172D01*
X229535534Y-103339167D01*
X229541790Y-103334868D01*
X229557738Y-103316969D01*
X229583244Y-103288341D01*
X229588225Y-103283065D01*
X230201843Y-102669447D01*
X230264155Y-102635421D01*
X230334970Y-102640486D01*
X230378762Y-102670276D01*
X230379423Y-102669541D01*
X230384325Y-102673954D01*
X230388747Y-102678866D01*
X230543248Y-102791118D01*
X230549276Y-102793802D01*
X230549278Y-102793803D01*
X230669572Y-102847361D01*
X230717712Y-102868794D01*
X230792680Y-102884729D01*
X230898056Y-102907128D01*
X230898061Y-102907128D01*
X230904513Y-102908500D01*
X231095487Y-102908500D01*
X231101939Y-102907128D01*
X231101944Y-102907128D01*
X231207320Y-102884729D01*
X231282288Y-102868794D01*
X231330428Y-102847361D01*
X231450722Y-102793803D01*
X231450724Y-102793802D01*
X231456752Y-102791118D01*
X231611253Y-102678866D01*
X231615668Y-102673963D01*
X231620580Y-102669540D01*
X231621705Y-102670789D01*
X231675014Y-102637949D01*
X231708200Y-102633500D01*
X238921233Y-102633500D01*
X238932416Y-102634027D01*
X238939909Y-102635702D01*
X238947835Y-102635453D01*
X238947836Y-102635453D01*
X239007986Y-102633562D01*
X239011945Y-102633500D01*
X239039856Y-102633500D01*
X239043791Y-102633003D01*
X239043856Y-102632995D01*
X239055693Y-102632062D01*
X239087951Y-102631048D01*
X239091970Y-102630922D01*
X239099889Y-102630673D01*
X239119343Y-102625021D01*
X239138700Y-102621013D01*
X239150930Y-102619468D01*
X239150931Y-102619468D01*
X239158797Y-102618474D01*
X239166168Y-102615555D01*
X239166170Y-102615555D01*
X239199912Y-102602196D01*
X239211142Y-102598351D01*
X239245983Y-102588229D01*
X239245984Y-102588229D01*
X239253593Y-102586018D01*
X239260412Y-102581985D01*
X239260417Y-102581983D01*
X239271028Y-102575707D01*
X239288776Y-102567012D01*
X239307617Y-102559552D01*
X239343387Y-102533564D01*
X239353307Y-102527048D01*
X239384535Y-102508580D01*
X239384538Y-102508578D01*
X239391362Y-102504542D01*
X239405683Y-102490221D01*
X239420717Y-102477380D01*
X239430694Y-102470131D01*
X239437107Y-102465472D01*
X239465298Y-102431395D01*
X239473288Y-102422616D01*
X241392253Y-100503652D01*
X241400539Y-100496112D01*
X241407018Y-100492000D01*
X241428829Y-100468774D01*
X241453643Y-100442349D01*
X241456398Y-100439507D01*
X241476135Y-100419770D01*
X241478615Y-100416573D01*
X241486320Y-100407551D01*
X241493422Y-100399988D01*
X241516586Y-100375321D01*
X241520405Y-100368375D01*
X241520407Y-100368372D01*
X241526348Y-100357566D01*
X241537199Y-100341047D01*
X241544758Y-100331301D01*
X241549614Y-100325041D01*
X241552759Y-100317772D01*
X241552762Y-100317768D01*
X241567174Y-100284463D01*
X241572391Y-100273813D01*
X241593695Y-100235060D01*
X241598733Y-100215437D01*
X241605137Y-100196734D01*
X241610033Y-100185420D01*
X241610033Y-100185419D01*
X241613181Y-100178145D01*
X241614420Y-100170322D01*
X241614423Y-100170312D01*
X241620099Y-100134476D01*
X241622505Y-100122856D01*
X241631528Y-100087711D01*
X241631528Y-100087710D01*
X241633500Y-100080030D01*
X241633500Y-100059776D01*
X241635051Y-100040065D01*
X241636980Y-100027886D01*
X241638220Y-100020057D01*
X241634059Y-99976038D01*
X241633500Y-99964181D01*
X241633500Y-97538767D01*
X241634027Y-97527584D01*
X241635702Y-97520091D01*
X241634552Y-97483483D01*
X241633562Y-97452001D01*
X241633500Y-97448043D01*
X241633500Y-97420144D01*
X241632996Y-97416153D01*
X241632063Y-97404311D01*
X241631339Y-97381256D01*
X241630674Y-97360111D01*
X241628462Y-97352497D01*
X241628461Y-97352492D01*
X241625023Y-97340659D01*
X241621012Y-97321295D01*
X241619467Y-97309064D01*
X241618474Y-97301203D01*
X241615557Y-97293836D01*
X241615556Y-97293831D01*
X241602198Y-97260092D01*
X241598354Y-97248865D01*
X241588230Y-97214022D01*
X241586018Y-97206407D01*
X241575707Y-97188972D01*
X241567012Y-97171224D01*
X241559552Y-97152383D01*
X241533564Y-97116613D01*
X241527048Y-97106693D01*
X241508580Y-97075465D01*
X241508578Y-97075462D01*
X241504542Y-97068638D01*
X241490221Y-97054317D01*
X241477380Y-97039283D01*
X241470131Y-97029306D01*
X241465472Y-97022893D01*
X241431395Y-96994702D01*
X241422616Y-96986712D01*
X234636318Y-90200413D01*
X234602292Y-90138101D01*
X234607357Y-90067286D01*
X234649904Y-90010450D01*
X234716424Y-89985639D01*
X234730024Y-89985403D01*
X234746698Y-89986015D01*
X234761674Y-89986564D01*
X234761678Y-89986564D01*
X234766837Y-89986753D01*
X234771957Y-89986097D01*
X234771959Y-89986097D01*
X234983288Y-89959025D01*
X234983289Y-89959025D01*
X234988416Y-89958368D01*
X234993369Y-89956882D01*
X235197429Y-89895661D01*
X235197434Y-89895659D01*
X235202384Y-89894174D01*
X235402994Y-89795896D01*
X235584860Y-89666173D01*
X235743096Y-89508489D01*
X235873453Y-89327077D01*
X235886995Y-89299678D01*
X235970136Y-89131453D01*
X235970137Y-89131451D01*
X235972430Y-89126811D01*
X236021319Y-88965898D01*
X236035865Y-88918023D01*
X236035865Y-88918021D01*
X236037370Y-88913069D01*
X236066529Y-88691590D01*
X236068156Y-88625000D01*
X236049852Y-88402361D01*
X236044914Y-88382703D01*
X238890743Y-88382703D01*
X238928268Y-88667734D01*
X239004129Y-88945036D01*
X239116923Y-89209476D01*
X239162038Y-89284857D01*
X239251118Y-89433699D01*
X239264561Y-89456161D01*
X239444313Y-89680528D01*
X239508703Y-89741632D01*
X239627471Y-89854338D01*
X239652851Y-89878423D01*
X239886317Y-90046186D01*
X239890112Y-90048195D01*
X239890113Y-90048196D01*
X239911869Y-90059715D01*
X240140392Y-90180712D01*
X240275382Y-90230111D01*
X240377377Y-90267436D01*
X240410373Y-90279511D01*
X240691264Y-90340755D01*
X240712687Y-90342441D01*
X240914282Y-90358307D01*
X240914291Y-90358307D01*
X240916739Y-90358500D01*
X241072271Y-90358500D01*
X241074407Y-90358354D01*
X241074418Y-90358354D01*
X241282548Y-90344165D01*
X241282554Y-90344164D01*
X241286825Y-90343873D01*
X241291020Y-90343004D01*
X241291022Y-90343004D01*
X241433347Y-90313530D01*
X241568342Y-90285574D01*
X241839343Y-90189607D01*
X242094812Y-90057750D01*
X242098313Y-90055289D01*
X242098317Y-90055287D01*
X242212417Y-89975096D01*
X242330023Y-89892441D01*
X242495869Y-89738327D01*
X242537479Y-89699661D01*
X242537481Y-89699658D01*
X242540622Y-89696740D01*
X242722713Y-89474268D01*
X242855459Y-89257647D01*
X242870686Y-89232799D01*
X242872927Y-89229142D01*
X242915810Y-89131453D01*
X242986757Y-88969830D01*
X242988483Y-88965898D01*
X243067244Y-88689406D01*
X243107751Y-88404784D01*
X243107845Y-88386951D01*
X243109235Y-88121583D01*
X243109235Y-88121576D01*
X243109257Y-88117297D01*
X243071732Y-87832266D01*
X242995871Y-87554964D01*
X242959254Y-87469118D01*
X242884763Y-87294476D01*
X242884761Y-87294472D01*
X242883077Y-87290524D01*
X242735439Y-87043839D01*
X242555687Y-86819472D01*
X242421493Y-86692127D01*
X242350258Y-86624527D01*
X242350255Y-86624525D01*
X242347149Y-86621577D01*
X242113683Y-86453814D01*
X242091843Y-86442250D01*
X242005160Y-86396354D01*
X241859608Y-86319288D01*
X241589627Y-86220489D01*
X241308736Y-86159245D01*
X241277685Y-86156801D01*
X241085718Y-86141693D01*
X241085709Y-86141693D01*
X241083261Y-86141500D01*
X240927729Y-86141500D01*
X240925593Y-86141646D01*
X240925582Y-86141646D01*
X240717452Y-86155835D01*
X240717446Y-86155836D01*
X240713175Y-86156127D01*
X240708980Y-86156996D01*
X240708978Y-86156996D01*
X240572417Y-86185276D01*
X240431658Y-86214426D01*
X240160657Y-86310393D01*
X239905188Y-86442250D01*
X239901687Y-86444711D01*
X239901683Y-86444713D01*
X239891594Y-86451804D01*
X239669977Y-86607559D01*
X239459378Y-86803260D01*
X239277287Y-87025732D01*
X239127073Y-87270858D01*
X239125347Y-87274791D01*
X239125346Y-87274792D01*
X239014066Y-87528295D01*
X239011517Y-87534102D01*
X238932756Y-87810594D01*
X238892249Y-88095216D01*
X238892227Y-88099505D01*
X238892226Y-88099512D01*
X238890765Y-88378417D01*
X238890743Y-88382703D01*
X236044914Y-88382703D01*
X235995431Y-88185702D01*
X235906354Y-87980840D01*
X235866906Y-87919862D01*
X235787822Y-87797617D01*
X235787820Y-87797614D01*
X235785014Y-87793277D01*
X235634670Y-87628051D01*
X235630619Y-87624852D01*
X235630615Y-87624848D01*
X235463414Y-87492800D01*
X235463410Y-87492798D01*
X235459359Y-87489598D01*
X235423028Y-87469542D01*
X235407135Y-87460769D01*
X235263789Y-87381638D01*
X235258920Y-87379914D01*
X235258916Y-87379912D01*
X235058087Y-87308795D01*
X235058083Y-87308794D01*
X235053212Y-87307069D01*
X235048119Y-87306162D01*
X235048116Y-87306161D01*
X234838373Y-87268800D01*
X234838367Y-87268799D01*
X234833284Y-87267894D01*
X234759452Y-87266992D01*
X234615081Y-87265228D01*
X234615079Y-87265228D01*
X234609911Y-87265165D01*
X234389091Y-87298955D01*
X234176756Y-87368357D01*
X233978607Y-87471507D01*
X233974474Y-87474610D01*
X233974471Y-87474612D01*
X233804100Y-87602530D01*
X233799965Y-87605635D01*
X233796393Y-87609373D01*
X233688729Y-87722037D01*
X233645629Y-87767138D01*
X233538201Y-87924621D01*
X233483293Y-87969621D01*
X233412768Y-87977792D01*
X233349021Y-87946538D01*
X233328324Y-87922054D01*
X233247822Y-87797617D01*
X233247820Y-87797614D01*
X233245014Y-87793277D01*
X233094670Y-87628051D01*
X233090619Y-87624852D01*
X233090615Y-87624848D01*
X232923414Y-87492800D01*
X232923410Y-87492798D01*
X232919359Y-87489598D01*
X232883028Y-87469542D01*
X232867135Y-87460769D01*
X232723789Y-87381638D01*
X232718920Y-87379914D01*
X232718916Y-87379912D01*
X232518087Y-87308795D01*
X232518083Y-87308794D01*
X232513212Y-87307069D01*
X232508119Y-87306162D01*
X232508116Y-87306161D01*
X232298373Y-87268800D01*
X232298367Y-87268799D01*
X232293284Y-87267894D01*
X232219452Y-87266992D01*
X232075081Y-87265228D01*
X232075079Y-87265228D01*
X232069911Y-87265165D01*
X231849091Y-87298955D01*
X231636756Y-87368357D01*
X231438607Y-87471507D01*
X231434474Y-87474610D01*
X231434471Y-87474612D01*
X231264100Y-87602530D01*
X231259965Y-87605635D01*
X231256393Y-87609373D01*
X231148729Y-87722037D01*
X231105629Y-87767138D01*
X230998201Y-87924621D01*
X230943293Y-87969621D01*
X230872768Y-87977792D01*
X230809021Y-87946538D01*
X230788324Y-87922054D01*
X230707822Y-87797617D01*
X230707820Y-87797614D01*
X230705014Y-87793277D01*
X230554670Y-87628051D01*
X230550619Y-87624852D01*
X230550615Y-87624848D01*
X230383414Y-87492800D01*
X230383410Y-87492798D01*
X230379359Y-87489598D01*
X230343028Y-87469542D01*
X230327135Y-87460769D01*
X230183789Y-87381638D01*
X230178920Y-87379914D01*
X230178916Y-87379912D01*
X229978087Y-87308795D01*
X229978083Y-87308794D01*
X229973212Y-87307069D01*
X229968119Y-87306162D01*
X229968116Y-87306161D01*
X229758373Y-87268800D01*
X229758367Y-87268799D01*
X229753284Y-87267894D01*
X229679452Y-87266992D01*
X229535081Y-87265228D01*
X229535079Y-87265228D01*
X229529911Y-87265165D01*
X229309091Y-87298955D01*
X229096756Y-87368357D01*
X228898607Y-87471507D01*
X228894474Y-87474610D01*
X228894471Y-87474612D01*
X228724100Y-87602530D01*
X228719965Y-87605635D01*
X228716393Y-87609373D01*
X228608729Y-87722037D01*
X228565629Y-87767138D01*
X228458201Y-87924621D01*
X228403293Y-87969621D01*
X228332768Y-87977792D01*
X228269021Y-87946538D01*
X228248324Y-87922054D01*
X228167822Y-87797617D01*
X228167820Y-87797614D01*
X228165014Y-87793277D01*
X228014670Y-87628051D01*
X228010619Y-87624852D01*
X228010615Y-87624848D01*
X227843414Y-87492800D01*
X227843410Y-87492798D01*
X227839359Y-87489598D01*
X227803028Y-87469542D01*
X227787135Y-87460769D01*
X227643789Y-87381638D01*
X227638920Y-87379914D01*
X227638916Y-87379912D01*
X227438087Y-87308795D01*
X227438083Y-87308794D01*
X227433212Y-87307069D01*
X227428119Y-87306162D01*
X227428116Y-87306161D01*
X227218373Y-87268800D01*
X227218367Y-87268799D01*
X227213284Y-87267894D01*
X227139452Y-87266992D01*
X226995081Y-87265228D01*
X226995079Y-87265228D01*
X226989911Y-87265165D01*
X226769091Y-87298955D01*
X226556756Y-87368357D01*
X226358607Y-87471507D01*
X226354474Y-87474610D01*
X226354471Y-87474612D01*
X226184100Y-87602530D01*
X226179965Y-87605635D01*
X226176393Y-87609373D01*
X226068729Y-87722037D01*
X226025629Y-87767138D01*
X225918204Y-87924618D01*
X225917898Y-87925066D01*
X225862987Y-87970069D01*
X225792462Y-87978240D01*
X225728715Y-87946986D01*
X225708018Y-87922502D01*
X225627426Y-87797926D01*
X225621136Y-87789757D01*
X225477806Y-87632240D01*
X225470273Y-87625215D01*
X225303139Y-87493222D01*
X225294552Y-87487517D01*
X225108117Y-87384599D01*
X225098705Y-87380369D01*
X224897959Y-87309280D01*
X224887988Y-87306646D01*
X224816837Y-87293972D01*
X224803540Y-87295432D01*
X224799000Y-87309989D01*
X224799000Y-89961632D01*
X224794185Y-89961632D01*
X224794187Y-89998106D01*
X224762384Y-90051711D01*
X222484500Y-92329595D01*
X222422188Y-92363621D01*
X222395405Y-92366500D01*
X216923594Y-92366500D01*
X216855473Y-92346498D01*
X216808980Y-92292842D01*
X216798876Y-92222568D01*
X216828370Y-92157988D01*
X216834499Y-92151405D01*
X219009549Y-89976355D01*
X219071861Y-89942329D01*
X219123762Y-89941979D01*
X219303597Y-89978567D01*
X219308772Y-89978757D01*
X219308774Y-89978757D01*
X219521673Y-89986564D01*
X219521677Y-89986564D01*
X219526837Y-89986753D01*
X219531957Y-89986097D01*
X219531959Y-89986097D01*
X219743288Y-89959025D01*
X219743289Y-89959025D01*
X219748416Y-89958368D01*
X219753369Y-89956882D01*
X219957429Y-89895661D01*
X219957434Y-89895659D01*
X219962384Y-89894174D01*
X220162994Y-89795896D01*
X220344860Y-89666173D01*
X220503096Y-89508489D01*
X220633453Y-89327077D01*
X220634776Y-89328028D01*
X220681645Y-89284857D01*
X220751580Y-89272625D01*
X220817026Y-89300144D01*
X220844875Y-89331994D01*
X220904987Y-89430088D01*
X221051250Y-89598938D01*
X221223126Y-89741632D01*
X221416000Y-89854338D01*
X221624692Y-89934030D01*
X221629760Y-89935061D01*
X221629763Y-89935062D01*
X221689891Y-89947295D01*
X221843597Y-89978567D01*
X221848772Y-89978757D01*
X221848774Y-89978757D01*
X222061673Y-89986564D01*
X222061677Y-89986564D01*
X222066837Y-89986753D01*
X222071957Y-89986097D01*
X222071959Y-89986097D01*
X222283288Y-89959025D01*
X222283289Y-89959025D01*
X222288416Y-89958368D01*
X222293369Y-89956882D01*
X222497429Y-89895661D01*
X222497434Y-89895659D01*
X222502384Y-89894174D01*
X222702994Y-89795896D01*
X222884860Y-89666173D01*
X223043096Y-89508489D01*
X223173453Y-89327077D01*
X223174640Y-89327930D01*
X223221960Y-89284362D01*
X223291897Y-89272145D01*
X223357338Y-89299678D01*
X223385166Y-89331511D01*
X223442694Y-89425388D01*
X223448777Y-89433699D01*
X223588213Y-89594667D01*
X223595580Y-89601883D01*
X223759434Y-89737916D01*
X223767881Y-89743831D01*
X223951756Y-89851279D01*
X223961042Y-89855729D01*
X224160001Y-89931703D01*
X224169899Y-89934579D01*
X224273250Y-89955606D01*
X224287299Y-89954410D01*
X224291000Y-89944065D01*
X224291000Y-87308102D01*
X224287082Y-87294758D01*
X224272806Y-87292771D01*
X224234324Y-87298660D01*
X224224288Y-87301051D01*
X224021868Y-87367212D01*
X224012359Y-87371209D01*
X223823463Y-87469542D01*
X223814738Y-87475036D01*
X223644433Y-87602905D01*
X223636726Y-87609748D01*
X223489590Y-87763717D01*
X223483109Y-87771722D01*
X223378498Y-87925074D01*
X223323587Y-87970076D01*
X223253062Y-87978247D01*
X223189315Y-87946993D01*
X223168618Y-87922509D01*
X223087822Y-87797617D01*
X223087820Y-87797614D01*
X223085014Y-87793277D01*
X222934670Y-87628051D01*
X222930619Y-87624852D01*
X222930615Y-87624848D01*
X222763414Y-87492800D01*
X222763410Y-87492798D01*
X222759359Y-87489598D01*
X222723028Y-87469542D01*
X222707135Y-87460769D01*
X222563789Y-87381638D01*
X222558920Y-87379914D01*
X222558916Y-87379912D01*
X222358087Y-87308795D01*
X222358083Y-87308794D01*
X222353212Y-87307069D01*
X222348119Y-87306162D01*
X222348116Y-87306161D01*
X222138373Y-87268800D01*
X222138367Y-87268799D01*
X222133284Y-87267894D01*
X222059452Y-87266992D01*
X221915081Y-87265228D01*
X221915079Y-87265228D01*
X221909911Y-87265165D01*
X221689091Y-87298955D01*
X221476756Y-87368357D01*
X221278607Y-87471507D01*
X221274474Y-87474610D01*
X221274471Y-87474612D01*
X221104100Y-87602530D01*
X221099965Y-87605635D01*
X221096393Y-87609373D01*
X220988729Y-87722037D01*
X220945629Y-87767138D01*
X220838201Y-87924621D01*
X220783293Y-87969621D01*
X220712768Y-87977792D01*
X220649021Y-87946538D01*
X220628324Y-87922054D01*
X220547822Y-87797617D01*
X220547820Y-87797614D01*
X220545014Y-87793277D01*
X220394670Y-87628051D01*
X220390619Y-87624852D01*
X220390615Y-87624848D01*
X220223414Y-87492800D01*
X220223410Y-87492798D01*
X220219359Y-87489598D01*
X220183028Y-87469542D01*
X220167135Y-87460769D01*
X220023789Y-87381638D01*
X220018920Y-87379914D01*
X220018916Y-87379912D01*
X219818087Y-87308795D01*
X219818083Y-87308794D01*
X219813212Y-87307069D01*
X219808119Y-87306162D01*
X219808116Y-87306161D01*
X219598373Y-87268800D01*
X219598367Y-87268799D01*
X219593284Y-87267894D01*
X219519452Y-87266992D01*
X219375081Y-87265228D01*
X219375079Y-87265228D01*
X219369911Y-87265165D01*
X219149091Y-87298955D01*
X218936756Y-87368357D01*
X218738607Y-87471507D01*
X218734474Y-87474610D01*
X218734471Y-87474612D01*
X218564100Y-87602530D01*
X218559965Y-87605635D01*
X218556393Y-87609373D01*
X218448729Y-87722037D01*
X218405629Y-87767138D01*
X218298204Y-87924618D01*
X218297898Y-87925066D01*
X218242987Y-87970069D01*
X218172462Y-87978240D01*
X218108715Y-87946986D01*
X218088018Y-87922502D01*
X218007426Y-87797926D01*
X218001136Y-87789757D01*
X217857806Y-87632240D01*
X217850273Y-87625215D01*
X217683139Y-87493222D01*
X217674552Y-87487517D01*
X217488117Y-87384599D01*
X217478705Y-87380369D01*
X217277959Y-87309280D01*
X217267988Y-87306646D01*
X217196837Y-87293972D01*
X217183540Y-87295432D01*
X217179000Y-87309989D01*
X217179000Y-89961632D01*
X217174185Y-89961632D01*
X217174187Y-89998106D01*
X217142384Y-90051711D01*
X215314020Y-91880075D01*
X215251708Y-91914101D01*
X215224925Y-91916980D01*
X207213114Y-91916980D01*
X207144993Y-91896978D01*
X207098500Y-91843322D01*
X207088396Y-91773048D01*
X207117890Y-91708468D01*
X207124019Y-91701885D01*
X208849549Y-89976355D01*
X208911861Y-89942329D01*
X208963762Y-89941979D01*
X209143597Y-89978567D01*
X209148772Y-89978757D01*
X209148774Y-89978757D01*
X209361673Y-89986564D01*
X209361677Y-89986564D01*
X209366837Y-89986753D01*
X209371957Y-89986097D01*
X209371959Y-89986097D01*
X209583288Y-89959025D01*
X209583289Y-89959025D01*
X209588416Y-89958368D01*
X209593369Y-89956882D01*
X209797429Y-89895661D01*
X209797434Y-89895659D01*
X209802384Y-89894174D01*
X210002994Y-89795896D01*
X210184860Y-89666173D01*
X210343096Y-89508489D01*
X210473453Y-89327077D01*
X210474776Y-89328028D01*
X210521645Y-89284857D01*
X210591580Y-89272625D01*
X210657026Y-89300144D01*
X210684875Y-89331994D01*
X210744987Y-89430088D01*
X210891250Y-89598938D01*
X211063126Y-89741632D01*
X211256000Y-89854338D01*
X211464692Y-89934030D01*
X211469760Y-89935061D01*
X211469763Y-89935062D01*
X211529891Y-89947295D01*
X211683597Y-89978567D01*
X211688772Y-89978757D01*
X211688774Y-89978757D01*
X211901673Y-89986564D01*
X211901677Y-89986564D01*
X211906837Y-89986753D01*
X211911957Y-89986097D01*
X211911959Y-89986097D01*
X212123288Y-89959025D01*
X212123289Y-89959025D01*
X212128416Y-89958368D01*
X212133369Y-89956882D01*
X212337429Y-89895661D01*
X212337434Y-89895659D01*
X212342384Y-89894174D01*
X212542994Y-89795896D01*
X212724860Y-89666173D01*
X212883096Y-89508489D01*
X213013453Y-89327077D01*
X213014776Y-89328028D01*
X213061645Y-89284857D01*
X213131580Y-89272625D01*
X213197026Y-89300144D01*
X213224875Y-89331994D01*
X213284987Y-89430088D01*
X213431250Y-89598938D01*
X213603126Y-89741632D01*
X213796000Y-89854338D01*
X214004692Y-89934030D01*
X214009760Y-89935061D01*
X214009763Y-89935062D01*
X214069891Y-89947295D01*
X214223597Y-89978567D01*
X214228772Y-89978757D01*
X214228774Y-89978757D01*
X214441673Y-89986564D01*
X214441677Y-89986564D01*
X214446837Y-89986753D01*
X214451957Y-89986097D01*
X214451959Y-89986097D01*
X214663288Y-89959025D01*
X214663289Y-89959025D01*
X214668416Y-89958368D01*
X214673369Y-89956882D01*
X214877429Y-89895661D01*
X214877434Y-89895659D01*
X214882384Y-89894174D01*
X215082994Y-89795896D01*
X215264860Y-89666173D01*
X215423096Y-89508489D01*
X215553453Y-89327077D01*
X215554640Y-89327930D01*
X215601960Y-89284362D01*
X215671897Y-89272145D01*
X215737338Y-89299678D01*
X215765166Y-89331511D01*
X215822694Y-89425388D01*
X215828777Y-89433699D01*
X215968213Y-89594667D01*
X215975580Y-89601883D01*
X216139434Y-89737916D01*
X216147881Y-89743831D01*
X216331756Y-89851279D01*
X216341042Y-89855729D01*
X216540001Y-89931703D01*
X216549899Y-89934579D01*
X216653250Y-89955606D01*
X216667299Y-89954410D01*
X216671000Y-89944065D01*
X216671000Y-87308102D01*
X216667082Y-87294758D01*
X216652806Y-87292771D01*
X216614324Y-87298660D01*
X216604288Y-87301051D01*
X216401868Y-87367212D01*
X216392359Y-87371209D01*
X216203463Y-87469542D01*
X216194738Y-87475036D01*
X216024433Y-87602905D01*
X216016726Y-87609748D01*
X215869590Y-87763717D01*
X215863109Y-87771722D01*
X215758498Y-87925074D01*
X215703587Y-87970076D01*
X215633062Y-87978247D01*
X215569315Y-87946993D01*
X215548618Y-87922509D01*
X215467822Y-87797617D01*
X215467820Y-87797614D01*
X215465014Y-87793277D01*
X215314670Y-87628051D01*
X215310619Y-87624852D01*
X215310615Y-87624848D01*
X215143414Y-87492800D01*
X215143410Y-87492798D01*
X215139359Y-87489598D01*
X215103028Y-87469542D01*
X215087135Y-87460769D01*
X214943789Y-87381638D01*
X214938920Y-87379914D01*
X214938916Y-87379912D01*
X214738087Y-87308795D01*
X214738083Y-87308794D01*
X214733212Y-87307069D01*
X214728119Y-87306162D01*
X214728116Y-87306161D01*
X214518373Y-87268800D01*
X214518367Y-87268799D01*
X214513284Y-87267894D01*
X214439452Y-87266992D01*
X214295081Y-87265228D01*
X214295079Y-87265228D01*
X214289911Y-87265165D01*
X214069091Y-87298955D01*
X213856756Y-87368357D01*
X213658607Y-87471507D01*
X213654474Y-87474610D01*
X213654471Y-87474612D01*
X213484100Y-87602530D01*
X213479965Y-87605635D01*
X213476393Y-87609373D01*
X213368729Y-87722037D01*
X213325629Y-87767138D01*
X213218201Y-87924621D01*
X213163293Y-87969621D01*
X213092768Y-87977792D01*
X213029021Y-87946538D01*
X213008324Y-87922054D01*
X212927822Y-87797617D01*
X212927820Y-87797614D01*
X212925014Y-87793277D01*
X212774670Y-87628051D01*
X212770619Y-87624852D01*
X212770615Y-87624848D01*
X212603414Y-87492800D01*
X212603410Y-87492798D01*
X212599359Y-87489598D01*
X212563028Y-87469542D01*
X212547135Y-87460769D01*
X212403789Y-87381638D01*
X212398920Y-87379914D01*
X212398916Y-87379912D01*
X212198087Y-87308795D01*
X212198083Y-87308794D01*
X212193212Y-87307069D01*
X212188119Y-87306162D01*
X212188116Y-87306161D01*
X211978373Y-87268800D01*
X211978367Y-87268799D01*
X211973284Y-87267894D01*
X211899452Y-87266992D01*
X211755081Y-87265228D01*
X211755079Y-87265228D01*
X211749911Y-87265165D01*
X211529091Y-87298955D01*
X211316756Y-87368357D01*
X211118607Y-87471507D01*
X211114474Y-87474610D01*
X211114471Y-87474612D01*
X210944100Y-87602530D01*
X210939965Y-87605635D01*
X210936393Y-87609373D01*
X210828729Y-87722037D01*
X210785629Y-87767138D01*
X210678201Y-87924621D01*
X210623293Y-87969621D01*
X210552768Y-87977792D01*
X210489021Y-87946538D01*
X210468324Y-87922054D01*
X210387822Y-87797617D01*
X210387820Y-87797614D01*
X210385014Y-87793277D01*
X210234670Y-87628051D01*
X210230619Y-87624852D01*
X210230615Y-87624848D01*
X210063414Y-87492800D01*
X210063410Y-87492798D01*
X210059359Y-87489598D01*
X210023028Y-87469542D01*
X210007135Y-87460769D01*
X209863789Y-87381638D01*
X209858920Y-87379914D01*
X209858916Y-87379912D01*
X209658087Y-87308795D01*
X209658083Y-87308794D01*
X209653212Y-87307069D01*
X209648119Y-87306162D01*
X209648116Y-87306161D01*
X209438373Y-87268800D01*
X209438367Y-87268799D01*
X209433284Y-87267894D01*
X209359452Y-87266992D01*
X209215081Y-87265228D01*
X209215079Y-87265228D01*
X209209911Y-87265165D01*
X208989091Y-87298955D01*
X208776756Y-87368357D01*
X208578607Y-87471507D01*
X208574474Y-87474610D01*
X208574471Y-87474612D01*
X208404100Y-87602530D01*
X208399965Y-87605635D01*
X208396393Y-87609373D01*
X208288729Y-87722037D01*
X208245629Y-87767138D01*
X208138201Y-87924621D01*
X208083293Y-87969621D01*
X208012768Y-87977792D01*
X207949021Y-87946538D01*
X207928324Y-87922054D01*
X207847822Y-87797617D01*
X207847820Y-87797614D01*
X207845014Y-87793277D01*
X207694670Y-87628051D01*
X207690619Y-87624852D01*
X207690615Y-87624848D01*
X207523414Y-87492800D01*
X207523410Y-87492798D01*
X207519359Y-87489598D01*
X207483028Y-87469542D01*
X207467135Y-87460769D01*
X207323789Y-87381638D01*
X207318920Y-87379914D01*
X207318916Y-87379912D01*
X207118087Y-87308795D01*
X207118083Y-87308794D01*
X207113212Y-87307069D01*
X207108119Y-87306162D01*
X207108116Y-87306161D01*
X206898373Y-87268800D01*
X206898367Y-87268799D01*
X206893284Y-87267894D01*
X206819452Y-87266992D01*
X206675081Y-87265228D01*
X206675079Y-87265228D01*
X206669911Y-87265165D01*
X206449091Y-87298955D01*
X206236756Y-87368357D01*
X206038607Y-87471507D01*
X206034474Y-87474610D01*
X206034471Y-87474612D01*
X205864100Y-87602530D01*
X205859965Y-87605635D01*
X205856393Y-87609373D01*
X205748729Y-87722037D01*
X205705629Y-87767138D01*
X205598204Y-87924618D01*
X205597898Y-87925066D01*
X205542987Y-87970069D01*
X205472462Y-87978240D01*
X205408715Y-87946986D01*
X205388018Y-87922502D01*
X205307426Y-87797926D01*
X205301136Y-87789757D01*
X205157806Y-87632240D01*
X205150273Y-87625215D01*
X204983139Y-87493222D01*
X204974552Y-87487517D01*
X204788117Y-87384599D01*
X204778705Y-87380369D01*
X204577959Y-87309280D01*
X204567988Y-87306646D01*
X204496837Y-87293972D01*
X204483540Y-87295432D01*
X204479000Y-87309989D01*
X204479000Y-89961632D01*
X204474185Y-89961632D01*
X204474187Y-89998106D01*
X204442384Y-90051711D01*
X203614020Y-90880075D01*
X203551708Y-90914101D01*
X203524925Y-90916980D01*
X197892569Y-90916980D01*
X197881386Y-90916453D01*
X197873893Y-90914778D01*
X197865967Y-90915027D01*
X197865966Y-90915027D01*
X197805816Y-90916918D01*
X197801857Y-90916980D01*
X197773946Y-90916980D01*
X197770012Y-90917477D01*
X197770011Y-90917477D01*
X197769946Y-90917485D01*
X197758109Y-90918418D01*
X197726292Y-90919418D01*
X197721831Y-90919558D01*
X197713912Y-90919807D01*
X197696256Y-90924936D01*
X197694460Y-90925458D01*
X197675108Y-90929466D01*
X197668037Y-90930360D01*
X197655005Y-90932006D01*
X197647636Y-90934923D01*
X197647634Y-90934924D01*
X197613899Y-90948280D01*
X197602671Y-90952125D01*
X197560209Y-90964462D01*
X197553387Y-90968496D01*
X197553381Y-90968499D01*
X197542770Y-90974774D01*
X197525020Y-90983470D01*
X197513558Y-90988008D01*
X197513553Y-90988011D01*
X197506185Y-90990928D01*
X197499770Y-90995589D01*
X197470427Y-91016907D01*
X197460509Y-91023423D01*
X197441821Y-91034475D01*
X197422439Y-91045938D01*
X197408115Y-91060262D01*
X197393083Y-91073101D01*
X197376695Y-91085008D01*
X197348514Y-91119073D01*
X197340524Y-91127853D01*
X191620046Y-96848331D01*
X191611760Y-96855871D01*
X191605281Y-96859983D01*
X191599856Y-96865760D01*
X191558656Y-96909634D01*
X191555901Y-96912476D01*
X191536164Y-96932213D01*
X191533684Y-96935410D01*
X191525981Y-96944430D01*
X191495713Y-96976662D01*
X191491894Y-96983608D01*
X191491892Y-96983611D01*
X191485951Y-96994417D01*
X191475100Y-97010936D01*
X191462685Y-97026942D01*
X191459540Y-97034211D01*
X191459537Y-97034215D01*
X191445125Y-97067520D01*
X191439908Y-97078170D01*
X191418604Y-97116923D01*
X191416633Y-97124598D01*
X191416633Y-97124599D01*
X191413566Y-97136545D01*
X191407162Y-97155249D01*
X191399118Y-97173838D01*
X191397879Y-97181661D01*
X191397878Y-97181664D01*
X191392767Y-97213935D01*
X191362354Y-97278087D01*
X191302086Y-97315614D01*
X191231096Y-97314600D01*
X191179223Y-97283318D01*
X190268253Y-96372348D01*
X190234227Y-96310036D01*
X190239292Y-96239221D01*
X190281839Y-96182385D01*
X190342763Y-96158500D01*
X190345487Y-96158500D01*
X190532288Y-96118794D01*
X190551537Y-96110224D01*
X190700722Y-96043803D01*
X190700724Y-96043802D01*
X190706752Y-96041118D01*
X190718774Y-96032384D01*
X190772382Y-95993435D01*
X190861253Y-95928866D01*
X190915342Y-95868794D01*
X190984621Y-95791852D01*
X190984622Y-95791851D01*
X190989040Y-95786944D01*
X191066083Y-95653502D01*
X191081223Y-95627279D01*
X191081224Y-95627278D01*
X191084527Y-95621556D01*
X191143542Y-95439928D01*
X191155512Y-95326045D01*
X191162814Y-95256565D01*
X191163504Y-95250000D01*
X191157190Y-95189928D01*
X191144232Y-95066635D01*
X191144232Y-95066633D01*
X191143542Y-95060072D01*
X191084527Y-94878444D01*
X191048842Y-94816635D01*
X190992342Y-94718775D01*
X190992341Y-94718774D01*
X190989040Y-94713056D01*
X190984621Y-94708148D01*
X190982564Y-94705317D01*
X190958705Y-94638449D01*
X190958500Y-94631256D01*
X190958500Y-93528922D01*
X190958792Y-93520352D01*
X190962210Y-93470224D01*
X190962210Y-93470220D01*
X190962726Y-93462648D01*
X190951736Y-93399681D01*
X190950775Y-93393165D01*
X190943102Y-93329758D01*
X190940419Y-93322657D01*
X190939778Y-93320048D01*
X190935309Y-93303715D01*
X190934548Y-93301195D01*
X190933243Y-93293717D01*
X190930191Y-93286764D01*
X190907559Y-93235204D01*
X190905068Y-93229099D01*
X190885175Y-93176456D01*
X190885173Y-93176452D01*
X190882487Y-93169344D01*
X190878184Y-93163083D01*
X190876947Y-93160717D01*
X190868720Y-93145937D01*
X190867369Y-93143652D01*
X190864315Y-93136695D01*
X190859695Y-93130675D01*
X190859692Y-93130669D01*
X190825421Y-93086009D01*
X190821541Y-93080668D01*
X190789661Y-93034280D01*
X190789656Y-93034275D01*
X190785357Y-93028019D01*
X190738829Y-92986564D01*
X190733554Y-92981584D01*
X188684665Y-90932695D01*
X188650639Y-90870383D01*
X188648450Y-90856770D01*
X188644232Y-90816637D01*
X188643542Y-90810072D01*
X188584527Y-90628444D01*
X188489040Y-90463056D01*
X188469744Y-90441625D01*
X188365675Y-90326045D01*
X188365674Y-90326044D01*
X188361253Y-90321134D01*
X188206752Y-90208882D01*
X188200724Y-90206198D01*
X188200722Y-90206197D01*
X188038319Y-90133891D01*
X188038318Y-90133891D01*
X188032288Y-90131206D01*
X187938888Y-90111353D01*
X187851944Y-90092872D01*
X187851939Y-90092872D01*
X187845487Y-90091500D01*
X187654513Y-90091500D01*
X187648061Y-90092872D01*
X187648056Y-90092872D01*
X187561113Y-90111353D01*
X187467712Y-90131206D01*
X187461682Y-90133891D01*
X187461681Y-90133891D01*
X187299278Y-90206197D01*
X187299276Y-90206198D01*
X187293248Y-90208882D01*
X187287907Y-90212762D01*
X187287906Y-90212763D01*
X187212656Y-90267436D01*
X187145789Y-90291294D01*
X187138595Y-90291500D01*
X176528927Y-90291500D01*
X176520358Y-90291208D01*
X176470225Y-90287790D01*
X176470221Y-90287790D01*
X176462648Y-90287274D01*
X176399681Y-90298264D01*
X176393169Y-90299224D01*
X176329758Y-90306898D01*
X176322657Y-90309581D01*
X176320048Y-90310222D01*
X176303715Y-90314691D01*
X176301195Y-90315452D01*
X176293717Y-90316757D01*
X176286765Y-90319809D01*
X176286764Y-90319809D01*
X176235204Y-90342441D01*
X176229099Y-90344932D01*
X176176456Y-90364825D01*
X176176452Y-90364827D01*
X176169344Y-90367513D01*
X176163083Y-90371816D01*
X176160717Y-90373053D01*
X176145937Y-90381280D01*
X176143652Y-90382631D01*
X176136695Y-90385685D01*
X176130675Y-90390305D01*
X176130669Y-90390308D01*
X176112570Y-90404197D01*
X176085998Y-90424587D01*
X176080668Y-90428459D01*
X176034280Y-90460339D01*
X176034275Y-90460344D01*
X176028019Y-90464643D01*
X176022968Y-90470313D01*
X176022966Y-90470314D01*
X175986565Y-90511170D01*
X175981584Y-90516446D01*
X175933467Y-90564563D01*
X175870569Y-90598715D01*
X175717712Y-90631206D01*
X175711682Y-90633891D01*
X175711681Y-90633891D01*
X175549278Y-90706197D01*
X175549276Y-90706198D01*
X175543248Y-90708882D01*
X175388747Y-90821134D01*
X175384326Y-90826044D01*
X175384325Y-90826045D01*
X175288918Y-90932006D01*
X175260960Y-90963056D01*
X175165473Y-91128444D01*
X175106458Y-91310072D01*
X175105768Y-91316633D01*
X175105768Y-91316635D01*
X175100830Y-91363621D01*
X175086496Y-91500000D01*
X175106458Y-91689928D01*
X175165473Y-91871556D01*
X175260960Y-92036944D01*
X175388747Y-92178866D01*
X175543248Y-92291118D01*
X175549276Y-92293802D01*
X175549278Y-92293803D01*
X175708173Y-92364547D01*
X175717712Y-92368794D01*
X175811113Y-92388647D01*
X175898056Y-92407128D01*
X175898061Y-92407128D01*
X175904513Y-92408500D01*
X176095487Y-92408500D01*
X176101939Y-92407128D01*
X176101944Y-92407128D01*
X176188887Y-92388647D01*
X176282288Y-92368794D01*
X176291827Y-92364547D01*
X176450722Y-92293803D01*
X176450724Y-92293802D01*
X176456752Y-92291118D01*
X176611253Y-92178866D01*
X176739040Y-92036944D01*
X176834527Y-91871556D01*
X176859219Y-91795563D01*
X176899293Y-91736958D01*
X176964690Y-91709321D01*
X176979052Y-91708500D01*
X187138595Y-91708500D01*
X187206716Y-91728502D01*
X187212656Y-91732564D01*
X187293248Y-91791118D01*
X187299276Y-91793802D01*
X187299278Y-91793803D01*
X187459799Y-91865271D01*
X187467712Y-91868794D01*
X187600307Y-91896978D01*
X187620569Y-91901285D01*
X187683467Y-91935437D01*
X189504595Y-93756565D01*
X189538621Y-93818877D01*
X189541500Y-93845660D01*
X189541500Y-94631256D01*
X189521498Y-94699377D01*
X189517436Y-94705317D01*
X189515379Y-94708148D01*
X189510960Y-94713056D01*
X189507659Y-94718774D01*
X189507658Y-94718775D01*
X189451159Y-94816635D01*
X189415473Y-94878444D01*
X189356458Y-95060072D01*
X189355768Y-95066633D01*
X189355768Y-95066635D01*
X189345982Y-95159747D01*
X189318969Y-95225404D01*
X189260747Y-95266034D01*
X189189802Y-95268737D01*
X189131577Y-95235672D01*
X188947122Y-95051217D01*
X188913096Y-94988905D01*
X188910907Y-94975292D01*
X188894232Y-94816635D01*
X188894232Y-94816633D01*
X188893542Y-94810072D01*
X188834527Y-94628444D01*
X188739040Y-94463056D01*
X188724798Y-94447238D01*
X188615675Y-94326045D01*
X188615674Y-94326044D01*
X188611253Y-94321134D01*
X188512157Y-94249136D01*
X188462094Y-94212763D01*
X188462093Y-94212762D01*
X188456752Y-94208882D01*
X188450724Y-94206198D01*
X188450722Y-94206197D01*
X188288319Y-94133891D01*
X188288318Y-94133891D01*
X188282288Y-94131206D01*
X188183068Y-94110116D01*
X188101944Y-94092872D01*
X188101939Y-94092872D01*
X188095487Y-94091500D01*
X187904513Y-94091500D01*
X187898061Y-94092872D01*
X187898056Y-94092872D01*
X187816932Y-94110116D01*
X187717712Y-94131206D01*
X187711682Y-94133891D01*
X187711681Y-94133891D01*
X187549278Y-94206197D01*
X187549276Y-94206198D01*
X187543248Y-94208882D01*
X187537907Y-94212762D01*
X187537906Y-94212763D01*
X187487843Y-94249136D01*
X187388747Y-94321134D01*
X187384326Y-94326044D01*
X187384325Y-94326045D01*
X187275203Y-94447238D01*
X187260960Y-94463056D01*
X187165473Y-94628444D01*
X187106458Y-94810072D01*
X187105768Y-94816633D01*
X187105768Y-94816635D01*
X187099873Y-94872721D01*
X187086496Y-95000000D01*
X187084459Y-94999786D01*
X187067184Y-95058621D01*
X187013528Y-95105114D01*
X186961186Y-95116500D01*
X186564595Y-95116500D01*
X186496474Y-95096498D01*
X186475500Y-95079595D01*
X186003652Y-94607747D01*
X185996112Y-94599461D01*
X185992000Y-94592982D01*
X185942348Y-94546356D01*
X185939507Y-94543602D01*
X185919770Y-94523865D01*
X185916573Y-94521385D01*
X185907551Y-94513680D01*
X185881100Y-94488841D01*
X185875321Y-94483414D01*
X185868375Y-94479595D01*
X185868372Y-94479593D01*
X185857566Y-94473652D01*
X185841047Y-94462801D01*
X185835048Y-94458148D01*
X185825041Y-94450386D01*
X185817772Y-94447241D01*
X185817768Y-94447238D01*
X185784463Y-94432826D01*
X185773813Y-94427609D01*
X185735060Y-94406305D01*
X185715437Y-94401267D01*
X185696734Y-94394863D01*
X185685420Y-94389967D01*
X185685419Y-94389967D01*
X185678145Y-94386819D01*
X185670322Y-94385580D01*
X185670312Y-94385577D01*
X185634476Y-94379901D01*
X185622856Y-94377495D01*
X185587711Y-94368472D01*
X185587710Y-94368472D01*
X185580030Y-94366500D01*
X185559776Y-94366500D01*
X185540065Y-94364949D01*
X185527886Y-94363020D01*
X185520057Y-94361780D01*
X185512165Y-94362526D01*
X185476039Y-94365941D01*
X185464181Y-94366500D01*
X177808980Y-94366500D01*
X177740859Y-94346498D01*
X177694366Y-94292842D01*
X177684262Y-94222568D01*
X177713756Y-94157988D01*
X177719885Y-94151405D01*
X178200885Y-93670405D01*
X178263197Y-93636379D01*
X178289980Y-93633500D01*
X184291800Y-93633500D01*
X184359921Y-93653502D01*
X184379147Y-93669843D01*
X184379420Y-93669540D01*
X184384332Y-93673963D01*
X184388747Y-93678866D01*
X184543248Y-93791118D01*
X184549276Y-93793802D01*
X184549278Y-93793803D01*
X184711681Y-93866109D01*
X184717712Y-93868794D01*
X184811113Y-93888647D01*
X184898056Y-93907128D01*
X184898061Y-93907128D01*
X184904513Y-93908500D01*
X185095487Y-93908500D01*
X185101939Y-93907128D01*
X185101944Y-93907128D01*
X185188887Y-93888647D01*
X185282288Y-93868794D01*
X185288319Y-93866109D01*
X185450722Y-93793803D01*
X185450724Y-93793802D01*
X185456752Y-93791118D01*
X185611253Y-93678866D01*
X185634091Y-93653502D01*
X185734621Y-93541852D01*
X185734622Y-93541851D01*
X185739040Y-93536944D01*
X185834527Y-93371556D01*
X185893542Y-93189928D01*
X185895706Y-93169344D01*
X185912814Y-93006565D01*
X185913504Y-93000000D01*
X185893542Y-92810072D01*
X185834527Y-92628444D01*
X185739040Y-92463056D01*
X185722881Y-92445109D01*
X185615675Y-92326045D01*
X185615674Y-92326044D01*
X185611253Y-92321134D01*
X185456752Y-92208882D01*
X185450724Y-92206198D01*
X185450722Y-92206197D01*
X185288319Y-92133891D01*
X185288318Y-92133891D01*
X185282288Y-92131206D01*
X185188888Y-92111353D01*
X185101944Y-92092872D01*
X185101939Y-92092872D01*
X185095487Y-92091500D01*
X184904513Y-92091500D01*
X184898061Y-92092872D01*
X184898056Y-92092872D01*
X184811112Y-92111353D01*
X184717712Y-92131206D01*
X184711682Y-92133891D01*
X184711681Y-92133891D01*
X184549278Y-92206197D01*
X184549276Y-92206198D01*
X184543248Y-92208882D01*
X184388747Y-92321134D01*
X184384332Y-92326037D01*
X184379420Y-92330460D01*
X184378295Y-92329211D01*
X184324986Y-92362051D01*
X184291800Y-92366500D01*
X178054154Y-92366500D01*
X178042971Y-92365973D01*
X178035478Y-92364298D01*
X178027552Y-92364547D01*
X178027551Y-92364547D01*
X177967388Y-92366438D01*
X177963430Y-92366500D01*
X177935530Y-92366500D01*
X177931540Y-92367004D01*
X177919706Y-92367936D01*
X177875497Y-92369326D01*
X177867881Y-92371539D01*
X177867879Y-92371539D01*
X177856038Y-92374979D01*
X177836679Y-92378988D01*
X177835369Y-92379154D01*
X177816589Y-92381526D01*
X177809223Y-92384442D01*
X177809217Y-92384444D01*
X177775484Y-92397800D01*
X177764254Y-92401645D01*
X177740659Y-92408500D01*
X177721793Y-92413981D01*
X177714970Y-92418016D01*
X177704352Y-92424295D01*
X177686599Y-92432992D01*
X177678954Y-92436019D01*
X177667769Y-92440448D01*
X177661354Y-92445109D01*
X177631998Y-92466437D01*
X177622081Y-92472951D01*
X177584024Y-92495458D01*
X177569703Y-92509779D01*
X177554670Y-92522619D01*
X177538279Y-92534528D01*
X177533228Y-92540634D01*
X177510088Y-92568605D01*
X177502098Y-92577384D01*
X175607747Y-94471734D01*
X175599461Y-94479274D01*
X175592982Y-94483386D01*
X175587557Y-94489163D01*
X175546357Y-94533037D01*
X175543602Y-94535879D01*
X175523865Y-94555616D01*
X175521385Y-94558813D01*
X175513682Y-94567833D01*
X175483414Y-94600065D01*
X175479595Y-94607011D01*
X175479593Y-94607014D01*
X175473652Y-94617820D01*
X175462801Y-94634339D01*
X175450386Y-94650345D01*
X175447241Y-94657614D01*
X175447238Y-94657618D01*
X175432826Y-94690923D01*
X175427609Y-94701573D01*
X175406305Y-94740326D01*
X175404334Y-94748001D01*
X175404334Y-94748002D01*
X175401267Y-94759948D01*
X175394863Y-94778652D01*
X175386819Y-94797241D01*
X175385580Y-94805064D01*
X175385577Y-94805074D01*
X175379901Y-94840910D01*
X175377495Y-94852530D01*
X175366500Y-94895356D01*
X175366500Y-94915610D01*
X175364949Y-94935320D01*
X175361780Y-94955329D01*
X175362526Y-94963221D01*
X175365941Y-94999347D01*
X175366500Y-95011205D01*
X175366500Y-97776374D01*
X175346498Y-97844495D01*
X175292842Y-97890988D01*
X175222568Y-97901092D01*
X175157988Y-97871598D01*
X175146864Y-97860684D01*
X175115675Y-97826045D01*
X175115674Y-97826044D01*
X175111253Y-97821134D01*
X174956752Y-97708882D01*
X174950724Y-97706198D01*
X174950722Y-97706197D01*
X174788319Y-97633891D01*
X174788318Y-97633891D01*
X174782288Y-97631206D01*
X174679610Y-97609381D01*
X174601944Y-97592872D01*
X174601939Y-97592872D01*
X174595487Y-97591500D01*
X174404513Y-97591500D01*
X174398061Y-97592872D01*
X174398056Y-97592872D01*
X174320390Y-97609381D01*
X174217712Y-97631206D01*
X174211682Y-97633891D01*
X174211681Y-97633891D01*
X174049278Y-97706197D01*
X174049276Y-97706198D01*
X174043248Y-97708882D01*
X173888747Y-97821134D01*
X173884326Y-97826044D01*
X173884325Y-97826045D01*
X173814981Y-97903060D01*
X173760960Y-97963056D01*
X173665473Y-98128444D01*
X173606458Y-98310072D01*
X173586496Y-98500000D01*
X173587186Y-98506565D01*
X173594993Y-98580840D01*
X173606458Y-98689928D01*
X173665473Y-98871556D01*
X173668776Y-98877278D01*
X173668777Y-98877279D01*
X173681366Y-98899084D01*
X173760960Y-99036944D01*
X173765379Y-99041852D01*
X173767436Y-99044683D01*
X173791295Y-99111551D01*
X173791500Y-99118744D01*
X173791500Y-100631256D01*
X173771498Y-100699377D01*
X173767436Y-100705317D01*
X173765379Y-100708148D01*
X173760960Y-100713056D01*
X173757659Y-100718774D01*
X173757658Y-100718775D01*
X173685130Y-100844398D01*
X173665473Y-100878444D01*
X173606458Y-101060072D01*
X173605768Y-101066633D01*
X173605768Y-101066635D01*
X173593173Y-101186470D01*
X173586496Y-101250000D01*
X173587186Y-101256565D01*
X173604063Y-101417137D01*
X173606458Y-101439928D01*
X173665473Y-101621556D01*
X173668776Y-101627278D01*
X173668777Y-101627279D01*
X173683627Y-101653000D01*
X173760960Y-101786944D01*
X173765378Y-101791851D01*
X173765379Y-101791852D01*
X173877619Y-101916507D01*
X173888747Y-101928866D01*
X174043248Y-102041118D01*
X174049276Y-102043802D01*
X174049278Y-102043803D01*
X174148841Y-102088131D01*
X174217712Y-102118794D01*
X174311113Y-102138647D01*
X174398056Y-102157128D01*
X174398061Y-102157128D01*
X174404513Y-102158500D01*
X174595487Y-102158500D01*
X174601939Y-102157128D01*
X174601944Y-102157128D01*
X174688887Y-102138647D01*
X174782288Y-102118794D01*
X174851159Y-102088131D01*
X174950722Y-102043803D01*
X174950724Y-102043802D01*
X174956752Y-102041118D01*
X175111253Y-101928866D01*
X175123219Y-101915577D01*
X175146864Y-101889316D01*
X175207310Y-101852076D01*
X175278294Y-101853428D01*
X175337278Y-101892941D01*
X175365536Y-101958072D01*
X175366500Y-101973626D01*
X175366500Y-107898290D01*
X175346498Y-107966411D01*
X175292842Y-108012904D01*
X175222568Y-108023008D01*
X175172152Y-108004141D01*
X175079997Y-107944637D01*
X175079993Y-107944635D01*
X175074952Y-107941380D01*
X174993366Y-107908500D01*
X174884332Y-107864558D01*
X174884329Y-107864557D01*
X174878763Y-107862314D01*
X174671163Y-107821772D01*
X174665601Y-107821500D01*
X173709654Y-107821500D01*
X173551934Y-107836548D01*
X173348966Y-107896092D01*
X173343639Y-107898836D01*
X173343638Y-107898836D01*
X173166251Y-107990196D01*
X173166248Y-107990198D01*
X173160920Y-107992942D01*
X172994580Y-108123604D01*
X172990650Y-108128133D01*
X172990645Y-108128138D01*
X172872054Y-108264802D01*
X172855948Y-108283363D01*
X172852948Y-108288549D01*
X172852945Y-108288553D01*
X172808563Y-108365271D01*
X172750027Y-108466454D01*
X172680639Y-108666271D01*
X172679778Y-108672206D01*
X172679778Y-108672208D01*
X172651664Y-108866109D01*
X172650287Y-108875604D01*
X171209677Y-108875604D01*
X171204933Y-108773101D01*
X171155375Y-108567466D01*
X171150999Y-108557840D01*
X171070306Y-108380368D01*
X171067826Y-108374913D01*
X170945446Y-108202389D01*
X170792650Y-108056119D01*
X170614952Y-107941380D01*
X170533366Y-107908500D01*
X170424332Y-107864558D01*
X170424329Y-107864557D01*
X170418763Y-107862314D01*
X170211163Y-107821772D01*
X170205601Y-107821500D01*
X169749654Y-107821500D01*
X169591934Y-107836548D01*
X169388966Y-107896092D01*
X169383639Y-107898836D01*
X169383638Y-107898836D01*
X169206251Y-107990196D01*
X169206248Y-107990198D01*
X169200920Y-107992942D01*
X169034580Y-108123604D01*
X168979162Y-108187467D01*
X168919411Y-108225807D01*
X168848414Y-108225756D01*
X168788715Y-108187329D01*
X168759269Y-108122727D01*
X168757999Y-108104885D01*
X168757999Y-103036695D01*
X169912251Y-103036695D01*
X169912548Y-103041848D01*
X169912548Y-103041851D01*
X169917855Y-103133891D01*
X169925110Y-103259715D01*
X169926247Y-103264761D01*
X169926248Y-103264767D01*
X169942047Y-103334868D01*
X169974222Y-103477639D01*
X170014346Y-103576453D01*
X170056219Y-103679574D01*
X170058266Y-103684616D01*
X170174987Y-103875088D01*
X170321250Y-104043938D01*
X170493126Y-104186632D01*
X170686000Y-104299338D01*
X170894692Y-104379030D01*
X170899760Y-104380061D01*
X170899763Y-104380062D01*
X170986949Y-104397800D01*
X171113597Y-104423567D01*
X171118772Y-104423757D01*
X171118774Y-104423757D01*
X171331673Y-104431564D01*
X171331677Y-104431564D01*
X171336837Y-104431753D01*
X171341957Y-104431097D01*
X171341959Y-104431097D01*
X171553288Y-104404025D01*
X171553289Y-104404025D01*
X171558416Y-104403368D01*
X171576975Y-104397800D01*
X171767429Y-104340661D01*
X171767434Y-104340659D01*
X171772384Y-104339174D01*
X171972994Y-104240896D01*
X172154860Y-104111173D01*
X172161261Y-104104795D01*
X172246098Y-104020253D01*
X172313096Y-103953489D01*
X172320393Y-103943335D01*
X172440435Y-103776277D01*
X172443453Y-103772077D01*
X172457718Y-103743215D01*
X172540136Y-103576453D01*
X172540137Y-103576451D01*
X172542430Y-103571811D01*
X172602857Y-103372922D01*
X172605865Y-103363023D01*
X172605865Y-103363021D01*
X172607370Y-103358069D01*
X172636529Y-103136590D01*
X172638156Y-103070000D01*
X172619852Y-102847361D01*
X172565431Y-102630702D01*
X172476354Y-102425840D01*
X172391458Y-102294611D01*
X172357822Y-102242617D01*
X172357820Y-102242614D01*
X172355014Y-102238277D01*
X172204670Y-102073051D01*
X172200619Y-102069852D01*
X172200615Y-102069848D01*
X172033414Y-101937800D01*
X172033410Y-101937798D01*
X172029359Y-101934598D01*
X171988053Y-101911796D01*
X171938084Y-101861364D01*
X171923312Y-101791921D01*
X171948428Y-101725516D01*
X171975780Y-101698909D01*
X172040142Y-101653000D01*
X172154860Y-101571173D01*
X172313096Y-101413489D01*
X172339116Y-101377279D01*
X172440435Y-101236277D01*
X172443453Y-101232077D01*
X172453018Y-101212725D01*
X172540136Y-101036453D01*
X172540137Y-101036451D01*
X172542430Y-101031811D01*
X172599371Y-100844398D01*
X172605865Y-100823023D01*
X172605865Y-100823021D01*
X172607370Y-100818069D01*
X172636529Y-100596590D01*
X172636619Y-100592923D01*
X172638074Y-100533365D01*
X172638074Y-100533361D01*
X172638156Y-100530000D01*
X172619852Y-100307361D01*
X172565431Y-100090702D01*
X172476354Y-99885840D01*
X172415323Y-99791500D01*
X172357822Y-99702617D01*
X172357820Y-99702614D01*
X172355014Y-99698277D01*
X172204670Y-99533051D01*
X172200619Y-99529852D01*
X172200615Y-99529848D01*
X172033414Y-99397800D01*
X172033410Y-99397798D01*
X172029359Y-99394598D01*
X171988053Y-99371796D01*
X171938084Y-99321364D01*
X171923312Y-99251921D01*
X171948428Y-99185516D01*
X171975780Y-99158909D01*
X172032089Y-99118744D01*
X172154860Y-99031173D01*
X172188810Y-98997342D01*
X172309435Y-98877137D01*
X172313096Y-98873489D01*
X172372594Y-98790689D01*
X172440435Y-98696277D01*
X172443453Y-98692077D01*
X172446028Y-98686868D01*
X172540136Y-98496453D01*
X172540137Y-98496451D01*
X172542430Y-98491811D01*
X172607370Y-98278069D01*
X172636529Y-98056590D01*
X172638156Y-97990000D01*
X172619852Y-97767361D01*
X172565431Y-97550702D01*
X172476354Y-97345840D01*
X172428554Y-97271953D01*
X172357822Y-97162617D01*
X172357820Y-97162614D01*
X172355014Y-97158277D01*
X172351540Y-97154459D01*
X172351533Y-97154450D01*
X172207435Y-96996088D01*
X172176383Y-96932242D01*
X172184779Y-96861744D01*
X172229956Y-96806976D01*
X172256400Y-96793307D01*
X172363052Y-96753325D01*
X172378649Y-96744786D01*
X172480724Y-96668285D01*
X172493285Y-96655724D01*
X172569786Y-96553649D01*
X172578324Y-96538054D01*
X172623478Y-96417606D01*
X172627105Y-96402351D01*
X172632631Y-96351486D01*
X172633000Y-96344672D01*
X172633000Y-95722115D01*
X172628525Y-95706876D01*
X172627135Y-95705671D01*
X172619452Y-95704000D01*
X169935116Y-95704000D01*
X169919877Y-95708475D01*
X169918672Y-95709865D01*
X169917001Y-95717548D01*
X169917001Y-96344669D01*
X169917371Y-96351490D01*
X169922895Y-96402352D01*
X169926521Y-96417604D01*
X169971676Y-96538054D01*
X169980214Y-96553649D01*
X170056715Y-96655724D01*
X170069276Y-96668285D01*
X170171351Y-96744786D01*
X170186946Y-96753324D01*
X170295827Y-96794142D01*
X170352591Y-96836784D01*
X170377291Y-96903345D01*
X170362083Y-96972694D01*
X170342691Y-96999175D01*
X170236802Y-97109982D01*
X170215629Y-97132138D01*
X170212715Y-97136410D01*
X170212714Y-97136411D01*
X170153393Y-97223372D01*
X170089743Y-97316680D01*
X170059768Y-97381256D01*
X169999003Y-97512164D01*
X169995688Y-97519305D01*
X169935989Y-97734570D01*
X169912251Y-97956695D01*
X169912548Y-97961848D01*
X169912548Y-97961851D01*
X169921564Y-98118213D01*
X169925110Y-98179715D01*
X169926247Y-98184761D01*
X169926248Y-98184767D01*
X169936003Y-98228051D01*
X169974222Y-98397639D01*
X170034683Y-98546537D01*
X170047374Y-98577791D01*
X170058266Y-98604616D01*
X170060965Y-98609020D01*
X170166326Y-98780954D01*
X170174987Y-98795088D01*
X170321250Y-98963938D01*
X170493126Y-99106632D01*
X170540194Y-99134136D01*
X170566445Y-99149476D01*
X170615169Y-99201114D01*
X170628240Y-99270897D01*
X170601509Y-99336669D01*
X170561055Y-99370027D01*
X170548607Y-99376507D01*
X170544474Y-99379610D01*
X170544471Y-99379612D01*
X170505996Y-99408500D01*
X170369965Y-99510635D01*
X170215629Y-99672138D01*
X170089743Y-99856680D01*
X170054186Y-99933282D01*
X170017570Y-100012165D01*
X169995688Y-100059305D01*
X169935989Y-100274570D01*
X169912251Y-100496695D01*
X169912548Y-100501848D01*
X169912548Y-100501851D01*
X169922770Y-100679138D01*
X169925110Y-100719715D01*
X169926247Y-100724761D01*
X169926248Y-100724767D01*
X169944058Y-100803794D01*
X169974222Y-100937639D01*
X170028594Y-101071541D01*
X170052494Y-101130400D01*
X170058266Y-101144616D01*
X170096003Y-101206197D01*
X170171386Y-101329211D01*
X170174987Y-101335088D01*
X170321250Y-101503938D01*
X170493126Y-101646632D01*
X170515260Y-101659566D01*
X170566445Y-101689476D01*
X170615169Y-101741114D01*
X170628240Y-101810897D01*
X170601509Y-101876669D01*
X170561055Y-101910027D01*
X170548607Y-101916507D01*
X170544474Y-101919610D01*
X170544471Y-101919612D01*
X170387809Y-102037237D01*
X170369965Y-102050635D01*
X170215629Y-102212138D01*
X170212715Y-102216410D01*
X170212714Y-102216411D01*
X170159370Y-102294611D01*
X170089743Y-102396680D01*
X170049579Y-102483207D01*
X170001856Y-102586018D01*
X169995688Y-102599305D01*
X169935989Y-102814570D01*
X169912251Y-103036695D01*
X168757999Y-103036695D01*
X168757999Y-95177885D01*
X169917000Y-95177885D01*
X169921475Y-95193124D01*
X169922865Y-95194329D01*
X169930548Y-95196000D01*
X171002885Y-95196000D01*
X171018124Y-95191525D01*
X171019329Y-95190135D01*
X171021000Y-95182452D01*
X171021000Y-95177885D01*
X171529000Y-95177885D01*
X171533475Y-95193124D01*
X171534865Y-95194329D01*
X171542548Y-95196000D01*
X172614884Y-95196000D01*
X172630123Y-95191525D01*
X172631328Y-95190135D01*
X172632999Y-95182452D01*
X172632999Y-94555331D01*
X172632629Y-94548510D01*
X172627105Y-94497648D01*
X172623479Y-94482396D01*
X172578324Y-94361946D01*
X172569786Y-94346351D01*
X172493285Y-94244276D01*
X172480724Y-94231715D01*
X172378649Y-94155214D01*
X172363054Y-94146676D01*
X172242606Y-94101522D01*
X172227351Y-94097895D01*
X172176486Y-94092369D01*
X172169672Y-94092000D01*
X171547115Y-94092000D01*
X171531876Y-94096475D01*
X171530671Y-94097865D01*
X171529000Y-94105548D01*
X171529000Y-95177885D01*
X171021000Y-95177885D01*
X171021000Y-94110116D01*
X171016525Y-94094877D01*
X171015135Y-94093672D01*
X171007452Y-94092001D01*
X170380331Y-94092001D01*
X170373510Y-94092371D01*
X170322648Y-94097895D01*
X170307396Y-94101521D01*
X170186946Y-94146676D01*
X170171351Y-94155214D01*
X170069276Y-94231715D01*
X170056715Y-94244276D01*
X169980214Y-94346351D01*
X169971676Y-94361946D01*
X169926522Y-94482394D01*
X169922895Y-94497649D01*
X169917369Y-94548514D01*
X169917000Y-94555328D01*
X169917000Y-95177885D01*
X168757999Y-95177885D01*
X168757999Y-88382703D01*
X170390743Y-88382703D01*
X170428268Y-88667734D01*
X170504129Y-88945036D01*
X170616923Y-89209476D01*
X170662038Y-89284857D01*
X170751118Y-89433699D01*
X170764561Y-89456161D01*
X170944313Y-89680528D01*
X171008703Y-89741632D01*
X171127471Y-89854338D01*
X171152851Y-89878423D01*
X171386317Y-90046186D01*
X171390112Y-90048195D01*
X171390113Y-90048196D01*
X171411869Y-90059715D01*
X171640392Y-90180712D01*
X171775382Y-90230111D01*
X171877377Y-90267436D01*
X171910373Y-90279511D01*
X172191264Y-90340755D01*
X172212687Y-90342441D01*
X172414282Y-90358307D01*
X172414291Y-90358307D01*
X172416739Y-90358500D01*
X172572271Y-90358500D01*
X172574407Y-90358354D01*
X172574418Y-90358354D01*
X172782548Y-90344165D01*
X172782554Y-90344164D01*
X172786825Y-90343873D01*
X172791020Y-90343004D01*
X172791022Y-90343004D01*
X172933347Y-90313530D01*
X173068342Y-90285574D01*
X173339343Y-90189607D01*
X173594812Y-90057750D01*
X173598313Y-90055289D01*
X173598317Y-90055287D01*
X173712417Y-89975096D01*
X173830023Y-89892441D01*
X173995869Y-89738327D01*
X174037479Y-89699661D01*
X174037481Y-89699658D01*
X174040622Y-89696740D01*
X174182717Y-89523134D01*
X177466500Y-89523134D01*
X177473255Y-89585316D01*
X177524385Y-89721705D01*
X177611739Y-89838261D01*
X177728295Y-89925615D01*
X177864684Y-89976745D01*
X177926866Y-89983500D01*
X179723134Y-89983500D01*
X179785316Y-89976745D01*
X179921705Y-89925615D01*
X180038261Y-89838261D01*
X180125615Y-89721705D01*
X180141052Y-89680528D01*
X180169598Y-89604382D01*
X180212240Y-89547618D01*
X180278802Y-89522918D01*
X180348150Y-89538126D01*
X180382817Y-89566114D01*
X180411250Y-89598938D01*
X180583126Y-89741632D01*
X180776000Y-89854338D01*
X180984692Y-89934030D01*
X180989760Y-89935061D01*
X180989763Y-89935062D01*
X181049891Y-89947295D01*
X181203597Y-89978567D01*
X181208772Y-89978757D01*
X181208774Y-89978757D01*
X181421673Y-89986564D01*
X181421677Y-89986564D01*
X181426837Y-89986753D01*
X181431957Y-89986097D01*
X181431959Y-89986097D01*
X181643288Y-89959025D01*
X181643289Y-89959025D01*
X181648416Y-89958368D01*
X181653369Y-89956882D01*
X181857429Y-89895661D01*
X181857434Y-89895659D01*
X181862384Y-89894174D01*
X182062994Y-89795896D01*
X182244860Y-89666173D01*
X182403096Y-89508489D01*
X182533453Y-89327077D01*
X182534640Y-89327930D01*
X182581960Y-89284362D01*
X182651897Y-89272145D01*
X182717338Y-89299678D01*
X182745166Y-89331511D01*
X182802694Y-89425388D01*
X182808777Y-89433699D01*
X182948213Y-89594667D01*
X182955580Y-89601883D01*
X183119434Y-89737916D01*
X183127881Y-89743831D01*
X183311756Y-89851279D01*
X183321042Y-89855729D01*
X183520001Y-89931703D01*
X183529899Y-89934579D01*
X183633250Y-89955606D01*
X183647299Y-89954410D01*
X183651000Y-89944065D01*
X183651000Y-89943517D01*
X184159000Y-89943517D01*
X184163064Y-89957359D01*
X184176478Y-89959393D01*
X184183184Y-89958534D01*
X184193262Y-89956392D01*
X184397255Y-89895191D01*
X184406842Y-89891433D01*
X184598095Y-89797739D01*
X184606945Y-89792464D01*
X184780328Y-89668792D01*
X184788200Y-89662139D01*
X184939052Y-89511812D01*
X184945730Y-89503965D01*
X185073022Y-89326819D01*
X185074279Y-89327722D01*
X185121373Y-89284362D01*
X185191311Y-89272145D01*
X185256751Y-89299678D01*
X185284579Y-89331511D01*
X185344987Y-89430088D01*
X185491250Y-89598938D01*
X185663126Y-89741632D01*
X185856000Y-89854338D01*
X186064692Y-89934030D01*
X186069760Y-89935061D01*
X186069763Y-89935062D01*
X186129891Y-89947295D01*
X186283597Y-89978567D01*
X186288772Y-89978757D01*
X186288774Y-89978757D01*
X186501673Y-89986564D01*
X186501677Y-89986564D01*
X186506837Y-89986753D01*
X186511957Y-89986097D01*
X186511959Y-89986097D01*
X186723288Y-89959025D01*
X186723289Y-89959025D01*
X186728416Y-89958368D01*
X186733369Y-89956882D01*
X186937429Y-89895661D01*
X186937434Y-89895659D01*
X186942384Y-89894174D01*
X187142994Y-89795896D01*
X187324860Y-89666173D01*
X187483096Y-89508489D01*
X187613453Y-89327077D01*
X187614776Y-89328028D01*
X187661645Y-89284857D01*
X187731580Y-89272625D01*
X187797026Y-89300144D01*
X187824875Y-89331994D01*
X187884987Y-89430088D01*
X188031250Y-89598938D01*
X188203126Y-89741632D01*
X188396000Y-89854338D01*
X188604692Y-89934030D01*
X188609760Y-89935061D01*
X188609763Y-89935062D01*
X188669891Y-89947295D01*
X188823597Y-89978567D01*
X188828772Y-89978757D01*
X188828774Y-89978757D01*
X189041673Y-89986564D01*
X189041677Y-89986564D01*
X189046837Y-89986753D01*
X189051957Y-89986097D01*
X189051959Y-89986097D01*
X189263288Y-89959025D01*
X189263289Y-89959025D01*
X189268416Y-89958368D01*
X189273369Y-89956882D01*
X189477429Y-89895661D01*
X189477434Y-89895659D01*
X189482384Y-89894174D01*
X189682994Y-89795896D01*
X189864860Y-89666173D01*
X190023096Y-89508489D01*
X190153453Y-89327077D01*
X190154776Y-89328028D01*
X190201645Y-89284857D01*
X190271580Y-89272625D01*
X190337026Y-89300144D01*
X190364875Y-89331994D01*
X190424987Y-89430088D01*
X190571250Y-89598938D01*
X190743126Y-89741632D01*
X190936000Y-89854338D01*
X191144692Y-89934030D01*
X191149760Y-89935061D01*
X191149763Y-89935062D01*
X191209891Y-89947295D01*
X191363597Y-89978567D01*
X191368772Y-89978757D01*
X191368774Y-89978757D01*
X191581673Y-89986564D01*
X191581677Y-89986564D01*
X191586837Y-89986753D01*
X191591957Y-89986097D01*
X191591959Y-89986097D01*
X191789588Y-89960780D01*
X191859698Y-89971964D01*
X191894693Y-89996664D01*
X192253068Y-90355039D01*
X192258922Y-90361304D01*
X192296950Y-90404896D01*
X192349240Y-90441647D01*
X192354482Y-90445539D01*
X192404793Y-90484987D01*
X192411712Y-90488111D01*
X192414004Y-90489499D01*
X192428676Y-90497868D01*
X192431036Y-90499133D01*
X192437250Y-90503501D01*
X192444329Y-90506261D01*
X192444331Y-90506262D01*
X192496786Y-90526713D01*
X192502855Y-90529264D01*
X192561084Y-90555556D01*
X192568557Y-90556941D01*
X192571123Y-90557745D01*
X192587346Y-90562366D01*
X192589938Y-90563031D01*
X192597020Y-90565793D01*
X192604555Y-90566785D01*
X192660372Y-90574133D01*
X192666888Y-90575165D01*
X192705281Y-90582281D01*
X192729697Y-90586806D01*
X192737277Y-90586369D01*
X192737278Y-90586369D01*
X192791891Y-90583220D01*
X192799144Y-90583011D01*
X200406577Y-90583011D01*
X200415147Y-90583303D01*
X200465265Y-90586720D01*
X200465269Y-90586720D01*
X200472841Y-90587236D01*
X200480318Y-90585931D01*
X200480319Y-90585931D01*
X200506797Y-90581310D01*
X200535792Y-90576249D01*
X200542310Y-90575288D01*
X200605731Y-90567613D01*
X200612832Y-90564930D01*
X200615441Y-90564289D01*
X200631751Y-90559826D01*
X200634287Y-90559061D01*
X200641773Y-90557754D01*
X200700289Y-90532067D01*
X200706393Y-90529576D01*
X200759037Y-90509684D01*
X200759038Y-90509683D01*
X200766145Y-90506998D01*
X200772408Y-90502694D01*
X200774774Y-90501457D01*
X200789586Y-90493212D01*
X200791840Y-90491879D01*
X200798794Y-90488826D01*
X200849491Y-90449924D01*
X200854821Y-90446052D01*
X200901209Y-90414172D01*
X200901214Y-90414167D01*
X200907470Y-90409868D01*
X200924898Y-90390308D01*
X200948924Y-90363341D01*
X200953905Y-90358065D01*
X201317684Y-89994286D01*
X201379996Y-89960260D01*
X201431896Y-89959910D01*
X201523597Y-89978567D01*
X201528772Y-89978757D01*
X201528774Y-89978757D01*
X201741673Y-89986564D01*
X201741677Y-89986564D01*
X201746837Y-89986753D01*
X201751957Y-89986097D01*
X201751959Y-89986097D01*
X201963288Y-89959025D01*
X201963289Y-89959025D01*
X201968416Y-89958368D01*
X201973369Y-89956882D01*
X202177429Y-89895661D01*
X202177434Y-89895659D01*
X202182384Y-89894174D01*
X202382994Y-89795896D01*
X202564860Y-89666173D01*
X202723096Y-89508489D01*
X202853453Y-89327077D01*
X202854640Y-89327930D01*
X202901960Y-89284362D01*
X202971897Y-89272145D01*
X203037338Y-89299678D01*
X203065166Y-89331511D01*
X203122694Y-89425388D01*
X203128777Y-89433699D01*
X203268213Y-89594667D01*
X203275580Y-89601883D01*
X203439434Y-89737916D01*
X203447881Y-89743831D01*
X203631756Y-89851279D01*
X203641042Y-89855729D01*
X203840001Y-89931703D01*
X203849899Y-89934579D01*
X203953250Y-89955606D01*
X203967299Y-89954410D01*
X203971000Y-89944065D01*
X203971000Y-87308102D01*
X203967082Y-87294758D01*
X203952806Y-87292771D01*
X203914324Y-87298660D01*
X203904288Y-87301051D01*
X203701868Y-87367212D01*
X203692359Y-87371209D01*
X203503463Y-87469542D01*
X203494738Y-87475036D01*
X203324433Y-87602905D01*
X203316726Y-87609748D01*
X203169590Y-87763717D01*
X203163109Y-87771722D01*
X203058498Y-87925074D01*
X203003587Y-87970076D01*
X202933062Y-87978247D01*
X202869315Y-87946993D01*
X202848618Y-87922509D01*
X202767822Y-87797617D01*
X202767820Y-87797614D01*
X202765014Y-87793277D01*
X202614670Y-87628051D01*
X202610619Y-87624852D01*
X202610615Y-87624848D01*
X202443414Y-87492800D01*
X202443410Y-87492798D01*
X202439359Y-87489598D01*
X202403028Y-87469542D01*
X202387135Y-87460769D01*
X202243789Y-87381638D01*
X202238920Y-87379914D01*
X202238916Y-87379912D01*
X202038087Y-87308795D01*
X202038083Y-87308794D01*
X202033212Y-87307069D01*
X202028119Y-87306162D01*
X202028116Y-87306161D01*
X201818373Y-87268800D01*
X201818367Y-87268799D01*
X201813284Y-87267894D01*
X201739452Y-87266992D01*
X201595081Y-87265228D01*
X201595079Y-87265228D01*
X201589911Y-87265165D01*
X201369091Y-87298955D01*
X201156756Y-87368357D01*
X200958607Y-87471507D01*
X200954474Y-87474610D01*
X200954471Y-87474612D01*
X200784100Y-87602530D01*
X200779965Y-87605635D01*
X200776393Y-87609373D01*
X200668729Y-87722037D01*
X200625629Y-87767138D01*
X200518201Y-87924621D01*
X200463293Y-87969621D01*
X200392768Y-87977792D01*
X200329021Y-87946538D01*
X200308324Y-87922054D01*
X200227822Y-87797617D01*
X200227820Y-87797614D01*
X200225014Y-87793277D01*
X200074670Y-87628051D01*
X200070619Y-87624852D01*
X200070615Y-87624848D01*
X199903414Y-87492800D01*
X199903410Y-87492798D01*
X199899359Y-87489598D01*
X199863028Y-87469542D01*
X199847135Y-87460769D01*
X199703789Y-87381638D01*
X199698920Y-87379914D01*
X199698916Y-87379912D01*
X199498087Y-87308795D01*
X199498083Y-87308794D01*
X199493212Y-87307069D01*
X199488119Y-87306162D01*
X199488116Y-87306161D01*
X199278373Y-87268800D01*
X199278367Y-87268799D01*
X199273284Y-87267894D01*
X199199452Y-87266992D01*
X199055081Y-87265228D01*
X199055079Y-87265228D01*
X199049911Y-87265165D01*
X198829091Y-87298955D01*
X198616756Y-87368357D01*
X198418607Y-87471507D01*
X198414474Y-87474610D01*
X198414471Y-87474612D01*
X198244100Y-87602530D01*
X198239965Y-87605635D01*
X198236393Y-87609373D01*
X198128729Y-87722037D01*
X198085629Y-87767138D01*
X197978201Y-87924621D01*
X197923293Y-87969621D01*
X197852768Y-87977792D01*
X197789021Y-87946538D01*
X197768324Y-87922054D01*
X197687822Y-87797617D01*
X197687820Y-87797614D01*
X197685014Y-87793277D01*
X197534670Y-87628051D01*
X197530619Y-87624852D01*
X197530615Y-87624848D01*
X197363414Y-87492800D01*
X197363410Y-87492798D01*
X197359359Y-87489598D01*
X197323028Y-87469542D01*
X197307135Y-87460769D01*
X197163789Y-87381638D01*
X197158920Y-87379914D01*
X197158916Y-87379912D01*
X196958087Y-87308795D01*
X196958083Y-87308794D01*
X196953212Y-87307069D01*
X196948119Y-87306162D01*
X196948116Y-87306161D01*
X196738373Y-87268800D01*
X196738367Y-87268799D01*
X196733284Y-87267894D01*
X196659452Y-87266992D01*
X196515081Y-87265228D01*
X196515079Y-87265228D01*
X196509911Y-87265165D01*
X196289091Y-87298955D01*
X196076756Y-87368357D01*
X195878607Y-87471507D01*
X195874474Y-87474610D01*
X195874471Y-87474612D01*
X195704100Y-87602530D01*
X195699965Y-87605635D01*
X195696393Y-87609373D01*
X195588729Y-87722037D01*
X195545629Y-87767138D01*
X195438204Y-87924618D01*
X195437898Y-87925066D01*
X195382987Y-87970069D01*
X195312462Y-87978240D01*
X195248715Y-87946986D01*
X195228018Y-87922502D01*
X195147426Y-87797926D01*
X195141136Y-87789757D01*
X194997806Y-87632240D01*
X194990273Y-87625215D01*
X194823139Y-87493222D01*
X194814552Y-87487517D01*
X194628117Y-87384599D01*
X194618705Y-87380369D01*
X194417959Y-87309280D01*
X194407988Y-87306646D01*
X194336837Y-87293972D01*
X194323540Y-87295432D01*
X194319000Y-87309989D01*
X194319000Y-88753000D01*
X194298998Y-88821121D01*
X194245342Y-88867614D01*
X194193000Y-88879000D01*
X193937000Y-88879000D01*
X193868879Y-88858998D01*
X193822386Y-88805342D01*
X193811000Y-88753000D01*
X193811000Y-87308102D01*
X193807082Y-87294758D01*
X193792806Y-87292771D01*
X193754324Y-87298660D01*
X193744288Y-87301051D01*
X193541868Y-87367212D01*
X193532359Y-87371209D01*
X193343463Y-87469542D01*
X193334738Y-87475036D01*
X193164433Y-87602905D01*
X193156726Y-87609748D01*
X193009590Y-87763717D01*
X193003109Y-87771722D01*
X192898498Y-87925074D01*
X192843587Y-87970076D01*
X192773062Y-87978247D01*
X192709315Y-87946993D01*
X192688618Y-87922509D01*
X192607822Y-87797617D01*
X192607820Y-87797614D01*
X192605014Y-87793277D01*
X192454670Y-87628051D01*
X192450619Y-87624852D01*
X192450615Y-87624848D01*
X192283414Y-87492800D01*
X192283410Y-87492798D01*
X192279359Y-87489598D01*
X192243028Y-87469542D01*
X192227135Y-87460769D01*
X192083789Y-87381638D01*
X192078920Y-87379914D01*
X192078916Y-87379912D01*
X191878087Y-87308795D01*
X191878083Y-87308794D01*
X191873212Y-87307069D01*
X191868119Y-87306162D01*
X191868116Y-87306161D01*
X191658373Y-87268800D01*
X191658367Y-87268799D01*
X191653284Y-87267894D01*
X191579452Y-87266992D01*
X191435081Y-87265228D01*
X191435079Y-87265228D01*
X191429911Y-87265165D01*
X191209091Y-87298955D01*
X190996756Y-87368357D01*
X190798607Y-87471507D01*
X190794474Y-87474610D01*
X190794471Y-87474612D01*
X190624100Y-87602530D01*
X190619965Y-87605635D01*
X190616393Y-87609373D01*
X190508729Y-87722037D01*
X190465629Y-87767138D01*
X190358201Y-87924621D01*
X190303293Y-87969621D01*
X190232768Y-87977792D01*
X190169021Y-87946538D01*
X190148324Y-87922054D01*
X190067822Y-87797617D01*
X190067820Y-87797614D01*
X190065014Y-87793277D01*
X189914670Y-87628051D01*
X189910619Y-87624852D01*
X189910615Y-87624848D01*
X189743414Y-87492800D01*
X189743410Y-87492798D01*
X189739359Y-87489598D01*
X189703028Y-87469542D01*
X189687135Y-87460769D01*
X189543789Y-87381638D01*
X189538920Y-87379914D01*
X189538916Y-87379912D01*
X189338087Y-87308795D01*
X189338083Y-87308794D01*
X189333212Y-87307069D01*
X189328119Y-87306162D01*
X189328116Y-87306161D01*
X189118373Y-87268800D01*
X189118367Y-87268799D01*
X189113284Y-87267894D01*
X189039452Y-87266992D01*
X188895081Y-87265228D01*
X188895079Y-87265228D01*
X188889911Y-87265165D01*
X188669091Y-87298955D01*
X188456756Y-87368357D01*
X188258607Y-87471507D01*
X188254474Y-87474610D01*
X188254471Y-87474612D01*
X188084100Y-87602530D01*
X188079965Y-87605635D01*
X188076393Y-87609373D01*
X187968729Y-87722037D01*
X187925629Y-87767138D01*
X187818201Y-87924621D01*
X187763293Y-87969621D01*
X187692768Y-87977792D01*
X187629021Y-87946538D01*
X187608324Y-87922054D01*
X187527822Y-87797617D01*
X187527820Y-87797614D01*
X187525014Y-87793277D01*
X187374670Y-87628051D01*
X187370619Y-87624852D01*
X187370615Y-87624848D01*
X187203414Y-87492800D01*
X187203410Y-87492798D01*
X187199359Y-87489598D01*
X187163028Y-87469542D01*
X187147135Y-87460769D01*
X187003789Y-87381638D01*
X186998920Y-87379914D01*
X186998916Y-87379912D01*
X186798087Y-87308795D01*
X186798083Y-87308794D01*
X186793212Y-87307069D01*
X186788119Y-87306162D01*
X186788116Y-87306161D01*
X186578373Y-87268800D01*
X186578367Y-87268799D01*
X186573284Y-87267894D01*
X186499452Y-87266992D01*
X186355081Y-87265228D01*
X186355079Y-87265228D01*
X186349911Y-87265165D01*
X186129091Y-87298955D01*
X185916756Y-87368357D01*
X185718607Y-87471507D01*
X185714474Y-87474610D01*
X185714471Y-87474612D01*
X185544100Y-87602530D01*
X185539965Y-87605635D01*
X185536393Y-87609373D01*
X185428729Y-87722037D01*
X185385629Y-87767138D01*
X185278204Y-87924618D01*
X185277898Y-87925066D01*
X185222987Y-87970069D01*
X185152462Y-87978240D01*
X185088715Y-87946986D01*
X185068018Y-87922502D01*
X184987426Y-87797926D01*
X184981136Y-87789757D01*
X184837806Y-87632240D01*
X184830273Y-87625215D01*
X184663139Y-87493222D01*
X184654552Y-87487517D01*
X184468117Y-87384599D01*
X184458705Y-87380369D01*
X184257959Y-87309280D01*
X184247988Y-87306646D01*
X184176837Y-87293972D01*
X184163540Y-87295432D01*
X184159000Y-87309989D01*
X184159000Y-89943517D01*
X183651000Y-89943517D01*
X183651000Y-87308102D01*
X183647082Y-87294758D01*
X183632806Y-87292771D01*
X183594324Y-87298660D01*
X183584288Y-87301051D01*
X183381868Y-87367212D01*
X183372359Y-87371209D01*
X183183463Y-87469542D01*
X183174738Y-87475036D01*
X183004433Y-87602905D01*
X182996726Y-87609748D01*
X182849590Y-87763717D01*
X182843109Y-87771722D01*
X182738498Y-87925074D01*
X182683587Y-87970076D01*
X182613062Y-87978247D01*
X182549315Y-87946993D01*
X182528618Y-87922509D01*
X182447822Y-87797617D01*
X182447820Y-87797614D01*
X182445014Y-87793277D01*
X182294670Y-87628051D01*
X182290619Y-87624852D01*
X182290615Y-87624848D01*
X182123414Y-87492800D01*
X182123410Y-87492798D01*
X182119359Y-87489598D01*
X182083028Y-87469542D01*
X182067135Y-87460769D01*
X181923789Y-87381638D01*
X181918920Y-87379914D01*
X181918916Y-87379912D01*
X181718087Y-87308795D01*
X181718083Y-87308794D01*
X181713212Y-87307069D01*
X181708119Y-87306162D01*
X181708116Y-87306161D01*
X181498373Y-87268800D01*
X181498367Y-87268799D01*
X181493284Y-87267894D01*
X181419452Y-87266992D01*
X181275081Y-87265228D01*
X181275079Y-87265228D01*
X181269911Y-87265165D01*
X181049091Y-87298955D01*
X180836756Y-87368357D01*
X180638607Y-87471507D01*
X180634474Y-87474610D01*
X180634471Y-87474612D01*
X180464100Y-87602530D01*
X180459965Y-87605635D01*
X180403537Y-87664684D01*
X180379283Y-87690064D01*
X180317759Y-87725494D01*
X180246846Y-87722037D01*
X180189060Y-87680791D01*
X180170207Y-87647243D01*
X180128767Y-87536703D01*
X180125615Y-87528295D01*
X180038261Y-87411739D01*
X179921705Y-87324385D01*
X179785316Y-87273255D01*
X179723134Y-87266500D01*
X177926866Y-87266500D01*
X177864684Y-87273255D01*
X177728295Y-87324385D01*
X177611739Y-87411739D01*
X177524385Y-87528295D01*
X177473255Y-87664684D01*
X177466500Y-87726866D01*
X177466500Y-89523134D01*
X174182717Y-89523134D01*
X174222713Y-89474268D01*
X174355459Y-89257647D01*
X174370686Y-89232799D01*
X174372927Y-89229142D01*
X174415810Y-89131453D01*
X174486757Y-88969830D01*
X174488483Y-88965898D01*
X174567244Y-88689406D01*
X174607751Y-88404784D01*
X174607845Y-88386951D01*
X174609235Y-88121583D01*
X174609235Y-88121576D01*
X174609257Y-88117297D01*
X174571732Y-87832266D01*
X174495871Y-87554964D01*
X174459254Y-87469118D01*
X174384763Y-87294476D01*
X174384761Y-87294472D01*
X174383077Y-87290524D01*
X174235439Y-87043839D01*
X174055687Y-86819472D01*
X173921493Y-86692127D01*
X173850258Y-86624527D01*
X173850255Y-86624525D01*
X173847149Y-86621577D01*
X173613683Y-86453814D01*
X173591843Y-86442250D01*
X173505160Y-86396354D01*
X173359608Y-86319288D01*
X173089627Y-86220489D01*
X172808736Y-86159245D01*
X172777685Y-86156801D01*
X172585718Y-86141693D01*
X172585709Y-86141693D01*
X172583261Y-86141500D01*
X172427729Y-86141500D01*
X172425593Y-86141646D01*
X172425582Y-86141646D01*
X172217452Y-86155835D01*
X172217446Y-86155836D01*
X172213175Y-86156127D01*
X172208980Y-86156996D01*
X172208978Y-86156996D01*
X172072417Y-86185276D01*
X171931658Y-86214426D01*
X171660657Y-86310393D01*
X171405188Y-86442250D01*
X171401687Y-86444711D01*
X171401683Y-86444713D01*
X171391594Y-86451804D01*
X171169977Y-86607559D01*
X170959378Y-86803260D01*
X170777287Y-87025732D01*
X170627073Y-87270858D01*
X170625347Y-87274791D01*
X170625346Y-87274792D01*
X170514066Y-87528295D01*
X170511517Y-87534102D01*
X170432756Y-87810594D01*
X170392249Y-88095216D01*
X170392227Y-88099505D01*
X170392226Y-88099512D01*
X170390765Y-88378417D01*
X170390743Y-88382703D01*
X168757999Y-88382703D01*
X168757999Y-87049329D01*
X168759499Y-87029944D01*
X168761804Y-87015143D01*
X168761804Y-87015140D01*
X168763185Y-87006271D01*
X168760940Y-86989102D01*
X168760107Y-86965162D01*
X168775709Y-86707231D01*
X168777543Y-86692127D01*
X168793492Y-86605096D01*
X168829039Y-86411122D01*
X168832678Y-86396354D01*
X168856067Y-86321299D01*
X168917674Y-86123593D01*
X168923069Y-86109371D01*
X169040313Y-85848865D01*
X169047384Y-85835392D01*
X169195181Y-85590906D01*
X169203824Y-85578384D01*
X169380015Y-85353494D01*
X169390105Y-85342106D01*
X169592104Y-85140107D01*
X169603492Y-85130017D01*
X169828382Y-84953826D01*
X169840904Y-84945183D01*
X170085390Y-84797386D01*
X170098859Y-84790317D01*
X170359372Y-84673070D01*
X170373591Y-84667676D01*
X170646358Y-84582679D01*
X170661120Y-84579041D01*
X170871351Y-84540515D01*
X170942125Y-84527545D01*
X170957229Y-84525711D01*
X171207928Y-84510546D01*
X171234638Y-84511803D01*
X171234858Y-84511806D01*
X171243729Y-84513187D01*
X171252631Y-84512023D01*
X171252634Y-84512023D01*
X171275250Y-84509065D01*
X171291588Y-84508001D01*
X242200671Y-84508001D01*
X242220056Y-84509501D01*
G37*
G04 #@! TD.AperFunction*
M02*
