G04 #@! TF.GenerationSoftware,KiCad,Pcbnew,(6.0.0)*
G04 #@! TF.CreationDate,2022-05-03T02:07:06-05:00*
G04 #@! TF.ProjectId,Materiales ESP32,4d617465-7269-4616-9c65-732045535033,rev?*
G04 #@! TF.SameCoordinates,Original*
G04 #@! TF.FileFunction,Legend,Top*
G04 #@! TF.FilePolarity,Positive*
%FSLAX46Y46*%
G04 Gerber Fmt 4.6, Leading zero omitted, Abs format (unit mm)*
G04 Created by KiCad (PCBNEW (6.0.0)) date 2022-05-03 02:07:06*
%MOMM*%
%LPD*%
G01*
G04 APERTURE LIST*
G04 Aperture macros list*
%AMRoundRect*
0 Rectangle with rounded corners*
0 $1 Rounding radius*
0 $2 $3 $4 $5 $6 $7 $8 $9 X,Y pos of 4 corners*
0 Add a 4 corners polygon primitive as box body*
4,1,4,$2,$3,$4,$5,$6,$7,$8,$9,$2,$3,0*
0 Add four circle primitives for the rounded corners*
1,1,$1+$1,$2,$3*
1,1,$1+$1,$4,$5*
1,1,$1+$1,$6,$7*
1,1,$1+$1,$8,$9*
0 Add four rect primitives between the rounded corners*
20,1,$1+$1,$2,$3,$4,$5,0*
20,1,$1+$1,$4,$5,$6,$7,0*
20,1,$1+$1,$6,$7,$8,$9,0*
20,1,$1+$1,$8,$9,$2,$3,0*%
G04 Aperture macros list end*
%ADD10C,0.150000*%
%ADD11C,0.120000*%
%ADD12C,0.250000*%
%ADD13C,0.300000*%
%ADD14RoundRect,0.250000X0.450000X-0.262500X0.450000X0.262500X-0.450000X0.262500X-0.450000X-0.262500X0*%
%ADD15R,1.000000X1.700000*%
%ADD16O,0.600000X1.970000*%
%ADD17R,1.700000X1.700000*%
%ADD18O,1.700000X1.700000*%
%ADD19C,3.200000*%
%ADD20R,0.700000X1.250000*%
%ADD21RoundRect,0.243750X0.456250X-0.243750X0.456250X0.243750X-0.456250X0.243750X-0.456250X-0.243750X0*%
%ADD22RoundRect,0.250000X-0.250000X-0.475000X0.250000X-0.475000X0.250000X0.475000X-0.250000X0.475000X0*%
%ADD23RoundRect,0.250000X-0.475000X0.250000X-0.475000X-0.250000X0.475000X-0.250000X0.475000X0.250000X0*%
%ADD24R,1.700000X1.000000*%
%ADD25RoundRect,0.250000X0.475000X-0.250000X0.475000X0.250000X-0.475000X0.250000X-0.475000X-0.250000X0*%
%ADD26RoundRect,0.250000X0.250000X0.475000X-0.250000X0.475000X-0.250000X-0.475000X0.250000X-0.475000X0*%
%ADD27RoundRect,0.250000X-0.262500X-0.450000X0.262500X-0.450000X0.262500X0.450000X-0.262500X0.450000X0*%
%ADD28R,2.100000X0.950000*%
%ADD29R,0.950000X2.100000*%
%ADD30R,1.330000X1.330000*%
%ADD31RoundRect,0.243750X-0.243750X-0.456250X0.243750X-0.456250X0.243750X0.456250X-0.243750X0.456250X0*%
%ADD32R,1.400000X1.200000*%
%ADD33C,0.700000*%
%ADD34R,1.100000X0.600000*%
%ADD35R,1.100000X0.300000*%
%ADD36O,2.000000X1.200000*%
%ADD37O,1.500000X1.200000*%
%ADD38R,2.000000X1.500000*%
%ADD39R,2.000000X3.800000*%
%ADD40RoundRect,0.250000X-0.450000X0.262500X-0.450000X-0.262500X0.450000X-0.262500X0.450000X0.262500X0*%
G04 APERTURE END LIST*
D10*
X176452380Y-126119047D02*
X175976190Y-126452380D01*
X176452380Y-126690476D02*
X175452380Y-126690476D01*
X175452380Y-126309523D01*
X175500000Y-126214285D01*
X175547619Y-126166666D01*
X175642857Y-126119047D01*
X175785714Y-126119047D01*
X175880952Y-126166666D01*
X175928571Y-126214285D01*
X175976190Y-126309523D01*
X175976190Y-126690476D01*
X176452380Y-125166666D02*
X176452380Y-125738095D01*
X176452380Y-125452380D02*
X175452380Y-125452380D01*
X175595238Y-125547619D01*
X175690476Y-125642857D01*
X175738095Y-125738095D01*
X175452380Y-124547619D02*
X175452380Y-124452380D01*
X175500000Y-124357142D01*
X175547619Y-124309523D01*
X175642857Y-124261904D01*
X175833333Y-124214285D01*
X176071428Y-124214285D01*
X176261904Y-124261904D01*
X176357142Y-124309523D01*
X176404761Y-124357142D01*
X176452380Y-124452380D01*
X176452380Y-124547619D01*
X176404761Y-124642857D01*
X176357142Y-124690476D01*
X176261904Y-124738095D01*
X176071428Y-124785714D01*
X175833333Y-124785714D01*
X175642857Y-124738095D01*
X175547619Y-124690476D01*
X175500000Y-124642857D01*
X175452380Y-124547619D01*
X175880952Y-123642857D02*
X175833333Y-123738095D01*
X175785714Y-123785714D01*
X175690476Y-123833333D01*
X175642857Y-123833333D01*
X175547619Y-123785714D01*
X175500000Y-123738095D01*
X175452380Y-123642857D01*
X175452380Y-123452380D01*
X175500000Y-123357142D01*
X175547619Y-123309523D01*
X175642857Y-123261904D01*
X175690476Y-123261904D01*
X175785714Y-123309523D01*
X175833333Y-123357142D01*
X175880952Y-123452380D01*
X175880952Y-123642857D01*
X175928571Y-123738095D01*
X175976190Y-123785714D01*
X176071428Y-123833333D01*
X176261904Y-123833333D01*
X176357142Y-123785714D01*
X176404761Y-123738095D01*
X176452380Y-123642857D01*
X176452380Y-123452380D01*
X176404761Y-123357142D01*
X176357142Y-123309523D01*
X176261904Y-123261904D01*
X176071428Y-123261904D01*
X175976190Y-123309523D01*
X175928571Y-123357142D01*
X175880952Y-123452380D01*
X189214285Y-117904761D02*
X189357142Y-117952380D01*
X189595238Y-117952380D01*
X189690476Y-117904761D01*
X189738095Y-117857142D01*
X189785714Y-117761904D01*
X189785714Y-117666666D01*
X189738095Y-117571428D01*
X189690476Y-117523809D01*
X189595238Y-117476190D01*
X189404761Y-117428571D01*
X189309523Y-117380952D01*
X189261904Y-117333333D01*
X189214285Y-117238095D01*
X189214285Y-117142857D01*
X189261904Y-117047619D01*
X189309523Y-117000000D01*
X189404761Y-116952380D01*
X189642857Y-116952380D01*
X189785714Y-117000000D01*
X190119047Y-116952380D02*
X190357142Y-117952380D01*
X190547619Y-117238095D01*
X190738095Y-117952380D01*
X190976190Y-116952380D01*
X191880952Y-117952380D02*
X191309523Y-117952380D01*
X191595238Y-117952380D02*
X191595238Y-116952380D01*
X191500000Y-117095238D01*
X191404761Y-117190476D01*
X191309523Y-117238095D01*
X192500000Y-116952380D02*
X192595238Y-116952380D01*
X192690476Y-117000000D01*
X192738095Y-117047619D01*
X192785714Y-117142857D01*
X192833333Y-117333333D01*
X192833333Y-117571428D01*
X192785714Y-117761904D01*
X192738095Y-117857142D01*
X192690476Y-117904761D01*
X192595238Y-117952380D01*
X192500000Y-117952380D01*
X192404761Y-117904761D01*
X192357142Y-117857142D01*
X192309523Y-117761904D01*
X192261904Y-117571428D01*
X192261904Y-117333333D01*
X192309523Y-117142857D01*
X192357142Y-117047619D01*
X192404761Y-117000000D01*
X192500000Y-116952380D01*
X193690476Y-116952380D02*
X193500000Y-116952380D01*
X193404761Y-117000000D01*
X193357142Y-117047619D01*
X193261904Y-117190476D01*
X193214285Y-117380952D01*
X193214285Y-117761904D01*
X193261904Y-117857142D01*
X193309523Y-117904761D01*
X193404761Y-117952380D01*
X193595238Y-117952380D01*
X193690476Y-117904761D01*
X193738095Y-117857142D01*
X193785714Y-117761904D01*
X193785714Y-117523809D01*
X193738095Y-117428571D01*
X193690476Y-117380952D01*
X193595238Y-117333333D01*
X193404761Y-117333333D01*
X193309523Y-117380952D01*
X193261904Y-117428571D01*
X193214285Y-117523809D01*
X192702380Y-105214285D02*
X193511904Y-105214285D01*
X193607142Y-105166666D01*
X193654761Y-105119047D01*
X193702380Y-105023809D01*
X193702380Y-104833333D01*
X193654761Y-104738095D01*
X193607142Y-104690476D01*
X193511904Y-104642857D01*
X192702380Y-104642857D01*
X193702380Y-103642857D02*
X193702380Y-104214285D01*
X193702380Y-103928571D02*
X192702380Y-103928571D01*
X192845238Y-104023809D01*
X192940476Y-104119047D01*
X192988095Y-104214285D01*
X192702380Y-103023809D02*
X192702380Y-102928571D01*
X192750000Y-102833333D01*
X192797619Y-102785714D01*
X192892857Y-102738095D01*
X193083333Y-102690476D01*
X193321428Y-102690476D01*
X193511904Y-102738095D01*
X193607142Y-102785714D01*
X193654761Y-102833333D01*
X193702380Y-102928571D01*
X193702380Y-103023809D01*
X193654761Y-103119047D01*
X193607142Y-103166666D01*
X193511904Y-103214285D01*
X193321428Y-103261904D01*
X193083333Y-103261904D01*
X192892857Y-103214285D01*
X192797619Y-103166666D01*
X192750000Y-103119047D01*
X192702380Y-103023809D01*
X192797619Y-102309523D02*
X192750000Y-102261904D01*
X192702380Y-102166666D01*
X192702380Y-101928571D01*
X192750000Y-101833333D01*
X192797619Y-101785714D01*
X192892857Y-101738095D01*
X192988095Y-101738095D01*
X193130952Y-101785714D01*
X193702380Y-102357142D01*
X193702380Y-101738095D01*
X216807380Y-100510714D02*
X217521666Y-100510714D01*
X217664523Y-100558333D01*
X217759761Y-100653571D01*
X217807380Y-100796428D01*
X217807380Y-100891666D01*
X217807380Y-99510714D02*
X217807380Y-100082142D01*
X217807380Y-99796428D02*
X216807380Y-99796428D01*
X216950238Y-99891666D01*
X217045476Y-99986904D01*
X217093095Y-100082142D01*
X216807380Y-98891666D02*
X216807380Y-98796428D01*
X216855000Y-98701190D01*
X216902619Y-98653571D01*
X216997857Y-98605952D01*
X217188333Y-98558333D01*
X217426428Y-98558333D01*
X217616904Y-98605952D01*
X217712142Y-98653571D01*
X217759761Y-98701190D01*
X217807380Y-98796428D01*
X217807380Y-98891666D01*
X217759761Y-98986904D01*
X217712142Y-99034523D01*
X217616904Y-99082142D01*
X217426428Y-99129761D01*
X217188333Y-99129761D01*
X216997857Y-99082142D01*
X216902619Y-99034523D01*
X216855000Y-98986904D01*
X216807380Y-98891666D01*
X216902619Y-98177380D02*
X216855000Y-98129761D01*
X216807380Y-98034523D01*
X216807380Y-97796428D01*
X216855000Y-97701190D01*
X216902619Y-97653571D01*
X216997857Y-97605952D01*
X217093095Y-97605952D01*
X217235952Y-97653571D01*
X217807380Y-98225000D01*
X217807380Y-97605952D01*
X182702380Y-108797619D02*
X182607142Y-108750000D01*
X182511904Y-108654761D01*
X182369047Y-108511904D01*
X182273809Y-108464285D01*
X182178571Y-108464285D01*
X182226190Y-108702380D02*
X182130952Y-108654761D01*
X182035714Y-108559523D01*
X181988095Y-108369047D01*
X181988095Y-108035714D01*
X182035714Y-107845238D01*
X182130952Y-107750000D01*
X182226190Y-107702380D01*
X182416666Y-107702380D01*
X182511904Y-107750000D01*
X182607142Y-107845238D01*
X182654761Y-108035714D01*
X182654761Y-108369047D01*
X182607142Y-108559523D01*
X182511904Y-108654761D01*
X182416666Y-108702380D01*
X182226190Y-108702380D01*
X183607142Y-108702380D02*
X183035714Y-108702380D01*
X183321428Y-108702380D02*
X183321428Y-107702380D01*
X183226190Y-107845238D01*
X183130952Y-107940476D01*
X183035714Y-107988095D01*
X184226190Y-107702380D02*
X184321428Y-107702380D01*
X184416666Y-107750000D01*
X184464285Y-107797619D01*
X184511904Y-107892857D01*
X184559523Y-108083333D01*
X184559523Y-108321428D01*
X184511904Y-108511904D01*
X184464285Y-108607142D01*
X184416666Y-108654761D01*
X184321428Y-108702380D01*
X184226190Y-108702380D01*
X184130952Y-108654761D01*
X184083333Y-108607142D01*
X184035714Y-108511904D01*
X183988095Y-108321428D01*
X183988095Y-108083333D01*
X184035714Y-107892857D01*
X184083333Y-107797619D01*
X184130952Y-107750000D01*
X184226190Y-107702380D01*
X184940476Y-107797619D02*
X184988095Y-107750000D01*
X185083333Y-107702380D01*
X185321428Y-107702380D01*
X185416666Y-107750000D01*
X185464285Y-107797619D01*
X185511904Y-107892857D01*
X185511904Y-107988095D01*
X185464285Y-108130952D01*
X184892857Y-108702380D01*
X185511904Y-108702380D01*
X233080952Y-127107142D02*
X233033333Y-127154761D01*
X232890476Y-127202380D01*
X232795238Y-127202380D01*
X232652380Y-127154761D01*
X232557142Y-127059523D01*
X232509523Y-126964285D01*
X232461904Y-126773809D01*
X232461904Y-126630952D01*
X232509523Y-126440476D01*
X232557142Y-126345238D01*
X232652380Y-126250000D01*
X232795238Y-126202380D01*
X232890476Y-126202380D01*
X233033333Y-126250000D01*
X233080952Y-126297619D01*
X234033333Y-127202380D02*
X233461904Y-127202380D01*
X233747619Y-127202380D02*
X233747619Y-126202380D01*
X233652380Y-126345238D01*
X233557142Y-126440476D01*
X233461904Y-126488095D01*
X234652380Y-126202380D02*
X234747619Y-126202380D01*
X234842857Y-126250000D01*
X234890476Y-126297619D01*
X234938095Y-126392857D01*
X234985714Y-126583333D01*
X234985714Y-126821428D01*
X234938095Y-127011904D01*
X234890476Y-127107142D01*
X234842857Y-127154761D01*
X234747619Y-127202380D01*
X234652380Y-127202380D01*
X234557142Y-127154761D01*
X234509523Y-127107142D01*
X234461904Y-127011904D01*
X234414285Y-126821428D01*
X234414285Y-126583333D01*
X234461904Y-126392857D01*
X234509523Y-126297619D01*
X234557142Y-126250000D01*
X234652380Y-126202380D01*
X235842857Y-126202380D02*
X235652380Y-126202380D01*
X235557142Y-126250000D01*
X235509523Y-126297619D01*
X235414285Y-126440476D01*
X235366666Y-126630952D01*
X235366666Y-127011904D01*
X235414285Y-127107142D01*
X235461904Y-127154761D01*
X235557142Y-127202380D01*
X235747619Y-127202380D01*
X235842857Y-127154761D01*
X235890476Y-127107142D01*
X235938095Y-127011904D01*
X235938095Y-126773809D01*
X235890476Y-126678571D01*
X235842857Y-126630952D01*
X235747619Y-126583333D01*
X235557142Y-126583333D01*
X235461904Y-126630952D01*
X235414285Y-126678571D01*
X235366666Y-126773809D01*
X176357142Y-122119047D02*
X176404761Y-122166666D01*
X176452380Y-122309523D01*
X176452380Y-122404761D01*
X176404761Y-122547619D01*
X176309523Y-122642857D01*
X176214285Y-122690476D01*
X176023809Y-122738095D01*
X175880952Y-122738095D01*
X175690476Y-122690476D01*
X175595238Y-122642857D01*
X175500000Y-122547619D01*
X175452380Y-122404761D01*
X175452380Y-122309523D01*
X175500000Y-122166666D01*
X175547619Y-122119047D01*
X176452380Y-121166666D02*
X176452380Y-121738095D01*
X176452380Y-121452380D02*
X175452380Y-121452380D01*
X175595238Y-121547619D01*
X175690476Y-121642857D01*
X175738095Y-121738095D01*
X175452380Y-120547619D02*
X175452380Y-120452380D01*
X175500000Y-120357142D01*
X175547619Y-120309523D01*
X175642857Y-120261904D01*
X175833333Y-120214285D01*
X176071428Y-120214285D01*
X176261904Y-120261904D01*
X176357142Y-120309523D01*
X176404761Y-120357142D01*
X176452380Y-120452380D01*
X176452380Y-120547619D01*
X176404761Y-120642857D01*
X176357142Y-120690476D01*
X176261904Y-120738095D01*
X176071428Y-120785714D01*
X175833333Y-120785714D01*
X175642857Y-120738095D01*
X175547619Y-120690476D01*
X175500000Y-120642857D01*
X175452380Y-120547619D01*
X176452380Y-119738095D02*
X176452380Y-119547619D01*
X176404761Y-119452380D01*
X176357142Y-119404761D01*
X176214285Y-119309523D01*
X176023809Y-119261904D01*
X175642857Y-119261904D01*
X175547619Y-119309523D01*
X175500000Y-119357142D01*
X175452380Y-119452380D01*
X175452380Y-119642857D01*
X175500000Y-119738095D01*
X175547619Y-119785714D01*
X175642857Y-119833333D01*
X175880952Y-119833333D01*
X175976190Y-119785714D01*
X176023809Y-119738095D01*
X176071428Y-119642857D01*
X176071428Y-119452380D01*
X176023809Y-119357142D01*
X175976190Y-119309523D01*
X175880952Y-119261904D01*
X189214285Y-91904761D02*
X189357142Y-91952380D01*
X189595238Y-91952380D01*
X189690476Y-91904761D01*
X189738095Y-91857142D01*
X189785714Y-91761904D01*
X189785714Y-91666666D01*
X189738095Y-91571428D01*
X189690476Y-91523809D01*
X189595238Y-91476190D01*
X189404761Y-91428571D01*
X189309523Y-91380952D01*
X189261904Y-91333333D01*
X189214285Y-91238095D01*
X189214285Y-91142857D01*
X189261904Y-91047619D01*
X189309523Y-91000000D01*
X189404761Y-90952380D01*
X189642857Y-90952380D01*
X189785714Y-91000000D01*
X190119047Y-90952380D02*
X190357142Y-91952380D01*
X190547619Y-91238095D01*
X190738095Y-91952380D01*
X190976190Y-90952380D01*
X191880952Y-91952380D02*
X191309523Y-91952380D01*
X191595238Y-91952380D02*
X191595238Y-90952380D01*
X191500000Y-91095238D01*
X191404761Y-91190476D01*
X191309523Y-91238095D01*
X192500000Y-90952380D02*
X192595238Y-90952380D01*
X192690476Y-91000000D01*
X192738095Y-91047619D01*
X192785714Y-91142857D01*
X192833333Y-91333333D01*
X192833333Y-91571428D01*
X192785714Y-91761904D01*
X192738095Y-91857142D01*
X192690476Y-91904761D01*
X192595238Y-91952380D01*
X192500000Y-91952380D01*
X192404761Y-91904761D01*
X192357142Y-91857142D01*
X192309523Y-91761904D01*
X192261904Y-91571428D01*
X192261904Y-91333333D01*
X192309523Y-91142857D01*
X192357142Y-91047619D01*
X192404761Y-91000000D01*
X192500000Y-90952380D01*
X193214285Y-91047619D02*
X193261904Y-91000000D01*
X193357142Y-90952380D01*
X193595238Y-90952380D01*
X193690476Y-91000000D01*
X193738095Y-91047619D01*
X193785714Y-91142857D01*
X193785714Y-91238095D01*
X193738095Y-91380952D01*
X193166666Y-91952380D01*
X193785714Y-91952380D01*
X187357142Y-120119047D02*
X187404761Y-120166666D01*
X187452380Y-120309523D01*
X187452380Y-120404761D01*
X187404761Y-120547619D01*
X187309523Y-120642857D01*
X187214285Y-120690476D01*
X187023809Y-120738095D01*
X186880952Y-120738095D01*
X186690476Y-120690476D01*
X186595238Y-120642857D01*
X186500000Y-120547619D01*
X186452380Y-120404761D01*
X186452380Y-120309523D01*
X186500000Y-120166666D01*
X186547619Y-120119047D01*
X187452380Y-119166666D02*
X187452380Y-119738095D01*
X187452380Y-119452380D02*
X186452380Y-119452380D01*
X186595238Y-119547619D01*
X186690476Y-119642857D01*
X186738095Y-119738095D01*
X187452380Y-118214285D02*
X187452380Y-118785714D01*
X187452380Y-118500000D02*
X186452380Y-118500000D01*
X186595238Y-118595238D01*
X186690476Y-118690476D01*
X186738095Y-118785714D01*
X186452380Y-117595238D02*
X186452380Y-117500000D01*
X186500000Y-117404761D01*
X186547619Y-117357142D01*
X186642857Y-117309523D01*
X186833333Y-117261904D01*
X187071428Y-117261904D01*
X187261904Y-117309523D01*
X187357142Y-117357142D01*
X187404761Y-117404761D01*
X187452380Y-117500000D01*
X187452380Y-117595238D01*
X187404761Y-117690476D01*
X187357142Y-117738095D01*
X187261904Y-117785714D01*
X187071428Y-117833333D01*
X186833333Y-117833333D01*
X186642857Y-117785714D01*
X186547619Y-117738095D01*
X186500000Y-117690476D01*
X186452380Y-117595238D01*
X170380952Y-119702380D02*
X170047619Y-119226190D01*
X169809523Y-119702380D02*
X169809523Y-118702380D01*
X170190476Y-118702380D01*
X170285714Y-118750000D01*
X170333333Y-118797619D01*
X170380952Y-118892857D01*
X170380952Y-119035714D01*
X170333333Y-119130952D01*
X170285714Y-119178571D01*
X170190476Y-119226190D01*
X169809523Y-119226190D01*
X171333333Y-119702380D02*
X170761904Y-119702380D01*
X171047619Y-119702380D02*
X171047619Y-118702380D01*
X170952380Y-118845238D01*
X170857142Y-118940476D01*
X170761904Y-118988095D01*
X171952380Y-118702380D02*
X172047619Y-118702380D01*
X172142857Y-118750000D01*
X172190476Y-118797619D01*
X172238095Y-118892857D01*
X172285714Y-119083333D01*
X172285714Y-119321428D01*
X172238095Y-119511904D01*
X172190476Y-119607142D01*
X172142857Y-119654761D01*
X172047619Y-119702380D01*
X171952380Y-119702380D01*
X171857142Y-119654761D01*
X171809523Y-119607142D01*
X171761904Y-119511904D01*
X171714285Y-119321428D01*
X171714285Y-119083333D01*
X171761904Y-118892857D01*
X171809523Y-118797619D01*
X171857142Y-118750000D01*
X171952380Y-118702380D01*
X173142857Y-119035714D02*
X173142857Y-119702380D01*
X172904761Y-118654761D02*
X172666666Y-119369047D01*
X173285714Y-119369047D01*
X175880952Y-107857142D02*
X175833333Y-107904761D01*
X175690476Y-107952380D01*
X175595238Y-107952380D01*
X175452380Y-107904761D01*
X175357142Y-107809523D01*
X175309523Y-107714285D01*
X175261904Y-107523809D01*
X175261904Y-107380952D01*
X175309523Y-107190476D01*
X175357142Y-107095238D01*
X175452380Y-107000000D01*
X175595238Y-106952380D01*
X175690476Y-106952380D01*
X175833333Y-107000000D01*
X175880952Y-107047619D01*
X176833333Y-107952380D02*
X176261904Y-107952380D01*
X176547619Y-107952380D02*
X176547619Y-106952380D01*
X176452380Y-107095238D01*
X176357142Y-107190476D01*
X176261904Y-107238095D01*
X177452380Y-106952380D02*
X177547619Y-106952380D01*
X177642857Y-107000000D01*
X177690476Y-107047619D01*
X177738095Y-107142857D01*
X177785714Y-107333333D01*
X177785714Y-107571428D01*
X177738095Y-107761904D01*
X177690476Y-107857142D01*
X177642857Y-107904761D01*
X177547619Y-107952380D01*
X177452380Y-107952380D01*
X177357142Y-107904761D01*
X177309523Y-107857142D01*
X177261904Y-107761904D01*
X177214285Y-107571428D01*
X177214285Y-107333333D01*
X177261904Y-107142857D01*
X177309523Y-107047619D01*
X177357142Y-107000000D01*
X177452380Y-106952380D01*
X178119047Y-106952380D02*
X178738095Y-106952380D01*
X178404761Y-107333333D01*
X178547619Y-107333333D01*
X178642857Y-107380952D01*
X178690476Y-107428571D01*
X178738095Y-107523809D01*
X178738095Y-107761904D01*
X178690476Y-107857142D01*
X178642857Y-107904761D01*
X178547619Y-107952380D01*
X178261904Y-107952380D01*
X178166666Y-107904761D01*
X178119047Y-107857142D01*
X225880952Y-93802380D02*
X225547619Y-93326190D01*
X225309523Y-93802380D02*
X225309523Y-92802380D01*
X225690476Y-92802380D01*
X225785714Y-92850000D01*
X225833333Y-92897619D01*
X225880952Y-92992857D01*
X225880952Y-93135714D01*
X225833333Y-93230952D01*
X225785714Y-93278571D01*
X225690476Y-93326190D01*
X225309523Y-93326190D01*
X226833333Y-93802380D02*
X226261904Y-93802380D01*
X226547619Y-93802380D02*
X226547619Y-92802380D01*
X226452380Y-92945238D01*
X226357142Y-93040476D01*
X226261904Y-93088095D01*
X227452380Y-92802380D02*
X227547619Y-92802380D01*
X227642857Y-92850000D01*
X227690476Y-92897619D01*
X227738095Y-92992857D01*
X227785714Y-93183333D01*
X227785714Y-93421428D01*
X227738095Y-93611904D01*
X227690476Y-93707142D01*
X227642857Y-93754761D01*
X227547619Y-93802380D01*
X227452380Y-93802380D01*
X227357142Y-93754761D01*
X227309523Y-93707142D01*
X227261904Y-93611904D01*
X227214285Y-93421428D01*
X227214285Y-93183333D01*
X227261904Y-92992857D01*
X227309523Y-92897619D01*
X227357142Y-92850000D01*
X227452380Y-92802380D01*
X228738095Y-93802380D02*
X228166666Y-93802380D01*
X228452380Y-93802380D02*
X228452380Y-92802380D01*
X228357142Y-92945238D01*
X228261904Y-93040476D01*
X228166666Y-93088095D01*
X180214285Y-117904761D02*
X180357142Y-117952380D01*
X180595238Y-117952380D01*
X180690476Y-117904761D01*
X180738095Y-117857142D01*
X180785714Y-117761904D01*
X180785714Y-117666666D01*
X180738095Y-117571428D01*
X180690476Y-117523809D01*
X180595238Y-117476190D01*
X180404761Y-117428571D01*
X180309523Y-117380952D01*
X180261904Y-117333333D01*
X180214285Y-117238095D01*
X180214285Y-117142857D01*
X180261904Y-117047619D01*
X180309523Y-117000000D01*
X180404761Y-116952380D01*
X180642857Y-116952380D01*
X180785714Y-117000000D01*
X181119047Y-116952380D02*
X181357142Y-117952380D01*
X181547619Y-117238095D01*
X181738095Y-117952380D01*
X181976190Y-116952380D01*
X182880952Y-117952380D02*
X182309523Y-117952380D01*
X182595238Y-117952380D02*
X182595238Y-116952380D01*
X182500000Y-117095238D01*
X182404761Y-117190476D01*
X182309523Y-117238095D01*
X183500000Y-116952380D02*
X183595238Y-116952380D01*
X183690476Y-117000000D01*
X183738095Y-117047619D01*
X183785714Y-117142857D01*
X183833333Y-117333333D01*
X183833333Y-117571428D01*
X183785714Y-117761904D01*
X183738095Y-117857142D01*
X183690476Y-117904761D01*
X183595238Y-117952380D01*
X183500000Y-117952380D01*
X183404761Y-117904761D01*
X183357142Y-117857142D01*
X183309523Y-117761904D01*
X183261904Y-117571428D01*
X183261904Y-117333333D01*
X183309523Y-117142857D01*
X183357142Y-117047619D01*
X183404761Y-117000000D01*
X183500000Y-116952380D01*
X184166666Y-116952380D02*
X184833333Y-116952380D01*
X184404761Y-117952380D01*
X192452380Y-112214285D02*
X193261904Y-112214285D01*
X193357142Y-112166666D01*
X193404761Y-112119047D01*
X193452380Y-112023809D01*
X193452380Y-111833333D01*
X193404761Y-111738095D01*
X193357142Y-111690476D01*
X193261904Y-111642857D01*
X192452380Y-111642857D01*
X193452380Y-110642857D02*
X193452380Y-111214285D01*
X193452380Y-110928571D02*
X192452380Y-110928571D01*
X192595238Y-111023809D01*
X192690476Y-111119047D01*
X192738095Y-111214285D01*
X192452380Y-110023809D02*
X192452380Y-109928571D01*
X192500000Y-109833333D01*
X192547619Y-109785714D01*
X192642857Y-109738095D01*
X192833333Y-109690476D01*
X193071428Y-109690476D01*
X193261904Y-109738095D01*
X193357142Y-109785714D01*
X193404761Y-109833333D01*
X193452380Y-109928571D01*
X193452380Y-110023809D01*
X193404761Y-110119047D01*
X193357142Y-110166666D01*
X193261904Y-110214285D01*
X193071428Y-110261904D01*
X192833333Y-110261904D01*
X192642857Y-110214285D01*
X192547619Y-110166666D01*
X192500000Y-110119047D01*
X192452380Y-110023809D01*
X192452380Y-109357142D02*
X192452380Y-108738095D01*
X192833333Y-109071428D01*
X192833333Y-108928571D01*
X192880952Y-108833333D01*
X192928571Y-108785714D01*
X193023809Y-108738095D01*
X193261904Y-108738095D01*
X193357142Y-108785714D01*
X193404761Y-108833333D01*
X193452380Y-108928571D01*
X193452380Y-109214285D01*
X193404761Y-109309523D01*
X193357142Y-109357142D01*
X228880952Y-127107142D02*
X228833333Y-127154761D01*
X228690476Y-127202380D01*
X228595238Y-127202380D01*
X228452380Y-127154761D01*
X228357142Y-127059523D01*
X228309523Y-126964285D01*
X228261904Y-126773809D01*
X228261904Y-126630952D01*
X228309523Y-126440476D01*
X228357142Y-126345238D01*
X228452380Y-126250000D01*
X228595238Y-126202380D01*
X228690476Y-126202380D01*
X228833333Y-126250000D01*
X228880952Y-126297619D01*
X229833333Y-127202380D02*
X229261904Y-127202380D01*
X229547619Y-127202380D02*
X229547619Y-126202380D01*
X229452380Y-126345238D01*
X229357142Y-126440476D01*
X229261904Y-126488095D01*
X230452380Y-126202380D02*
X230547619Y-126202380D01*
X230642857Y-126250000D01*
X230690476Y-126297619D01*
X230738095Y-126392857D01*
X230785714Y-126583333D01*
X230785714Y-126821428D01*
X230738095Y-127011904D01*
X230690476Y-127107142D01*
X230642857Y-127154761D01*
X230547619Y-127202380D01*
X230452380Y-127202380D01*
X230357142Y-127154761D01*
X230309523Y-127107142D01*
X230261904Y-127011904D01*
X230214285Y-126821428D01*
X230214285Y-126583333D01*
X230261904Y-126392857D01*
X230309523Y-126297619D01*
X230357142Y-126250000D01*
X230452380Y-126202380D01*
X231166666Y-126297619D02*
X231214285Y-126250000D01*
X231309523Y-126202380D01*
X231547619Y-126202380D01*
X231642857Y-126250000D01*
X231690476Y-126297619D01*
X231738095Y-126392857D01*
X231738095Y-126488095D01*
X231690476Y-126630952D01*
X231119047Y-127202380D01*
X231738095Y-127202380D01*
X199464285Y-92154761D02*
X199607142Y-92202380D01*
X199845238Y-92202380D01*
X199940476Y-92154761D01*
X199988095Y-92107142D01*
X200035714Y-92011904D01*
X200035714Y-91916666D01*
X199988095Y-91821428D01*
X199940476Y-91773809D01*
X199845238Y-91726190D01*
X199654761Y-91678571D01*
X199559523Y-91630952D01*
X199511904Y-91583333D01*
X199464285Y-91488095D01*
X199464285Y-91392857D01*
X199511904Y-91297619D01*
X199559523Y-91250000D01*
X199654761Y-91202380D01*
X199892857Y-91202380D01*
X200035714Y-91250000D01*
X200369047Y-91202380D02*
X200607142Y-92202380D01*
X200797619Y-91488095D01*
X200988095Y-92202380D01*
X201226190Y-91202380D01*
X202130952Y-92202380D02*
X201559523Y-92202380D01*
X201845238Y-92202380D02*
X201845238Y-91202380D01*
X201750000Y-91345238D01*
X201654761Y-91440476D01*
X201559523Y-91488095D01*
X202750000Y-91202380D02*
X202845238Y-91202380D01*
X202940476Y-91250000D01*
X202988095Y-91297619D01*
X203035714Y-91392857D01*
X203083333Y-91583333D01*
X203083333Y-91821428D01*
X203035714Y-92011904D01*
X202988095Y-92107142D01*
X202940476Y-92154761D01*
X202845238Y-92202380D01*
X202750000Y-92202380D01*
X202654761Y-92154761D01*
X202607142Y-92107142D01*
X202559523Y-92011904D01*
X202511904Y-91821428D01*
X202511904Y-91583333D01*
X202559523Y-91392857D01*
X202607142Y-91297619D01*
X202654761Y-91250000D01*
X202750000Y-91202380D01*
X203416666Y-91202380D02*
X204035714Y-91202380D01*
X203702380Y-91583333D01*
X203845238Y-91583333D01*
X203940476Y-91630952D01*
X203988095Y-91678571D01*
X204035714Y-91773809D01*
X204035714Y-92011904D01*
X203988095Y-92107142D01*
X203940476Y-92154761D01*
X203845238Y-92202380D01*
X203559523Y-92202380D01*
X203464285Y-92154761D01*
X203416666Y-92107142D01*
X216880952Y-127202380D02*
X216547619Y-126726190D01*
X216309523Y-127202380D02*
X216309523Y-126202380D01*
X216690476Y-126202380D01*
X216785714Y-126250000D01*
X216833333Y-126297619D01*
X216880952Y-126392857D01*
X216880952Y-126535714D01*
X216833333Y-126630952D01*
X216785714Y-126678571D01*
X216690476Y-126726190D01*
X216309523Y-126726190D01*
X217833333Y-127202380D02*
X217261904Y-127202380D01*
X217547619Y-127202380D02*
X217547619Y-126202380D01*
X217452380Y-126345238D01*
X217357142Y-126440476D01*
X217261904Y-126488095D01*
X218452380Y-126202380D02*
X218547619Y-126202380D01*
X218642857Y-126250000D01*
X218690476Y-126297619D01*
X218738095Y-126392857D01*
X218785714Y-126583333D01*
X218785714Y-126821428D01*
X218738095Y-127011904D01*
X218690476Y-127107142D01*
X218642857Y-127154761D01*
X218547619Y-127202380D01*
X218452380Y-127202380D01*
X218357142Y-127154761D01*
X218309523Y-127107142D01*
X218261904Y-127011904D01*
X218214285Y-126821428D01*
X218214285Y-126583333D01*
X218261904Y-126392857D01*
X218309523Y-126297619D01*
X218357142Y-126250000D01*
X218452380Y-126202380D01*
X219119047Y-126202380D02*
X219785714Y-126202380D01*
X219357142Y-127202380D01*
X220622023Y-93802380D02*
X220622023Y-92802380D01*
X220860119Y-92802380D01*
X221002976Y-92850000D01*
X221098214Y-92945238D01*
X221145833Y-93040476D01*
X221193452Y-93230952D01*
X221193452Y-93373809D01*
X221145833Y-93564285D01*
X221098214Y-93659523D01*
X221002976Y-93754761D01*
X220860119Y-93802380D01*
X220622023Y-93802380D01*
X222145833Y-93802380D02*
X221574404Y-93802380D01*
X221860119Y-93802380D02*
X221860119Y-92802380D01*
X221764880Y-92945238D01*
X221669642Y-93040476D01*
X221574404Y-93088095D01*
X222764880Y-92802380D02*
X222860119Y-92802380D01*
X222955357Y-92850000D01*
X223002976Y-92897619D01*
X223050595Y-92992857D01*
X223098214Y-93183333D01*
X223098214Y-93421428D01*
X223050595Y-93611904D01*
X223002976Y-93707142D01*
X222955357Y-93754761D01*
X222860119Y-93802380D01*
X222764880Y-93802380D01*
X222669642Y-93754761D01*
X222622023Y-93707142D01*
X222574404Y-93611904D01*
X222526785Y-93421428D01*
X222526785Y-93183333D01*
X222574404Y-92992857D01*
X222622023Y-92897619D01*
X222669642Y-92850000D01*
X222764880Y-92802380D01*
X224050595Y-93802380D02*
X223479166Y-93802380D01*
X223764880Y-93802380D02*
X223764880Y-92802380D01*
X223669642Y-92945238D01*
X223574404Y-93040476D01*
X223479166Y-93088095D01*
X220880952Y-127107142D02*
X220833333Y-127154761D01*
X220690476Y-127202380D01*
X220595238Y-127202380D01*
X220452380Y-127154761D01*
X220357142Y-127059523D01*
X220309523Y-126964285D01*
X220261904Y-126773809D01*
X220261904Y-126630952D01*
X220309523Y-126440476D01*
X220357142Y-126345238D01*
X220452380Y-126250000D01*
X220595238Y-126202380D01*
X220690476Y-126202380D01*
X220833333Y-126250000D01*
X220880952Y-126297619D01*
X221833333Y-127202380D02*
X221261904Y-127202380D01*
X221547619Y-127202380D02*
X221547619Y-126202380D01*
X221452380Y-126345238D01*
X221357142Y-126440476D01*
X221261904Y-126488095D01*
X222452380Y-126202380D02*
X222547619Y-126202380D01*
X222642857Y-126250000D01*
X222690476Y-126297619D01*
X222738095Y-126392857D01*
X222785714Y-126583333D01*
X222785714Y-126821428D01*
X222738095Y-127011904D01*
X222690476Y-127107142D01*
X222642857Y-127154761D01*
X222547619Y-127202380D01*
X222452380Y-127202380D01*
X222357142Y-127154761D01*
X222309523Y-127107142D01*
X222261904Y-127011904D01*
X222214285Y-126821428D01*
X222214285Y-126583333D01*
X222261904Y-126392857D01*
X222309523Y-126297619D01*
X222357142Y-126250000D01*
X222452380Y-126202380D01*
X223357142Y-126630952D02*
X223261904Y-126583333D01*
X223214285Y-126535714D01*
X223166666Y-126440476D01*
X223166666Y-126392857D01*
X223214285Y-126297619D01*
X223261904Y-126250000D01*
X223357142Y-126202380D01*
X223547619Y-126202380D01*
X223642857Y-126250000D01*
X223690476Y-126297619D01*
X223738095Y-126392857D01*
X223738095Y-126440476D01*
X223690476Y-126535714D01*
X223642857Y-126583333D01*
X223547619Y-126630952D01*
X223357142Y-126630952D01*
X223261904Y-126678571D01*
X223214285Y-126726190D01*
X223166666Y-126821428D01*
X223166666Y-127011904D01*
X223214285Y-127107142D01*
X223261904Y-127154761D01*
X223357142Y-127202380D01*
X223547619Y-127202380D01*
X223642857Y-127154761D01*
X223690476Y-127107142D01*
X223738095Y-127011904D01*
X223738095Y-126821428D01*
X223690476Y-126726190D01*
X223642857Y-126678571D01*
X223547619Y-126630952D01*
X174607142Y-100119047D02*
X174654761Y-100166666D01*
X174702380Y-100309523D01*
X174702380Y-100404761D01*
X174654761Y-100547619D01*
X174559523Y-100642857D01*
X174464285Y-100690476D01*
X174273809Y-100738095D01*
X174130952Y-100738095D01*
X173940476Y-100690476D01*
X173845238Y-100642857D01*
X173750000Y-100547619D01*
X173702380Y-100404761D01*
X173702380Y-100309523D01*
X173750000Y-100166666D01*
X173797619Y-100119047D01*
X174702380Y-99166666D02*
X174702380Y-99738095D01*
X174702380Y-99452380D02*
X173702380Y-99452380D01*
X173845238Y-99547619D01*
X173940476Y-99642857D01*
X173988095Y-99738095D01*
X173702380Y-98547619D02*
X173702380Y-98452380D01*
X173750000Y-98357142D01*
X173797619Y-98309523D01*
X173892857Y-98261904D01*
X174083333Y-98214285D01*
X174321428Y-98214285D01*
X174511904Y-98261904D01*
X174607142Y-98309523D01*
X174654761Y-98357142D01*
X174702380Y-98452380D01*
X174702380Y-98547619D01*
X174654761Y-98642857D01*
X174607142Y-98690476D01*
X174511904Y-98738095D01*
X174321428Y-98785714D01*
X174083333Y-98785714D01*
X173892857Y-98738095D01*
X173797619Y-98690476D01*
X173750000Y-98642857D01*
X173702380Y-98547619D01*
X173702380Y-97309523D02*
X173702380Y-97785714D01*
X174178571Y-97833333D01*
X174130952Y-97785714D01*
X174083333Y-97690476D01*
X174083333Y-97452380D01*
X174130952Y-97357142D01*
X174178571Y-97309523D01*
X174273809Y-97261904D01*
X174511904Y-97261904D01*
X174607142Y-97309523D01*
X174654761Y-97357142D01*
X174702380Y-97452380D01*
X174702380Y-97690476D01*
X174654761Y-97785714D01*
X174607142Y-97833333D01*
X170380952Y-121357142D02*
X170333333Y-121404761D01*
X170190476Y-121452380D01*
X170095238Y-121452380D01*
X169952380Y-121404761D01*
X169857142Y-121309523D01*
X169809523Y-121214285D01*
X169761904Y-121023809D01*
X169761904Y-120880952D01*
X169809523Y-120690476D01*
X169857142Y-120595238D01*
X169952380Y-120500000D01*
X170095238Y-120452380D01*
X170190476Y-120452380D01*
X170333333Y-120500000D01*
X170380952Y-120547619D01*
X171333333Y-121452380D02*
X170761904Y-121452380D01*
X171047619Y-121452380D02*
X171047619Y-120452380D01*
X170952380Y-120595238D01*
X170857142Y-120690476D01*
X170761904Y-120738095D01*
X172285714Y-121452380D02*
X171714285Y-121452380D01*
X172000000Y-121452380D02*
X172000000Y-120452380D01*
X171904761Y-120595238D01*
X171809523Y-120690476D01*
X171714285Y-120738095D01*
X173238095Y-121452380D02*
X172666666Y-121452380D01*
X172952380Y-121452380D02*
X172952380Y-120452380D01*
X172857142Y-120595238D01*
X172761904Y-120690476D01*
X172666666Y-120738095D01*
X176714285Y-92154761D02*
X176857142Y-92202380D01*
X177095238Y-92202380D01*
X177190476Y-92154761D01*
X177238095Y-92107142D01*
X177285714Y-92011904D01*
X177285714Y-91916666D01*
X177238095Y-91821428D01*
X177190476Y-91773809D01*
X177095238Y-91726190D01*
X176904761Y-91678571D01*
X176809523Y-91630952D01*
X176761904Y-91583333D01*
X176714285Y-91488095D01*
X176714285Y-91392857D01*
X176761904Y-91297619D01*
X176809523Y-91250000D01*
X176904761Y-91202380D01*
X177142857Y-91202380D01*
X177285714Y-91250000D01*
X177619047Y-91202380D02*
X177857142Y-92202380D01*
X178047619Y-91488095D01*
X178238095Y-92202380D01*
X178476190Y-91202380D01*
X179380952Y-92202380D02*
X178809523Y-92202380D01*
X179095238Y-92202380D02*
X179095238Y-91202380D01*
X179000000Y-91345238D01*
X178904761Y-91440476D01*
X178809523Y-91488095D01*
X180000000Y-91202380D02*
X180095238Y-91202380D01*
X180190476Y-91250000D01*
X180238095Y-91297619D01*
X180285714Y-91392857D01*
X180333333Y-91583333D01*
X180333333Y-91821428D01*
X180285714Y-92011904D01*
X180238095Y-92107142D01*
X180190476Y-92154761D01*
X180095238Y-92202380D01*
X180000000Y-92202380D01*
X179904761Y-92154761D01*
X179857142Y-92107142D01*
X179809523Y-92011904D01*
X179761904Y-91821428D01*
X179761904Y-91583333D01*
X179809523Y-91392857D01*
X179857142Y-91297619D01*
X179904761Y-91250000D01*
X180000000Y-91202380D01*
X181285714Y-92202380D02*
X180714285Y-92202380D01*
X181000000Y-92202380D02*
X181000000Y-91202380D01*
X180904761Y-91345238D01*
X180809523Y-91440476D01*
X180714285Y-91488095D01*
X179702380Y-104511904D02*
X180702380Y-103845238D01*
X179702380Y-103845238D02*
X180702380Y-104511904D01*
X180702380Y-102940476D02*
X180702380Y-103511904D01*
X180702380Y-103226190D02*
X179702380Y-103226190D01*
X179845238Y-103321428D01*
X179940476Y-103416666D01*
X179988095Y-103511904D01*
X179702380Y-102321428D02*
X179702380Y-102226190D01*
X179750000Y-102130952D01*
X179797619Y-102083333D01*
X179892857Y-102035714D01*
X180083333Y-101988095D01*
X180321428Y-101988095D01*
X180511904Y-102035714D01*
X180607142Y-102083333D01*
X180654761Y-102130952D01*
X180702380Y-102226190D01*
X180702380Y-102321428D01*
X180654761Y-102416666D01*
X180607142Y-102464285D01*
X180511904Y-102511904D01*
X180321428Y-102559523D01*
X180083333Y-102559523D01*
X179892857Y-102511904D01*
X179797619Y-102464285D01*
X179750000Y-102416666D01*
X179702380Y-102321428D01*
X180702380Y-101035714D02*
X180702380Y-101607142D01*
X180702380Y-101321428D02*
X179702380Y-101321428D01*
X179845238Y-101416666D01*
X179940476Y-101511904D01*
X179988095Y-101607142D01*
X207880952Y-93677142D02*
X207833333Y-93724761D01*
X207690476Y-93772380D01*
X207595238Y-93772380D01*
X207452380Y-93724761D01*
X207357142Y-93629523D01*
X207309523Y-93534285D01*
X207261904Y-93343809D01*
X207261904Y-93200952D01*
X207309523Y-93010476D01*
X207357142Y-92915238D01*
X207452380Y-92820000D01*
X207595238Y-92772380D01*
X207690476Y-92772380D01*
X207833333Y-92820000D01*
X207880952Y-92867619D01*
X208833333Y-93772380D02*
X208261904Y-93772380D01*
X208547619Y-93772380D02*
X208547619Y-92772380D01*
X208452380Y-92915238D01*
X208357142Y-93010476D01*
X208261904Y-93058095D01*
X209452380Y-92772380D02*
X209547619Y-92772380D01*
X209642857Y-92820000D01*
X209690476Y-92867619D01*
X209738095Y-92962857D01*
X209785714Y-93153333D01*
X209785714Y-93391428D01*
X209738095Y-93581904D01*
X209690476Y-93677142D01*
X209642857Y-93724761D01*
X209547619Y-93772380D01*
X209452380Y-93772380D01*
X209357142Y-93724761D01*
X209309523Y-93677142D01*
X209261904Y-93581904D01*
X209214285Y-93391428D01*
X209214285Y-93153333D01*
X209261904Y-92962857D01*
X209309523Y-92867619D01*
X209357142Y-92820000D01*
X209452380Y-92772380D01*
X210642857Y-93105714D02*
X210642857Y-93772380D01*
X210404761Y-92724761D02*
X210166666Y-93439047D01*
X210785714Y-93439047D01*
X212130952Y-93677142D02*
X212083333Y-93724761D01*
X211940476Y-93772380D01*
X211845238Y-93772380D01*
X211702380Y-93724761D01*
X211607142Y-93629523D01*
X211559523Y-93534285D01*
X211511904Y-93343809D01*
X211511904Y-93200952D01*
X211559523Y-93010476D01*
X211607142Y-92915238D01*
X211702380Y-92820000D01*
X211845238Y-92772380D01*
X211940476Y-92772380D01*
X212083333Y-92820000D01*
X212130952Y-92867619D01*
X213083333Y-93772380D02*
X212511904Y-93772380D01*
X212797619Y-93772380D02*
X212797619Y-92772380D01*
X212702380Y-92915238D01*
X212607142Y-93010476D01*
X212511904Y-93058095D01*
X213702380Y-92772380D02*
X213797619Y-92772380D01*
X213892857Y-92820000D01*
X213940476Y-92867619D01*
X213988095Y-92962857D01*
X214035714Y-93153333D01*
X214035714Y-93391428D01*
X213988095Y-93581904D01*
X213940476Y-93677142D01*
X213892857Y-93724761D01*
X213797619Y-93772380D01*
X213702380Y-93772380D01*
X213607142Y-93724761D01*
X213559523Y-93677142D01*
X213511904Y-93581904D01*
X213464285Y-93391428D01*
X213464285Y-93153333D01*
X213511904Y-92962857D01*
X213559523Y-92867619D01*
X213607142Y-92820000D01*
X213702380Y-92772380D01*
X214988095Y-93772380D02*
X214416666Y-93772380D01*
X214702380Y-93772380D02*
X214702380Y-92772380D01*
X214607142Y-92915238D01*
X214511904Y-93010476D01*
X214416666Y-93058095D01*
X175309523Y-105202380D02*
X175309523Y-106011904D01*
X175357142Y-106107142D01*
X175404761Y-106154761D01*
X175500000Y-106202380D01*
X175690476Y-106202380D01*
X175785714Y-106154761D01*
X175833333Y-106107142D01*
X175880952Y-106011904D01*
X175880952Y-105202380D01*
X176309523Y-106154761D02*
X176452380Y-106202380D01*
X176690476Y-106202380D01*
X176785714Y-106154761D01*
X176833333Y-106107142D01*
X176880952Y-106011904D01*
X176880952Y-105916666D01*
X176833333Y-105821428D01*
X176785714Y-105773809D01*
X176690476Y-105726190D01*
X176500000Y-105678571D01*
X176404761Y-105630952D01*
X176357142Y-105583333D01*
X176309523Y-105488095D01*
X176309523Y-105392857D01*
X176357142Y-105297619D01*
X176404761Y-105250000D01*
X176500000Y-105202380D01*
X176738095Y-105202380D01*
X176880952Y-105250000D01*
X177642857Y-105678571D02*
X177785714Y-105726190D01*
X177833333Y-105773809D01*
X177880952Y-105869047D01*
X177880952Y-106011904D01*
X177833333Y-106107142D01*
X177785714Y-106154761D01*
X177690476Y-106202380D01*
X177309523Y-106202380D01*
X177309523Y-105202380D01*
X177642857Y-105202380D01*
X177738095Y-105250000D01*
X177785714Y-105297619D01*
X177833333Y-105392857D01*
X177833333Y-105488095D01*
X177785714Y-105583333D01*
X177738095Y-105630952D01*
X177642857Y-105678571D01*
X177309523Y-105678571D01*
X178833333Y-106202380D02*
X178261904Y-106202380D01*
X178547619Y-106202380D02*
X178547619Y-105202380D01*
X178452380Y-105345238D01*
X178357142Y-105440476D01*
X178261904Y-105488095D01*
X179452380Y-105202380D02*
X179547619Y-105202380D01*
X179642857Y-105250000D01*
X179690476Y-105297619D01*
X179738095Y-105392857D01*
X179785714Y-105583333D01*
X179785714Y-105821428D01*
X179738095Y-106011904D01*
X179690476Y-106107142D01*
X179642857Y-106154761D01*
X179547619Y-106202380D01*
X179452380Y-106202380D01*
X179357142Y-106154761D01*
X179309523Y-106107142D01*
X179261904Y-106011904D01*
X179214285Y-105821428D01*
X179214285Y-105583333D01*
X179261904Y-105392857D01*
X179309523Y-105297619D01*
X179357142Y-105250000D01*
X179452380Y-105202380D01*
X180738095Y-106202380D02*
X180166666Y-106202380D01*
X180452380Y-106202380D02*
X180452380Y-105202380D01*
X180357142Y-105345238D01*
X180261904Y-105440476D01*
X180166666Y-105488095D01*
X175702380Y-87535714D02*
X176416666Y-87535714D01*
X176559523Y-87583333D01*
X176654761Y-87678571D01*
X176702380Y-87821428D01*
X176702380Y-87916666D01*
X176702380Y-86535714D02*
X176702380Y-87107142D01*
X176702380Y-86821428D02*
X175702380Y-86821428D01*
X175845238Y-86916666D01*
X175940476Y-87011904D01*
X175988095Y-87107142D01*
X175702380Y-85916666D02*
X175702380Y-85821428D01*
X175750000Y-85726190D01*
X175797619Y-85678571D01*
X175892857Y-85630952D01*
X176083333Y-85583333D01*
X176321428Y-85583333D01*
X176511904Y-85630952D01*
X176607142Y-85678571D01*
X176654761Y-85726190D01*
X176702380Y-85821428D01*
X176702380Y-85916666D01*
X176654761Y-86011904D01*
X176607142Y-86059523D01*
X176511904Y-86107142D01*
X176321428Y-86154761D01*
X176083333Y-86154761D01*
X175892857Y-86107142D01*
X175797619Y-86059523D01*
X175750000Y-86011904D01*
X175702380Y-85916666D01*
X175702380Y-85250000D02*
X175702380Y-84630952D01*
X176083333Y-84964285D01*
X176083333Y-84821428D01*
X176130952Y-84726190D01*
X176178571Y-84678571D01*
X176273809Y-84630952D01*
X176511904Y-84630952D01*
X176607142Y-84678571D01*
X176654761Y-84726190D01*
X176702380Y-84821428D01*
X176702380Y-85107142D01*
X176654761Y-85202380D01*
X176607142Y-85250000D01*
X179130952Y-111952380D02*
X178797619Y-111476190D01*
X178559523Y-111952380D02*
X178559523Y-110952380D01*
X178940476Y-110952380D01*
X179035714Y-111000000D01*
X179083333Y-111047619D01*
X179130952Y-111142857D01*
X179130952Y-111285714D01*
X179083333Y-111380952D01*
X179035714Y-111428571D01*
X178940476Y-111476190D01*
X178559523Y-111476190D01*
X180083333Y-111952380D02*
X179511904Y-111952380D01*
X179797619Y-111952380D02*
X179797619Y-110952380D01*
X179702380Y-111095238D01*
X179607142Y-111190476D01*
X179511904Y-111238095D01*
X180702380Y-110952380D02*
X180797619Y-110952380D01*
X180892857Y-111000000D01*
X180940476Y-111047619D01*
X180988095Y-111142857D01*
X181035714Y-111333333D01*
X181035714Y-111571428D01*
X180988095Y-111761904D01*
X180940476Y-111857142D01*
X180892857Y-111904761D01*
X180797619Y-111952380D01*
X180702380Y-111952380D01*
X180607142Y-111904761D01*
X180559523Y-111857142D01*
X180511904Y-111761904D01*
X180464285Y-111571428D01*
X180464285Y-111333333D01*
X180511904Y-111142857D01*
X180559523Y-111047619D01*
X180607142Y-111000000D01*
X180702380Y-110952380D01*
X181940476Y-110952380D02*
X181464285Y-110952380D01*
X181416666Y-111428571D01*
X181464285Y-111380952D01*
X181559523Y-111333333D01*
X181797619Y-111333333D01*
X181892857Y-111380952D01*
X181940476Y-111428571D01*
X181988095Y-111523809D01*
X181988095Y-111761904D01*
X181940476Y-111857142D01*
X181892857Y-111904761D01*
X181797619Y-111952380D01*
X181559523Y-111952380D01*
X181464285Y-111904761D01*
X181416666Y-111857142D01*
X169989285Y-92132380D02*
X169989285Y-92846666D01*
X169941666Y-92989523D01*
X169846428Y-93084761D01*
X169703571Y-93132380D01*
X169608333Y-93132380D01*
X170989285Y-93132380D02*
X170417857Y-93132380D01*
X170703571Y-93132380D02*
X170703571Y-92132380D01*
X170608333Y-92275238D01*
X170513095Y-92370476D01*
X170417857Y-92418095D01*
X171608333Y-92132380D02*
X171703571Y-92132380D01*
X171798809Y-92180000D01*
X171846428Y-92227619D01*
X171894047Y-92322857D01*
X171941666Y-92513333D01*
X171941666Y-92751428D01*
X171894047Y-92941904D01*
X171846428Y-93037142D01*
X171798809Y-93084761D01*
X171703571Y-93132380D01*
X171608333Y-93132380D01*
X171513095Y-93084761D01*
X171465476Y-93037142D01*
X171417857Y-92941904D01*
X171370238Y-92751428D01*
X171370238Y-92513333D01*
X171417857Y-92322857D01*
X171465476Y-92227619D01*
X171513095Y-92180000D01*
X171608333Y-92132380D01*
X172894047Y-93132380D02*
X172322619Y-93132380D01*
X172608333Y-93132380D02*
X172608333Y-92132380D01*
X172513095Y-92275238D01*
X172417857Y-92370476D01*
X172322619Y-92418095D01*
X224880952Y-127202380D02*
X224547619Y-126726190D01*
X224309523Y-127202380D02*
X224309523Y-126202380D01*
X224690476Y-126202380D01*
X224785714Y-126250000D01*
X224833333Y-126297619D01*
X224880952Y-126392857D01*
X224880952Y-126535714D01*
X224833333Y-126630952D01*
X224785714Y-126678571D01*
X224690476Y-126726190D01*
X224309523Y-126726190D01*
X225833333Y-127202380D02*
X225261904Y-127202380D01*
X225547619Y-127202380D02*
X225547619Y-126202380D01*
X225452380Y-126345238D01*
X225357142Y-126440476D01*
X225261904Y-126488095D01*
X226452380Y-126202380D02*
X226547619Y-126202380D01*
X226642857Y-126250000D01*
X226690476Y-126297619D01*
X226738095Y-126392857D01*
X226785714Y-126583333D01*
X226785714Y-126821428D01*
X226738095Y-127011904D01*
X226690476Y-127107142D01*
X226642857Y-127154761D01*
X226547619Y-127202380D01*
X226452380Y-127202380D01*
X226357142Y-127154761D01*
X226309523Y-127107142D01*
X226261904Y-127011904D01*
X226214285Y-126821428D01*
X226214285Y-126583333D01*
X226261904Y-126392857D01*
X226309523Y-126297619D01*
X226357142Y-126250000D01*
X226452380Y-126202380D01*
X227166666Y-126297619D02*
X227214285Y-126250000D01*
X227309523Y-126202380D01*
X227547619Y-126202380D01*
X227642857Y-126250000D01*
X227690476Y-126297619D01*
X227738095Y-126392857D01*
X227738095Y-126488095D01*
X227690476Y-126630952D01*
X227119047Y-127202380D01*
X227738095Y-127202380D01*
X216630952Y-93677142D02*
X216583333Y-93724761D01*
X216440476Y-93772380D01*
X216345238Y-93772380D01*
X216202380Y-93724761D01*
X216107142Y-93629523D01*
X216059523Y-93534285D01*
X216011904Y-93343809D01*
X216011904Y-93200952D01*
X216059523Y-93010476D01*
X216107142Y-92915238D01*
X216202380Y-92820000D01*
X216345238Y-92772380D01*
X216440476Y-92772380D01*
X216583333Y-92820000D01*
X216630952Y-92867619D01*
X217583333Y-93772380D02*
X217011904Y-93772380D01*
X217297619Y-93772380D02*
X217297619Y-92772380D01*
X217202380Y-92915238D01*
X217107142Y-93010476D01*
X217011904Y-93058095D01*
X218202380Y-92772380D02*
X218297619Y-92772380D01*
X218392857Y-92820000D01*
X218440476Y-92867619D01*
X218488095Y-92962857D01*
X218535714Y-93153333D01*
X218535714Y-93391428D01*
X218488095Y-93581904D01*
X218440476Y-93677142D01*
X218392857Y-93724761D01*
X218297619Y-93772380D01*
X218202380Y-93772380D01*
X218107142Y-93724761D01*
X218059523Y-93677142D01*
X218011904Y-93581904D01*
X217964285Y-93391428D01*
X217964285Y-93153333D01*
X218011904Y-92962857D01*
X218059523Y-92867619D01*
X218107142Y-92820000D01*
X218202380Y-92772380D01*
X218869047Y-92772380D02*
X219535714Y-92772380D01*
X219107142Y-93772380D01*
X186535714Y-107702380D02*
X186535714Y-108511904D01*
X186583333Y-108607142D01*
X186630952Y-108654761D01*
X186726190Y-108702380D01*
X186916666Y-108702380D01*
X187011904Y-108654761D01*
X187059523Y-108607142D01*
X187107142Y-108511904D01*
X187107142Y-107702380D01*
X188107142Y-108702380D02*
X187535714Y-108702380D01*
X187821428Y-108702380D02*
X187821428Y-107702380D01*
X187726190Y-107845238D01*
X187630952Y-107940476D01*
X187535714Y-107988095D01*
X188726190Y-107702380D02*
X188821428Y-107702380D01*
X188916666Y-107750000D01*
X188964285Y-107797619D01*
X189011904Y-107892857D01*
X189059523Y-108083333D01*
X189059523Y-108321428D01*
X189011904Y-108511904D01*
X188964285Y-108607142D01*
X188916666Y-108654761D01*
X188821428Y-108702380D01*
X188726190Y-108702380D01*
X188630952Y-108654761D01*
X188583333Y-108607142D01*
X188535714Y-108511904D01*
X188488095Y-108321428D01*
X188488095Y-108083333D01*
X188535714Y-107892857D01*
X188583333Y-107797619D01*
X188630952Y-107750000D01*
X188726190Y-107702380D01*
X190011904Y-108702380D02*
X189440476Y-108702380D01*
X189726190Y-108702380D02*
X189726190Y-107702380D01*
X189630952Y-107845238D01*
X189535714Y-107940476D01*
X189440476Y-107988095D01*
X179202380Y-116797619D02*
X179107142Y-116750000D01*
X179011904Y-116654761D01*
X178869047Y-116511904D01*
X178773809Y-116464285D01*
X178678571Y-116464285D01*
X178726190Y-116702380D02*
X178630952Y-116654761D01*
X178535714Y-116559523D01*
X178488095Y-116369047D01*
X178488095Y-116035714D01*
X178535714Y-115845238D01*
X178630952Y-115750000D01*
X178726190Y-115702380D01*
X178916666Y-115702380D01*
X179011904Y-115750000D01*
X179107142Y-115845238D01*
X179154761Y-116035714D01*
X179154761Y-116369047D01*
X179107142Y-116559523D01*
X179011904Y-116654761D01*
X178916666Y-116702380D01*
X178726190Y-116702380D01*
X180107142Y-116702380D02*
X179535714Y-116702380D01*
X179821428Y-116702380D02*
X179821428Y-115702380D01*
X179726190Y-115845238D01*
X179630952Y-115940476D01*
X179535714Y-115988095D01*
X180726190Y-115702380D02*
X180821428Y-115702380D01*
X180916666Y-115750000D01*
X180964285Y-115797619D01*
X181011904Y-115892857D01*
X181059523Y-116083333D01*
X181059523Y-116321428D01*
X181011904Y-116511904D01*
X180964285Y-116607142D01*
X180916666Y-116654761D01*
X180821428Y-116702380D01*
X180726190Y-116702380D01*
X180630952Y-116654761D01*
X180583333Y-116607142D01*
X180535714Y-116511904D01*
X180488095Y-116321428D01*
X180488095Y-116083333D01*
X180535714Y-115892857D01*
X180583333Y-115797619D01*
X180630952Y-115750000D01*
X180726190Y-115702380D01*
X182011904Y-116702380D02*
X181440476Y-116702380D01*
X181726190Y-116702380D02*
X181726190Y-115702380D01*
X181630952Y-115845238D01*
X181535714Y-115940476D01*
X181440476Y-115988095D01*
X243452380Y-102369047D02*
X242976190Y-102702380D01*
X243452380Y-102940476D02*
X242452380Y-102940476D01*
X242452380Y-102559523D01*
X242500000Y-102464285D01*
X242547619Y-102416666D01*
X242642857Y-102369047D01*
X242785714Y-102369047D01*
X242880952Y-102416666D01*
X242928571Y-102464285D01*
X242976190Y-102559523D01*
X242976190Y-102940476D01*
X243452380Y-101416666D02*
X243452380Y-101988095D01*
X243452380Y-101702380D02*
X242452380Y-101702380D01*
X242595238Y-101797619D01*
X242690476Y-101892857D01*
X242738095Y-101988095D01*
X242452380Y-100797619D02*
X242452380Y-100702380D01*
X242500000Y-100607142D01*
X242547619Y-100559523D01*
X242642857Y-100511904D01*
X242833333Y-100464285D01*
X243071428Y-100464285D01*
X243261904Y-100511904D01*
X243357142Y-100559523D01*
X243404761Y-100607142D01*
X243452380Y-100702380D01*
X243452380Y-100797619D01*
X243404761Y-100892857D01*
X243357142Y-100940476D01*
X243261904Y-100988095D01*
X243071428Y-101035714D01*
X242833333Y-101035714D01*
X242642857Y-100988095D01*
X242547619Y-100940476D01*
X242500000Y-100892857D01*
X242452380Y-100797619D01*
X242452380Y-100130952D02*
X242452380Y-99511904D01*
X242833333Y-99845238D01*
X242833333Y-99702380D01*
X242880952Y-99607142D01*
X242928571Y-99559523D01*
X243023809Y-99511904D01*
X243261904Y-99511904D01*
X243357142Y-99559523D01*
X243404761Y-99607142D01*
X243452380Y-99702380D01*
X243452380Y-99988095D01*
X243404761Y-100083333D01*
X243357142Y-100130952D01*
X185880952Y-91952380D02*
X185547619Y-91476190D01*
X185309523Y-91952380D02*
X185309523Y-90952380D01*
X185690476Y-90952380D01*
X185785714Y-91000000D01*
X185833333Y-91047619D01*
X185880952Y-91142857D01*
X185880952Y-91285714D01*
X185833333Y-91380952D01*
X185785714Y-91428571D01*
X185690476Y-91476190D01*
X185309523Y-91476190D01*
X186833333Y-91952380D02*
X186261904Y-91952380D01*
X186547619Y-91952380D02*
X186547619Y-90952380D01*
X186452380Y-91095238D01*
X186357142Y-91190476D01*
X186261904Y-91238095D01*
X187452380Y-90952380D02*
X187547619Y-90952380D01*
X187642857Y-91000000D01*
X187690476Y-91047619D01*
X187738095Y-91142857D01*
X187785714Y-91333333D01*
X187785714Y-91571428D01*
X187738095Y-91761904D01*
X187690476Y-91857142D01*
X187642857Y-91904761D01*
X187547619Y-91952380D01*
X187452380Y-91952380D01*
X187357142Y-91904761D01*
X187309523Y-91857142D01*
X187261904Y-91761904D01*
X187214285Y-91571428D01*
X187214285Y-91333333D01*
X187261904Y-91142857D01*
X187309523Y-91047619D01*
X187357142Y-91000000D01*
X187452380Y-90952380D01*
X188642857Y-90952380D02*
X188452380Y-90952380D01*
X188357142Y-91000000D01*
X188309523Y-91047619D01*
X188214285Y-91190476D01*
X188166666Y-91380952D01*
X188166666Y-91761904D01*
X188214285Y-91857142D01*
X188261904Y-91904761D01*
X188357142Y-91952380D01*
X188547619Y-91952380D01*
X188642857Y-91904761D01*
X188690476Y-91857142D01*
X188738095Y-91761904D01*
X188738095Y-91523809D01*
X188690476Y-91428571D01*
X188642857Y-91380952D01*
X188547619Y-91333333D01*
X188357142Y-91333333D01*
X188261904Y-91380952D01*
X188214285Y-91428571D01*
X188166666Y-91523809D01*
D11*
X178735000Y-125227064D02*
X178735000Y-124772936D01*
X177265000Y-125227064D02*
X177265000Y-124772936D01*
D12*
X188950000Y-121220000D02*
X189840000Y-120330000D01*
X190600000Y-120700000D02*
X192400000Y-120700000D01*
X190330000Y-119950000D02*
X192670000Y-119950000D01*
X193400000Y-121700000D02*
X193400000Y-123400000D01*
X189700000Y-121600000D02*
X190600000Y-120700000D01*
X193160000Y-124670000D02*
X194050000Y-123780000D01*
X188950000Y-123780000D02*
X188950000Y-121220000D01*
X193160000Y-120330000D02*
X194050000Y-121220000D01*
X193400000Y-123400000D02*
X192500000Y-124300000D01*
X190330000Y-125050000D02*
X192670000Y-125050000D01*
X188950000Y-123780000D02*
X189840000Y-124670000D01*
X189700000Y-123500000D02*
X189700000Y-121600000D01*
X190500000Y-124300000D02*
X189700000Y-123500000D01*
X194050000Y-123780000D02*
X194050000Y-121220000D01*
X192500000Y-124300000D02*
X190500000Y-124300000D01*
X192400000Y-120700000D02*
X193400000Y-121700000D01*
X192780000Y-122500000D02*
G75*
G03*
X192780000Y-122500000I-1280000J0D01*
G01*
D10*
X181720000Y-104770000D02*
X181720000Y-101730000D01*
X191780000Y-101730000D02*
X191780000Y-104770000D01*
X191780000Y-104770000D02*
X181720000Y-104770000D01*
X181720000Y-101730000D02*
X191780000Y-101730000D01*
D13*
X191350000Y-102480000D02*
G75*
G03*
X191350000Y-102480000I-150000J0D01*
G01*
X192110000Y-100580000D02*
G75*
G03*
X192110000Y-100580000I-150000J0D01*
G01*
D11*
X221395000Y-100555000D02*
X221395000Y-97895000D01*
X218795000Y-97895000D02*
X220125000Y-97895000D01*
X218795000Y-99225000D02*
X218795000Y-97895000D01*
X239235000Y-100555000D02*
X239235000Y-97895000D01*
X221395000Y-97895000D02*
X239235000Y-97895000D01*
X221395000Y-100555000D02*
X239235000Y-100555000D01*
D10*
X181530000Y-108270000D02*
X180490000Y-108270000D01*
X181530000Y-109730000D02*
X181530000Y-108270000D01*
X180460000Y-109730000D02*
X179540000Y-109730000D01*
X178470000Y-108270000D02*
X179510000Y-108270000D01*
X178470000Y-109730000D02*
X178470000Y-108270000D01*
G36*
X232534214Y-112057219D02*
G01*
X232728637Y-111852428D01*
X232976224Y-111723271D01*
X233279105Y-111667953D01*
X233516938Y-111671534D01*
X233787849Y-111717594D01*
X234024906Y-111817307D01*
X234252492Y-111983456D01*
X234416342Y-112143085D01*
X234569418Y-112323229D01*
X234648501Y-112460276D01*
X234652714Y-112551135D01*
X234581180Y-112592716D01*
X234544659Y-112595120D01*
X234456725Y-112609411D01*
X234427717Y-112636838D01*
X234394307Y-112706786D01*
X234306940Y-112815750D01*
X234184912Y-112944547D01*
X234047517Y-113073999D01*
X233914050Y-113184924D01*
X233803807Y-113258144D01*
X233801490Y-113259338D01*
X233599185Y-113330238D01*
X233354647Y-113369217D01*
X233106082Y-113373752D01*
X232891697Y-113341319D01*
X232837293Y-113323020D01*
X232673117Y-113275817D01*
X232504884Y-113253628D01*
X232501984Y-113253559D01*
X232328013Y-113239240D01*
X232228848Y-113198310D01*
X232187147Y-113120299D01*
X232182413Y-113060648D01*
X232195600Y-112955766D01*
X232223887Y-112902449D01*
X232258268Y-112843446D01*
X232290711Y-112730043D01*
X232296345Y-112700885D01*
X232320254Y-112609419D01*
X232586940Y-112609419D01*
X232677033Y-112776235D01*
X232830317Y-112971527D01*
X233032725Y-113101203D01*
X233263257Y-113157086D01*
X233500909Y-113130999D01*
X233547600Y-113115168D01*
X233732488Y-112999124D01*
X233878891Y-112821099D01*
X233966909Y-112618509D01*
X234147054Y-112618509D01*
X234170442Y-112641897D01*
X234193831Y-112618509D01*
X234170442Y-112595120D01*
X234147054Y-112618509D01*
X233966909Y-112618509D01*
X233971125Y-112608806D01*
X233986875Y-112454788D01*
X234193831Y-112454788D01*
X234203264Y-112529139D01*
X234238536Y-112521666D01*
X234249963Y-112510921D01*
X234282010Y-112447267D01*
X234249963Y-112398656D01*
X234208072Y-112375630D01*
X234194172Y-112432274D01*
X234193831Y-112454788D01*
X233986875Y-112454788D01*
X233993504Y-112389957D01*
X233986706Y-112339371D01*
X233948909Y-112227791D01*
X233868931Y-112154474D01*
X233770628Y-112108534D01*
X233631801Y-112055051D01*
X233569231Y-112039696D01*
X233573165Y-112063799D01*
X233632505Y-112127348D01*
X233712556Y-112238132D01*
X233710298Y-112321111D01*
X233626698Y-112366821D01*
X233607662Y-112369821D01*
X233503897Y-112400527D01*
X233486659Y-112443733D01*
X233554025Y-112481456D01*
X233620810Y-112492835D01*
X233727606Y-112506968D01*
X233764380Y-112538195D01*
X233741581Y-112611781D01*
X233702186Y-112689611D01*
X233585307Y-112840116D01*
X233423665Y-112912647D01*
X233310341Y-112922560D01*
X233098332Y-112890704D01*
X232949349Y-112792399D01*
X232859349Y-112623537D01*
X232826855Y-112431400D01*
X232813904Y-112244291D01*
X232586940Y-112609419D01*
X232320254Y-112609419D01*
X232390826Y-112339440D01*
X232534214Y-112057219D01*
G37*
G36*
X226738620Y-110128798D02*
G01*
X226730300Y-110117449D01*
X226672023Y-110035784D01*
X226810579Y-110035784D01*
X226821961Y-110061926D01*
X226869060Y-110112143D01*
X226896138Y-110101842D01*
X226896593Y-110095302D01*
X226863368Y-110055737D01*
X226842589Y-110041298D01*
X226810579Y-110035784D01*
X226672023Y-110035784D01*
X226634386Y-109983043D01*
X226569048Y-109883392D01*
X226546053Y-109836664D01*
X226547507Y-109835267D01*
X226600089Y-109858334D01*
X226693043Y-109914141D01*
X226697627Y-109917127D01*
X226771399Y-109956574D01*
X226790376Y-109947368D01*
X226786775Y-109940516D01*
X226780427Y-109889368D01*
X226799985Y-109882044D01*
X226866249Y-109921711D01*
X226953357Y-110025810D01*
X227047205Y-110171993D01*
X227133687Y-110337912D01*
X227198700Y-110501217D01*
X227206198Y-110525715D01*
X227246507Y-110688455D01*
X227255637Y-110780851D01*
X227236841Y-110797214D01*
X227193370Y-110731853D01*
X227147547Y-110628323D01*
X227096585Y-110512823D01*
X227063670Y-110476403D01*
X227038610Y-110508952D01*
X227035568Y-110517236D01*
X227009274Y-110576728D01*
X226987623Y-110552611D01*
X226971010Y-110503361D01*
X226927594Y-110415340D01*
X226886926Y-110349816D01*
X226990147Y-110349816D01*
X227007263Y-110388319D01*
X227021332Y-110381001D01*
X227026931Y-110325487D01*
X227021332Y-110318631D01*
X226993523Y-110325052D01*
X226990147Y-110349816D01*
X226886926Y-110349816D01*
X226844334Y-110281193D01*
X226738620Y-110128798D01*
G37*
G36*
X225998719Y-122152808D02*
G01*
X226041051Y-122231216D01*
X226095690Y-122307329D01*
X226148159Y-122324770D01*
X226223929Y-122364337D01*
X226257278Y-122426017D01*
X226287865Y-122494802D01*
X226337678Y-122481810D01*
X226354239Y-122468767D01*
X226432513Y-122432532D01*
X226469554Y-122437977D01*
X226523754Y-122429367D01*
X226538313Y-122406921D01*
X226578641Y-122390874D01*
X226653717Y-122459672D01*
X226658211Y-122465102D01*
X226725075Y-122556092D01*
X226755115Y-122615722D01*
X226755222Y-122617127D01*
X226726166Y-122650491D01*
X226668000Y-122635768D01*
X226641007Y-122608164D01*
X226581675Y-122585631D01*
X226466688Y-122583027D01*
X226423951Y-122586999D01*
X226298255Y-122594609D01*
X226235532Y-122571406D01*
X226210492Y-122519537D01*
X226161357Y-122452308D01*
X226094583Y-122453326D01*
X226011732Y-122444920D01*
X225977066Y-122380962D01*
X225930212Y-122310562D01*
X225880833Y-122311711D01*
X225835144Y-122319051D01*
X225846591Y-122271644D01*
X225863700Y-122238309D01*
X225934321Y-122152159D01*
X225998719Y-122152808D01*
G37*
G36*
X217645030Y-109920552D02*
G01*
X217598608Y-110021075D01*
X217537442Y-110151013D01*
X217397174Y-110521850D01*
X217291569Y-110963551D01*
X217224801Y-111458533D01*
X217223576Y-111472468D01*
X217203198Y-111659375D01*
X217181784Y-111769249D01*
X217160905Y-111794979D01*
X217154637Y-111784388D01*
X217130798Y-111665540D01*
X217120892Y-111482383D01*
X217123993Y-111262978D01*
X217139176Y-111035383D01*
X217165516Y-110827656D01*
X217190109Y-110709046D01*
X217247281Y-110521780D01*
X217316421Y-110338691D01*
X217354780Y-110254835D01*
X217449507Y-110069153D01*
X217319920Y-110066965D01*
X217259001Y-110060845D01*
X217268086Y-110041150D01*
X217354683Y-110001149D01*
X217424217Y-109973449D01*
X217554432Y-109922821D01*
X217640847Y-109889640D01*
X217661519Y-109882083D01*
X217645030Y-109920552D01*
G37*
G36*
X230637993Y-103178140D02*
G01*
X231463040Y-103275186D01*
X232230894Y-103438805D01*
X232947309Y-103670533D01*
X233618041Y-103971905D01*
X234248842Y-104344455D01*
X234253608Y-104347636D01*
X234774151Y-104695422D01*
X234962334Y-104610741D01*
X235074002Y-104570796D01*
X235209978Y-104545437D01*
X235392107Y-104532202D01*
X235642233Y-104528629D01*
X235689577Y-104528787D01*
X235909149Y-104532756D01*
X236102297Y-104544593D01*
X236293307Y-104567853D01*
X236506464Y-104606091D01*
X236766053Y-104662863D01*
X237023849Y-104724104D01*
X237321976Y-104796047D01*
X237624302Y-104868552D01*
X237904185Y-104935261D01*
X238134985Y-104989815D01*
X238234283Y-105013015D01*
X238596880Y-105111510D01*
X238904067Y-105231326D01*
X239168557Y-105383528D01*
X239403064Y-105579185D01*
X239620301Y-105829365D01*
X239832981Y-106145136D01*
X240053818Y-106537565D01*
X240110455Y-106646347D01*
X240210693Y-106829443D01*
X240350109Y-107067770D01*
X240515271Y-107339197D01*
X240692745Y-107621597D01*
X240845118Y-107856578D01*
X241020702Y-108125752D01*
X241194775Y-108397722D01*
X241354343Y-108651823D01*
X241486415Y-108867387D01*
X241570652Y-109010692D01*
X241735255Y-109292233D01*
X241878156Y-109513264D01*
X242016533Y-109698366D01*
X242167563Y-109872124D01*
X242187689Y-109893739D01*
X242274582Y-109998249D01*
X242300891Y-110058658D01*
X242285325Y-110069153D01*
X242223792Y-110037102D01*
X242119416Y-109951948D01*
X241991866Y-109830194D01*
X241954577Y-109791685D01*
X241815633Y-109629750D01*
X241655413Y-109418528D01*
X241497911Y-109190601D01*
X241412003Y-109054944D01*
X241289862Y-108856570D01*
X241132182Y-108604914D01*
X240954739Y-108324918D01*
X240773310Y-108041525D01*
X240662869Y-107870626D01*
X240483489Y-107587790D01*
X240296284Y-107281524D01*
X240118092Y-106980105D01*
X239965754Y-106711811D01*
X239896792Y-106584254D01*
X239670398Y-106186791D01*
X239446114Y-105869468D01*
X239209077Y-105620426D01*
X238944426Y-105427803D01*
X238637297Y-105279738D01*
X238272828Y-105164370D01*
X238052947Y-105112772D01*
X237826857Y-105062449D01*
X237544188Y-104996571D01*
X237238888Y-104923194D01*
X236944902Y-104850375D01*
X236906906Y-104840766D01*
X236617477Y-104769762D01*
X236388419Y-104721103D01*
X236190364Y-104690687D01*
X235993945Y-104674410D01*
X235769796Y-104668168D01*
X235667311Y-104667566D01*
X235375039Y-104672821D01*
X235149672Y-104695380D01*
X234965015Y-104743329D01*
X234794875Y-104824753D01*
X234613058Y-104947740D01*
X234514539Y-105023444D01*
X234382981Y-105119674D01*
X234316856Y-105152344D01*
X234318607Y-105123237D01*
X234390680Y-105034138D01*
X234447277Y-104974363D01*
X234626155Y-104791175D01*
X234304744Y-104552727D01*
X234025953Y-104367631D01*
X233683999Y-104174505D01*
X233306716Y-103987047D01*
X232921939Y-103818955D01*
X232557501Y-103683924D01*
X232504221Y-103666707D01*
X231659094Y-103447300D01*
X230783831Y-103310405D01*
X229892389Y-103256022D01*
X228998727Y-103284151D01*
X228116802Y-103394791D01*
X227260572Y-103587944D01*
X226995779Y-103666707D01*
X226637032Y-103795337D01*
X226253597Y-103959168D01*
X225873310Y-104144504D01*
X225524003Y-104337647D01*
X225233512Y-104524900D01*
X225195256Y-104552727D01*
X224873846Y-104791175D01*
X225052724Y-104974363D01*
X225157533Y-105090112D01*
X225190909Y-105146678D01*
X225155299Y-105142278D01*
X225053146Y-105075128D01*
X224985461Y-105023444D01*
X224788836Y-104877770D01*
X224616390Y-104777517D01*
X224441929Y-104714601D01*
X224239259Y-104680933D01*
X223982186Y-104668428D01*
X223832689Y-104667566D01*
X223589525Y-104670977D01*
X223385676Y-104682806D01*
X223191774Y-104707155D01*
X222978452Y-104748128D01*
X222716342Y-104809828D01*
X222593094Y-104840766D01*
X222303362Y-104912871D01*
X221997603Y-104986652D01*
X221709764Y-105054053D01*
X221473793Y-105107016D01*
X221447054Y-105112772D01*
X221208899Y-105171432D01*
X220968506Y-105243560D01*
X220764519Y-105317105D01*
X220695811Y-105347020D01*
X220420129Y-105518001D01*
X220151790Y-105757927D01*
X219913522Y-106043461D01*
X219738684Y-106329798D01*
X219584652Y-106626206D01*
X219415778Y-106931144D01*
X219222924Y-107260055D01*
X218996954Y-107628381D01*
X218728729Y-108051563D01*
X218619326Y-108221455D01*
X218453531Y-108479472D01*
X218301522Y-108718744D01*
X218171998Y-108925361D01*
X218073658Y-109085415D01*
X218015200Y-109184998D01*
X218007005Y-109200468D01*
X217914150Y-109348140D01*
X217781396Y-109511130D01*
X217626833Y-109672265D01*
X217468550Y-109814369D01*
X217324635Y-109920271D01*
X217213178Y-109972795D01*
X217190563Y-109975599D01*
X217207658Y-109945878D01*
X217278103Y-109867191D01*
X217387651Y-109755247D01*
X217413236Y-109730019D01*
X217564094Y-109559691D01*
X217727604Y-109338703D01*
X217878350Y-109101851D01*
X217901115Y-109062093D01*
X218005230Y-108884096D01*
X218147997Y-108650173D01*
X218315849Y-108382021D01*
X218495221Y-108101342D01*
X218651833Y-107861202D01*
X218829527Y-107586537D01*
X219006391Y-107303975D01*
X219169071Y-107035508D01*
X219304213Y-106803124D01*
X219389546Y-106646347D01*
X219614307Y-106233508D01*
X219827806Y-105900031D01*
X220042756Y-105634849D01*
X220271871Y-105426893D01*
X220527862Y-105265096D01*
X220823445Y-105138390D01*
X221171331Y-105035708D01*
X221265717Y-105013015D01*
X221456660Y-104968225D01*
X221711858Y-104907658D01*
X222004670Y-104837674D01*
X222308454Y-104764631D01*
X222476151Y-104724104D01*
X222790452Y-104649921D01*
X223038869Y-104597120D01*
X223245685Y-104562145D01*
X223435185Y-104541441D01*
X223631655Y-104531453D01*
X223810423Y-104528787D01*
X224073336Y-104531054D01*
X224264788Y-104542593D01*
X224406624Y-104565866D01*
X224520689Y-104603334D01*
X224537666Y-104610741D01*
X224725849Y-104695422D01*
X225246393Y-104347636D01*
X225876906Y-103974526D01*
X226547304Y-103672607D01*
X227263342Y-103440343D01*
X228030774Y-103276200D01*
X228855354Y-103178642D01*
X229742835Y-103146135D01*
X229750000Y-103146133D01*
X230637993Y-103178140D01*
G37*
G36*
X231515560Y-112869488D02*
G01*
X231525293Y-112874584D01*
X231641388Y-112905390D01*
X231716408Y-112898611D01*
X231791930Y-112896461D01*
X231803062Y-112935619D01*
X231743391Y-112983969D01*
X231734204Y-112987721D01*
X231592464Y-113013047D01*
X231478301Y-112958908D01*
X231458480Y-112940380D01*
X231404417Y-112866115D01*
X231426458Y-112839516D01*
X231515560Y-112869488D01*
G37*
G36*
X229630083Y-112080948D02*
G01*
X229637786Y-112094865D01*
X229685072Y-112230685D01*
X229694385Y-112352140D01*
X229682846Y-112420963D01*
X229666275Y-112417489D01*
X229636268Y-112334066D01*
X229621363Y-112285641D01*
X229579295Y-112127788D01*
X229567149Y-112036128D01*
X229584291Y-112018051D01*
X229630083Y-112080948D01*
G37*
G36*
X234812514Y-110088033D02*
G01*
X234895488Y-110115930D01*
X234906852Y-110142269D01*
X234836733Y-110157365D01*
X234684991Y-110162506D01*
X234493335Y-110167308D01*
X234307061Y-110178274D01*
X234217219Y-110187025D01*
X234030111Y-110210312D01*
X234170442Y-110141843D01*
X234302139Y-110101669D01*
X234476245Y-110078480D01*
X234657968Y-110073521D01*
X234812514Y-110088033D01*
G37*
G36*
X228175128Y-122933952D02*
G01*
X228211345Y-123026129D01*
X228213508Y-123036299D01*
X228230489Y-123082418D01*
X228271417Y-123089503D01*
X228361066Y-123056829D01*
X228421053Y-123030246D01*
X228584602Y-122980173D01*
X228702661Y-122992079D01*
X228762689Y-123063297D01*
X228767680Y-123103922D01*
X228792153Y-123153287D01*
X228849540Y-123141759D01*
X229012412Y-123092971D01*
X229159475Y-123084435D01*
X229253806Y-123115804D01*
X229313711Y-123141756D01*
X229345463Y-123097787D01*
X229407668Y-123034816D01*
X229444481Y-123026427D01*
X229528658Y-123058795D01*
X229622729Y-123134020D01*
X229690388Y-123219285D01*
X229703223Y-123260313D01*
X229677576Y-123304823D01*
X229610287Y-123278733D01*
X229537906Y-123211771D01*
X229471375Y-123149975D01*
X229431201Y-123158413D01*
X229411389Y-123188383D01*
X229338136Y-123247310D01*
X229242413Y-123255106D01*
X229168979Y-123210768D01*
X229160294Y-123194007D01*
X229131112Y-123154827D01*
X229071009Y-123158294D01*
X228976156Y-123194007D01*
X228810343Y-123249990D01*
X228712196Y-123248917D01*
X228674903Y-123190347D01*
X228674125Y-123174555D01*
X228655391Y-123076997D01*
X228594083Y-123059768D01*
X228505250Y-123104272D01*
X228345734Y-123155854D01*
X228236602Y-123147744D01*
X228131252Y-123118663D01*
X228095848Y-123069721D01*
X228102144Y-122998891D01*
X228134160Y-122923338D01*
X228175128Y-122933952D01*
G37*
G36*
X229525782Y-110999973D02*
G01*
X229564837Y-111074862D01*
X229644234Y-111293396D01*
X229691197Y-111525174D01*
X229697699Y-111727779D01*
X229694012Y-111757502D01*
X229678896Y-111797055D01*
X229659065Y-111747078D01*
X229639571Y-111643982D01*
X229601474Y-111459406D01*
X229551403Y-111275215D01*
X229536052Y-111228801D01*
X229490312Y-111079254D01*
X229474563Y-110984797D01*
X229486992Y-110955135D01*
X229525782Y-110999973D01*
G37*
G36*
X238460668Y-118287245D02*
G01*
X238496140Y-118368971D01*
X238530672Y-118511882D01*
X238540941Y-118644114D01*
X238535235Y-118736209D01*
X238519587Y-118743289D01*
X238498071Y-118699540D01*
X238449506Y-118574413D01*
X238428299Y-118513075D01*
X238405297Y-118478502D01*
X238368826Y-118500899D01*
X238309685Y-118590223D01*
X238239264Y-118717694D01*
X238142699Y-118895722D01*
X238081070Y-118999749D01*
X238046816Y-119039116D01*
X238032377Y-119023169D01*
X238030015Y-118976305D01*
X238055068Y-118860474D01*
X238118222Y-118702677D01*
X238202745Y-118536751D01*
X238291907Y-118396530D01*
X238349179Y-118330843D01*
X238421684Y-118273669D01*
X238460668Y-118287245D01*
G37*
G36*
X221870586Y-118821624D02*
G01*
X221844554Y-118943041D01*
X221825343Y-119006937D01*
X221760355Y-119214089D01*
X221755730Y-119018046D01*
X221763780Y-118889182D01*
X221789511Y-118803742D01*
X221800994Y-118791171D01*
X221856382Y-118773805D01*
X221870586Y-118821624D01*
G37*
G36*
X233776548Y-111322509D02*
G01*
X234059803Y-111413854D01*
X234331469Y-111552464D01*
X234514043Y-111684061D01*
X234617151Y-111782064D01*
X234717970Y-111895535D01*
X234798813Y-112001959D01*
X234841996Y-112078822D01*
X234842120Y-112101739D01*
X234801667Y-112081264D01*
X234711733Y-112012423D01*
X234591767Y-111910104D01*
X234591437Y-111909811D01*
X234264566Y-111667914D01*
X233910030Y-111491745D01*
X233550877Y-111392046D01*
X233453374Y-111379368D01*
X233295174Y-111362261D01*
X233220526Y-111347302D01*
X233219614Y-111330768D01*
X233274141Y-111311339D01*
X233506421Y-111285861D01*
X233776548Y-111322509D01*
G37*
G36*
X222641070Y-118458776D02*
G01*
X222664866Y-118459797D01*
X222735061Y-118439813D01*
X222814712Y-118337472D01*
X222899703Y-118162985D01*
X222985919Y-117926561D01*
X223069247Y-117638409D01*
X223145571Y-117308738D01*
X223162101Y-117226059D01*
X223221399Y-116825740D01*
X223260939Y-116347721D01*
X223280950Y-115805699D01*
X223281663Y-115213369D01*
X223263307Y-114584427D01*
X223226112Y-113932566D01*
X223170308Y-113271484D01*
X223096124Y-112614875D01*
X223083049Y-112514789D01*
X223037778Y-112115019D01*
X223019236Y-111779345D01*
X223027503Y-111482185D01*
X223062657Y-111197958D01*
X223087487Y-111066400D01*
X223189792Y-110657490D01*
X223331219Y-110242347D01*
X223517704Y-109807871D01*
X223755178Y-109340962D01*
X224049577Y-108828520D01*
X224244490Y-108512050D01*
X224464760Y-108158145D01*
X224641374Y-107864475D01*
X224783167Y-107613833D01*
X224898976Y-107389015D01*
X224997636Y-107172816D01*
X225087985Y-106948030D01*
X225178859Y-106697453D01*
X225183968Y-106682808D01*
X225217572Y-106610490D01*
X225236265Y-106617506D01*
X225238523Y-106690598D01*
X225222820Y-106816508D01*
X225208168Y-106893174D01*
X225163291Y-107073750D01*
X225101423Y-107259018D01*
X225016362Y-107461930D01*
X224901905Y-107695441D01*
X224751849Y-107972502D01*
X224559992Y-108306067D01*
X224411793Y-108556204D01*
X224111754Y-109069477D01*
X223863881Y-109518515D01*
X223663312Y-109913247D01*
X223505181Y-110263598D01*
X223384625Y-110579498D01*
X223320501Y-110783645D01*
X223238107Y-111104833D01*
X223188329Y-111391360D01*
X223169250Y-111673768D01*
X223178954Y-111982597D01*
X223215523Y-112348390D01*
X223220001Y-112384623D01*
X223270928Y-112820138D01*
X223317688Y-113274252D01*
X223358705Y-113727310D01*
X223392405Y-114159660D01*
X223417210Y-114551648D01*
X223431547Y-114883620D01*
X223434509Y-115060241D01*
X223455838Y-115485294D01*
X223514495Y-115929124D01*
X223535614Y-116042561D01*
X223579375Y-116292981D01*
X223614559Y-116551754D01*
X223636319Y-116780196D01*
X223640863Y-116882385D01*
X223647237Y-117036591D01*
X223659761Y-117137602D01*
X223675920Y-117166755D01*
X223678715Y-117163439D01*
X223727698Y-117132559D01*
X223775816Y-117176164D01*
X223812813Y-117275659D01*
X223828431Y-117412450D01*
X223828305Y-117434643D01*
X223831704Y-117561306D01*
X223853766Y-117613273D01*
X223894897Y-117611271D01*
X223943976Y-117609602D01*
X223934900Y-117664751D01*
X223927522Y-117719626D01*
X223950168Y-117716888D01*
X223981607Y-117736867D01*
X223996110Y-117830383D01*
X223996409Y-117850411D01*
X224003557Y-117957574D01*
X224036147Y-117994087D01*
X224097285Y-117986133D01*
X224166145Y-117978352D01*
X224183197Y-118022297D01*
X224172628Y-118095761D01*
X224165896Y-118228547D01*
X224183783Y-118325322D01*
X224213200Y-118386035D01*
X224238274Y-118368108D01*
X224265216Y-118303579D01*
X224296262Y-118232121D01*
X224318845Y-118232129D01*
X224348914Y-118311364D01*
X224361339Y-118350356D01*
X224405232Y-118510836D01*
X224443316Y-118684618D01*
X224446040Y-118699540D01*
X224470328Y-118801005D01*
X224492405Y-118837009D01*
X224499058Y-118828177D01*
X224535572Y-118765091D01*
X224568818Y-118784548D01*
X224593517Y-118875560D01*
X224604387Y-119027137D01*
X224604512Y-119047608D01*
X224611820Y-119200818D01*
X224630763Y-119313371D01*
X224651289Y-119354420D01*
X224689318Y-119341447D01*
X224698066Y-119296370D01*
X224721093Y-119198136D01*
X224744162Y-119163316D01*
X224772674Y-119098632D01*
X224809002Y-118965809D01*
X224846830Y-118789190D01*
X224860293Y-118715603D01*
X225012547Y-118088096D01*
X225252332Y-117442970D01*
X225576754Y-116786589D01*
X225982913Y-116125315D01*
X226146643Y-115889987D01*
X226363050Y-115583428D01*
X226531254Y-115331319D01*
X226661439Y-115115013D01*
X226763791Y-114915864D01*
X226848493Y-114715224D01*
X226925730Y-114494446D01*
X226949355Y-114420261D01*
X227025273Y-114221948D01*
X227132663Y-113997761D01*
X227257479Y-113772054D01*
X227385679Y-113569183D01*
X227503218Y-113413501D01*
X227566794Y-113349521D01*
X227621381Y-113311392D01*
X227637839Y-113321324D01*
X227613233Y-113386896D01*
X227544626Y-113515685D01*
X227429081Y-113715268D01*
X227417331Y-113735181D01*
X227238183Y-114051540D01*
X227091636Y-114344386D01*
X226956369Y-114658179D01*
X226875755Y-114864472D01*
X226747460Y-115148585D01*
X226556911Y-115488717D01*
X226302098Y-115888305D01*
X226126852Y-116144676D01*
X225810325Y-116650781D01*
X225525424Y-117209324D01*
X225282500Y-117794741D01*
X225091905Y-118381468D01*
X224963991Y-118943943D01*
X224945164Y-119062758D01*
X224901685Y-119645166D01*
X224938156Y-120217838D01*
X225053084Y-120760213D01*
X225073145Y-120825651D01*
X225125290Y-121026661D01*
X225145431Y-121190833D01*
X225140375Y-121258340D01*
X225132226Y-121356270D01*
X225171571Y-121388839D01*
X225180505Y-121389227D01*
X225257292Y-121431832D01*
X225299551Y-121552344D01*
X225306170Y-121650327D01*
X225322080Y-121731365D01*
X225388425Y-121760929D01*
X225446501Y-121763444D01*
X225549219Y-121778146D01*
X225585385Y-121832848D01*
X225586833Y-121856998D01*
X225556348Y-121934183D01*
X225513906Y-121950553D01*
X225465489Y-121927876D01*
X225469890Y-121903776D01*
X225453329Y-121869089D01*
X225379096Y-121856998D01*
X225292827Y-121845376D01*
X225267066Y-121821915D01*
X225260348Y-121711463D01*
X225210503Y-121603790D01*
X225138129Y-121536628D01*
X225107474Y-121529558D01*
X225052378Y-121520722D01*
X225029096Y-121478730D01*
X225031007Y-121380351D01*
X225040365Y-121294076D01*
X225040330Y-121041937D01*
X224980827Y-120767833D01*
X224891537Y-120441542D01*
X224828263Y-120147924D01*
X224795359Y-119908719D01*
X224791621Y-119823715D01*
X224774501Y-119637456D01*
X224722899Y-119537402D01*
X224668515Y-119518140D01*
X224600790Y-119475370D01*
X224546560Y-119362900D01*
X224515170Y-119204494D01*
X224510958Y-119117489D01*
X224496640Y-119004410D01*
X224457205Y-118968138D01*
X224455060Y-118968508D01*
X224414065Y-118932586D01*
X224375082Y-118817830D01*
X224356373Y-118724791D01*
X224329303Y-118583266D01*
X224305131Y-118521015D01*
X224276077Y-118524373D01*
X224255877Y-118548297D01*
X224209749Y-118596374D01*
X224171647Y-118572570D01*
X224137478Y-118513809D01*
X224089020Y-118377729D01*
X224071680Y-118264852D01*
X224046327Y-118158734D01*
X223996409Y-118133757D01*
X223941963Y-118099126D01*
X223913476Y-117981660D01*
X223911725Y-117962799D01*
X223890652Y-117842768D01*
X223845299Y-117793013D01*
X223806477Y-117787385D01*
X223734633Y-117772428D01*
X223721285Y-117752302D01*
X223723556Y-117685953D01*
X223721950Y-117568405D01*
X223721285Y-117546184D01*
X223709979Y-117434184D01*
X223676894Y-117393868D01*
X223626553Y-117398474D01*
X223566837Y-117400831D01*
X223546642Y-117349401D01*
X223549491Y-117265457D01*
X223548921Y-117137985D01*
X223535505Y-116958794D01*
X223514159Y-116781676D01*
X223489532Y-116631631D01*
X223467218Y-116552557D01*
X223444513Y-116548770D01*
X223418714Y-116624583D01*
X223387117Y-116784313D01*
X223347019Y-117032273D01*
X223343729Y-117053663D01*
X223290512Y-117339351D01*
X223217684Y-117608950D01*
X223116250Y-117888557D01*
X222977215Y-118204269D01*
X222872490Y-118420901D01*
X222778727Y-118615879D01*
X222703046Y-118783943D01*
X222654069Y-118905243D01*
X222639871Y-118956499D01*
X222624055Y-118993888D01*
X222588599Y-118965954D01*
X222551494Y-118893024D01*
X222536655Y-118839871D01*
X222517778Y-118798165D01*
X222483534Y-118824279D01*
X222423787Y-118926840D01*
X222415172Y-118943256D01*
X222353071Y-119081263D01*
X222316528Y-119199140D01*
X222312431Y-119232853D01*
X222291364Y-119323176D01*
X222265654Y-119354420D01*
X222234612Y-119333748D01*
X222219574Y-119235954D01*
X222218877Y-119200713D01*
X222241247Y-119074301D01*
X222299845Y-118920702D01*
X222381898Y-118761132D01*
X222474634Y-118616810D01*
X222523045Y-118559208D01*
X222639871Y-118559208D01*
X222663260Y-118582597D01*
X222686648Y-118559208D01*
X222663260Y-118535820D01*
X222639871Y-118559208D01*
X222523045Y-118559208D01*
X222565282Y-118508952D01*
X222641070Y-118458776D01*
G37*
G36*
X229960240Y-121450974D02*
G01*
X230133325Y-121458725D01*
X230247899Y-121470218D01*
X230286885Y-121484286D01*
X230286530Y-121485059D01*
X230230416Y-121514958D01*
X230113680Y-121550704D01*
X229968306Y-121584865D01*
X229826279Y-121610009D01*
X229719584Y-121618703D01*
X229712615Y-121618414D01*
X229616942Y-121605008D01*
X229480211Y-121577726D01*
X229446757Y-121570106D01*
X229296838Y-121528870D01*
X229237706Y-121496365D01*
X229269907Y-121472368D01*
X229393989Y-121456656D01*
X229610499Y-121449006D01*
X229745722Y-121448131D01*
X229960240Y-121450974D01*
G37*
G36*
X224856370Y-110282622D02*
G01*
X225022268Y-110295191D01*
X225156485Y-110322836D01*
X225289914Y-110371039D01*
X225387351Y-110414371D01*
X225543232Y-110491906D01*
X225667768Y-110563914D01*
X225732213Y-110613174D01*
X225758764Y-110665557D01*
X225715792Y-110667859D01*
X225612502Y-110620536D01*
X225586833Y-110605980D01*
X225482892Y-110557577D01*
X225323918Y-110496615D01*
X225148788Y-110437735D01*
X224959313Y-110385806D01*
X224786784Y-110359221D01*
X224591520Y-110353923D01*
X224404165Y-110361598D01*
X224205325Y-110370732D01*
X224089649Y-110369766D01*
X224047204Y-110357841D01*
X224068057Y-110334095D01*
X224070386Y-110332698D01*
X224156724Y-110309065D01*
X224313047Y-110291095D01*
X224515851Y-110281025D01*
X224627901Y-110279650D01*
X224856370Y-110282622D01*
G37*
G36*
X232997381Y-109914378D02*
G01*
X232918209Y-110042308D01*
X232886764Y-110088627D01*
X232799514Y-110230775D01*
X232734710Y-110363868D01*
X232717862Y-110413243D01*
X232678534Y-110519019D01*
X232637066Y-110564287D01*
X232608358Y-110538869D01*
X232603407Y-110491406D01*
X232640336Y-110313408D01*
X232739094Y-110121887D01*
X232878309Y-109955153D01*
X232977388Y-109870126D01*
X233017093Y-109856760D01*
X232997381Y-109914378D01*
G37*
G36*
X217424862Y-112401742D02*
G01*
X217456018Y-112161017D01*
X217470221Y-112057183D01*
X217535478Y-111589411D01*
X217522998Y-112118797D01*
X217518850Y-112343508D01*
X217519939Y-112485402D01*
X217527493Y-112555130D01*
X217542739Y-112563342D01*
X217566904Y-112520692D01*
X217568817Y-112516403D01*
X217627116Y-112384623D01*
X217630916Y-112513770D01*
X217615608Y-112620507D01*
X217573025Y-112757314D01*
X217515425Y-112895494D01*
X217455065Y-113006346D01*
X217404205Y-113061174D01*
X217396364Y-113062892D01*
X217378316Y-113020783D01*
X217373508Y-112911663D01*
X217380194Y-112793923D01*
X217388862Y-112712063D01*
X217447606Y-112712063D01*
X217470995Y-112735451D01*
X217494383Y-112712063D01*
X217470995Y-112688674D01*
X217447606Y-112712063D01*
X217388862Y-112712063D01*
X217398052Y-112625273D01*
X217424862Y-112401742D01*
G37*
G36*
X241777423Y-112789642D02*
G01*
X241857970Y-112867976D01*
X241865938Y-112876481D01*
X241972546Y-112966005D01*
X242074129Y-113013701D01*
X242094550Y-113016114D01*
X242173036Y-113034874D01*
X242192726Y-113062892D01*
X242155572Y-113103148D01*
X242061374Y-113101618D01*
X241936030Y-113059797D01*
X241909118Y-113046528D01*
X241789230Y-112983964D01*
X241850646Y-113220730D01*
X241899880Y-113498098D01*
X241911573Y-113784091D01*
X241887838Y-114054161D01*
X241830788Y-114283764D01*
X241745305Y-114444979D01*
X241692993Y-114504981D01*
X241685605Y-114486569D01*
X241702096Y-114419429D01*
X241731830Y-114247505D01*
X241751453Y-114014272D01*
X241760056Y-113751523D01*
X241756730Y-113491051D01*
X241740567Y-113264648D01*
X241736115Y-113229169D01*
X241716714Y-113053615D01*
X241708655Y-112906617D01*
X241713607Y-112820566D01*
X241735663Y-112776173D01*
X241777423Y-112789642D01*
G37*
G36*
X228246627Y-112490163D02*
G01*
X228198201Y-112580517D01*
X228119242Y-112671195D01*
X228035294Y-112730285D01*
X227928516Y-112774243D01*
X227883998Y-112777259D01*
X227878914Y-112763518D01*
X227909378Y-112716065D01*
X227984430Y-112636661D01*
X228079561Y-112547711D01*
X228170261Y-112471622D01*
X228232019Y-112430798D01*
X228243846Y-112429911D01*
X228246627Y-112490163D01*
G37*
G36*
X228054317Y-112958763D02*
G01*
X228026583Y-113030280D01*
X228020183Y-113038373D01*
X227945723Y-113087012D01*
X227849012Y-113108317D01*
X227767643Y-113099014D01*
X227738582Y-113062892D01*
X227777315Y-113023571D01*
X227822781Y-113016114D01*
X227926040Y-112986960D01*
X227962333Y-112960761D01*
X228026381Y-112926844D01*
X228054317Y-112958763D01*
G37*
G36*
X227847369Y-117702903D02*
G01*
X227899086Y-117440698D01*
X228028834Y-117155955D01*
X228232483Y-116917495D01*
X228495902Y-116739929D01*
X228631570Y-116683300D01*
X228805193Y-116643402D01*
X229049934Y-116614122D01*
X229343960Y-116595461D01*
X229665440Y-116587417D01*
X229992541Y-116589992D01*
X230303431Y-116603186D01*
X230576279Y-116626998D01*
X230789251Y-116661428D01*
X230868430Y-116683300D01*
X231154346Y-116828359D01*
X231386913Y-117040952D01*
X231552003Y-117306469D01*
X231600915Y-117440698D01*
X231659088Y-117768463D01*
X231657618Y-118117267D01*
X231599014Y-118452067D01*
X231511612Y-118688464D01*
X231317960Y-118985967D01*
X231055786Y-119245611D01*
X230745997Y-119452711D01*
X230409501Y-119592582D01*
X230150077Y-119644752D01*
X230001238Y-119664735D01*
X229920851Y-119694098D01*
X229883902Y-119746228D01*
X229872285Y-119793412D01*
X229824092Y-120095915D01*
X229811051Y-120331524D01*
X229839270Y-120522277D01*
X229914854Y-120690212D01*
X230043912Y-120857367D01*
X230214678Y-121028986D01*
X230572795Y-121339914D01*
X230944073Y-121603436D01*
X231364632Y-121844591D01*
X231465524Y-121896211D01*
X231637676Y-121986160D01*
X231776731Y-122065236D01*
X231861984Y-122121370D01*
X231877585Y-122136405D01*
X231893095Y-122169882D01*
X231874311Y-122179434D01*
X231805815Y-122162325D01*
X231672188Y-122115818D01*
X231587759Y-122084959D01*
X231188466Y-121903523D01*
X230774959Y-121651865D01*
X230370882Y-121345315D01*
X230165233Y-121162640D01*
X229750000Y-120772333D01*
X229334767Y-121162640D01*
X228945586Y-121492424D01*
X228534226Y-121775583D01*
X228124332Y-121996785D01*
X227912242Y-122084959D01*
X227709786Y-122154148D01*
X227591254Y-122182092D01*
X227556662Y-122168788D01*
X227577467Y-122139734D01*
X227637263Y-122100456D01*
X227760021Y-122032667D01*
X227924205Y-121948019D01*
X228013156Y-121903966D01*
X228471541Y-121655682D01*
X228873931Y-121381211D01*
X229257885Y-121054720D01*
X229285322Y-121028986D01*
X229468840Y-120843149D01*
X229593280Y-120676760D01*
X229664747Y-120507783D01*
X229689350Y-120314179D01*
X229673195Y-120073910D01*
X229627716Y-119793412D01*
X229604718Y-119721437D01*
X229553132Y-119680174D01*
X229447941Y-119656239D01*
X229349923Y-119644752D01*
X229007114Y-119565467D01*
X228675203Y-119407849D01*
X228375097Y-119186583D01*
X228127704Y-118916353D01*
X227988388Y-118688464D01*
X227885438Y-118390588D01*
X227842009Y-118081770D01*
X227973286Y-118081770D01*
X227975905Y-118212446D01*
X227993344Y-118297195D01*
X228029959Y-118359730D01*
X228078696Y-118412415D01*
X228201133Y-118498442D01*
X228296232Y-118503557D01*
X228385115Y-118459419D01*
X228445926Y-118369688D01*
X228489217Y-118214893D01*
X228506220Y-118116047D01*
X228559040Y-117917298D01*
X228650227Y-117797100D01*
X228789777Y-117744854D01*
X228860330Y-117740608D01*
X229045135Y-117779898D01*
X229175905Y-117890980D01*
X229243688Y-118063672D01*
X229250751Y-118184756D01*
X229217917Y-118401481D01*
X229132796Y-118558241D01*
X228986569Y-118661484D01*
X228770415Y-118717662D01*
X228500691Y-118733323D01*
X228155603Y-118733323D01*
X228268207Y-118879339D01*
X228472447Y-119090403D01*
X228727789Y-119273766D01*
X229007325Y-119414929D01*
X229284151Y-119499392D01*
X229451522Y-119517030D01*
X229574794Y-119512231D01*
X229635345Y-119479803D01*
X229663946Y-119395552D01*
X229673199Y-119342726D01*
X229689272Y-119197220D01*
X229700024Y-119007841D01*
X229702708Y-118874954D01*
X229709822Y-118721046D01*
X229727994Y-118615889D01*
X229750000Y-118582597D01*
X229774701Y-118625364D01*
X229791724Y-118737784D01*
X229797292Y-118874954D01*
X229802414Y-119065426D01*
X229815064Y-119247010D01*
X229826801Y-119342726D01*
X229852793Y-119457110D01*
X229900728Y-119506467D01*
X230002881Y-119517984D01*
X230035029Y-119518140D01*
X230293705Y-119480694D01*
X230574015Y-119378051D01*
X230848666Y-119224757D01*
X231090366Y-119035355D01*
X231232230Y-118880152D01*
X231344397Y-118733323D01*
X230999310Y-118733323D01*
X230710655Y-118714923D01*
X230500081Y-118655421D01*
X230358768Y-118548368D01*
X230277896Y-118387313D01*
X230249249Y-118184756D01*
X230277450Y-117981728D01*
X230373698Y-117834552D01*
X230529043Y-117753410D01*
X230639670Y-117740608D01*
X230801049Y-117768961D01*
X230910122Y-117861085D01*
X230976885Y-118027578D01*
X230993781Y-118116047D01*
X231032543Y-118307465D01*
X231083952Y-118424824D01*
X231158559Y-118487598D01*
X231203768Y-118503557D01*
X231317468Y-118490648D01*
X231421304Y-118412415D01*
X231477385Y-118350217D01*
X231510631Y-118285715D01*
X231525399Y-118195197D01*
X231526047Y-118054948D01*
X231518872Y-117881453D01*
X231483220Y-117559970D01*
X231404584Y-117309218D01*
X231273469Y-117112573D01*
X231080381Y-116953410D01*
X230944567Y-116875947D01*
X230668770Y-116734899D01*
X228831231Y-116734899D01*
X228555433Y-116875947D01*
X228324277Y-117021599D01*
X228160308Y-117195605D01*
X228054032Y-117414589D01*
X227995952Y-117695175D01*
X227981128Y-117881453D01*
X227973286Y-118081770D01*
X227842009Y-118081770D01*
X227837596Y-118050387D01*
X227847369Y-117702903D01*
G37*
G36*
X241920401Y-109917025D02*
G01*
X242018398Y-109971623D01*
X242118680Y-110034328D01*
X242230719Y-110115130D01*
X242292054Y-110175606D01*
X242292802Y-110199515D01*
X242280121Y-110247983D01*
X242325108Y-110359347D01*
X242356707Y-110416208D01*
X242435992Y-110557979D01*
X242467982Y-110637855D01*
X242456998Y-110671967D01*
X242426612Y-110677256D01*
X242381117Y-110650148D01*
X242379834Y-110641945D01*
X242353412Y-110591339D01*
X242282595Y-110485172D01*
X242180055Y-110342014D01*
X242120537Y-110261954D01*
X242009049Y-110110175D01*
X241925089Y-109988967D01*
X241880352Y-109915580D01*
X241876511Y-109902004D01*
X241920401Y-109917025D01*
G37*
G36*
X217718018Y-112772989D02*
G01*
X217710378Y-112840700D01*
X217686346Y-112977212D01*
X217667664Y-113174951D01*
X217655191Y-113405829D01*
X217649791Y-113641758D01*
X217652325Y-113854649D01*
X217663655Y-114016414D01*
X217672702Y-114068601D01*
X217718871Y-114255709D01*
X217723570Y-114074122D01*
X217745642Y-113942632D01*
X217796590Y-113799299D01*
X217862522Y-113672863D01*
X217929542Y-113592066D01*
X217963683Y-113577440D01*
X217970354Y-113615005D01*
X217941637Y-113710562D01*
X217914118Y-113776243D01*
X217856487Y-113946583D01*
X217824854Y-114124162D01*
X217822851Y-114166053D01*
X217802593Y-114305068D01*
X217750412Y-114358364D01*
X217676275Y-114323875D01*
X217597242Y-114212830D01*
X217555380Y-114087304D01*
X217529797Y-113908288D01*
X217519275Y-113694588D01*
X217522593Y-113465012D01*
X217538533Y-113238367D01*
X217565875Y-113033460D01*
X217603400Y-112869098D01*
X217649888Y-112764089D01*
X217693027Y-112735451D01*
X217718018Y-112772989D01*
G37*
G36*
X241938879Y-110490663D02*
G01*
X241993923Y-110527070D01*
X242119939Y-110599769D01*
X242280049Y-110672997D01*
X242333057Y-110693424D01*
X242543554Y-110769708D01*
X242155430Y-110745854D01*
X242276121Y-110980524D01*
X242374906Y-111265846D01*
X242404421Y-111581584D01*
X242364205Y-111894771D01*
X242291731Y-112100354D01*
X242183018Y-112330635D01*
X242095460Y-112082007D01*
X242042400Y-111940678D01*
X241997842Y-111838234D01*
X241978028Y-111804949D01*
X241964016Y-111822312D01*
X241971063Y-111910486D01*
X241995507Y-112050056D01*
X242033685Y-112221603D01*
X242081935Y-112405711D01*
X242108073Y-112494392D01*
X242159433Y-112680957D01*
X242175280Y-112788481D01*
X242155892Y-112814552D01*
X242101546Y-112756756D01*
X242081301Y-112727050D01*
X241948955Y-112443599D01*
X241878030Y-112092518D01*
X241865286Y-111835077D01*
X241867069Y-111651118D01*
X241874784Y-111545588D01*
X241891980Y-111503391D01*
X241922206Y-111509432D01*
X241938870Y-111522083D01*
X242016930Y-111615852D01*
X242099354Y-111756099D01*
X242165709Y-111903190D01*
X242195564Y-112017495D01*
X242195691Y-112020236D01*
X242206186Y-112059867D01*
X242235422Y-112013772D01*
X242246870Y-111987017D01*
X242277589Y-111827006D01*
X242271771Y-111611598D01*
X242235444Y-111366648D01*
X242174638Y-111118009D01*
X242095380Y-110891535D01*
X242003700Y-110713080D01*
X241929368Y-110625430D01*
X241873332Y-110544006D01*
X241865286Y-110504623D01*
X241880729Y-110468964D01*
X241938879Y-110490663D01*
G37*
G36*
X231311158Y-123007035D02*
G01*
X231400244Y-123036199D01*
X231433978Y-123078276D01*
X231394755Y-123112175D01*
X231340424Y-123119982D01*
X231264412Y-123139571D01*
X231246869Y-123166759D01*
X231208653Y-123204627D01*
X231116620Y-123210268D01*
X231004693Y-123183922D01*
X230962437Y-123164742D01*
X230884130Y-123141409D01*
X230843565Y-123188130D01*
X230777959Y-123243602D01*
X230661366Y-123258888D01*
X230526574Y-123235445D01*
X230406369Y-123174735D01*
X230398368Y-123168315D01*
X230340730Y-123102545D01*
X230357716Y-123074818D01*
X230436051Y-123091142D01*
X230501510Y-123121628D01*
X230574435Y-123146153D01*
X230591989Y-123116623D01*
X230626217Y-123084678D01*
X230665630Y-123091454D01*
X230755234Y-123084930D01*
X230809210Y-123049774D01*
X230890037Y-123004966D01*
X230972445Y-123029766D01*
X231073960Y-123054691D01*
X231128442Y-123027659D01*
X231207015Y-123001945D01*
X231311158Y-123007035D01*
G37*
G36*
X234407854Y-109937206D02*
G01*
X234418173Y-109950925D01*
X234357082Y-109980511D01*
X234216542Y-110031698D01*
X234177827Y-110045159D01*
X234006675Y-110110569D01*
X233863067Y-110176402D01*
X233777537Y-110228632D01*
X233776538Y-110229523D01*
X233684464Y-110295085D01*
X233637164Y-110288039D01*
X233632505Y-110263512D01*
X233674828Y-110181471D01*
X233786100Y-110096477D01*
X233942770Y-110019602D01*
X234121289Y-109961916D01*
X234298109Y-109934493D01*
X234334162Y-109933619D01*
X234407854Y-109937206D01*
G37*
G36*
X235226712Y-111826101D02*
G01*
X235323537Y-111886811D01*
X235395023Y-111955236D01*
X235410037Y-111989669D01*
X235391456Y-112026004D01*
X235326275Y-112010779D01*
X235211318Y-111947657D01*
X235111648Y-111873548D01*
X235085751Y-111820919D01*
X235138377Y-111799945D01*
X235142354Y-111799908D01*
X235226712Y-111826101D01*
G37*
G36*
X227930143Y-110733184D02*
G01*
X227946114Y-110783104D01*
X227964101Y-110940733D01*
X227948665Y-111126985D01*
X227906172Y-111299872D01*
X227851402Y-111407680D01*
X227806764Y-111457446D01*
X227795184Y-111440765D01*
X227810705Y-111345797D01*
X227813400Y-111332136D01*
X227838319Y-111188052D01*
X227865264Y-111005408D01*
X227877583Y-110911142D01*
X227896821Y-110771796D01*
X227912586Y-110715756D01*
X227930143Y-110733184D01*
G37*
G36*
X232503438Y-110060883D02*
G01*
X232465359Y-110156842D01*
X232417835Y-110253250D01*
X232361019Y-110400766D01*
X232310946Y-110592176D01*
X232286507Y-110730852D01*
X232264588Y-110884978D01*
X232248274Y-110955729D01*
X232232767Y-110952702D01*
X232213268Y-110885496D01*
X232211949Y-110879981D01*
X232196624Y-110676086D01*
X232231525Y-110453952D01*
X232307091Y-110247977D01*
X232413762Y-110092560D01*
X232436603Y-110071713D01*
X232493637Y-110034587D01*
X232503438Y-110060883D01*
G37*
G36*
X235293103Y-110569840D02*
G01*
X235507361Y-110606124D01*
X235675832Y-110666283D01*
X235830985Y-110759996D01*
X235913187Y-110836906D01*
X235915674Y-110888869D01*
X235868922Y-110878186D01*
X235777565Y-110828267D01*
X235758964Y-110816334D01*
X235519226Y-110706312D01*
X235236804Y-110650637D01*
X234949402Y-110655797D01*
X234886748Y-110666233D01*
X234718318Y-110695662D01*
X234636317Y-110698863D01*
X234637109Y-110674927D01*
X234716068Y-110623501D01*
X234864254Y-110577049D01*
X235067666Y-110559655D01*
X235293103Y-110569840D01*
G37*
G36*
X228295058Y-111948398D02*
G01*
X228298200Y-112001034D01*
X228259594Y-112197721D01*
X228152467Y-112372031D01*
X228018453Y-112478586D01*
X227925775Y-112514743D01*
X227879960Y-112509540D01*
X227878914Y-112504413D01*
X227915366Y-112447695D01*
X227968717Y-112410019D01*
X228037804Y-112342834D01*
X228121257Y-112220302D01*
X228177506Y-112116015D01*
X228243186Y-111985456D01*
X228279522Y-111932297D01*
X228295058Y-111948398D01*
G37*
G36*
X225291276Y-109996613D02*
G01*
X225454890Y-110027870D01*
X225641233Y-110089848D01*
X225829135Y-110171876D01*
X225997427Y-110263282D01*
X226124937Y-110353392D01*
X226190498Y-110431536D01*
X226194936Y-110452167D01*
X226164991Y-110488197D01*
X226106000Y-110472533D01*
X226077443Y-110442481D01*
X226012514Y-110387921D01*
X225882638Y-110312176D01*
X225710616Y-110226499D01*
X225519251Y-110142144D01*
X225331345Y-110070366D01*
X225306170Y-110061813D01*
X225048895Y-109976015D01*
X225291276Y-109996613D01*
G37*
G36*
X235404170Y-110835948D02*
G01*
X235564224Y-110882605D01*
X235695588Y-110944926D01*
X235757916Y-110999923D01*
X235770060Y-111038894D01*
X235727925Y-111041656D01*
X235618783Y-111007067D01*
X235550368Y-110981308D01*
X235384756Y-110936195D01*
X235212223Y-110914789D01*
X235208473Y-110914701D01*
X235092626Y-110899125D01*
X235059319Y-110868319D01*
X235102333Y-110836621D01*
X235215452Y-110818374D01*
X235250580Y-110817588D01*
X235404170Y-110835948D01*
G37*
G36*
X225743234Y-122022380D02*
G01*
X225773941Y-122114273D01*
X225757929Y-122202182D01*
X225727164Y-122231216D01*
X225685664Y-122193328D01*
X225680387Y-122161050D01*
X225640372Y-122104064D01*
X225575138Y-122090168D01*
X225506788Y-122082782D01*
X225523592Y-122055267D01*
X225540055Y-122044107D01*
X225659823Y-121996681D01*
X225743234Y-122022380D01*
G37*
G36*
X234380939Y-121436004D02*
G01*
X234343052Y-121477504D01*
X234310774Y-121482781D01*
X234257771Y-121520055D01*
X234240611Y-121637143D01*
X234240608Y-121639225D01*
X234207801Y-121792256D01*
X234124054Y-121928897D01*
X234011375Y-122021057D01*
X233923373Y-122044107D01*
X233838153Y-122072213D01*
X233819613Y-122117614D01*
X233792223Y-122198504D01*
X233731399Y-122281652D01*
X233669162Y-122324366D01*
X233664239Y-122324770D01*
X233631327Y-122287918D01*
X233614121Y-122250778D01*
X233588242Y-122162872D01*
X233612008Y-122141330D01*
X233651604Y-122152931D01*
X233713918Y-122135519D01*
X233746049Y-122064382D01*
X233803742Y-121970087D01*
X233867282Y-121950553D01*
X233943942Y-121918014D01*
X233959945Y-121851543D01*
X233979738Y-121778787D01*
X234053191Y-121776917D01*
X234053499Y-121776998D01*
X234118334Y-121779637D01*
X234143806Y-121725758D01*
X234147054Y-121651477D01*
X234163600Y-121528849D01*
X234203186Y-121445359D01*
X234282543Y-121397375D01*
X234354156Y-121396153D01*
X234380939Y-121436004D01*
G37*
G36*
X229953089Y-123061274D02*
G01*
X230036342Y-123099530D01*
X230129991Y-123135385D01*
X230170727Y-123124328D01*
X230170995Y-123121183D01*
X230205858Y-123074791D01*
X230217772Y-123073205D01*
X230255777Y-123112383D01*
X230264549Y-123166759D01*
X230231224Y-123240706D01*
X230152635Y-123259189D01*
X230060861Y-123219381D01*
X230028516Y-123187561D01*
X229981236Y-123147975D01*
X229931512Y-123167602D01*
X229860751Y-123246032D01*
X229790260Y-123325372D01*
X229758991Y-123334555D01*
X229751682Y-123287385D01*
X229780564Y-123182315D01*
X229825845Y-123113706D01*
X229887636Y-123060194D01*
X229953089Y-123061274D01*
G37*
G36*
X231628743Y-110785585D02*
G01*
X231646517Y-110886112D01*
X231652346Y-111001683D01*
X231661041Y-111169658D01*
X231676753Y-111311645D01*
X231689801Y-111374341D01*
X231696747Y-111451434D01*
X231674168Y-111472468D01*
X231625019Y-111433598D01*
X231595333Y-111371461D01*
X231571443Y-111247120D01*
X231561351Y-111091071D01*
X231564728Y-110936719D01*
X231581246Y-110817469D01*
X231601232Y-110771954D01*
X231628743Y-110785585D01*
G37*
G36*
X235400125Y-111163611D02*
G01*
X235647754Y-111226653D01*
X235837211Y-111362177D01*
X235906882Y-111451191D01*
X235962198Y-111550106D01*
X235954758Y-111580827D01*
X235885910Y-111543303D01*
X235778257Y-111456101D01*
X235622692Y-111343035D01*
X235446874Y-111245062D01*
X235404040Y-111226295D01*
X235199540Y-111143842D01*
X235400125Y-111163611D01*
G37*
G36*
X231370997Y-111880548D02*
G01*
X231447999Y-112034361D01*
X231551519Y-112168805D01*
X231577801Y-112193274D01*
X231665897Y-112273642D01*
X231712456Y-112328287D01*
X231714641Y-112334826D01*
X231685666Y-112364408D01*
X231608654Y-112332273D01*
X231498476Y-112245950D01*
X231452689Y-112202192D01*
X231348082Y-112079428D01*
X231303283Y-111965058D01*
X231297340Y-111863057D01*
X231301032Y-111682965D01*
X231370997Y-111880548D01*
G37*
G36*
X226225859Y-111311339D02*
G01*
X226283206Y-111332511D01*
X226275699Y-111348735D01*
X226193523Y-111363738D01*
X226046626Y-111379368D01*
X225686683Y-111457034D01*
X225324480Y-111616622D01*
X224979407Y-111849040D01*
X224896869Y-111918530D01*
X224776810Y-112018533D01*
X224689317Y-112080676D01*
X224651651Y-112092850D01*
X224651289Y-112090784D01*
X224687020Y-112009903D01*
X224781635Y-111894718D01*
X224916266Y-111762954D01*
X225072046Y-111632339D01*
X225230108Y-111520598D01*
X225304333Y-111477221D01*
X225568334Y-111365537D01*
X225839899Y-111300916D01*
X226089460Y-111288681D01*
X226225859Y-111311339D01*
G37*
G36*
X218073929Y-113826385D02*
G01*
X218127289Y-113972640D01*
X218139500Y-114010476D01*
X218203311Y-114247158D01*
X218256042Y-114510570D01*
X218293988Y-114773546D01*
X218313442Y-115008919D01*
X218310700Y-115189521D01*
X218305412Y-115226775D01*
X218276967Y-115378361D01*
X218446655Y-115217495D01*
X218551868Y-115106294D01*
X218626025Y-115006922D01*
X218643230Y-114971915D01*
X218682543Y-114893525D01*
X218713467Y-114894228D01*
X218722310Y-114959712D01*
X218707324Y-115038918D01*
X218667872Y-115274018D01*
X218683976Y-115530983D01*
X218757290Y-115834811D01*
X218760642Y-115845726D01*
X218814440Y-116038511D01*
X218832375Y-116150440D01*
X218814830Y-116179814D01*
X218762189Y-116124934D01*
X218714245Y-116051395D01*
X218649644Y-115915103D01*
X218594168Y-115746069D01*
X218554743Y-115574263D01*
X218538297Y-115429654D01*
X218550718Y-115343951D01*
X218540795Y-115337843D01*
X218479026Y-115386145D01*
X218419390Y-115440361D01*
X218254472Y-115595915D01*
X218222308Y-115276641D01*
X218200914Y-115096571D01*
X218168147Y-114858667D01*
X218128904Y-114597220D01*
X218097339Y-114401344D01*
X218053313Y-114118204D01*
X218029154Y-113917333D01*
X218024667Y-113800537D01*
X218039657Y-113769619D01*
X218073929Y-113826385D01*
G37*
G36*
X228097756Y-111046332D02*
G01*
X228111122Y-111154740D01*
X228107146Y-111305170D01*
X228086853Y-111472872D01*
X228051270Y-111633096D01*
X228038255Y-111674578D01*
X227984686Y-111808947D01*
X227933176Y-111902206D01*
X227894370Y-111939051D01*
X227878914Y-111904174D01*
X227878914Y-111903657D01*
X227891602Y-111837677D01*
X227924003Y-111715642D01*
X227948573Y-111631928D01*
X227991314Y-111449526D01*
X228016201Y-111263156D01*
X228018739Y-111203499D01*
X228028852Y-111082075D01*
X228053686Y-111011736D01*
X228066022Y-111004696D01*
X228097756Y-111046332D01*
G37*
G36*
X229899268Y-111137471D02*
G01*
X229881261Y-111237867D01*
X229859707Y-111308748D01*
X229804813Y-111455252D01*
X229769631Y-111512587D01*
X229752427Y-111482646D01*
X229750000Y-111428736D01*
X229766695Y-111310779D01*
X229807207Y-111194378D01*
X229857175Y-111114344D01*
X229886335Y-111098251D01*
X229899268Y-111137471D01*
G37*
G36*
X234450449Y-121055030D02*
G01*
X234445409Y-121154814D01*
X234443217Y-121167035D01*
X234417210Y-121288829D01*
X234395772Y-121332802D01*
X234369219Y-121313595D01*
X234357831Y-121296126D01*
X234342931Y-121216452D01*
X234358963Y-121115413D01*
X234395393Y-121035544D01*
X234427438Y-121015009D01*
X234450449Y-121055030D01*
G37*
G36*
X229919595Y-112187797D02*
G01*
X229921916Y-112244379D01*
X229896852Y-112357825D01*
X229872204Y-112437197D01*
X229827686Y-112584389D01*
X229800602Y-112705824D01*
X229796777Y-112743784D01*
X229773156Y-112815110D01*
X229744794Y-112829006D01*
X229714219Y-112787289D01*
X229724186Y-112661785D01*
X229725693Y-112653591D01*
X229762451Y-112501726D01*
X229810721Y-112357977D01*
X229860828Y-112245586D01*
X229903098Y-112187795D01*
X229919595Y-112187797D01*
G37*
G36*
X229915931Y-109522399D02*
G01*
X229899955Y-109641545D01*
X229869844Y-109801978D01*
X229867084Y-109815105D01*
X229832506Y-109996058D01*
X229808570Y-110155454D01*
X229800555Y-110256262D01*
X229802707Y-110373205D01*
X229847524Y-110261165D01*
X229889462Y-110175112D01*
X229910368Y-110176368D01*
X229910087Y-110261045D01*
X229888466Y-110425257D01*
X229860433Y-110586078D01*
X229806799Y-110864250D01*
X229766179Y-111051931D01*
X229737860Y-111151170D01*
X229721126Y-111164017D01*
X229715265Y-111092522D01*
X229717103Y-110997360D01*
X229717438Y-110858200D01*
X229708529Y-110769834D01*
X229696321Y-110751579D01*
X229675068Y-110717295D01*
X229640459Y-110612772D01*
X229597659Y-110459476D01*
X229551837Y-110278871D01*
X229508159Y-110092421D01*
X229471792Y-109921590D01*
X229447902Y-109787843D01*
X229441658Y-109712644D01*
X229444251Y-109704429D01*
X229475548Y-109724125D01*
X229518545Y-109819222D01*
X229567415Y-109973226D01*
X229616332Y-110169639D01*
X229628317Y-110225510D01*
X229685035Y-110498811D01*
X229737422Y-110108568D01*
X229773733Y-109878632D01*
X229814500Y-109685949D01*
X229855562Y-109545548D01*
X229892759Y-109472459D01*
X229914358Y-109469483D01*
X229915931Y-109522399D01*
G37*
G36*
X227798921Y-122764880D02*
G01*
X227807490Y-122788578D01*
X227869485Y-122867604D01*
X227928843Y-122886096D01*
X228004878Y-122909011D01*
X228011903Y-122953372D01*
X227946704Y-122982600D01*
X227937385Y-122983229D01*
X227817122Y-122995364D01*
X227769479Y-123003093D01*
X227709395Y-122998846D01*
X227704862Y-122936949D01*
X227711671Y-122906865D01*
X227723905Y-122829978D01*
X227689022Y-122817024D01*
X227615816Y-122841533D01*
X227517966Y-122867752D01*
X227466244Y-122863237D01*
X227467612Y-122814787D01*
X227540415Y-122761577D01*
X227652312Y-122721722D01*
X227749918Y-122713679D01*
X227798921Y-122764880D01*
G37*
G36*
X229970796Y-111537025D02*
G01*
X229944053Y-111654471D01*
X229888995Y-111854365D01*
X229864275Y-111940240D01*
X229749030Y-112337846D01*
X229768954Y-112074397D01*
X229798506Y-111887009D01*
X229851384Y-111705395D01*
X229884315Y-111630014D01*
X229940607Y-111529732D01*
X229969541Y-111497091D01*
X229970796Y-111537025D01*
G37*
G36*
X224272033Y-111150501D02*
G01*
X224294482Y-111161305D01*
X224243888Y-111188323D01*
X224113276Y-111239828D01*
X224102183Y-111244093D01*
X223932876Y-111325512D01*
X223776991Y-111427015D01*
X223716271Y-111479139D01*
X223627875Y-111554854D01*
X223580111Y-111568726D01*
X223575415Y-111555172D01*
X223617208Y-111443255D01*
X223726091Y-111330074D01*
X223877315Y-111232212D01*
X224046136Y-111166254D01*
X224183518Y-111147640D01*
X224272033Y-111150501D01*
G37*
G36*
X219152409Y-115680501D02*
G01*
X219204007Y-115775062D01*
X219255900Y-115906868D01*
X219297784Y-116048945D01*
X219319352Y-116174321D01*
X219320346Y-116196962D01*
X219326016Y-116273886D01*
X219348218Y-116265664D01*
X219369217Y-116232044D01*
X219433157Y-116158019D01*
X219480601Y-116172638D01*
X219504364Y-116271453D01*
X219505801Y-116316579D01*
X219516051Y-116459038D01*
X219542338Y-116615821D01*
X219577970Y-116759549D01*
X219616255Y-116862841D01*
X219648058Y-116898619D01*
X219685686Y-116858837D01*
X219730744Y-116760586D01*
X219739687Y-116734899D01*
X219793688Y-116612789D01*
X219840959Y-116577407D01*
X219873002Y-116629451D01*
X219881897Y-116723205D01*
X219902517Y-116850425D01*
X219953610Y-117016798D01*
X220000447Y-117132505D01*
X220117118Y-117389779D01*
X220100832Y-117097422D01*
X220097934Y-116946159D01*
X220106472Y-116840528D01*
X220122614Y-116805065D01*
X220155072Y-116843702D01*
X220160682Y-116885706D01*
X220185698Y-116957268D01*
X220253020Y-117084471D01*
X220351051Y-117246488D01*
X220421661Y-117354532D01*
X220563512Y-117580414D01*
X220692761Y-117813480D01*
X220799745Y-118033574D01*
X220874798Y-118220542D01*
X220908257Y-118354227D01*
X220909116Y-118371170D01*
X220929739Y-118435519D01*
X220973907Y-118427237D01*
X221015067Y-118352706D01*
X221017139Y-118345211D01*
X221051896Y-118277751D01*
X221119125Y-118289393D01*
X221131904Y-118295994D01*
X221226036Y-118371226D01*
X221346779Y-118500690D01*
X221472705Y-118658340D01*
X221582382Y-118818131D01*
X221630083Y-118901483D01*
X221680393Y-119022024D01*
X221697414Y-119109516D01*
X221683892Y-119148198D01*
X221642575Y-119122311D01*
X221601922Y-119063066D01*
X221532903Y-118957671D01*
X221428231Y-118811120D01*
X221311789Y-118656739D01*
X221100674Y-118384865D01*
X221071154Y-118518814D01*
X221036134Y-118665245D01*
X221008123Y-118741094D01*
X220977799Y-118767894D01*
X220962567Y-118769706D01*
X220926394Y-118728853D01*
X220893381Y-118628468D01*
X220889168Y-118607876D01*
X220844074Y-118460796D01*
X220760538Y-118263740D01*
X220652619Y-118044166D01*
X220534378Y-117829531D01*
X220419874Y-117647294D01*
X220349295Y-117553499D01*
X220209975Y-117389779D01*
X220208717Y-117518416D01*
X220190350Y-117610738D01*
X220151235Y-117635359D01*
X220103659Y-117588076D01*
X220038402Y-117477861D01*
X219967481Y-117330498D01*
X219902919Y-117171769D01*
X219856733Y-117027457D01*
X219846479Y-116981643D01*
X219822965Y-116854169D01*
X219737582Y-116958254D01*
X219673735Y-117028605D01*
X219631527Y-117028874D01*
X219579202Y-116968785D01*
X219521921Y-116865393D01*
X219466457Y-116719255D01*
X219451362Y-116667252D01*
X219414830Y-116548386D01*
X219387518Y-116513410D01*
X219365675Y-116547204D01*
X219333628Y-116601063D01*
X219303089Y-116570263D01*
X219272402Y-116451506D01*
X219250508Y-116318179D01*
X219220547Y-116154516D01*
X219183961Y-116010248D01*
X219169295Y-115967350D01*
X219139959Y-115902163D01*
X219116246Y-115895886D01*
X219086619Y-115959122D01*
X219046709Y-116080019D01*
X219002879Y-116206742D01*
X218976266Y-116250978D01*
X218960670Y-116220812D01*
X218957017Y-116196962D01*
X218960297Y-116081823D01*
X218987151Y-115937471D01*
X219028538Y-115795917D01*
X219075420Y-115689178D01*
X219111414Y-115650155D01*
X219152409Y-115680501D01*
G37*
G36*
X224955341Y-112595120D02*
G01*
X224862061Y-112567245D01*
X224841353Y-112488446D01*
X224849977Y-112467798D01*
X225224878Y-112467798D01*
X225233485Y-112497490D01*
X225279755Y-112545500D01*
X225303108Y-112502843D01*
X225306170Y-112445433D01*
X225294709Y-112377569D01*
X225255199Y-112393502D01*
X225254113Y-112394580D01*
X225224878Y-112467798D01*
X224849977Y-112467798D01*
X224892513Y-112365960D01*
X224912348Y-112339371D01*
X225513294Y-112339371D01*
X225516687Y-112552895D01*
X225592296Y-112769009D01*
X225724245Y-112958800D01*
X225896661Y-113093352D01*
X225937661Y-113112349D01*
X226142776Y-113153935D01*
X226365992Y-113134314D01*
X226561111Y-113058033D01*
X226573930Y-113049749D01*
X226705080Y-112933618D01*
X226814139Y-112791809D01*
X226822967Y-112776235D01*
X226913061Y-112609419D01*
X226804898Y-112434408D01*
X226734789Y-112339320D01*
X226681686Y-112299840D01*
X226668027Y-112305600D01*
X226603144Y-112348710D01*
X226532217Y-112368213D01*
X226442186Y-112402559D01*
X226436562Y-112449879D01*
X226513167Y-112487710D01*
X226544310Y-112492978D01*
X226635678Y-112534804D01*
X226659023Y-112615691D01*
X226619503Y-112716418D01*
X226522279Y-112817767D01*
X226443591Y-112868142D01*
X226255291Y-112926340D01*
X226079166Y-112908351D01*
X225927129Y-112829548D01*
X225811090Y-112705305D01*
X225742964Y-112550997D01*
X225734661Y-112381998D01*
X225798095Y-112213682D01*
X225868685Y-112126158D01*
X225927828Y-112062598D01*
X225930233Y-112039559D01*
X225866076Y-112055797D01*
X225729372Y-112108534D01*
X225601721Y-112173703D01*
X225537043Y-112254922D01*
X225513294Y-112339371D01*
X224912348Y-112339371D01*
X224990424Y-112234710D01*
X225230188Y-111987784D01*
X225463741Y-111819131D01*
X225711300Y-111717281D01*
X225983063Y-111671534D01*
X226324634Y-111677821D01*
X226609470Y-111756730D01*
X226839698Y-111910056D01*
X227017448Y-112139595D01*
X227144848Y-112447142D01*
X227203655Y-112700885D01*
X227233753Y-112821250D01*
X227268903Y-112895876D01*
X227276113Y-112902449D01*
X227306376Y-112963305D01*
X227317588Y-113060648D01*
X227296667Y-113166576D01*
X227223024Y-113225852D01*
X227080339Y-113248707D01*
X227015591Y-113250000D01*
X226871266Y-113266247D01*
X226704003Y-113306619D01*
X226662707Y-113320166D01*
X226347557Y-113385003D01*
X226025356Y-113367265D01*
X225749604Y-113280062D01*
X225625953Y-113205699D01*
X225480991Y-113094047D01*
X225333936Y-112963356D01*
X225204005Y-112831876D01*
X225110415Y-112717856D01*
X225072382Y-112639547D01*
X225072284Y-112636838D01*
X225048877Y-112618509D01*
X225306170Y-112618509D01*
X225329558Y-112641897D01*
X225352947Y-112618509D01*
X225329558Y-112595120D01*
X225306170Y-112618509D01*
X225048877Y-112618509D01*
X225032223Y-112605468D01*
X224955341Y-112595120D01*
G37*
G36*
X235259544Y-111481007D02*
G01*
X235378422Y-111508839D01*
X235494198Y-111557332D01*
X235568362Y-111610003D01*
X235635955Y-111691902D01*
X235627877Y-111722998D01*
X235548071Y-111701617D01*
X235456814Y-111657304D01*
X235330074Y-111599839D01*
X235225896Y-111569342D01*
X235211234Y-111567983D01*
X235141798Y-111541351D01*
X235129374Y-111513125D01*
X235166787Y-111480286D01*
X235259544Y-111481007D01*
G37*
G36*
X233665599Y-109766548D02*
G01*
X233427154Y-109888805D01*
X233204485Y-110088730D01*
X233013935Y-110350437D01*
X232957059Y-110455287D01*
X232889930Y-110581826D01*
X232852442Y-110628573D01*
X232838339Y-110602128D01*
X232837732Y-110581192D01*
X232868688Y-110447721D01*
X232949030Y-110277651D01*
X233061189Y-110099721D01*
X233187592Y-109942669D01*
X233281242Y-109855815D01*
X233506359Y-109741569D01*
X233667886Y-109711996D01*
X233889779Y-109693838D01*
X233665599Y-109766548D01*
G37*
G36*
X236653444Y-118475576D02*
G01*
X236447519Y-118050180D01*
X236282074Y-117593116D01*
X236171630Y-117145775D01*
X236157607Y-117062339D01*
X236116528Y-116805528D01*
X236084137Y-116636596D01*
X236057485Y-116550594D01*
X236033622Y-116542572D01*
X236009599Y-116607582D01*
X235982466Y-116740676D01*
X235978662Y-116762119D01*
X235950365Y-116941391D01*
X235930792Y-117100120D01*
X235924586Y-117192047D01*
X235910612Y-117292597D01*
X235883953Y-117339205D01*
X235851048Y-117397790D01*
X235820372Y-117511595D01*
X235814496Y-117544571D01*
X235772077Y-117685362D01*
X235705472Y-117796251D01*
X235694060Y-117807732D01*
X235615016Y-117916417D01*
X235572692Y-118026121D01*
X235533068Y-118132117D01*
X235484834Y-118158617D01*
X235441017Y-118103131D01*
X235426379Y-118108032D01*
X235416090Y-118186984D01*
X235413730Y-118247842D01*
X235401385Y-118384661D01*
X235364114Y-118453789D01*
X235320972Y-118474315D01*
X235256965Y-118525030D01*
X235191283Y-118649794D01*
X235126650Y-118832459D01*
X235066526Y-119014216D01*
X235008163Y-119174874D01*
X234963742Y-119280989D01*
X234962110Y-119284254D01*
X234907146Y-119404184D01*
X234876099Y-119486022D01*
X234836240Y-119544280D01*
X234807166Y-119544762D01*
X234758576Y-119555634D01*
X234724054Y-119646296D01*
X234708114Y-119803471D01*
X234707567Y-119837712D01*
X234691663Y-120028756D01*
X234651209Y-120264402D01*
X234594890Y-120504746D01*
X234531387Y-120709885D01*
X234502263Y-120781204D01*
X234457821Y-120868902D01*
X234444322Y-120870769D01*
X234450994Y-120827901D01*
X234541573Y-120331929D01*
X234591705Y-119896302D01*
X234601427Y-119497023D01*
X234570776Y-119110095D01*
X234499791Y-118711521D01*
X234454595Y-118521565D01*
X234324983Y-118066322D01*
X234170158Y-117633740D01*
X233981353Y-117205234D01*
X233749800Y-116762225D01*
X233466734Y-116286128D01*
X233217473Y-115899365D01*
X232843252Y-115278365D01*
X232565448Y-114702989D01*
X232448896Y-114440179D01*
X232317064Y-114164953D01*
X232186865Y-113911539D01*
X232084063Y-113728747D01*
X231985771Y-113559882D01*
X231912128Y-113422587D01*
X231872539Y-113335043D01*
X231869345Y-113313589D01*
X231910216Y-113332003D01*
X231987163Y-113412226D01*
X232086701Y-113536719D01*
X232195345Y-113687945D01*
X232299609Y-113848364D01*
X232359970Y-113951658D01*
X232444376Y-114126525D01*
X232534065Y-114346976D01*
X232610866Y-114568028D01*
X232616938Y-114587773D01*
X232670057Y-114750383D01*
X232729809Y-114901132D01*
X232804389Y-115054126D01*
X232901989Y-115223469D01*
X233030803Y-115423263D01*
X233199026Y-115667615D01*
X233414850Y-115970627D01*
X233443078Y-116009853D01*
X233882375Y-116693721D01*
X234234747Y-117403447D01*
X234498202Y-118134438D01*
X234658232Y-118810004D01*
X234705507Y-119055679D01*
X234744987Y-119225350D01*
X234775269Y-119314901D01*
X234794948Y-119320215D01*
X234802622Y-119237178D01*
X234802650Y-119233579D01*
X234810453Y-119161507D01*
X234837169Y-119174769D01*
X234846213Y-119188260D01*
X234884744Y-119211929D01*
X234913726Y-119167452D01*
X234928818Y-119080095D01*
X234925678Y-118975123D01*
X234899966Y-118877799D01*
X234899674Y-118877154D01*
X234866540Y-118767911D01*
X234888246Y-118728183D01*
X234953360Y-118766192D01*
X234993069Y-118809971D01*
X235082597Y-118920401D01*
X235086156Y-118716416D01*
X235102858Y-118543132D01*
X235139503Y-118376737D01*
X235148294Y-118350215D01*
X235189075Y-118248628D01*
X235218635Y-118225385D01*
X235254185Y-118269697D01*
X235260256Y-118280049D01*
X235296130Y-118331768D01*
X235311385Y-118310130D01*
X235315060Y-118216999D01*
X235331578Y-118076426D01*
X235371004Y-117963831D01*
X235422175Y-117903620D01*
X235457790Y-117904931D01*
X235498924Y-117886819D01*
X235535069Y-117793339D01*
X235559758Y-117642665D01*
X235562489Y-117610819D01*
X235589330Y-117534427D01*
X235628213Y-117526585D01*
X235667139Y-117506139D01*
X235691607Y-117404020D01*
X235700032Y-117305545D01*
X235709376Y-117165798D01*
X235721527Y-117108031D01*
X235744662Y-117120824D01*
X235784254Y-117187921D01*
X235817823Y-117242483D01*
X235838774Y-117251366D01*
X235850344Y-117202266D01*
X235855767Y-117082880D01*
X235858047Y-116907258D01*
X235870946Y-116668072D01*
X235902240Y-116386278D01*
X235946234Y-116109667D01*
X235963295Y-116024246D01*
X236051382Y-115414287D01*
X236065492Y-115065314D01*
X236072099Y-114780483D01*
X236090296Y-114422723D01*
X236118505Y-114011730D01*
X236155151Y-113567199D01*
X236198657Y-113108826D01*
X236247449Y-112656306D01*
X236279999Y-112384623D01*
X236318859Y-112012301D01*
X236331024Y-111699652D01*
X236314577Y-111416135D01*
X236267601Y-111131208D01*
X236188178Y-110814330D01*
X236179499Y-110783645D01*
X236089094Y-110504553D01*
X235968989Y-110202747D01*
X235814021Y-109867687D01*
X235619025Y-109488835D01*
X235378837Y-109055651D01*
X235090774Y-108561770D01*
X234870485Y-108186499D01*
X234695475Y-107876546D01*
X234559598Y-107619074D01*
X234456708Y-107401248D01*
X234380659Y-107210232D01*
X234325306Y-107033191D01*
X234291832Y-106893174D01*
X234266806Y-106746294D01*
X234260485Y-106645759D01*
X234271344Y-106604826D01*
X234297859Y-106636754D01*
X234316032Y-106682808D01*
X234407186Y-106935274D01*
X234497337Y-107161016D01*
X234595321Y-107377239D01*
X234709975Y-107601150D01*
X234850134Y-107849952D01*
X235024635Y-108140851D01*
X235242315Y-108491053D01*
X235255511Y-108512050D01*
X235584899Y-109056202D01*
X235853992Y-109547377D01*
X236068722Y-109998676D01*
X236235025Y-110423198D01*
X236358832Y-110834042D01*
X236412513Y-111066400D01*
X236458235Y-111333878D01*
X236480019Y-111594722D01*
X236477978Y-111875006D01*
X236452226Y-112200805D01*
X236418679Y-112481151D01*
X236343135Y-113127784D01*
X236284884Y-113778977D01*
X236244146Y-114421769D01*
X236221145Y-115043205D01*
X236216102Y-115630325D01*
X236229239Y-116170172D01*
X236260778Y-116649788D01*
X236310942Y-117056215D01*
X236337762Y-117202671D01*
X236410556Y-117518540D01*
X236491871Y-117807692D01*
X236576991Y-118058225D01*
X236661200Y-118258237D01*
X236739784Y-118395828D01*
X236808027Y-118459096D01*
X236835726Y-118459571D01*
X236901684Y-118480427D01*
X236991728Y-118568764D01*
X237093265Y-118705996D01*
X237193701Y-118873540D01*
X237280444Y-119052813D01*
X237330972Y-119190397D01*
X237366637Y-119307643D01*
X237370890Y-119190700D01*
X237398827Y-119082522D01*
X237462242Y-118969381D01*
X237541133Y-118876980D01*
X237615498Y-118831024D01*
X237647599Y-118835086D01*
X237693074Y-118905300D01*
X237702118Y-118962336D01*
X237720573Y-119025259D01*
X237748895Y-119026980D01*
X237788191Y-118961002D01*
X237795672Y-118907276D01*
X237818573Y-118828549D01*
X237868130Y-118829540D01*
X237907611Y-118890474D01*
X237930258Y-118983139D01*
X237936404Y-119078525D01*
X237927505Y-119148072D01*
X237905015Y-119163216D01*
X237894358Y-119150623D01*
X237848062Y-119114937D01*
X237822147Y-119138929D01*
X237748085Y-119194118D01*
X237665643Y-119176886D01*
X237607902Y-119098679D01*
X237599976Y-119062063D01*
X237588474Y-118994234D01*
X237568754Y-118988126D01*
X237529906Y-119052223D01*
X237479687Y-119155617D01*
X237417120Y-119280125D01*
X237369971Y-119360752D01*
X237354216Y-119377809D01*
X237323496Y-119340075D01*
X237261864Y-119240997D01*
X237182476Y-119101757D01*
X237179938Y-119097146D01*
X237098669Y-118956807D01*
X237032533Y-118856164D01*
X236995549Y-118816509D01*
X236995119Y-118816483D01*
X236959575Y-118855273D01*
X236932254Y-118921731D01*
X236907181Y-118992123D01*
X236887643Y-118981014D01*
X236862287Y-118904361D01*
X236820935Y-118802972D01*
X236747821Y-118652431D01*
X236698192Y-118559208D01*
X236813352Y-118559208D01*
X236836740Y-118582597D01*
X236860129Y-118559208D01*
X236836740Y-118535820D01*
X236813352Y-118559208D01*
X236698192Y-118559208D01*
X236658356Y-118484381D01*
X236653444Y-118475576D01*
G37*
G36*
X222003492Y-118816805D02*
G01*
X222024019Y-118834599D01*
X222109800Y-118959627D01*
X222161934Y-119129831D01*
X222166833Y-119299003D01*
X222164540Y-119312352D01*
X222143359Y-119321122D01*
X222104374Y-119251119D01*
X222063430Y-119141609D01*
X222011981Y-118988919D01*
X221969491Y-118866020D01*
X221951542Y-118816483D01*
X221950462Y-118782394D01*
X222003492Y-118816805D01*
G37*
G36*
X224704126Y-110483474D02*
G01*
X224901842Y-110504257D01*
X225067508Y-110535178D01*
X225119061Y-110550154D01*
X225237151Y-110592090D01*
X225272521Y-110613177D01*
X225231857Y-110620109D01*
X225189227Y-110620386D01*
X225061636Y-110611796D01*
X224890935Y-110590798D01*
X224791621Y-110575161D01*
X224587667Y-110552321D01*
X224370255Y-110546003D01*
X224287120Y-110549532D01*
X224143193Y-110555191D01*
X224083069Y-110542669D01*
X224090903Y-110517521D01*
X224167747Y-110489851D01*
X224312170Y-110475480D01*
X224499266Y-110473618D01*
X224704126Y-110483474D01*
G37*
G36*
X231472797Y-111095638D02*
G01*
X231493639Y-111224569D01*
X231496691Y-111249876D01*
X231528683Y-111442019D01*
X231575117Y-111634518D01*
X231597774Y-111706568D01*
X231644248Y-111857809D01*
X231647801Y-111926323D01*
X231608432Y-111911921D01*
X231601369Y-111905157D01*
X231533310Y-111798006D01*
X231473089Y-111635729D01*
X231427347Y-111449143D01*
X231402724Y-111269062D01*
X231405862Y-111126302D01*
X231422269Y-111074059D01*
X231450418Y-111048800D01*
X231472797Y-111095638D01*
G37*
G36*
X224366862Y-111419091D02*
G01*
X224319333Y-111473862D01*
X224209373Y-111556837D01*
X224136740Y-111603875D01*
X223991811Y-111684578D01*
X223915379Y-111704116D01*
X223902855Y-111686413D01*
X223943477Y-111613401D01*
X224050069Y-111528214D01*
X224199719Y-111447873D01*
X224253972Y-111425581D01*
X224346797Y-111400379D01*
X224366862Y-111419091D01*
G37*
G36*
X232188155Y-110148373D02*
G01*
X232155200Y-110232393D01*
X232124840Y-110287147D01*
X232064784Y-110410249D01*
X232033138Y-110543772D01*
X232023103Y-110722520D01*
X232023489Y-110805893D01*
X232024009Y-110970465D01*
X232020945Y-111091003D01*
X232014947Y-111144259D01*
X232013994Y-111145028D01*
X231993772Y-111104884D01*
X231961103Y-111004984D01*
X231950986Y-110969613D01*
X231918131Y-110820446D01*
X231902267Y-110687874D01*
X231902011Y-110675474D01*
X231922945Y-110562421D01*
X231976079Y-110420046D01*
X232046331Y-110279101D01*
X232118619Y-110170337D01*
X232171618Y-110125764D01*
X232188155Y-110148373D01*
G37*
G36*
X217502173Y-111272777D02*
G01*
X217476736Y-111426412D01*
X217463676Y-111484162D01*
X217419003Y-111697237D01*
X217379538Y-111926291D01*
X217362576Y-112049617D01*
X217340484Y-112188066D01*
X217315166Y-112273153D01*
X217295580Y-112287401D01*
X217266479Y-112204612D01*
X217261103Y-112056229D01*
X217277584Y-111866646D01*
X217314048Y-111660254D01*
X217355931Y-111500784D01*
X217419292Y-111319004D01*
X217468252Y-111219874D01*
X217497612Y-111204198D01*
X217502173Y-111272777D01*
G37*
G36*
X232886218Y-122383241D02*
G01*
X232948272Y-122483961D01*
X232997790Y-122506124D01*
X233023181Y-122446788D01*
X233024402Y-122418324D01*
X233057943Y-122344530D01*
X233136716Y-122325655D01*
X233227940Y-122364977D01*
X233258287Y-122394936D01*
X233292059Y-122450605D01*
X233253484Y-122465081D01*
X233249982Y-122465102D01*
X233159885Y-122434322D01*
X233127311Y-122408969D01*
X233086685Y-122387443D01*
X233071920Y-122443552D01*
X233071179Y-122479135D01*
X233044540Y-122580328D01*
X232975965Y-122602136D01*
X232893601Y-122549476D01*
X232837207Y-122523644D01*
X232774775Y-122576081D01*
X232768191Y-122584559D01*
X232709262Y-122643547D01*
X232666718Y-122625715D01*
X232656538Y-122611515D01*
X232615210Y-122576231D01*
X232572144Y-122623019D01*
X232566622Y-122632694D01*
X232514943Y-122689293D01*
X232453259Y-122663473D01*
X232388176Y-122637280D01*
X232329179Y-122690059D01*
X232256131Y-122744903D01*
X232131874Y-122756749D01*
X232081744Y-122753103D01*
X231963848Y-122745263D01*
X231920129Y-122759752D01*
X231931913Y-122807461D01*
X231945052Y-122832826D01*
X231971050Y-122883198D01*
X231971313Y-122915792D01*
X231929458Y-122940081D01*
X231829102Y-122965536D01*
X231653863Y-123001630D01*
X231652666Y-123001874D01*
X231545540Y-122998107D01*
X231488946Y-122969130D01*
X231438309Y-122899250D01*
X231467902Y-122866536D01*
X231581510Y-122867915D01*
X231609392Y-122871311D01*
X231730552Y-122878085D01*
X231795832Y-122847206D01*
X231831584Y-122784999D01*
X231879923Y-122713187D01*
X231963494Y-122681522D01*
X232077225Y-122675599D01*
X232198653Y-122670695D01*
X232268884Y-122658365D01*
X232275853Y-122652210D01*
X232253591Y-122601044D01*
X232198534Y-122502833D01*
X232179717Y-122471520D01*
X232124013Y-122367019D01*
X232103266Y-122300275D01*
X232105720Y-122292316D01*
X232163919Y-122292892D01*
X232257709Y-122346457D01*
X232360892Y-122435755D01*
X232412671Y-122494503D01*
X232509853Y-122618050D01*
X232509853Y-122494798D01*
X232537035Y-122395712D01*
X232606333Y-122375137D01*
X232686180Y-122426254D01*
X232734853Y-122446873D01*
X232776349Y-122386416D01*
X232783729Y-122367782D01*
X232826571Y-122254604D01*
X232886218Y-122383241D01*
G37*
G36*
X233497491Y-122117560D02*
G01*
X233536915Y-122189821D01*
X233504132Y-122299502D01*
X233470272Y-122350912D01*
X233418780Y-122406050D01*
X233401182Y-122382705D01*
X233400745Y-122371547D01*
X233412938Y-122254704D01*
X233444569Y-122158970D01*
X233483960Y-122115001D01*
X233497491Y-122117560D01*
G37*
G36*
X224878693Y-110830345D02*
G01*
X224999176Y-110852524D01*
X225025507Y-110864365D01*
X225030289Y-110888755D01*
X224951185Y-110903788D01*
X224783990Y-110910130D01*
X224734784Y-110910426D01*
X224356571Y-110941733D01*
X224029167Y-111031534D01*
X223791103Y-111158379D01*
X223701220Y-111212505D01*
X223674619Y-111201582D01*
X223677766Y-111187927D01*
X223740336Y-111106231D01*
X223863135Y-111013070D01*
X224017717Y-110926801D01*
X224175635Y-110865781D01*
X224178015Y-110865115D01*
X224326580Y-110837952D01*
X224512686Y-110823085D01*
X224706627Y-110820541D01*
X224878693Y-110830345D01*
G37*
G36*
X225753345Y-109779156D02*
G01*
X225947298Y-109877476D01*
X226146183Y-110022742D01*
X226327493Y-110198874D01*
X226451399Y-110361510D01*
X226501653Y-110454371D01*
X226491969Y-110478765D01*
X226424759Y-110435978D01*
X226302434Y-110327291D01*
X226200779Y-110228179D01*
X226037859Y-110083077D01*
X225858091Y-109949440D01*
X225709619Y-109861162D01*
X225582897Y-109796125D01*
X225535431Y-109759766D01*
X225559967Y-109745154D01*
X225586833Y-109743860D01*
X225753345Y-109779156D01*
G37*
G36*
X231394842Y-112533144D02*
G01*
X231437567Y-112567573D01*
X231544612Y-112645114D01*
X231630805Y-112686530D01*
X231645304Y-112688674D01*
X231723414Y-112718693D01*
X231738030Y-112735451D01*
X231726419Y-112769338D01*
X231653528Y-112776870D01*
X231548372Y-112756176D01*
X231527532Y-112749043D01*
X231412603Y-112682476D01*
X231324214Y-112590609D01*
X231293647Y-112513546D01*
X231318063Y-112488657D01*
X231394842Y-112533144D01*
G37*
G36*
X227422059Y-122248674D02*
G01*
X227393600Y-122308345D01*
X227313151Y-122406630D01*
X227158691Y-122582044D01*
X227287679Y-122597112D01*
X227399581Y-122637651D01*
X227450806Y-122711443D01*
X227426632Y-122794886D01*
X227417353Y-122805041D01*
X227374890Y-122826766D01*
X227364365Y-122773055D01*
X227342771Y-122712607D01*
X227262958Y-122707683D01*
X227247422Y-122710436D01*
X227160185Y-122717520D01*
X227130114Y-122704195D01*
X227090970Y-122662399D01*
X227002219Y-122617399D01*
X226905563Y-122586361D01*
X226843245Y-122586105D01*
X226811186Y-122568658D01*
X226803039Y-122517400D01*
X226829008Y-122415975D01*
X226894335Y-122392414D01*
X226980144Y-122451359D01*
X226995526Y-122470068D01*
X227054462Y-122530017D01*
X227082351Y-122525617D01*
X227082662Y-122521447D01*
X227119437Y-122438114D01*
X227205529Y-122341276D01*
X227307998Y-122261990D01*
X227390473Y-122231216D01*
X227422059Y-122248674D01*
G37*
G36*
X241454469Y-113893668D02*
G01*
X241513176Y-113982322D01*
X241534030Y-114015650D01*
X241613704Y-114221323D01*
X241631400Y-114387107D01*
X241621147Y-114516356D01*
X241596668Y-114605203D01*
X241567383Y-114640253D01*
X241542713Y-114608109D01*
X241532720Y-114527439D01*
X241526690Y-114460544D01*
X241514066Y-114475010D01*
X241490670Y-114576192D01*
X241489239Y-114583149D01*
X241446487Y-114755116D01*
X241390773Y-114936849D01*
X241380873Y-114965161D01*
X241328490Y-115140857D01*
X241285377Y-115335095D01*
X241277686Y-115381297D01*
X241244510Y-115602531D01*
X241072154Y-115378361D01*
X241071114Y-115523407D01*
X241053983Y-115674491D01*
X241016399Y-115822424D01*
X240962724Y-115976395D01*
X240897235Y-115851405D01*
X240829958Y-115767395D01*
X240772291Y-115765183D01*
X240743329Y-115843217D01*
X240742634Y-115863949D01*
X240728083Y-115962067D01*
X240691625Y-116093026D01*
X240644052Y-116226867D01*
X240596154Y-116333630D01*
X240558724Y-116383357D01*
X240555286Y-116384070D01*
X240504098Y-116351324D01*
X240421601Y-116269239D01*
X240389207Y-116232121D01*
X240261350Y-116080171D01*
X240283466Y-116346863D01*
X240289870Y-116485895D01*
X240283884Y-116573995D01*
X240270829Y-116592075D01*
X240227222Y-116606065D01*
X240218150Y-116624372D01*
X240180310Y-116654651D01*
X240103164Y-116626204D01*
X240039624Y-116601511D01*
X240006085Y-116629951D01*
X239985308Y-116729972D01*
X239981705Y-116756171D01*
X239946620Y-116892297D01*
X239886105Y-117027695D01*
X239816323Y-117132714D01*
X239753436Y-117177702D01*
X239751872Y-117177812D01*
X239720179Y-117139456D01*
X239701700Y-117074033D01*
X239684612Y-117034175D01*
X239652396Y-117057896D01*
X239597700Y-117153993D01*
X239546421Y-117259836D01*
X239470100Y-117403851D01*
X239401748Y-117501051D01*
X239355198Y-117531840D01*
X239354598Y-117531648D01*
X239304146Y-117557326D01*
X239253570Y-117645572D01*
X239248433Y-117659507D01*
X239184934Y-117805886D01*
X239117012Y-117925632D01*
X239036869Y-118044660D01*
X239011824Y-117880939D01*
X238986778Y-117717219D01*
X238857019Y-117997882D01*
X238748749Y-118231691D01*
X238674476Y-118387860D01*
X238628578Y-118473504D01*
X238605435Y-118495736D01*
X238599426Y-118461669D01*
X238604932Y-118378417D01*
X238611330Y-118308836D01*
X238645523Y-118135124D01*
X238710089Y-117951731D01*
X238792181Y-117785679D01*
X238878950Y-117663991D01*
X238939850Y-117617907D01*
X238985738Y-117560435D01*
X239023431Y-117447039D01*
X239029874Y-117412964D01*
X239061121Y-117288325D01*
X239102119Y-117207328D01*
X239112031Y-117198593D01*
X239143680Y-117203905D01*
X239141813Y-117285978D01*
X239134354Y-117329960D01*
X239122759Y-117466629D01*
X239136262Y-117576552D01*
X239138352Y-117582303D01*
X239163533Y-117614684D01*
X239190730Y-117573628D01*
X239225643Y-117449951D01*
X239228858Y-117436556D01*
X239262667Y-117306362D01*
X239286179Y-117257553D01*
X239307103Y-117279708D01*
X239319131Y-117314552D01*
X239353699Y-117426433D01*
X239404980Y-117288140D01*
X239506256Y-117017583D01*
X239581214Y-116825240D01*
X239634741Y-116701124D01*
X239671721Y-116635251D01*
X239697038Y-116617636D01*
X239715578Y-116638293D01*
X239718970Y-116646309D01*
X239744257Y-116754757D01*
X239756959Y-116893282D01*
X239757025Y-116896280D01*
X239767563Y-117006258D01*
X239789657Y-117035077D01*
X239818451Y-116993679D01*
X239849092Y-116893010D01*
X239876723Y-116744014D01*
X239894268Y-116586911D01*
X239924033Y-116220350D01*
X240033097Y-116395764D01*
X240106470Y-116502130D01*
X240163445Y-116564426D01*
X240177277Y-116571179D01*
X240193493Y-116529204D01*
X240197611Y-116421333D01*
X240192746Y-116325599D01*
X240191693Y-116153705D01*
X240211348Y-115996598D01*
X240227517Y-115939687D01*
X240281935Y-115799356D01*
X240402771Y-116053038D01*
X240523608Y-116306721D01*
X240584279Y-116076427D01*
X240622149Y-115903154D01*
X240646479Y-115736394D01*
X240650303Y-115682413D01*
X240663230Y-115545569D01*
X240687172Y-115439075D01*
X240688433Y-115435774D01*
X240716583Y-115391553D01*
X240753437Y-115414775D01*
X240805221Y-115495070D01*
X240871367Y-115581964D01*
X240925995Y-115612681D01*
X240932874Y-115610311D01*
X240955333Y-115553107D01*
X240971887Y-115429435D01*
X240978851Y-115270352D01*
X240981183Y-114957367D01*
X241187017Y-115378361D01*
X241201264Y-115191253D01*
X241222438Y-115046834D01*
X241263335Y-114857739D01*
X241307961Y-114690185D01*
X241358462Y-114481873D01*
X241394766Y-114263162D01*
X241407227Y-114117165D01*
X241412798Y-113975676D01*
X241420043Y-113881580D01*
X241425352Y-113858103D01*
X241454469Y-113893668D01*
G37*
G36*
X227421286Y-110172087D02*
G01*
X227475370Y-110221687D01*
X227547170Y-110328209D01*
X227588821Y-110404790D01*
X227651148Y-110552808D01*
X227680543Y-110700545D01*
X227684269Y-110889601D01*
X227682376Y-110940627D01*
X227668416Y-111261971D01*
X227610034Y-110890557D01*
X227569208Y-110685296D01*
X227516107Y-110490974D01*
X227461559Y-110346657D01*
X227456458Y-110336510D01*
X227403904Y-110217747D01*
X227407302Y-110171160D01*
X227421286Y-110172087D01*
G37*
D11*
X239960000Y-113435000D02*
X239960000Y-110750000D01*
X238040000Y-110750000D02*
X238040000Y-113435000D01*
X238040000Y-113435000D02*
X239960000Y-113435000D01*
X233938748Y-124265000D02*
X234461252Y-124265000D01*
X233938748Y-125735000D02*
X234461252Y-125735000D01*
X177265000Y-120738748D02*
X177265000Y-121261252D01*
X178735000Y-120738748D02*
X178735000Y-121261252D01*
D12*
X193170000Y-97160000D02*
X192280000Y-98050000D01*
X188830000Y-97160000D02*
X189720000Y-98050000D01*
X188450000Y-94330000D02*
X188450000Y-96670000D01*
X192800000Y-94600000D02*
X192800000Y-96400000D01*
X190100000Y-97400000D02*
X189200000Y-96500000D01*
X189200000Y-94500000D02*
X190000000Y-93700000D01*
X189720000Y-92950000D02*
X192280000Y-92950000D01*
X191900000Y-93700000D02*
X192800000Y-94600000D01*
X190000000Y-93700000D02*
X191900000Y-93700000D01*
X192800000Y-96400000D02*
X191800000Y-97400000D01*
X193550000Y-94330000D02*
X193550000Y-96670000D01*
X192280000Y-92950000D02*
X193170000Y-93840000D01*
X191800000Y-97400000D02*
X190100000Y-97400000D01*
X189200000Y-96500000D02*
X189200000Y-94500000D01*
X189720000Y-98050000D02*
X192280000Y-98050000D01*
X189720000Y-92950000D02*
X188830000Y-93840000D01*
X192280000Y-95500000D02*
G75*
G03*
X192280000Y-95500000I-1280000J0D01*
G01*
D11*
X186265000Y-123261252D02*
X186265000Y-122738748D01*
X187735000Y-123261252D02*
X187735000Y-122738748D01*
X177735000Y-115227064D02*
X177735000Y-114772936D01*
X176265000Y-115227064D02*
X176265000Y-114772936D01*
X173461252Y-106985000D02*
X172938748Y-106985000D01*
X173461252Y-105515000D02*
X172938748Y-105515000D01*
X226772936Y-94265000D02*
X227227064Y-94265000D01*
X226772936Y-95735000D02*
X227227064Y-95735000D01*
D12*
X185050000Y-123780000D02*
X185050000Y-121220000D01*
X180700000Y-121600000D02*
X181600000Y-120700000D01*
X184160000Y-124670000D02*
X185050000Y-123780000D01*
X184160000Y-120330000D02*
X185050000Y-121220000D01*
X179950000Y-121220000D02*
X180840000Y-120330000D01*
X181500000Y-124300000D02*
X180700000Y-123500000D01*
X183400000Y-120700000D02*
X184400000Y-121700000D01*
X181330000Y-119950000D02*
X183670000Y-119950000D01*
X180700000Y-123500000D02*
X180700000Y-121600000D01*
X184400000Y-121700000D02*
X184400000Y-123400000D01*
X181330000Y-125050000D02*
X183670000Y-125050000D01*
X184400000Y-123400000D02*
X183500000Y-124300000D01*
X179950000Y-123780000D02*
X179950000Y-121220000D01*
X183500000Y-124300000D02*
X181500000Y-124300000D01*
X179950000Y-123780000D02*
X180840000Y-124670000D01*
X181600000Y-120700000D02*
X183400000Y-120700000D01*
X183780000Y-122500000D02*
G75*
G03*
X183780000Y-122500000I-1280000J0D01*
G01*
X197000000Y-126980000D02*
X215000000Y-126980000D01*
X215000000Y-102320000D02*
X215000000Y-101480000D01*
X215000000Y-126980000D02*
X215000000Y-120530000D01*
X196980000Y-120190000D02*
X196980000Y-120700000D01*
X215000000Y-120700000D02*
X215000000Y-120190000D01*
X199600000Y-101480000D02*
X196980000Y-101480000D01*
X196980000Y-101480000D02*
X196980000Y-102320000D01*
X197000000Y-126980000D02*
X197000000Y-120520000D01*
X215000000Y-101480000D02*
X212400000Y-101480000D01*
X197000000Y-120700000D02*
X215000000Y-120700000D01*
D11*
X229738748Y-125735000D02*
X230261252Y-125735000D01*
X229738748Y-124265000D02*
X230261252Y-124265000D01*
D12*
X200720000Y-98050000D02*
X203280000Y-98050000D01*
X202900000Y-93700000D02*
X203800000Y-94600000D01*
X200200000Y-96500000D02*
X200200000Y-94500000D01*
X200720000Y-92950000D02*
X203280000Y-92950000D01*
X203280000Y-92950000D02*
X204170000Y-93840000D01*
X203800000Y-96400000D02*
X202800000Y-97400000D01*
X201000000Y-93700000D02*
X202900000Y-93700000D01*
X204550000Y-94330000D02*
X204550000Y-96670000D01*
X199830000Y-97160000D02*
X200720000Y-98050000D01*
X199450000Y-94330000D02*
X199450000Y-96670000D01*
X204170000Y-97160000D02*
X203280000Y-98050000D01*
X203800000Y-94600000D02*
X203800000Y-96400000D01*
X200200000Y-94500000D02*
X201000000Y-93700000D01*
X201100000Y-97400000D02*
X200200000Y-96500000D01*
X200720000Y-92950000D02*
X199830000Y-93840000D01*
X202800000Y-97400000D02*
X201100000Y-97400000D01*
X203280000Y-95500000D02*
G75*
G03*
X203280000Y-95500000I-1280000J0D01*
G01*
D11*
X217772936Y-125735000D02*
X218227064Y-125735000D01*
X217772936Y-124265000D02*
X218227064Y-124265000D01*
X223312500Y-94040000D02*
X220627500Y-94040000D01*
X220627500Y-94040000D02*
X220627500Y-95960000D01*
X220627500Y-95960000D02*
X223312500Y-95960000D01*
X221738748Y-125735000D02*
X222261252Y-125735000D01*
X221738748Y-124265000D02*
X222261252Y-124265000D01*
X221460000Y-113435000D02*
X221460000Y-110750000D01*
X219540000Y-113435000D02*
X221460000Y-113435000D01*
X219540000Y-110750000D02*
X219540000Y-113435000D01*
X177311252Y-98915000D02*
X176788748Y-98915000D01*
X177311252Y-100385000D02*
X176788748Y-100385000D01*
X177688748Y-118735000D02*
X178211252Y-118735000D01*
X177688748Y-117265000D02*
X178211252Y-117265000D01*
D12*
X177330000Y-97160000D02*
X178220000Y-98050000D01*
X178600000Y-97400000D02*
X177700000Y-96500000D01*
X178220000Y-92950000D02*
X177330000Y-93840000D01*
X176950000Y-94330000D02*
X176950000Y-96670000D01*
X180780000Y-92950000D02*
X181670000Y-93840000D01*
X181300000Y-94600000D02*
X181300000Y-96400000D01*
X177700000Y-94500000D02*
X178500000Y-93700000D01*
X178220000Y-92950000D02*
X180780000Y-92950000D01*
X178220000Y-98050000D02*
X180780000Y-98050000D01*
X180300000Y-97400000D02*
X178600000Y-97400000D01*
X180400000Y-93700000D02*
X181300000Y-94600000D01*
X181670000Y-97160000D02*
X180780000Y-98050000D01*
X178500000Y-93700000D02*
X180400000Y-93700000D01*
X177700000Y-96500000D02*
X177700000Y-94500000D01*
X182050000Y-94330000D02*
X182050000Y-96670000D01*
X181300000Y-96400000D02*
X180300000Y-97400000D01*
X180780000Y-95500000D02*
G75*
G03*
X180780000Y-95500000I-1280000J0D01*
G01*
D10*
X174970000Y-101100000D02*
X179030000Y-101100000D01*
X179030000Y-101100000D02*
X179030000Y-102750000D01*
X174970000Y-104430000D02*
X174970000Y-101100000D01*
X179030000Y-104400000D02*
X174970000Y-104430000D01*
X174710000Y-104150000D02*
X174710000Y-104660000D01*
X179030000Y-104400000D02*
X179030000Y-104400000D01*
X174710000Y-104660000D02*
X175220000Y-104660000D01*
X179030000Y-102750000D02*
X179030000Y-104400000D01*
D11*
X208738748Y-94265000D02*
X209261252Y-94265000D01*
X208738748Y-95735000D02*
X209261252Y-95735000D01*
X212988748Y-95735000D02*
X213511252Y-95735000D01*
X212988748Y-94265000D02*
X213511252Y-94265000D01*
D12*
X167362500Y-117750000D02*
X167362500Y-108750000D01*
X167362500Y-108750000D02*
X168982500Y-108750000D01*
X167512500Y-117820000D02*
X168982500Y-117820000D01*
X170942500Y-108750000D02*
X172932500Y-108750000D01*
X170942500Y-117820000D02*
X172932500Y-117820000D01*
D11*
X231785000Y-78525000D02*
X232545000Y-78525000D01*
X186065000Y-78525000D02*
X186825000Y-78525000D01*
X183525000Y-78525000D02*
X184285000Y-78525000D01*
X208925000Y-87582071D02*
X208925000Y-87185000D01*
X232545000Y-78525000D02*
X232545000Y-84525000D01*
X180985000Y-87582071D02*
X180985000Y-87185000D01*
X202065000Y-87582071D02*
X202065000Y-87185000D01*
X230895000Y-87185000D02*
X230895000Y-84525000D01*
X229245000Y-87582071D02*
X229245000Y-87185000D01*
X193685000Y-87582071D02*
X193685000Y-87185000D01*
X221625000Y-87582071D02*
X221625000Y-87185000D01*
X236035000Y-87185000D02*
X236035000Y-84525000D01*
X189365000Y-87582071D02*
X189365000Y-87185000D01*
X228355000Y-87185000D02*
X228355000Y-84525000D01*
X201305000Y-78525000D02*
X202065000Y-78525000D01*
X191145000Y-84525000D02*
X191145000Y-78525000D01*
X189365000Y-78525000D02*
X189365000Y-84525000D01*
X221625000Y-84525000D02*
X221625000Y-78525000D01*
X191145000Y-78525000D02*
X191905000Y-78525000D01*
X196985000Y-78525000D02*
X196985000Y-84525000D01*
X227465000Y-87582071D02*
X227465000Y-87185000D01*
X193685000Y-84525000D02*
X193685000Y-78525000D01*
X188605000Y-87582071D02*
X188605000Y-87185000D01*
X177495000Y-84525000D02*
X177495000Y-87185000D01*
X219085000Y-78525000D02*
X219845000Y-78525000D01*
X204605000Y-78525000D02*
X204605000Y-84525000D01*
X223275000Y-87185000D02*
X223275000Y-84525000D01*
X199525000Y-78525000D02*
X199525000Y-84525000D01*
X178745000Y-84525000D02*
X178745000Y-78525000D01*
X195335000Y-87185000D02*
X195335000Y-84525000D01*
X179205000Y-87515000D02*
X179205000Y-87185000D01*
X188605000Y-78525000D02*
X189365000Y-78525000D01*
X191905000Y-78525000D02*
X191905000Y-84525000D01*
X191905000Y-87582071D02*
X191905000Y-87185000D01*
X217305000Y-78525000D02*
X217305000Y-84525000D01*
X203845000Y-78525000D02*
X204605000Y-78525000D01*
X214005000Y-84525000D02*
X214005000Y-78525000D01*
X178825000Y-89895000D02*
X177555000Y-89895000D01*
X224925000Y-87582071D02*
X224925000Y-87185000D01*
X196225000Y-78525000D02*
X196985000Y-78525000D01*
X219085000Y-87582071D02*
X219085000Y-87185000D01*
X212225000Y-87582071D02*
X212225000Y-87185000D01*
X234325000Y-78525000D02*
X235085000Y-78525000D01*
X180095000Y-87185000D02*
X180095000Y-84525000D01*
X235085000Y-87582071D02*
X235085000Y-87185000D01*
X224165000Y-87582071D02*
X224165000Y-87185000D01*
X178985000Y-84525000D02*
X178985000Y-78525000D01*
X197875000Y-87185000D02*
X197875000Y-84525000D01*
X226705000Y-87582071D02*
X226705000Y-87185000D01*
X214765000Y-78525000D02*
X214765000Y-84525000D01*
X220735000Y-87185000D02*
X220735000Y-84525000D01*
X198765000Y-84525000D02*
X198765000Y-78525000D01*
X207145000Y-87582071D02*
X207145000Y-87185000D01*
X178445000Y-84525000D02*
X178445000Y-78525000D01*
X218195000Y-87185000D02*
X218195000Y-84525000D01*
X216545000Y-84525000D02*
X216545000Y-78525000D01*
X230005000Y-87582071D02*
X230005000Y-87185000D01*
X196985000Y-87582071D02*
X196985000Y-87185000D01*
X224165000Y-84525000D02*
X224165000Y-78525000D01*
X230005000Y-78525000D02*
X230005000Y-84525000D01*
X231785000Y-87582071D02*
X231785000Y-87185000D01*
X208925000Y-78525000D02*
X209685000Y-78525000D01*
X200415000Y-87185000D02*
X200415000Y-84525000D01*
X194445000Y-87582071D02*
X194445000Y-87185000D01*
X178865000Y-84525000D02*
X178865000Y-78525000D01*
X198765000Y-87582071D02*
X198765000Y-87185000D01*
X198765000Y-78525000D02*
X199525000Y-78525000D01*
X180985000Y-84525000D02*
X180985000Y-78525000D01*
X178445000Y-87515000D02*
X178445000Y-87185000D01*
X183525000Y-87582071D02*
X183525000Y-87185000D01*
X203845000Y-87582071D02*
X203845000Y-87185000D01*
X224165000Y-78525000D02*
X224925000Y-78525000D01*
X199525000Y-87582071D02*
X199525000Y-87185000D01*
X212225000Y-78525000D02*
X212225000Y-84525000D01*
X181745000Y-87582071D02*
X181745000Y-87185000D01*
X181745000Y-78525000D02*
X181745000Y-84525000D01*
X234325000Y-87582071D02*
X234325000Y-87185000D01*
X211465000Y-78525000D02*
X212225000Y-78525000D01*
X226705000Y-84525000D02*
X226705000Y-78525000D01*
X179105000Y-84525000D02*
X179105000Y-78525000D01*
X225815000Y-87185000D02*
X225815000Y-84525000D01*
X211465000Y-84525000D02*
X211465000Y-78525000D01*
X187715000Y-87185000D02*
X187715000Y-84525000D01*
X236035000Y-84525000D02*
X177495000Y-84525000D01*
X180985000Y-78525000D02*
X181745000Y-78525000D01*
X211465000Y-87582071D02*
X211465000Y-87185000D01*
X222385000Y-87582071D02*
X222385000Y-87185000D01*
X208035000Y-87185000D02*
X208035000Y-84525000D01*
X214005000Y-78525000D02*
X214765000Y-78525000D01*
X188605000Y-84525000D02*
X188605000Y-78525000D01*
X182635000Y-87185000D02*
X182635000Y-84525000D01*
X224925000Y-78525000D02*
X224925000Y-84525000D01*
X191145000Y-87582071D02*
X191145000Y-87185000D01*
X210575000Y-87185000D02*
X210575000Y-84525000D01*
X178625000Y-84525000D02*
X178625000Y-78525000D01*
X190255000Y-87185000D02*
X190255000Y-84525000D01*
X201305000Y-84525000D02*
X201305000Y-78525000D01*
X206385000Y-87582071D02*
X206385000Y-87185000D01*
X209685000Y-78525000D02*
X209685000Y-84525000D01*
X177495000Y-87185000D02*
X236035000Y-87185000D01*
X214005000Y-87582071D02*
X214005000Y-87185000D01*
X185175000Y-87185000D02*
X185175000Y-84525000D01*
X222385000Y-78525000D02*
X222385000Y-84525000D01*
X203845000Y-84525000D02*
X203845000Y-78525000D01*
X206385000Y-78525000D02*
X207145000Y-78525000D01*
X213115000Y-87185000D02*
X213115000Y-84525000D01*
X219845000Y-87582071D02*
X219845000Y-87185000D01*
X232545000Y-87582071D02*
X232545000Y-87185000D01*
X217305000Y-87582071D02*
X217305000Y-87185000D01*
X177555000Y-89895000D02*
X177555000Y-88625000D01*
X201305000Y-87582071D02*
X201305000Y-87185000D01*
X205495000Y-87185000D02*
X205495000Y-84525000D01*
X234325000Y-84525000D02*
X234325000Y-78525000D01*
X178445000Y-78525000D02*
X179205000Y-78525000D01*
X216545000Y-87582071D02*
X216545000Y-87185000D01*
X216545000Y-78525000D02*
X217305000Y-78525000D01*
X215655000Y-87185000D02*
X215655000Y-84525000D01*
X192795000Y-87185000D02*
X192795000Y-84525000D01*
X208925000Y-84525000D02*
X208925000Y-78525000D01*
X219845000Y-78525000D02*
X219845000Y-84525000D01*
X227465000Y-78525000D02*
X227465000Y-84525000D01*
X186825000Y-87582071D02*
X186825000Y-87185000D01*
X202955000Y-87185000D02*
X202955000Y-84525000D01*
X206385000Y-84525000D02*
X206385000Y-78525000D01*
X214765000Y-87582071D02*
X214765000Y-87185000D01*
X183525000Y-84525000D02*
X183525000Y-78525000D01*
X196225000Y-84525000D02*
X196225000Y-78525000D01*
X231785000Y-84525000D02*
X231785000Y-78525000D01*
X209685000Y-87582071D02*
X209685000Y-87185000D01*
X233435000Y-87185000D02*
X233435000Y-84525000D01*
X193685000Y-78525000D02*
X194445000Y-78525000D01*
X186825000Y-78525000D02*
X186825000Y-84525000D01*
X229245000Y-84525000D02*
X229245000Y-78525000D01*
X221625000Y-78525000D02*
X222385000Y-78525000D01*
X219085000Y-84525000D02*
X219085000Y-78525000D01*
X194445000Y-78525000D02*
X194445000Y-84525000D01*
X179205000Y-78525000D02*
X179205000Y-84525000D01*
X229245000Y-78525000D02*
X230005000Y-78525000D01*
X202065000Y-78525000D02*
X202065000Y-84525000D01*
X235085000Y-78525000D02*
X235085000Y-84525000D01*
X196225000Y-87582071D02*
X196225000Y-87185000D01*
X186065000Y-87582071D02*
X186065000Y-87185000D01*
X204605000Y-87582071D02*
X204605000Y-87185000D01*
X178505000Y-84525000D02*
X178505000Y-78525000D01*
X207145000Y-78525000D02*
X207145000Y-84525000D01*
X184285000Y-78525000D02*
X184285000Y-84525000D01*
X226705000Y-78525000D02*
X227465000Y-78525000D01*
X184285000Y-87582071D02*
X184285000Y-87185000D01*
X186065000Y-84525000D02*
X186065000Y-78525000D01*
X176515000Y-111227064D02*
X176515000Y-110772936D01*
X177985000Y-111227064D02*
X177985000Y-110772936D01*
X169945000Y-104400000D02*
X172605000Y-104400000D01*
X172605000Y-96720000D02*
X172605000Y-104400000D01*
X171275000Y-94120000D02*
X172605000Y-94120000D01*
X172605000Y-94120000D02*
X172605000Y-95450000D01*
X169945000Y-96720000D02*
X169945000Y-104400000D01*
X169945000Y-96720000D02*
X172605000Y-96720000D01*
X225772936Y-125735000D02*
X226227064Y-125735000D01*
X225772936Y-124265000D02*
X226227064Y-124265000D01*
X217488748Y-94265000D02*
X218011252Y-94265000D01*
X217488748Y-95735000D02*
X218011252Y-95735000D01*
X188910000Y-109590000D02*
X188910000Y-110850000D01*
X188910000Y-116410000D02*
X188910000Y-115150000D01*
X182900000Y-109590000D02*
X188910000Y-109590000D01*
X185150000Y-116410000D02*
X188910000Y-116410000D01*
D10*
X178470000Y-113270000D02*
X178470000Y-114730000D01*
X178470000Y-114730000D02*
X179510000Y-114730000D01*
X181530000Y-113270000D02*
X181530000Y-114730000D01*
X181530000Y-114730000D02*
X180490000Y-114730000D01*
X179540000Y-113270000D02*
X180460000Y-113270000D01*
D11*
X243735000Y-104772936D02*
X243735000Y-105227064D01*
X242265000Y-104772936D02*
X242265000Y-105227064D01*
X183272936Y-90765000D02*
X183727064Y-90765000D01*
X183272936Y-92235000D02*
X183727064Y-92235000D01*
%LPC*%
D14*
X178000000Y-125912500D03*
X178000000Y-124087500D03*
D15*
X189650000Y-125800000D03*
X189650000Y-119200000D03*
X193350000Y-125800000D03*
X193350000Y-119200000D03*
D16*
X191200000Y-100510000D03*
X189930000Y-100510000D03*
X188660000Y-100510000D03*
X187380000Y-100510000D03*
X186120000Y-100510000D03*
X184850000Y-100510000D03*
X183580000Y-100510000D03*
X182310000Y-100510000D03*
X182310000Y-105990000D03*
X183580000Y-105990000D03*
X184850000Y-105990000D03*
X186120000Y-105990000D03*
X187380000Y-105990000D03*
X188660000Y-105990000D03*
X189930000Y-105990000D03*
X191200000Y-105990000D03*
D17*
X220125000Y-99225000D03*
D18*
X222665000Y-99225000D03*
X225205000Y-99225000D03*
X227745000Y-99225000D03*
X230285000Y-99225000D03*
X232825000Y-99225000D03*
X235365000Y-99225000D03*
X237905000Y-99225000D03*
D19*
X172500000Y-88250000D03*
D20*
X179050000Y-110000000D03*
X180950000Y-110000000D03*
X180000000Y-108000000D03*
D21*
X239000000Y-112687500D03*
X239000000Y-110812500D03*
D22*
X235150000Y-125000000D03*
X233250000Y-125000000D03*
D23*
X178000000Y-121950000D03*
X178000000Y-120050000D03*
D24*
X187700000Y-93650000D03*
X194300000Y-93650000D03*
X187700000Y-97350000D03*
X194300000Y-97350000D03*
D25*
X187000000Y-123950000D03*
X187000000Y-122050000D03*
D14*
X177000000Y-115912500D03*
X177000000Y-114087500D03*
D26*
X174150000Y-106250000D03*
X172250000Y-106250000D03*
D27*
X226087500Y-95000000D03*
X227912500Y-95000000D03*
D19*
X172500000Y-123750000D03*
D15*
X180650000Y-125800000D03*
X180650000Y-119200000D03*
X184350000Y-125800000D03*
X184350000Y-119200000D03*
D28*
X215000000Y-119500000D03*
X215000000Y-118230000D03*
X215000000Y-116960000D03*
X215000000Y-115690000D03*
X215000000Y-114420000D03*
X215000000Y-113150000D03*
X215000000Y-111880000D03*
X215000000Y-110610000D03*
X215000000Y-109340000D03*
X215000000Y-108070000D03*
X215000000Y-106800000D03*
X215000000Y-105530000D03*
X215000000Y-104260000D03*
X215000000Y-102990000D03*
D29*
X211710000Y-101500000D03*
X210440000Y-101500000D03*
X209170000Y-101500000D03*
X207900000Y-101500000D03*
X206630000Y-101500000D03*
X205360000Y-101500000D03*
X204090000Y-101500000D03*
X202820000Y-101500000D03*
X201550000Y-101500000D03*
X200280000Y-101500000D03*
D28*
X197000000Y-102990000D03*
X197000000Y-104260000D03*
X197000000Y-105530000D03*
X197000000Y-106800000D03*
X197000000Y-108070000D03*
X197000000Y-109340000D03*
X197000000Y-110610000D03*
X197000000Y-111880000D03*
X197000000Y-113150000D03*
X197000000Y-114420000D03*
X197000000Y-115690000D03*
X197000000Y-116960000D03*
X197000000Y-118230000D03*
X197000000Y-119500000D03*
D30*
X207000000Y-112000000D03*
X205160000Y-110170000D03*
X208840000Y-112000000D03*
X208840000Y-110170000D03*
X205160000Y-113840000D03*
X207000000Y-110170000D03*
X208840000Y-113840000D03*
X205160000Y-112000000D03*
X207000000Y-113840000D03*
D22*
X229050000Y-125000000D03*
X230950000Y-125000000D03*
D24*
X198700000Y-93650000D03*
X205300000Y-93650000D03*
X198700000Y-97350000D03*
X205300000Y-97350000D03*
D27*
X217087500Y-125000000D03*
X218912500Y-125000000D03*
D31*
X221375000Y-95000000D03*
X223250000Y-95000000D03*
D22*
X221050000Y-125000000D03*
X222950000Y-125000000D03*
D21*
X220500000Y-112687500D03*
X220500000Y-110812500D03*
D26*
X178000000Y-99650000D03*
X176100000Y-99650000D03*
D22*
X177000000Y-118000000D03*
X178900000Y-118000000D03*
D24*
X176200000Y-93650000D03*
X182800000Y-93650000D03*
X176200000Y-97350000D03*
X182800000Y-97350000D03*
D32*
X175900000Y-103630000D03*
X178100000Y-103630000D03*
X178100000Y-101870000D03*
X175900000Y-101870000D03*
D22*
X209950000Y-95000000D03*
X208050000Y-95000000D03*
X212300000Y-95000000D03*
X214200000Y-95000000D03*
D33*
X173632500Y-116140000D03*
X173632500Y-110360000D03*
D34*
X174712500Y-110050000D03*
X174712500Y-110850000D03*
D35*
X174712500Y-111500000D03*
X174712500Y-112000000D03*
X174712500Y-112500000D03*
X174712500Y-113000000D03*
X174712500Y-113500000D03*
X174712500Y-114000000D03*
X174712500Y-114500000D03*
X174712500Y-115000000D03*
D34*
X174712500Y-115650000D03*
X174712500Y-116450000D03*
D36*
X174162500Y-108930000D03*
D37*
X169952500Y-108930000D03*
X169952500Y-117570000D03*
D36*
X174162500Y-117570000D03*
D17*
X178825000Y-88625000D03*
D18*
X181365000Y-88625000D03*
X183905000Y-88625000D03*
X186445000Y-88625000D03*
X188985000Y-88625000D03*
X191525000Y-88625000D03*
X194065000Y-88625000D03*
X196605000Y-88625000D03*
X199145000Y-88625000D03*
X201685000Y-88625000D03*
X204225000Y-88625000D03*
X206765000Y-88625000D03*
X209305000Y-88625000D03*
X211845000Y-88625000D03*
X214385000Y-88625000D03*
X216925000Y-88625000D03*
X219465000Y-88625000D03*
X222005000Y-88625000D03*
X224545000Y-88625000D03*
X227085000Y-88625000D03*
X229625000Y-88625000D03*
X232165000Y-88625000D03*
X234705000Y-88625000D03*
D19*
X241000000Y-88250000D03*
D14*
X177250000Y-111912500D03*
X177250000Y-110087500D03*
D17*
X171275000Y-95450000D03*
D18*
X171275000Y-97990000D03*
X171275000Y-100530000D03*
X171275000Y-103070000D03*
D27*
X225087500Y-125000000D03*
X226912500Y-125000000D03*
D22*
X216800000Y-95000000D03*
X218700000Y-95000000D03*
D38*
X183850000Y-110700000D03*
D39*
X190150000Y-113000000D03*
D38*
X183850000Y-113000000D03*
X183850000Y-115300000D03*
D20*
X180950000Y-113000000D03*
X179050000Y-113000000D03*
X180000000Y-115000000D03*
D19*
X241000000Y-123750000D03*
D40*
X243000000Y-104087500D03*
X243000000Y-105912500D03*
D27*
X182587500Y-91500000D03*
X184412500Y-91500000D03*
M02*
