M48
; DRILL file {KiCad (6.0.0)} date Tue May  3 02:07:38 2022
; FORMAT={-:-/ absolute / metric / decimal}
; #@! TF.CreationDate,2022-05-03T02:07:38-05:00
; #@! TF.GenerationSoftware,Kicad,Pcbnew,(6.0.0)
; #@! TF.FileFunction,Plated,1,2,PTH
FMAT,2
METRIC
; #@! TA.AperFunction,Plated,PTH,ViaDrill
T1C0.400
; #@! TA.AperFunction,Plated,PTH,ComponentDrill
T2C0.700
; #@! TA.AperFunction,Plated,PTH,ComponentDrill
T3C0.800
; #@! TA.AperFunction,Plated,PTH,ComponentDrill
T4C1.000
%
G90
G05
T1
X172.0Y-112.0
X174.5Y-98.5
X174.5Y-101.25
X176.0Y-91.5
X177.0Y-95.0
X178.0Y-115.0
X178.6Y-111.625
X178.75Y-108.0
X179.0Y-97.5
X180.0Y-103.25
X180.0Y-118.0
X180.25Y-98.5
X181.216Y-96.784
X182.0Y-115.0
X185.0Y-93.0
X185.935Y-118.935
X186.25Y-109.5
X187.0Y-121.0
X187.75Y-91.0
X188.0Y-95.0
X190.0Y-123.0
X190.053Y-102.447
X190.25Y-95.25
X190.75Y-124.5
X191.032Y-102.243
X192.0Y-123.75
X192.012Y-97.988
X192.012Y-120.988
X192.14Y-113.86
X193.012Y-98.988
X193.278Y-113.972
X194.012Y-99.988
X194.25Y-113.5
X194.25Y-121.5
X196.0Y-101.0
X199.0Y-95.0
X199.0Y-111.0
X199.0Y-118.0
X199.0Y-120.5
X200.0Y-112.0
X200.125Y-117.9
X201.0Y-114.0
X201.0Y-119.75
X201.98Y-99.974
X202.0Y-105.0
X203.0Y-104.0
X204.75Y-115.5
X206.0Y-106.0
X207.0Y-108.0
X209.25Y-106.25
X211.5Y-109.75
X211.738Y-103.238
X212.0Y-107.25
X215.5Y-124.5
X215.738Y-121.238
X217.0Y-107.0
X217.0Y-119.0
X218.0Y-117.0
X219.012Y-106.012
X219.5Y-114.0
X220.25Y-125.0
X221.0Y-107.0
X222.25Y-110.75
X223.0Y-101.0
X224.25Y-114.25
X225.0Y-102.0
X228.0Y-115.75
X229.065Y-107.065
X231.0Y-102.0
X231.0Y-106.0
X232.0Y-96.0
X232.0Y-98.0
X232.0Y-105.0
X232.5Y-120.5
X237.512Y-95.488
T2
X173.632Y-110.36
X173.632Y-116.14
T4
X171.275Y-95.45
X171.275Y-97.99
X171.275Y-100.53
X171.275Y-103.07
X178.825Y-88.625
X181.365Y-88.625
X183.905Y-88.625
X186.445Y-88.625
X188.985Y-88.625
X191.525Y-88.625
X194.065Y-88.625
X196.605Y-88.625
X199.145Y-88.625
X201.685Y-88.625
X204.225Y-88.625
X206.765Y-88.625
X209.305Y-88.625
X211.845Y-88.625
X214.385Y-88.625
X216.925Y-88.625
X219.465Y-88.625
X220.125Y-99.225
X222.005Y-88.625
X222.665Y-99.225
X224.545Y-88.625
X225.205Y-99.225
X227.085Y-88.625
X227.745Y-99.225
X229.625Y-88.625
X230.285Y-99.225
X232.165Y-88.625
X232.825Y-99.225
X234.705Y-88.625
X235.365Y-99.225
X237.905Y-99.225
T3
X170.052Y-108.93G85X169.852Y-108.93
G05
X170.052Y-117.57G85X169.852Y-117.57
G05
X174.462Y-108.93G85X173.863Y-108.93
G05
X174.462Y-117.57G85X173.863Y-117.57
G05
T0
M30
