%TF.GenerationSoftware,KiCad,Pcbnew,(6.0.0)*%
%TF.CreationDate,2022-05-03T02:05:07-05:00*%
%TF.ProjectId,Materiales ESP32,4d617465-7269-4616-9c65-732045535033,rev?*%
%TF.SameCoordinates,Original*%
%TF.FileFunction,Paste,Top*%
%TF.FilePolarity,Positive*%
%FSLAX46Y46*%
G04 Gerber Fmt 4.6, Leading zero omitted, Abs format (unit mm)*
G04 Created by KiCad (PCBNEW (6.0.0)) date 2022-05-03 02:05:07*
%MOMM*%
%LPD*%
G01*
G04 APERTURE LIST*
G04 Aperture macros list*
%AMRoundRect*
0 Rectangle with rounded corners*
0 $1 Rounding radius*
0 $2 $3 $4 $5 $6 $7 $8 $9 X,Y pos of 4 corners*
0 Add a 4 corners polygon primitive as box body*
4,1,4,$2,$3,$4,$5,$6,$7,$8,$9,$2,$3,0*
0 Add four circle primitives for the rounded corners*
1,1,$1+$1,$2,$3*
1,1,$1+$1,$4,$5*
1,1,$1+$1,$6,$7*
1,1,$1+$1,$8,$9*
0 Add four rect primitives between the rounded corners*
20,1,$1+$1,$2,$3,$4,$5,0*
20,1,$1+$1,$4,$5,$6,$7,0*
20,1,$1+$1,$6,$7,$8,$9,0*
20,1,$1+$1,$8,$9,$2,$3,0*%
G04 Aperture macros list end*
%ADD10RoundRect,0.250000X0.450000X-0.262500X0.450000X0.262500X-0.450000X0.262500X-0.450000X-0.262500X0*%
%ADD11R,1.000000X1.700000*%
%ADD12O,0.600000X1.970000*%
%ADD13R,0.700000X1.250000*%
%ADD14RoundRect,0.243750X0.456250X-0.243750X0.456250X0.243750X-0.456250X0.243750X-0.456250X-0.243750X0*%
%ADD15RoundRect,0.250000X-0.250000X-0.475000X0.250000X-0.475000X0.250000X0.475000X-0.250000X0.475000X0*%
%ADD16RoundRect,0.250000X-0.475000X0.250000X-0.475000X-0.250000X0.475000X-0.250000X0.475000X0.250000X0*%
%ADD17R,1.700000X1.000000*%
%ADD18RoundRect,0.250000X0.475000X-0.250000X0.475000X0.250000X-0.475000X0.250000X-0.475000X-0.250000X0*%
%ADD19RoundRect,0.250000X0.250000X0.475000X-0.250000X0.475000X-0.250000X-0.475000X0.250000X-0.475000X0*%
%ADD20RoundRect,0.250000X-0.262500X-0.450000X0.262500X-0.450000X0.262500X0.450000X-0.262500X0.450000X0*%
%ADD21R,2.100000X0.950000*%
%ADD22R,0.950000X2.100000*%
%ADD23R,1.330000X1.330000*%
%ADD24RoundRect,0.243750X-0.243750X-0.456250X0.243750X-0.456250X0.243750X0.456250X-0.243750X0.456250X0*%
%ADD25R,1.400000X1.200000*%
%ADD26R,1.100000X0.600000*%
%ADD27R,1.100000X0.300000*%
%ADD28O,2.000000X1.200000*%
%ADD29O,1.500000X1.200000*%
%ADD30R,2.000000X1.500000*%
%ADD31R,2.000000X3.800000*%
%ADD32RoundRect,0.250000X-0.450000X0.262500X-0.450000X-0.262500X0.450000X-0.262500X0.450000X0.262500X0*%
G04 APERTURE END LIST*
D10*
%TO.C,R108*%
X178000000Y-125912500D03*
X178000000Y-124087500D03*
%TD*%
D11*
%TO.C,SW106*%
X189650000Y-125800000D03*
X189650000Y-119200000D03*
X193350000Y-125800000D03*
X193350000Y-119200000D03*
%TD*%
D12*
%TO.C,U102*%
X191200000Y-100510000D03*
X189930000Y-100510000D03*
X188660000Y-100510000D03*
X187380000Y-100510000D03*
X186120000Y-100510000D03*
X184850000Y-100510000D03*
X183580000Y-100510000D03*
X182310000Y-100510000D03*
X182310000Y-105990000D03*
X183580000Y-105990000D03*
X184850000Y-105990000D03*
X186120000Y-105990000D03*
X187380000Y-105990000D03*
X188660000Y-105990000D03*
X189930000Y-105990000D03*
X191200000Y-105990000D03*
%TD*%
D13*
%TO.C,Q102*%
X179050000Y-110000000D03*
X180950000Y-110000000D03*
X180000000Y-108000000D03*
%TD*%
D14*
%TO.C,D103*%
X239000000Y-112687500D03*
X239000000Y-110812500D03*
%TD*%
D15*
%TO.C,C106*%
X235150000Y-125000000D03*
X233250000Y-125000000D03*
%TD*%
D16*
%TO.C,C109*%
X178000000Y-121950000D03*
X178000000Y-120050000D03*
%TD*%
D17*
%TO.C,SW102*%
X187700000Y-93650000D03*
X194300000Y-93650000D03*
X187700000Y-97350000D03*
X194300000Y-97350000D03*
%TD*%
D18*
%TO.C,C110*%
X187000000Y-123950000D03*
X187000000Y-122050000D03*
%TD*%
D10*
%TO.C,R104*%
X177000000Y-115912500D03*
X177000000Y-114087500D03*
%TD*%
D19*
%TO.C,C103*%
X174150000Y-106250000D03*
X172250000Y-106250000D03*
%TD*%
D20*
%TO.C,R101*%
X226087500Y-95000000D03*
X227912500Y-95000000D03*
%TD*%
D11*
%TO.C,SW107*%
X180650000Y-125800000D03*
X180650000Y-119200000D03*
X184350000Y-125800000D03*
X184350000Y-119200000D03*
%TD*%
D21*
%TO.C,U103*%
X215000000Y-119500000D03*
X215000000Y-118230000D03*
X215000000Y-116960000D03*
X215000000Y-115690000D03*
X215000000Y-114420000D03*
X215000000Y-113150000D03*
X215000000Y-111880000D03*
X215000000Y-110610000D03*
X215000000Y-109340000D03*
X215000000Y-108070000D03*
X215000000Y-106800000D03*
X215000000Y-105530000D03*
X215000000Y-104260000D03*
X215000000Y-102990000D03*
D22*
X211710000Y-101500000D03*
X210440000Y-101500000D03*
X209170000Y-101500000D03*
X207900000Y-101500000D03*
X206630000Y-101500000D03*
X205360000Y-101500000D03*
X204090000Y-101500000D03*
X202820000Y-101500000D03*
X201550000Y-101500000D03*
X200280000Y-101500000D03*
D21*
X197000000Y-102990000D03*
X197000000Y-104260000D03*
X197000000Y-105530000D03*
X197000000Y-106800000D03*
X197000000Y-108070000D03*
X197000000Y-109340000D03*
X197000000Y-110610000D03*
X197000000Y-111880000D03*
X197000000Y-113150000D03*
X197000000Y-114420000D03*
X197000000Y-115690000D03*
X197000000Y-116960000D03*
X197000000Y-118230000D03*
X197000000Y-119500000D03*
D23*
X207000000Y-112000000D03*
X205160000Y-110170000D03*
X208840000Y-112000000D03*
X208840000Y-110170000D03*
X205160000Y-113840000D03*
X207000000Y-110170000D03*
X208840000Y-113840000D03*
X205160000Y-112000000D03*
X207000000Y-113840000D03*
%TD*%
D15*
%TO.C,C102*%
X229050000Y-125000000D03*
X230950000Y-125000000D03*
%TD*%
D17*
%TO.C,SW103*%
X198700000Y-93650000D03*
X205300000Y-93650000D03*
X198700000Y-97350000D03*
X205300000Y-97350000D03*
%TD*%
D20*
%TO.C,R107*%
X217087500Y-125000000D03*
X218912500Y-125000000D03*
%TD*%
D24*
%TO.C,D101*%
X221375000Y-95000000D03*
X223250000Y-95000000D03*
%TD*%
D15*
%TO.C,C108*%
X221050000Y-125000000D03*
X222950000Y-125000000D03*
%TD*%
D14*
%TO.C,D102*%
X220500000Y-112687500D03*
X220500000Y-110812500D03*
%TD*%
D19*
%TO.C,C105*%
X178000000Y-99650000D03*
X176100000Y-99650000D03*
%TD*%
D15*
%TO.C,C111*%
X177000000Y-118000000D03*
X178900000Y-118000000D03*
%TD*%
D17*
%TO.C,SW101*%
X176200000Y-93650000D03*
X182800000Y-93650000D03*
X176200000Y-97350000D03*
X182800000Y-97350000D03*
%TD*%
D25*
%TO.C,X101*%
X175900000Y-103630000D03*
X178100000Y-103630000D03*
X178100000Y-101870000D03*
X175900000Y-101870000D03*
%TD*%
D15*
%TO.C,C104*%
X209950000Y-95000000D03*
X208050000Y-95000000D03*
%TD*%
%TO.C,C101*%
X212300000Y-95000000D03*
X214200000Y-95000000D03*
%TD*%
D26*
%TO.C,USB101*%
X174712500Y-110050000D03*
X174712500Y-110850000D03*
D27*
X174712500Y-111500000D03*
X174712500Y-112000000D03*
X174712500Y-112500000D03*
X174712500Y-113000000D03*
X174712500Y-113500000D03*
X174712500Y-114000000D03*
X174712500Y-114500000D03*
X174712500Y-115000000D03*
D26*
X174712500Y-115650000D03*
X174712500Y-116450000D03*
D28*
X174162500Y-108930000D03*
D29*
X169952500Y-108930000D03*
X169952500Y-117570000D03*
D28*
X174162500Y-117570000D03*
%TD*%
D10*
%TO.C,R105*%
X177250000Y-111912500D03*
X177250000Y-110087500D03*
%TD*%
D20*
%TO.C,R102*%
X225087500Y-125000000D03*
X226912500Y-125000000D03*
%TD*%
D15*
%TO.C,C107*%
X216800000Y-95000000D03*
X218700000Y-95000000D03*
%TD*%
D30*
%TO.C,U101*%
X183850000Y-110700000D03*
D31*
X190150000Y-113000000D03*
D30*
X183850000Y-113000000D03*
X183850000Y-115300000D03*
%TD*%
D13*
%TO.C,Q101*%
X180950000Y-113000000D03*
X179050000Y-113000000D03*
X180000000Y-115000000D03*
%TD*%
D32*
%TO.C,R103*%
X243000000Y-104087500D03*
X243000000Y-105912500D03*
%TD*%
D20*
%TO.C,R106*%
X182587500Y-91500000D03*
X184412500Y-91500000D03*
%TD*%
M02*
