M48
; DRILL file {KiCad (6.0.0)} date Tue May  3 02:05:08 2022
; FORMAT={-:-/ absolute / inch / decimal}
; #@! TF.CreationDate,2022-05-03T02:05:08-05:00
; #@! TF.GenerationSoftware,Kicad,Pcbnew,(6.0.0)
; #@! TF.FileFunction,Plated,1,2,PTH
FMAT,2
INCH
; #@! TA.AperFunction,Plated,PTH,ViaDrill
T1C0.0157
; #@! TA.AperFunction,Plated,PTH,ComponentDrill
T2C0.0276
; #@! TA.AperFunction,Plated,PTH,ComponentDrill
T3C0.0315
; #@! TA.AperFunction,Plated,PTH,ComponentDrill
T4C0.0394
%
G90
G05
T1
X6.7717Y-4.4094
X6.8701Y-3.878
X6.8701Y-3.9862
X6.9291Y-3.6024
X6.9685Y-3.7402
X7.0079Y-4.5276
X7.0315Y-4.3947
X7.0374Y-4.252
X7.0472Y-3.8386
X7.0866Y-4.065
X7.0866Y-4.6457
X7.0965Y-3.878
X7.1345Y-3.8104
X7.1654Y-4.5276
X7.2835Y-3.6614
X7.3203Y-4.6825
X7.3327Y-4.311
X7.3622Y-4.7638
X7.3917Y-3.5827
X7.4016Y-3.7402
X7.4803Y-4.8425
X7.4824Y-4.0333
X7.4902Y-3.75
X7.5098Y-4.9016
X7.5209Y-4.0253
X7.5591Y-4.872
X7.5595Y-3.8578
X7.5595Y-4.7633
X7.5646Y-4.4827
X7.5989Y-3.8972
X7.6094Y-4.4871
X7.6383Y-3.9365
X7.6476Y-4.4685
X7.6476Y-4.7835
X7.7165Y-3.9764
X7.8346Y-3.7402
X7.8346Y-4.3701
X7.8346Y-4.6457
X7.8346Y-4.7441
X7.874Y-4.4094
X7.8789Y-4.6417
X7.9134Y-4.4882
X7.9134Y-4.7146
X7.952Y-3.936
X7.9528Y-4.1339
X7.9921Y-4.0945
X8.061Y-4.5472
X8.1102Y-4.1732
X8.1496Y-4.252
X8.2382Y-4.1831
X8.3268Y-4.3209
X8.3361Y-4.0645
X8.3465Y-4.2224
X8.4843Y-4.9016
X8.4936Y-4.7731
X8.5433Y-4.2126
X8.5433Y-4.685
X8.5827Y-4.6063
X8.6225Y-4.1737
X8.6417Y-4.4882
X8.6713Y-4.9213
X8.7008Y-4.2126
X8.75Y-4.3602
X8.7795Y-3.9764
X8.8287Y-4.498
X8.8583Y-4.0157
X8.9764Y-4.5571
X9.0183Y-4.2152
X9.0945Y-4.0157
X9.0945Y-4.1732
X9.1339Y-3.7795
X9.1339Y-3.8583
X9.1339Y-4.1339
X9.1535Y-4.7441
X9.3509Y-3.7594
T2
X6.8359Y-4.3449
X6.8359Y-4.5724
T4
X6.7431Y-3.7579
X6.7431Y-3.8579
X6.7431Y-3.9579
X6.7431Y-4.0579
X7.0404Y-3.4892
X7.1404Y-3.4892
X7.2404Y-3.4892
X7.3404Y-3.4892
X7.4404Y-3.4892
X7.5404Y-3.4892
X7.6404Y-3.4892
X7.7404Y-3.4892
X7.8404Y-3.4892
X7.9404Y-3.4892
X8.0404Y-3.4892
X8.1404Y-3.4892
X8.2404Y-3.4892
X8.3404Y-3.4892
X8.4404Y-3.4892
X8.5404Y-3.4892
X8.6404Y-3.4892
X8.6663Y-3.9065
X8.7404Y-3.4892
X8.7663Y-3.9065
X8.8404Y-3.4892
X8.8663Y-3.9065
X8.9404Y-3.4892
X8.9663Y-3.9065
X9.0404Y-3.4892
X9.0663Y-3.9065
X9.1404Y-3.4892
X9.1663Y-3.9065
X9.2404Y-3.4892
X9.2663Y-3.9065
X9.3663Y-3.9065
T3
G00X6.695Y-4.2886
M15
G01X6.6871Y-4.2886
M16
G05
G00X6.695Y-4.6287
M15
G01X6.6871Y-4.6287
M16
G05
G00X6.8686Y-4.2886
M15
G01X6.845Y-4.2886
M16
G05
G00X6.8686Y-4.6287
M15
G01X6.845Y-4.6287
M16
G05
T0
M30
